<svg width="404" height="464" fill="none" xmlns="http://www.w3.org/2000/svg"><style>@keyframes coin-one{0%{transform:translate(0,0)}50%{transform:translate(0,-30px)}80%{transform:translate(0,-10px)}}@keyframes coin-two{0%{transform:translate(0,0)}50%{transform:translate(0,-30px)}80%{transform:translate(0,-10px)}}@keyframes coin-three{0%{transform:translate(0,0)}50%{transform:translate(0,-40px)}80%{transform:translate(0,-10px)}}@keyframes coin-four{0%{transform:translate(0,0)}50%{transform:translate(0,30px)}80%{transform:translate(0,-10px)}}.coin-one{animation:coin-one 10s linear infinite alternate;animation-delay:.2s}.coin-two{animation:coin-two 6s linear infinite alternate;animation-delay:.5s}.coin-three{animation:coin-three 7s linear infinite alternate;animation-delay:.4s}.coin-four{animation:coin-four 8s linear infinite alternate;animation-delay:.3s}</style><path class="coin-two" d="M353.503 274.877c.289 4.156.94 7.862 1.772 11.342l1.5 20.528 7.783-.563c6.702-1.061 13.168-14.454 11.762-32.98-1.279-18.499-9.568-30.853-16.43-30.883l-7.783.563 1.5 20.527c-.232 3.515-.393 7.31-.104 11.466Z" fill="url(#paint0_linear_272_1982)"/><path class="coin-two" d="M356.63 308.035c-.631-.136-1.054-.624-1.044-1.282l-1.5-20.527c-.986-3.382-1.582-7.34-1.772-11.343-.316-4.029-.254-7.977.159-11.717l-1.429-20.248c-.044-.406.164-.757.345-.982.18-.225.613-.396.893-.467l7.783-.563c.126.027.28-.072.379.081 7.339.266 16.034 12.576 17.473 32.165 1.44 19.59-5.432 33.027-12.72 34.357-.126-.027-.28.072-.406.045l-7.783.563-.378-.082Zm-2.947-63.887 1.395 19.184a54.247 54.247 0 0 0-.104 11.466 53.504 53.504 0 0 0 1.826 11.09l1.467 19.464 6.313-.485.126.027c6.017-.945 11.895-14.068 10.65-31.503-1.245-17.435-8.931-29.527-15.107-29.673l-.126-.027-6.44.457Z" fill="#fff"/><path class="coin-two" d="M370.275 301.741c.542-.676.958-1.378 1.374-2.08l-15.16 1.082.095 2.001 13.691-1.003Zm-16.699-36.356 21.347-1.594c-.116-.685-.358-1.398-.501-1.957l-20.662 1.478-.027.127c-.137.63-.147 1.288-.157 1.946Zm21.926 1.832c-.116-.685-.232-1.37-.375-1.929l-21.726 1.512-.031 1.974 22.132-1.557Zm-5.765-16.695c-.395-.613-.763-1.353-1.285-1.994l-15.846 1.198.095 2.002 17.036-1.206Zm6.218 20.094c-.116-.685-.106-1.343-.221-2.028l-22.285 1.656-.031 1.974 22.537-1.602Zm-8.42-23.342c-.648-.669-1.17-1.309-1.845-1.852l-13.284.96.095 2.001 15.034-1.109Zm5.39 9.879c-.242-.712-.511-1.299-.753-2.011l-18.912 1.328.095 2.001 19.57-1.318Zm1.013 3.256c-.242-.712-.386-1.272-.628-1.984l-19.877 1.516.095 2.001 20.41-1.533Zm-2.404-6.593c-.242-.713-.637-1.327-1.033-1.94l-17.568 1.222.095 2.001 18.506-1.283Zm3.415 37.314.437-2.018-19.724 1.417.095 2.001 19.192-1.4Zm1.407-13.825c.011-.658.021-1.316-.095-2.001l-22.565 1.727c.116.686.106 1.344.222 2.029l22.438-1.755Zm-22.738-1.743 22.691-1.7c-.071-.28-.017-.532-.088-.811l-.133-1.218-22.691 1.701.133 1.217c.044.405-.011.658.088.811Zm10.895 30.216c1.498-.205 3.005-1.068 4.37-2.489l-12.347.897.194 2.155 7.783-.563Zm-.525-61.647c-1.377-.958-2.738-1.384-4.055-1.405l-7.783.564.15 1.749 11.688-.908Zm8.395 53.972c.263-.604.679-1.306.969-2.036l-17.19 1.304.095 2.001 16.126-1.269Zm3.867-17.255.031-1.974-22.159 1.683c.116.685.232 1.37.375 1.929l21.753-1.638Zm-2.444 13.733c.262-.604.426-1.361.716-2.09l-18.533 1.41.095 2.001 17.722-1.321Zm1.754-6.884c.136-.631.174-1.415.311-2.046l-20.41 1.533.095 2.001 20.004-1.488Zm.485-3.46c.01-.658.147-1.289.184-2.073l-21.473 1.567c.116.685.232 1.37.501 1.957l20.788-1.451Z" fill="#ED7B63"/><path class="coin-two" d="M339.413 275.923c1.351 18.779 9.991 31.341 16.836 30.839 6.844-.502 13.517-14.245 12.167-33.023-1.351-18.778-9.991-31.341-16.836-30.839-6.844.502-13.517 14.245-12.167 33.023Z" fill="url(#paint1_linear_272_1982)"/><path class="coin-two" d="M354.406 307.949c-7.192-1.554-14.976-13.8-16.31-32.046-.721-8.871.477-17.459 3.087-24.025 2.556-6.315 6.287-10.13 10.318-10.447 4.031-.318 8.208 2.961 11.686 8.863 3.576 6.054 5.877 14.342 6.599 23.213.721 8.87-.477 17.458-3.088 24.025-2.555 6.314-6.286 10.13-10.318 10.447-.712.242-1.343.106-1.974-.03Zm-13.65-32.131c1.324 18.904 9.885 29.997 15.386 29.601 2.814-.185 5.904-3.478 7.989-8.838 2.528-6.188 3.491-14.299 2.94-22.737-.551-8.438-2.808-16.32-6.186-22.067-2.885-4.981-6.26-7.691-9.2-7.534-2.814.185-5.904 3.478-7.989 8.838-2.528 6.188-3.59 14.145-2.94 22.737Z" fill="#fff"/><path class="coin-two" opacity=".25" d="M366.235 294.79c.716-2.09 1.235-4.486 1.655-7.037l-28.279-24.332c-.294 2.578-.462 5.182-.404 7.968l27.028 23.401Zm2.39-18.365c-.088-.812-.023-1.722-.112-2.533-.089-.812-.15-1.749-.238-2.561l-24.58-21.288a184.628 184.628 0 0 0-1.549 3.495l26.479 22.887Z" fill="#fff"/><path class="coin-three" d="M182.465 399.238c4.406 0 8.596.361 12.351 1.083h22.102v8.444c-.578 7.289-14.518 15.228-34.453 15.228-19.862 0-33.874-7.939-34.452-15.228v-8.444h22.174c3.756-.65 7.873-1.083 12.278-1.083Z" fill="url(#paint4_linear_272_1982)"/><path class="coin-three" d="M182.464 425.003c-20.296 0-34.525-8.155-35.392-15.877 0-.072-.072-.217-.072-.289v-8.516a.987.987 0 0 1 1.011-1.01h22.174c3.828-.722 8.017-1.083 12.351-1.083 4.334 0 8.523.361 12.496 1.083h21.957a.987.987 0 0 1 1.011 1.01v8.444c0 .144 0 .216-.072.289-.867 7.794-15.168 15.949-35.464 15.949Zm-33.442-16.454v.144c.506 6.784 14.374 14.29 33.442 14.29 19.068 0 32.936-7.506 33.441-14.29v-7.362h-21.09c-8.09-1.443-16.757-1.443-24.485 0h-21.308v7.218Z" fill="#fff"/><path class="coin-three" d="M212.655 415.044c-.65.577-1.372 1.082-2.166 1.66v-16.383h2.166v14.723Zm-40.375-15.012v22.95c-.722-.144-1.445-.216-2.167-.36v-22.301h.145a22.756 22.756 0 0 1 2.022-.289Zm3.684 23.383-2.167-.216v-23.383l2.167-.217v23.816Zm-18.346-4.907a15.429 15.429 0 0 1-2.167-1.227v-16.96h2.167v18.187Zm22.029 5.124c-.722 0-1.444-.072-2.167-.144v-24.105c.723-.072 1.445-.072 2.167-.145v24.394Zm-25.713-7.289a28.773 28.773 0 0 1-2.167-1.732v-14.29h2.167v16.022Zm11.051 5.052-2.167-.65v-20.424h2.167v21.074Zm3.611.866c-.722-.145-1.444-.361-2.166-.506v-21.434h2.166v21.94Zm-7.295-2.093-2.166-.866v-18.981h2.166v19.847Zm40.304.721-2.167.65v-21.218h2.167v20.568Zm-14.663 2.671c-.722.072-1.444.072-2.167.072v-24.321c.723 0 1.445.072 2.167.072v24.177Zm-3.611-24.322v24.394h-2.167v-24.394h2.167Zm33.152 9.455c-.144 1.66-.939 3.32-2.383 4.907v-13.279h2.383v8.372Zm-66.232 4.186c-1.084-1.372-1.662-2.815-1.806-4.258v-8.3h1.806v12.558Zm58.721 4.763c-.65.361-1.373.794-2.167 1.154v-18.475h2.167v17.321Zm-18.346 5.557-2.167.216v-23.96l2.167.216v23.528Zm14.662-3.681-2.167.866v-20.063h2.167v19.197Zm-7.295 2.382c-.722.144-1.444.361-2.167.505v-22.084h2.167V421.9Zm-3.683.794c-.723.144-1.445.216-2.167.361V399.96c.722.072 1.444.217 2.167.361v22.373Z" fill="#ED7B63"/><path class="coin-three" d="M182.465 384.01c20.296 0 34.453 8.228 34.453 15.661 0 7.434-14.157 15.661-34.453 15.661-20.296 0-34.452-8.227-34.452-15.661 0-7.361 14.156-15.661 34.452-15.661Z" fill="url(#paint5_linear_272_1982)"/><path class="coin-three" d="M182.464 416.343c-21.235 0-35.464-8.589-35.464-16.672C147 391.66 161.229 383 182.464 383s35.464 8.588 35.464 16.671-14.229 16.672-35.464 16.672Zm0-31.322c-19.141 0-33.442 7.722-33.442 14.65 0 6.929 14.301 14.651 33.442 14.651 19.14 0 33.441-7.722 33.441-14.651 0-6.928-14.301-14.65-33.441-14.65Z" fill="#fff"/><path class="coin-three" opacity=".25" d="M204.927 411.363c-2.239.938-4.695 1.66-7.368 2.309l-28.385-28.363c2.672-.505 5.561-.938 8.595-1.154l27.158 27.208Zm-19.646 3.897c-.939 0-1.806.072-2.745.072-.939 0-1.878 0-2.745-.072l-24.702-24.682c1.084-.65 2.312-1.299 3.612-1.949l26.58 26.631Z" fill="#fff"/><path class="coin-one" d="M301.552 440.531c3.671 0 7.162.301 10.292.902h18.417v7.036c-.482 6.074-12.098 12.689-28.709 12.689-16.551 0-28.227-6.615-28.708-12.689v-7.036h18.477a59.985 59.985 0 0 1 10.231-.902Z" fill="url(#paint6_linear_272_1982)"/><path class="coin-one" d="M301.551 462c-16.912 0-28.769-6.796-29.491-13.23 0-.06-.06-.181-.06-.241v-7.096c0-.481.361-.842.843-.842h18.476c3.19-.601 6.681-.902 10.292-.902 3.611 0 7.102.301 10.412.902h18.297c.481 0 .842.361.842.842v7.036c0 .12 0 .181-.06.241-.722 6.494-12.639 13.29-29.551 13.29Zm-27.866-13.711v.12c.421 5.653 11.977 11.907 27.866 11.907s27.444-6.254 27.866-11.907v-6.134h-17.574c-6.741-1.203-13.963-1.203-20.403 0h-17.755v6.014Z" fill="#fff"/><path class="coin-one" d="M326.709 453.701c-.542.481-1.144.902-1.806 1.383v-13.651h1.806v12.268Zm-33.644-12.509v19.124c-.602-.12-1.203-.18-1.805-.301v-18.582h.12c.602-.12 1.144-.18 1.685-.241Zm3.07 19.485-1.806-.18v-19.485l1.806-.18v19.845Zm-15.287-4.089a12.908 12.908 0 0 1-1.806-1.023v-14.132h1.806v15.155Zm18.356 4.269c-.602 0-1.204-.06-1.805-.12v-20.086c.601-.06 1.203-.06 1.805-.12v20.326Zm-21.426-6.073a23.8 23.8 0 0 1-1.805-1.444v-11.907h1.805v13.351Zm9.209 4.209-1.806-.541v-17.019h1.806v17.56Zm3.009.722c-.602-.121-1.204-.301-1.806-.421v-17.861h1.806v18.282Zm-6.079-1.744-1.805-.722v-15.816h1.805v16.538Zm33.583.601-1.805.541v-17.68h1.805v17.139Zm-12.217 2.225c-.602.06-1.204.06-1.806.06v-20.266c.602 0 1.204.06 1.806.06v20.146Zm-3.009-20.266v20.326h-1.806v-20.326h1.806Zm27.625 7.878c-.121 1.383-.783 2.766-1.986 4.089v-11.065h1.986v6.976Zm-55.19 3.488c-.903-1.143-1.385-2.345-1.505-3.548v-6.916h1.505v10.464Zm48.93 3.969c-.541.301-1.143.661-1.805.962v-15.395h1.805v14.433Zm-15.287 4.631-1.805.18v-19.966l1.805.181v19.605Zm12.218-3.067-1.806.721v-16.718h1.806v15.997Zm-6.079 1.984c-.602.12-1.204.301-1.805.421v-18.402h1.805v17.981Zm-3.069.662c-.602.12-1.204.18-1.806.3v-19.244c.602.061 1.204.181 1.806.301v18.643Z" fill="#ED7B63"/><path class="coin-one" d="M301.552 427.842c16.912 0 28.709 6.855 28.709 13.05 0 6.194-11.797 13.049-28.709 13.049s-28.708-6.855-28.708-13.049c0-6.134 11.796-13.05 28.708-13.05Z" fill="url(#paint7_linear_272_1982)"/><path class="coin-one" d="M301.551 454.783c-17.695 0-29.551-7.156-29.551-13.891 0-6.676 11.856-13.892 29.551-13.892 17.694 0 29.551 7.156 29.551 13.892 0 6.735-11.857 13.891-29.551 13.891Zm0-26.099c-15.949 0-27.866 6.434-27.866 12.208 0 5.773 11.917 12.208 27.866 12.208s27.866-6.435 27.866-12.208c0-5.774-11.917-12.208-27.866-12.208Z" fill="#fff"/><path class="coin-one" opacity=".25" d="M320.269 450.634c-1.866.782-3.912 1.383-6.139 1.924l-23.653-23.634c2.227-.421 4.634-.781 7.162-.962l22.63 22.672Zm-16.371 3.247c-.782 0-1.504.06-2.287.06-.782 0-1.565 0-2.287-.06l-20.583-20.567a45.555 45.555 0 0 1 3.009-1.623l22.148 22.19Z" fill="#fff"/><path d="m346 258.89-8 4.11v-2.935l8-4.065v2.89Z" fill="#FFBB1E"/><path d="m119.649 47.562-11.615 6.066-2.159 8.152 13.055 40.663s5.602-8.246 5.602-8.578c0-.332-4.883-46.303-4.883-46.303Z" fill="#1565C0"/><path d="M324.456 172.87v115.025c0 20.237-13.363 29.526-29.809 20.758l-171.503-91.327V44.481c10.536-2.56 23.693-2.227 34.126 2.749l115.432 61.422 21.945 11.659c16.497 8.815 29.809 32.322 29.809 52.559Z" fill="url(#paint0_linear_272_2128)"/><path d="M319.265 174.766V289.79c0 20.237-13.363 29.527-29.809 20.759l-171.503-91.328V46.377c10.536-2.56 23.693-2.228 34.126 2.749l115.432 61.422 21.945 11.659c16.498 8.815 29.809 32.322 29.809 52.559Z" fill="#1565C0"/><path d="M158.812 47.988c-.514-.237-.977-.521-1.491-.758-10.433-4.976-23.641-5.308-34.126-2.749-3.649.853-6.989 2.085-9.765 3.555-6.321 3.365-9.764 8.01-9.764 13.128v95.687h4.008v87.442l25.132 80.19c1.696 5.402 9.559 2.322 10.33-5.261V202.776c0-22.37-3.392-44.598-10.124-66.067l-23.025-73.46c-1.285-4.123.463-8.53 4.317-10.948.463-.284.925-.569 1.388-.806 2.158-1.137 4.728-2.132 7.606-2.89 10.125-2.655 23.59-2.418 33.458 2.796l113.89 60.663 2.158-3.412v-.047L158.812 47.988Z" fill="url(#paint1_linear_272_2128)"/><path d="m127.718 325.762-20.301-64.787c-2.518-8.009-3.803-16.256-3.803-24.597V60.595l24.258 77.251c6.733 21.517 10.176 43.792 10.176 66.162v116.493c-.359 7.868-8.634 10.617-10.33 5.261Z" fill="url(#paint2_linear_272_2128)"/><path opacity=".5" d="M130.339 314.482c-1.028 0-1.953-.568-2.724-1.658l.925-.522c.514.759 1.182 1.185 1.799 1.185.771 0 1.491-.663 2.005-1.848l1.027.332c-.668 1.564-1.798 2.511-3.032 2.511Zm-4.831-7.488-1.85-5.734 1.028-.285 1.85 5.735-1.028.284Zm8.48-1.137h-1.079v-6.019h1.079v6.019Zm-12.18-10.379-1.85-5.735 1.027-.284 1.851 5.734-1.028.285Zm12.232-1.659h-1.08V287.8h1.08v6.019Zm-15.933-9.811-1.85-5.734 1.028-.285 1.85 5.735-1.028.284Zm15.933-2.18h-1.08v-6.019h1.08v6.019Zm-19.582-9.336-1.85-5.735 1.028-.284 1.85 5.734-1.028.285Zm19.633-2.654h-1.079v-6.019h1.079v6.019Zm-23.333-8.863-1.85-5.735 1.028-.284 1.85 5.735-1.028.284Zm23.384-3.128h-1.079v-6.019h1.079v6.019Zm-27.033-8.389-.103-.284c-.411-1.327-.874-3.175-1.439-5.592l1.079-.19c.514 2.322.977 4.265 1.388 5.498l.103.284-1.028.284Zm27.033-3.602h-1.079v-6.019h1.079v6.019Zm-29.757-8.199c-.36-1.895-.719-3.933-1.079-5.924l1.079-.142c.36 2.038.72 4.028 1.079 5.924l-1.079.142Zm29.809-3.839h-1.079v-6.019h1.079v6.019Zm.051-11.99h-1.079v-6.019h1.079v6.019Zm0-11.991h-1.079v-6.019h1.079v6.019Zm-1.079-11.99-.154-5.972 1.079-.047c.103 1.99.154 3.981.154 6.019h-1.079Zm-.514-11.943c-.154-1.944-.36-3.982-.565-5.972l1.079-.095c.205 1.991.411 4.029.565 5.972l-1.079.095Zm-1.285-11.944a127.001 127.001 0 0 0-.925-5.924l1.079-.142c.36 1.991.668 3.981.925 5.972l-1.079.094Zm-2.056-11.801c-.411-1.99-.873-3.933-1.336-5.876l1.079-.237c.463 1.943.925 3.933 1.337 5.876l-1.08.237Zm-2.826-11.658a108.4 108.4 0 0 0-1.696-5.782l1.028-.285a110.381 110.381 0 0 1 1.696 5.83l-1.028.237Zm-3.495-11.565-1.799-5.782 1.028-.284 1.799 5.782-1.028.284Zm-3.649-11.516-1.799-5.782 1.028-.285 1.799 5.782-1.028.285Zm-3.598-11.517-1.799-5.782 1.028-.284 1.799 5.782-1.028.284Zm-3.649-11.564-1.799-5.782 1.028-.284 1.799 5.782-1.028.284Zm-3.597-11.516-1.799-5.782 1.028-.285 1.799 5.782-1.028.285Zm-3.649-11.517-1.799-5.782 1.028-.284 1.799 5.782-1.028.284Z" fill="#fff"/><path opacity=".5" d="M128.54 218.51c.72 11.754-1.747 21.47-5.448 21.612-3.7.189-7.246-9.195-7.966-20.948-.719-11.754 1.748-21.47 5.448-21.612 3.7-.189 7.247 9.195 7.966 20.948Z" fill="#F18C93"/><path d="m121.807 237.61-5.139.521-.206-1.753 3.958-1.896 1.387 3.128Z" fill="#CED7E2"/><path d="M121.689 237.625c3.429-.172 5.687-9.147 5.042-20.046-.645-10.898-3.948-19.593-7.378-19.421-3.429.173-5.686 9.148-5.041 20.046.645 10.899 3.948 19.594 7.377 19.421Z" fill="#CED7E2"/><path d="m119.187 198.131-4.729.521.206 1.753 3.187.095 1.336-2.369Z" fill="#CED7E2"/><path d="M116.668 238.131c-2.57.142-5.088-4.834-6.475-11.943-.412-2.275-.771-4.834-.926-7.488-.668-10.901 1.594-19.906 5.037-20.048.668-.047 1.285.237 1.902.806 2.672 2.37 4.933 9.763 5.447 18.626.72 10.9-1.541 19.905-4.985 20.047Z" fill="#E9F0F8"/><path d="M112.145 227.041c-.668.047-1.284-.237-1.952-.853-.412-2.275-.771-4.834-.926-7.488-.668-10.901 1.594-19.906 5.037-20.048.668-.047 1.285.237 1.902.806.462 2.275.771 4.834.925 7.536.719 10.9-1.542 19.905-4.986 20.047Z" fill="#FAFBFD"/><path d="m303.847 183.771-1.131.663-161.841-87.44V82.111c0-7.773 5.14-11.328 11.41-7.963l140.05 74.551c6.321 3.365 11.409 12.369 11.409 20.142v14.929h.103Z" fill="#CED7E2"/><path d="m302.665 184.434-162.92-86.73V82.823c0-7.773 5.139-11.328 11.409-7.963l140.101 74.55c6.322 3.365 11.41 12.37 11.41 20.143v14.881Z" fill="#fff"/><path opacity=".5" d="m303.847 185.24-1.182.711-162.92-86.825V96.85l162.92 86.778 1.182-.664v2.275Z" fill="#1565C0"/><path d="m303.847 220.691-1.131.663-161.841-87.394v-14.881c0-7.773 5.14-11.327 11.41-7.963l140.05 74.551c6.321 3.365 11.409 12.369 11.409 20.142v14.882h.103Z" fill="#4D5B80"/><path d="m303.847 220.691-1.131.663-161.841-87.394v-14.881c0-7.773 5.14-11.327 11.41-7.963l140.05 74.551c6.321 3.365 11.409 12.369 11.409 20.142v14.882h.103Z" fill="#4D5B80"/><path d="m302.665 221.354-162.92-86.73v-14.882c0-7.773 5.139-11.327 11.409-7.962l140.05 74.55c6.321 3.365 11.409 12.37 11.409 20.142v14.882h.052Z" fill="#4D5B80"/><path opacity=".5" d="m303.847 222.16-1.182.758-162.92-86.825v-2.275l162.92 86.778 1.182-.664v2.228Z" fill="#1565C0"/><path opacity=".5" d="M295.778 305.288c-2.364 0-4.831-.474-7.35-1.374l.36-.853c2.673.948 5.242 1.422 7.658 1.327l.051.9h-.719Zm8.428-2.417-.565-.758c2.004-1.28 3.7-3.128 5.037-5.403l.873.427c-1.387 2.417-3.186 4.36-5.345 5.734Zm-22.973-2.464-6.99-3.697.514-.806 6.99 3.697-.514.806Zm-13.928-7.394-6.989-3.696.514-.806 6.989 3.697-.514.805Zm44.97-2.986-.976-.189c.514-2.228.719-4.692.771-7.299h.976c-.051 2.702-.308 5.214-.771 7.488Zm-58.898-4.455-6.989-3.696.514-.806 6.989 3.697-.514.805Zm-13.927-7.393-6.99-3.697.514-.805 6.989 3.696-.513.806Zm73.596-2.986h-.976V267.8h.976v7.393Zm-87.524-4.455-6.99-3.696.514-.806 6.99 3.697-.514.805Zm-13.928-7.393-6.99-3.697.514-.806 6.99 3.697-.514.806Zm101.452-2.986h-.976v-7.393h.976v7.393Zm-115.38-4.455-6.99-3.697.514-.805 6.99 3.696-.514.806Zm-13.928-7.393-6.99-3.697.514-.806 6.99 3.697-.514.806Zm129.308-2.986h-.976v-7.394h.976v7.394Zm-143.287-4.455-6.99-3.697.514-.806 6.99 3.697-.514.806Zm-13.928-7.394-6.99-3.696.514-.806 6.99 3.697-.514.805Zm157.215-2.985h-.976v-7.394h.976v7.394Zm0-14.835h-.976v-7.393h.976v7.393Zm0-14.834h-.976v-7.393h.976v7.393Zm0-14.834h-.976v-7.393h.976v7.393Zm-1.182-14.787a53.18 53.18 0 0 0-1.131-7.298l.977-.19c.565 2.512.976 4.976 1.131 7.393l-.977.095Zm-3.186-14.407a61.543 61.543 0 0 0-2.93-6.872l.925-.38a70.102 70.102 0 0 1 2.981 6.967l-.976.285Zm-6.63-13.365c-1.388-2.133-2.878-4.218-4.472-6.114l.771-.569a64.324 64.324 0 0 1 4.523 6.209l-.822.474Zm-9.765-11.612c-2.005-1.801-4.06-3.365-6.167-4.597l.565-.758c2.158 1.279 4.266 2.891 6.321 4.739l-.719.616Zm-13.054-8.341-6.99-3.697.514-.805 6.99 3.696-.514.806Zm-13.98-7.393-6.989-3.697.514-.806 6.989 3.697-.514.806Zm-13.927-7.441-6.99-3.697.514-.806 6.99 3.697-.514.806Zm-13.928-7.394-6.938-3.696.513-.806 6.99 3.697-.565.805Zm-13.928-7.44-6.99-3.697.514-.806 6.99 3.697-.514.805Zm-13.928-7.394-6.99-3.697.514-.805 6.99 3.696-.514.806Zm-13.928-7.44-6.989-3.697.513-.806 6.99 3.697-.514.805Zm-13.928-7.394-6.989-3.697.514-.805 6.989 3.696-.514.806Zm-13.928-7.44-6.989-3.698.514-.805 6.989 3.696-.514.806Zm-51.24-4.693-.668-.663a25.256 25.256 0 0 1 6.836-4.124l.411.854c-2.519.995-4.728 2.322-6.579 3.933Zm37.261-2.512c-2.518-1.042-5.036-1.895-7.452-2.512l.257-.9a65.727 65.727 0 0 1 7.606 2.56l-.411.852Zm-23.179-3.554-.154-.9a36.338 36.338 0 0 1 5.14-.38c.976 0 1.953.047 2.98.095l-.102.9c-.977-.094-1.953-.094-2.878-.094-1.696 0-3.341.142-4.986.379ZM138.255 135.924l-.49.778 3.465 1.858.491-.778-3.466-1.858Zm154.953 84.103-6.887-3.697.514-.805 6.887 3.696-.514.806Zm-13.825-7.393-6.887-3.697.514-.806 6.887 3.697-.514.806Zm-13.825-7.394-6.887-3.697.514-.805 6.887 3.696-.514.806Zm-13.825-7.441-6.887-3.696.514-.806 6.886 3.697-.513.805Zm-13.774-7.393-6.887-3.697.514-.805 6.887 3.696-.514.806Zm-13.825-7.441-6.887-3.697.514-.805 6.887 3.696-.514.806Zm-13.825-7.393-6.887-3.697.514-.806 6.887 3.697-.514.806Zm-13.825-7.394-6.887-3.696.514-.806 6.887 3.697-.514.805Zm-13.825-7.44-6.887-3.697.514-.806 6.887 3.697-.514.806Zm-13.826-7.394-6.886-3.697.514-.805 6.886 3.696-.514.806Zm-13.825-7.393-6.886-3.697.514-.806 6.886 3.697-.514.806Zm145.595 77.037-.491.778 3.465 1.859.491-.779-3.465-1.858ZM138.242 98.868l-.491.778 3.466 1.858.49-.778-3.465-1.858Zm154.966 84.145-6.887-3.697.514-.806 6.887 3.697-.514.806Zm-13.825-7.441-6.887-3.697.514-.806 6.887 3.697-.514.806Zm-13.825-7.394-6.887-3.696.514-.806 6.887 3.697-.514.805Zm-13.825-7.44-6.887-3.697.514-.806 6.887 3.697-.514.806Zm-13.774-7.394-6.887-3.697.514-.805 6.887 3.696-.514.806Zm-13.825-7.393-6.887-3.697.514-.806 6.887 3.697-.514.806Zm-13.825-7.441-6.887-3.697.514-.805 6.887 3.696-.514.806Zm-13.825-7.393-6.887-3.697.514-.806 6.887 3.697-.514.806Zm-13.825-7.394-6.887-3.697.514-.805 6.887 3.696-.514.806Zm-13.825-7.441-6.887-3.696.514-.806 6.886 3.697-.513.805Zm-13.826-7.393-6.886-3.697.514-.805 6.886 3.696-.514.806Zm145.603 77.02-.49.779 3.465 1.858.491-.778-3.466-1.859Z" fill="#fff"/><path d="M84.534 400.748c4.288 2.014 16.576 2.178 20.098 5.5 3.516 3.444-1.233 6.653-5.636 7.316-4.521.659-8.394.004-10.256-.686-1.862-.69-7.366-1.903-13.555-.95-4.998.76-5.877-3.546-5.916-5.376a910.59 910.59 0 0 1-.034-7.44l13.878-3.79c-.118-.006-.436 4.614 1.421 5.426Z" fill="#0D0848"/><path d="M80.448 318.493c2.121 15.432 4.55 68.686 3.98 76.271-.292 3.974-19.84 10.499-21.022 1.389-4.243-30.865-7.121-68.072-6.95-72.051.525-12.178 22.594-15.333 23.992-5.609Z" fill="#3531A1"/><path d="M75.104 313.164c-6.176.82-12.61 4.767-12.89 11.272-.171 3.976 2.77 41.157 7.088 72 .27 2.305 1.811 3.579 3.874 4.15-4.695.643-9.076-.27-9.635-4.398-4.32-30.844-7.26-68.024-7.088-72 .374-8.674 11.604-12.776 18.651-11.024Z" fill="#1D1273"/><path d="M17.029 422.862c.458-2.459 1.478-4.303 1.478-4.303l11.739 2.867s.28 1.664.25 2.371c-.148.701.25 7.798.817 11.009.566 3.21.302 9.335-3.98 10.566-4.403 1.344-5.978-.258-8.991-3.928-3.008-3.787-2.728-7.551-2.54-9.195a536.57 536.57 0 0 1 1.227-9.387Z" fill="#0D0848"/><path d="M44.63 343.019c-.676 15.666-7.656 68.897-9.54 76.359-1.011 3.972-21.044 6.149-20.65-2.959 1.356-31.452 5.012-68.889 5.9-72.744 2.68-12.051 24.714-10.492 24.29-.656Z" fill="#3531A1"/><path d="M36.948 335.464c-4.456.902-8.5 3.645-9.561 8.34-.913 4.094-4.649 42.349-6.041 74.627-.084 1.941.716 3.313 2.021 4.342-4.77-.328-9.112-2.095-8.928-6.342 1.355-31.428 5.054-68.834 5.957-72.685 1.41-7.112 9.981-9.538 16.552-8.282Z" fill="#1D1273"/><path d="M124.379 216.035c1.039-1.519 4.789-3.763 5.893-3.956 3.798-.558 6.511-4.171 7.142-1.858.53 1.828-1.963 3.164-3.088 3.837-.501.339-1.737.767-.786 1.289 2.379 1.306 14.444-1.783 15.38-.9.931 1.002-.437 1.665-.939 2.004-3.258 2.145-1.722 6.061-5.805 7.569-3.592 1.409-10.54 1.591-12.368 1.632-1.828.042-9.953 2.097-9.953 2.097s-2.463-7.805-1.719-8.134c.497-.219 5.082-2.066 6.243-3.58Z" fill="#FFD1AA"/><path d="M82.757 175.888c1.089 2.353 4.274 16.814 10.02 32.599 5.743 15.907-.893 20.719-5.97 19.771-5.078-.947-8.243-4.846-17.584-22.85s-9.14-28.192-4.296-35.63c3.18-4.718 12.608-5.283 17.83 6.11Z" fill="#90C8ED"/><path d="M92.693 211.068c17.452 7.345 31.822 7.126 31.822 7.126s7.921-.258 2.549 8.62c0 0-25.587 6.329-41.294.857-12.347-4.369-2.64-20.612 6.923-16.603Z" fill="#FFD1AA"/><path d="M80.524 240.361c4.043 35.415.993 80.853.79 85.583-.608 14.07-22.038 16.791-24.479 5.992-1.82-8.341-4.993-33.025-6.445-41.472-1.337-8.321-3.825-20.824-3.207-29.546.325-4.725 32.214-30.935 33.34-20.557Z" fill="#3531A1"/><path d="M59.878 297.289c-.01 3.038.124 5.595.304 7.061.577 6.343 1.6 22.063 2.707 33.046-3.002-.858-5.223-2.898-5.936-6.088-1.828-8.342-5.139-33.03-6.477-41.472-.576-3.549-1.368-7.714-2.03-12.117 1.774 3.965 4.044 7.708 5.95 11.435 1.466 2.615 3.287 5.489 5.482 8.135Z" fill="#1D1273"/><path d="M56.805 269.601c-1.495 34.657-11.337 77.089-12.252 81.42-2.756 13.236-24.14 10.857-24.886.019-.614-8.282.073-32.654.065-40.91-.008-8.256-.002-33.751 1.93-41.923.788-4.216 35.577-8.664 35.143 1.394Z" fill="#3531A1"/><path d="M28.465 266.848c-.005.121-.135.115-.14.236-2.055 8.381-1.99 34.038-1.964 42.509.046 7.988-.544 48.863-.43 49.231-3.843-1.497-6.725-4.162-7.083-7.929-.686-8.258-.03-32.552-.065-40.782-.036-8.23-.113-33.644 1.932-41.784.307-1.076 3.449-1.425 7.75-1.481Z" fill="#1D1273"/><path d="M33.389 267.147c-1.998-.086-3.753-.006-5.502-.082.658-.749 2.65-.507 5.502.082Zm0 0c6.001.103 12.745.394 17.53-.332-6.128 2.844-12.943 1.307-17.53.332Z" fill="#002E8A"/><path d="M32.145 165.653c.797-1.652 1.856-3.775 3.493-5.271 1.002-.8 4.403-1.136 4.403-1.136l18.274 5.367s10.246.803 13.197 2.497c4.016 2.222 11.918 99.435 11.404 100.135-.514.701-12.563 5.242-18.052 6.331l-3.159-8.089-5.07 10.987c-15.714 2.575-37.534.911-37.534.911l-5.555-95.545 14.381-10.947c1.868-1.245 3.28-3.112 4.218-5.24Z" fill="url(#paint3_linear_272_2128)"/><path d="M37.63 158.8c6.961-5.049 18.882 3.854 21.142 14.529.988 4.54.197 22.864.135 24.32-.396 6.427-.805 10.421-.805 10.421-1.228-4.43-9.975-21.098-11.615-24.208-2.953-5.598-5.825-10.342-7.835-13.103-5.016-7.146-3.34-10.356-1.023-11.959Z" fill="#90C8ED"/><path d="M60.076 178.572c.217 3.744.366 9.052.017 14.218-.072 1.683-.266 3.241-.328 4.684l-2.256 5.566s-5.423-8.668-5.77-9.406c-1.741-3.448-3.488-6.777-5.245-9.865l6.349-6.955 7.233 1.758Z" fill="#DDEFFD"/><path d="M40.145 153.245s15.288 8.913 15.123 12.733c-.16 3.701-4.486 6.744-4.486 6.744-5.666-.244-11.075-6.458-12.937-9.05-.467-.618-.554-1.459-.272-2.285 2.197-5.168 2.572-8.142 2.572-8.142Z" fill="#FFD1AA"/><path d="M40.145 153.245s15.288 8.906 15.124 12.724a4.81 4.81 0 0 1-.452 1.892 12.196 12.196 0 0 0-3.793-.761c-3.202-.138-5.712.829-7.626 2.301-2.505-2.021-4.5-4.377-5.553-5.737-.467-.618-.554-1.459-.272-2.283 2.197-5.164 2.572-8.136 2.572-8.136Z" fill="#FFB78D"/><path d="M36.948 144.478s-4.132-20.079 13.775-19.795c17.907.284 14.723 20.413 13.787 22.326-.936 1.913.291 1.722.139 5.256-.322 4.626-4.473 10.429-5.17 12.474-.698 2.046-3.406 2.661-5.322 1.846-11.506-4.525-13.889-11.465-13.889-11.465-1.84.287-2.593-2.065-2.9-3.421-.312-1.234-.418-1.605-1.043-4.074-.741-2.596.623-3.147.623-3.147Z" fill="#FFD1AA"/><path d="M36.917 144.795s-3.539-17.343 10.476-19.263c-1.752 1.968-2.812 4.447-2.801 6.972-.042 3.725-.466 10.799 1.55 13.771-1.629 1.853-3.03 12.251 2.045 16.077 2.423 1.787 4.857 3.335 7.704 3.578.832.036 1.67-.049 2.388-.138-1.122 1.154-3.039 1.432-4.558.765-11.24-4.451-13.565-11.284-13.565-11.284-1.798.283-2.532-2.032-2.831-3.368-.305-1.215-.409-1.58-1.018-4.011-.723-2.555.61-3.099.61-3.099Z" fill="#FFB78D"/><path d="M51.966 123.727c16.098.695 17.22 20.013 11 19.745-6.951-.3-13.587-7.904-17.198-6.352-4.23 1.769-1.276 4.091-1.633 12.369 0 0-.37 2.912-1.223 2.875-1.098-.048-1.698-3.122-1.789-3.858-.308-1.355-2.696-5.483-5.033-2.291-5.515-13.775 3.681-23.014 15.876-22.488Z" fill="#1D1273"/><path d="M33.032 267.058c.548.486 3.94 3.638 5.634 3.942 1.694.305 5.125 2.533 5.772 3.371 2.033 2.977 6.211 3.736 4.551 5.282-1.304 1.216-3.51-.382-4.617-1.124-.444-.25-1.432-1.102-1.471-.179-.115 2.654 7.354 11.531 6.959 12.786-.51 1.249-1.605.277-2.05.027-3.105-1.868-5.847 1.019-8.8-1.767-2.621-2.541-5.558-8.332-6.402-9.871-.844-1.539-5.974-6.616-5.974-6.616s5.845-6.222 6.398-5.851Z" fill="#FFD1AA"/><path d="M36.547 285.806c2.13 3.376 5.54.825 8.408 2.943.445.254 1.426 1.234 1.921.317.614-1.029-5.71-10.098-5.386-12.312.143-.698.8-.083 1.239.288.31.717.74 1.322 1.277 2.049-.439-.371-1.105-.752-1.14.068-.117 2.692 7.347 11.693 6.95 12.966-.51 1.268-1.605.283-2.049.029-3.105-1.893-5.848 1.038-8.8-1.787-2.62-2.576-5.552-8.449-6.395-10.01s-5.97-6.709-5.97-6.709.717-.79 1.671-1.804c1.298 1.581 6.858 1.938 7.396 2.665 2.067 2.2-4.019 3.462.878 11.297Z" fill="#FFB78D"/><path d="M17.703 236.11c7.582 18.193 18.226 32.614 18.226 32.614s3.876 5.846-5.665 7.21c0 0-18.033-18.999-24.431-33.592-6.389-14.829 8.03-15.508 11.87-6.232Z" fill="#FFD1AA"/><path d="M15.197 181.057c5.054-2.549 13.68 1.553 12.776 14.146-.234 2.636-2.777 16.843-5.543 33.445-2.64 16.488-12.14 13.071-16.099 9.773-3.953-3.419-3.691-3.889-3.177-24.198.635-20.304 4.153-29.175 12.043-33.166Z" fill="#90C8ED"/><path d="M349.433 85.003V349.08c0 11.137-15.007 18.199-25.184 13.649l-92.047-57.014c-9.765-5.214-17.782-18.01-17.782-28.389l-8.223-261.328c0-10.474 16.189-17.441 26.005-12.228l99.448 52.844c9.817 5.26 17.783 17.962 17.783 28.389Z" fill="#B6C4D4"/><path d="M340.233 89.458v262.039c0 11.09-8.531 15.64-18.964 10.095l-97.958-52.038c-9.765-5.214-17.731-17.963-17.731-28.342V18.699c0-10.853 8.326-15.26 18.502-9.858l98.42 52.275c9.765 5.214 17.731 17.963 17.731 28.342Z" fill="#fff"/><path d="M223.568 308.037c-9.2-4.882-16.755-16.967-16.755-26.777V18.936c0-9.431 7.247-13.318 16.138-8.578l97.598 51.848c9.354 4.977 17.012 17.204 17.012 27.157v261.423c0 9.811-7.555 13.839-16.755 8.91l-97.238-51.659Z" fill="#4D5B80"/><path d="M333.192 100.785v238.721c0 6.825-5.242 9.574-11.615 6.209l-94.617-50.237c-8.737-4.645-15.881-16.067-15.881-25.356V31.163c0-6.682 5.14-9.43 11.41-6.113l94.822 50.379c8.737 4.645 15.881 16.067 15.881 25.356Z" fill="url(#paint4_linear_272_2128)"/><path opacity=".5" d="m285.91 52.49-26.674-14.218c-.668-.379-1.234-1.327-1.234-2.18 0-.853.566-1.232 1.234-.853l26.674 14.218c.668.38 1.233 1.327 1.233 2.18 0 .853-.565 1.233-1.233.853Zm14.184 6.304c0 1.517-1.182 2.133-2.621 1.374-1.439-.758-2.621-2.606-2.621-4.17 0-1.517 1.182-2.133 2.621-1.375 1.439.759 2.621 2.654 2.621 4.17Z" fill="#4D5B80"/><path d="m321.012 85.618-7.247-3.838c-.257-.143-.411-.474-.411-.759V78.89c0-.285.206-.427.411-.285l7.247 3.84c.257.141.411.473.411.757v2.133c0 .284-.206.427-.411.284Z" fill="#fff"/><path d="m321.166 81.78-7.606-4.076c-.566-.284-.977-.047-.977.521v2.56c0 .616.463 1.327.977 1.61l7.606 4.077c.565.284 1.028.047 1.028-.522v-2.559c0-.616-.463-1.327-1.028-1.611Zm.771 4.028c0 .474-.36.664-.771.427l-7.606-4.076c-.412-.237-.771-.758-.771-1.232v-2.56c0-.426.359-.616.771-.426l7.606 4.076c.411.237.771.758.771 1.232v2.56Zm1.799-.332c0 .616-.463.9-1.028.616v-2.37c.565.38 1.028 1.138 1.028 1.754ZM223.517 33.06c0 .852-.669 1.232-1.491.805-.822-.427-1.49-1.517-1.49-2.37 0-.853.668-1.232 1.49-.805.822.426 1.491 1.469 1.491 2.37Zm4.265 2.227c0 .853-.668 1.232-1.49.805-.823-.426-1.491-1.516-1.491-2.37 0-.852.668-1.232 1.491-.805.822.427 1.49 1.517 1.49 2.37Zm4.266 2.275c0 .853-.668 1.232-1.49.805-.822-.426-1.491-1.516-1.491-2.37 0-.853.669-1.232 1.491-.805.822.426 1.49 1.516 1.49 2.37Zm2.724.189c.668.332 1.182 1.185 1.182 1.896 0 .71-.514.995-1.182.616-.668-.332-1.182-1.185-1.182-1.896 0-.663.514-.948 1.182-.616Zm0-.284c-.823-.427-1.491-.095-1.491.805 0 .854.668 1.944 1.491 2.37.822.427 1.49.095 1.49-.806 0-.9-.668-1.943-1.49-2.37Z" fill="#fff"/><g opacity=".8" fill="#fff"><path opacity=".8" d="M272.136 157.894c-10.69-5.687-19.376-.995-19.376 10.427 0 6.113 2.467 12.891 6.373 18.768 2.313-4.029 7.247-4.977 13.003-1.944 5.756 3.081 10.69 9.29 13.003 15.782 3.906-1.706 6.373-5.876 6.373-11.99 0-11.422-8.686-25.356-19.376-31.043Zm0 24.692c-4.266-2.275-7.761-7.82-7.761-12.417 0-4.55 3.444-6.445 7.761-4.171 4.266 2.275 7.76 7.82 7.76 12.418 0 4.597-3.494 6.445-7.76 4.17Zm32.687 64.835-65.374-34.787c-5.191-2.749-9.354-9.479-9.354-14.977 0-5.497 4.215-7.725 9.354-4.976l65.374 34.787c5.19 2.749 9.353 9.479 9.353 14.976 0 5.498-4.163 7.725-9.353 4.977Zm-65.374-54.124c-4.831-2.559-8.788-.474-8.788 4.692s3.957 11.469 8.788 14.029l65.374 34.786c4.831 2.56 8.788.474 8.788-4.692 0-5.165-3.957-11.469-8.788-14.028l-65.374-34.787Zm65.374 85.83-65.374-34.787c-5.191-2.749-9.354-9.479-9.354-14.976 0-5.498 4.215-7.725 9.354-4.977l65.374 34.787c5.19 2.749 9.353 9.479 9.353 14.977 0 5.497-4.163 7.725-9.353 4.976Zm-65.374-54.171c-4.831-2.559-8.788-.474-8.788 4.692s3.957 11.469 8.788 14.029l65.374 34.786c4.831 2.56 8.788.474 8.788-4.692 0-5.165-3.957-11.469-8.788-14.028l-65.374-34.787Z"/><path opacity=".8" d="M251.784 240.928c0 2.085-1.593 2.938-3.546 1.896-1.953-1.043-3.547-3.602-3.547-5.688 0-2.085 1.594-2.938 3.547-1.895 1.953 1.042 3.546 3.554 3.546 5.687Zm11.975 6.351c0 2.085-1.593 2.938-3.546 1.895-1.953-1.042-3.546-3.602-3.546-5.687 0-2.085 1.593-2.938 3.546-1.896 1.953 1.043 3.546 3.602 3.546 5.688Zm11.975 6.35c0 2.086-1.594 2.939-3.547 1.896-1.953-1.043-3.546-3.602-3.546-5.687 0-2.086 1.593-2.939 3.546-1.896 1.953 1.043 3.547 3.602 3.547 5.687Zm11.923 6.398c0 2.086-1.593 2.939-3.546 1.896-1.953-1.042-3.546-3.602-3.546-5.687 0-2.085 1.593-2.938 3.546-1.896 1.953 1.043 3.546 3.555 3.546 5.687Zm11.975 6.351c0 2.086-1.593 2.939-3.546 1.896-1.953-1.043-3.546-3.602-3.546-5.687 0-2.086 1.593-2.939 3.546-1.896 1.953 1.043 3.546 3.602 3.546 5.687Z"/></g><path opacity=".3" d="M333.398 94.055 316.9 85.287c-4.677-2.512-8.48.142-8.48 5.924v60.854c0 5.782 3.803 12.464 8.48 14.929l16.498 8.767V94.055Z" fill="#1565C0"/><path d="m393.324 224.387-95.645-50.901c-4.677-2.511-8.48-9.194-8.48-14.929v-60.9c0-5.782 3.803-8.389 8.48-5.925l95.696 50.949c4.677 2.511 8.48 9.194 8.48 14.929v60.853c-.051 5.782-3.855 8.436-8.531 5.924Z" fill="#CED7E2"/><path d="m391.627 225.288-95.696-50.949c-4.677-2.511-8.48-9.194-8.48-14.929v-60.9c0-5.782 3.803-8.389 8.48-5.925l95.696 50.949c4.677 2.511 8.48 9.194 8.48 14.929v60.853c0 5.782-3.803 8.436-8.48 5.972Z" fill="#1565C0"/><path d="m297.319 132.159 7.915 4.218v-5.403l-7.915-4.218v5.403Zm16.96 3.65-7.915-4.266v5.45l7.915 4.219v-5.403Zm0-1.28v-2.702c0-1.184-.822-2.606-1.902-3.175l-13.208-7.014c-1.028-.569-1.901-.048-1.901 1.137v2.702l17.011 9.052Zm-7.915 3.697v5.071l6.065 3.222c1.028.569 1.901.048 1.901-1.137v-2.891l-7.966-4.265Zm-1.13-.569-7.915-4.218v2.891c0 1.185.822 2.606 1.901 3.175l6.065 3.223v-5.071h-.051Z" fill="#fff"/><path d="m299.323 157.325-.36-.189c-1.336-.711-2.415-2.607-2.415-4.218v-2.56c0-1.611 1.079-2.369 2.415-1.658l.36.189c1.336.711 2.416 2.607 2.416 4.218v2.56c0 1.611-1.08 2.369-2.416 1.658Zm9.611 5.119-.36-.19c-1.336-.711-2.415-2.606-2.415-4.218v-2.559c0-1.611 1.079-2.37 2.415-1.659l.36.19c1.336.711 2.416 2.606 2.416 4.218v2.559c0 1.611-1.08 2.37-2.416 1.659Zm9.559 5.118-.36-.189c-1.336-.711-2.415-2.607-2.415-4.218v-2.56c0-1.611 1.079-2.369 2.415-1.658l.36.189c1.336.711 2.416 2.607 2.416 4.218v2.559c0 1.612-1.08 2.37-2.416 1.659Zm14.904 7.915-.359-.19c-1.337-.71-2.416-2.606-2.416-4.218v-2.559c0-1.611 1.079-2.37 2.416-1.659l.359.19c1.337.711 2.416 2.607 2.416 4.218v2.559c0 1.612-1.079 2.37-2.416 1.659Zm9.611 5.119-.36-.19c-1.336-.711-2.415-2.607-2.415-4.218v-2.607c0-1.611 1.079-2.369 2.415-1.658l.36.189c1.336.711 2.416 2.607 2.416 4.218v2.56c0 1.658-1.08 2.417-2.416 1.706Zm9.56 5.071-.36-.19c-1.336-.711-2.416-2.606-2.416-4.218V178.7c0-1.611 1.08-2.37 2.416-1.659l.36.19c1.336.711 2.415 2.606 2.415 4.218v2.559c0 1.659-1.079 2.37-2.415 1.659Zm14.904 7.962-.36-.19c-1.336-.711-2.415-2.606-2.415-4.218v-2.559c0-1.611 1.079-2.37 2.415-1.659l.36.19c1.336.711 2.416 2.606 2.416 4.218v2.559c0 1.611-1.08 2.37-2.416 1.659Zm9.611 5.071-.36-.19c-1.336-.711-2.415-2.606-2.415-4.218v-2.559c0-1.611 1.079-2.37 2.415-1.659l.36.19c1.336.711 2.415 2.607 2.415 4.218v2.559c-.051 1.659-1.13 2.37-2.415 1.659Zm9.559 5.118-.36-.189c-1.336-.711-2.415-2.607-2.415-4.218v-2.559c0-1.612 1.079-2.37 2.415-1.659l.36.189c1.336.711 2.415 2.607 2.415 4.218v2.56c0 1.611-1.079 2.369-2.415 1.658Z" fill="#E9F0F8"/><path d="m387.464 174.482-29.706-15.83c-.873-.474-1.593-1.706-1.593-2.796 0-1.09.72-1.564 1.593-1.09l29.706 15.83c.874.473 1.593 1.706 1.593 2.796 0 1.042-.719 1.564-1.593 1.09Zm.103-11.707-66.401-35.355c-.823-.427-1.491-1.612-1.491-2.607 0-.995.668-1.469 1.491-1.042l66.401 35.355c.823.427 1.491 1.612 1.491 2.607 0 .995-.668 1.469-1.491 1.042Z" fill="#fff"/><path class="coin-four" d="M139.358 57.438c.35 3.84 1.025 7.255 1.863 10.46l1.792 18.964 7.188-.673c6.178-1.112 11.894-13.63 10.228-30.743-1.548-17.092-9.458-28.362-15.806-28.256l-7.187.673 1.793 18.964c-.146 3.257-.22 6.77.129 10.61Z" fill="url(#paint2_linear_272_1982)"/><path class="coin-four" d="M142.904 88.057c-.586-.114-.987-.556-.991-1.166l-1.792-18.964c-.978-3.11-1.608-6.76-1.863-10.46a57.937 57.937 0 0 1-.084-10.845l-1.721-18.707c-.049-.375.137-.704.3-.915.162-.212.56-.378.817-.45l7.188-.673c.117.023.257-.072.351.068 6.794.103 15.079 11.324 16.797 29.422 1.717 18.098-4.373 30.664-11.088 32.037-.117-.023-.258.072-.375.049l-7.187.672-.352-.068Zm-3.985-59.055 1.669 17.723a50.176 50.176 0 0 0 .129 10.61 49.49 49.49 0 0 0 1.908 10.227l1.741 17.98 5.829-.57.117.022c5.546-.992 10.725-13.248 9.229-29.356-1.495-16.108-8.842-27.147-14.558-27.162l-.117-.023-5.947.549Z" fill="#fff"/><path class="coin-four" d="M155.401 81.967c.488-.635.859-1.293 1.23-1.95l-14.001 1.296.128 1.85 12.643-1.196Zm-16.163-33.313 19.713-1.89c-.12-.633-.358-1.287-.502-1.802l-19.081 1.77-.023.117c-.114.587-.11 1.196-.107 1.805Zm20.317 1.268c-.121-.632-.242-1.264-.385-1.778l-20.065 1.822.01 1.828 20.44-1.872Zm-5.661-15.335c-.378-.56-.733-1.237-1.229-1.82l-14.632 1.417.127 1.85 15.734-1.447Zm6.147 18.471c-.121-.632-.124-1.24-.245-1.872l-20.579 1.965.01 1.828 20.814-1.92Zm-8.249-21.434c-.612-.606-1.107-1.188-1.743-1.677l-12.268 1.146.128 1.85 13.883-1.32Zm5.181 9.036c-.238-.654-.499-1.191-.737-1.846L138.77 40.41l.128 1.85 18.075-1.6Zm1.001 2.993c-.238-.654-.382-1.169-.62-1.823l-18.355 1.789.128 1.85 18.847-1.816Zm-2.353-6.054c-.238-.654-.616-1.214-.994-1.774l-16.225 1.472.127 1.85 17.092-1.548Zm3.894 34.46.364-1.876-18.215 1.695.127 1.85 17.724-1.67Zm1.029-12.82c-.004-.608-.007-1.217-.128-1.85l-20.836 2.038c.12.632.124 1.241.244 1.873l20.72-2.06Zm-21.066-1.17 20.954-2.015c-.071-.257-.026-.491-.098-.748l-.146-1.124-20.954 2.015.146 1.123c.049.375.004.61.098.75Zm10.673 27.746c1.381-.219 2.759-1.046 3.993-2.388l-11.402 1.07.222 1.99 7.187-.672Zm-1.701-57.03c-1.293-.86-2.56-1.227-3.778-1.22l-7.188.672.173 1.616 10.793-1.068Zm8.829 49.775c.231-.563.602-1.221.856-1.902l-15.874 1.541.128 1.85 14.89-1.489Zm3.236-16.04-.01-1.828-20.462 1.989c.121.632.241 1.263.385 1.778l20.087-1.94Zm-1.99 12.754c.231-.564.368-1.267.622-1.948l-17.114 1.665.127 1.85 16.365-1.567Zm1.487-6.404c.114-.586.133-1.312.247-1.898l-18.847 1.815.128 1.85 18.472-1.767Zm.38-3.211c-.003-.61.111-1.195.13-1.922l-19.83 1.868c.12.632.241 1.264.502 1.801l19.198-1.747Z" fill="#ED7B63"/><path class="coin-four" d="M126.343 58.682c1.62 17.349 9.859 28.804 16.181 28.206 6.321-.597 12.222-13.444 10.603-30.792-1.62-17.35-9.86-28.805-16.181-28.207-6.321.598-12.223 13.444-10.603 30.793Z" fill="url(#paint3_linear_272_1982)"/><path class="coin-four" d="M140.842 88.022c-6.683-1.298-14.124-12.477-15.718-29.334-.842-8.194.097-16.163 2.382-22.29 2.239-5.892 5.615-9.495 9.338-9.867 3.722-.372 7.651 2.58 10.984 7.973 3.427 5.532 5.719 13.156 6.561 21.35.843 8.194-.097 16.164-2.381 22.29-2.24 5.893-5.616 9.496-9.338 9.868-.655.238-1.241.124-1.828.01Zm-13.259-29.465c1.597 17.467 9.735 27.564 14.816 27.09 2.598-.225 5.392-3.333 7.215-8.332 2.216-5.775 2.947-13.299 2.271-21.096-.676-7.796-2.919-15.045-6.157-20.298-2.767-4.552-5.943-6.994-8.659-6.791-2.599.225-5.392 3.333-7.215 8.332-2.216 5.775-3.042 13.159-2.271 21.095Z" fill="#fff"/><path class="coin-four" opacity=".25" d="M151.525 75.617c.622-1.948 1.055-4.175 1.393-6.543l-26.64-21.964c-.221 2.39-.325 4.804-.217 7.38l25.464 21.127Zm1.849-17.04c-.098-.75-.055-1.593-.153-2.342-.098-.749-.173-1.615-.271-2.364l-23.158-19.22c-.439 1.01-.902 2.137-1.364 3.264l24.946 20.662Z" fill="#fff"/><defs><linearGradient id="paint0_linear_272_2128" x1="183.539" y1="30.462" x2="263.449" y2="407.302" gradientUnits="userSpaceOnUse"><stop stop-color="#45D7DE"/><stop offset="1" stop-color="#4D5FD1"/></linearGradient><linearGradient id="paint1_linear_272_2128" x1="155.238" y1="36.463" x2="235.148" y2="413.305" gradientUnits="userSpaceOnUse"><stop stop-color="#45D7DE"/><stop offset="1" stop-color="#4D5FD1"/></linearGradient><linearGradient id="paint2_linear_272_2128" x1="87.326" y1="193.118" x2="141.824" y2="196.229" gradientUnits="userSpaceOnUse"><stop stop-color="#45D7DE"/><stop offset="1" stop-color="#4D5FD1"/></linearGradient><linearGradient id="paint3_linear_272_2128" x1="85.052" y1="220.8" x2="12.138" y2="217.656" gradientUnits="userSpaceOnUse"><stop stop-color="#45D7DE"/><stop offset="1" stop-color="#4D5FD1"/></linearGradient><linearGradient id="paint4_linear_272_2128" x1="338.527" y1="84.994" x2="204.185" y2="323.846" gradientUnits="userSpaceOnUse"><stop stop-color="#45D7DE"/><stop offset="1" stop-color="#4D5FD1"/></linearGradient><linearGradient id="paint0_linear_272_1982" x1="345.97" y1="271.755" x2="377.917" y2="278.67" gradientUnits="userSpaceOnUse"><stop stop-color="#FF6279"/><stop offset="1" stop-color="#FFAD60"/></linearGradient><linearGradient id="paint1_linear_272_1982" x1="337.8" y1="271.348" x2="370.074" y2="278.334" gradientUnits="userSpaceOnUse"><stop stop-color="#FF6279"/><stop offset="1" stop-color="#FFAD60"/></linearGradient><linearGradient id="paint2_linear_272_1982" x1="132.329" y1="54.695" x2="162.016" y2="60.46" gradientUnits="userSpaceOnUse"><stop stop-color="#FF6279"/><stop offset="1" stop-color="#FFAD60"/></linearGradient><linearGradient id="paint3_linear_272_1982" x1="124.761" y1="54.48" x2="154.754" y2="60.304" gradientUnits="userSpaceOnUse"><stop stop-color="#FF6279"/><stop offset="1" stop-color="#FFAD60"/></linearGradient><linearGradient id="paint4_linear_272_1982" x1="148.031" y1="411.624" x2="216.946" y2="411.624" gradientUnits="userSpaceOnUse"><stop stop-color="#FF6279"/><stop offset="1" stop-color="#FFAD60"/></linearGradient><linearGradient id="paint5_linear_272_1982" x1="148.031" y1="399.676" x2="216.946" y2="399.676" gradientUnits="userSpaceOnUse"><stop stop-color="#FF6279"/><stop offset="1" stop-color="#FFAD60"/></linearGradient><linearGradient id="paint6_linear_272_1982" x1="272.859" y1="450.851" x2="330.283" y2="450.851" gradientUnits="userSpaceOnUse"><stop stop-color="#FF6279"/><stop offset="1" stop-color="#FFAD60"/></linearGradient><linearGradient id="paint7_linear_272_1982" x1="272.859" y1="440.896" x2="330.283" y2="440.896" gradientUnits="userSpaceOnUse"><stop stop-color="#FF6279"/><stop offset="1" stop-color="#FFAD60"/></linearGradient></defs></svg>