<svg width="356" height="300" fill="none" xmlns="http://www.w3.org/2000/svg"><path d="M107.505 251.916h5.067v.909l30.266-16.318c2.328-1.364 6.437-1.182 9.176.364l66.741 36.953v-.727h5.067v3.909c0 .182-.092.318-.274.409l-36.11 19.954c-2.191 1.273-6.025 1.136-8.582-.364l-71.077-40.59a.479.479 0 0 1-.228-.545h-.046v-3.954Z" fill="url(#a)"/><path d="M107.779 251.045c-.365.182-.365.728 0 .955l71.087 40.628c2.555 1.454 6.388 1.59 8.578.363l36.091-19.95c.365-.182.365-.682.092-.909l-71.59-39.674c-2.692-1.545-6.798-1.726-9.171-.363l-35.087 18.95Z" fill="#F8F6FB"/><path d="M185.603 158.971c-16.052-9.217-33.339-.232-33.156 17.23l46.144 92.034 3.201-1.806-.732-81.983c-.091-10.097-6.174-20.148-15.457-25.475Z" fill="url(#b)"/><path d="M182.959 161.592c-16.052-9.152-33.339-.23-33.156 17.107l.549 61.714 48.796 27.822-.731-81.396c-.092-9.934-6.22-19.959-15.458-25.247Z" fill="url(#c)"/><path d="M294.276 119.128 275.57 271.269c-.506 4.09-2.804 10.247-10.663 10.201-.965 0-2.068-.092-3.263-.367h-.092l-.092-.046-59.429-35.704-3.263-1.975-18.293-10.983-30.795-18.517-81.444-48.937c-2.114-1.195-3.263-3.263-2.987-5.422l15.627-150.9c.183-1.563.965-2.85 2.022-3.907C86.069 1.68 92.044.9 95.4 2.782l38.286 21.689L253.141 92.11l38.148 21.596c2.114 1.195 3.263 3.309 2.987 5.422Z" fill="url(#d)"/><path d="M287.763 116.362 92.117 3.691c-4.553-2.63-10.898 0-11.45 4.66L61.725 163.1c-.276 2.215.873 4.291 2.988 5.537l195.693 112.671c4.552 2.63 10.897 0 11.449-4.66l18.898-154.75c.275-2.215-.874-4.337-2.989-5.537Z" fill="#F8F6FB"/><path d="m281.93 127.023-2.896 23.753-2.481 20.203-1.792 14.852-3.309 27.029-6.847 55.718c-.322 2.583-3.769 4.059-6.25 2.629l-9.743-5.535h-.046l-22.472-12.777h-.045l-15.349-8.671-25.689-14.529-17.003-9.686-25.184-14.253-68.794-38.974c-3.079-1.753-4.733-4.797-4.366-7.98L86.99 17.247c.322-2.583 3.769-3.967 6.296-2.583l11.673 6.596 25.183 14.252 17.003 9.64 25.643 14.53 15.349 8.717 21.323 12.084 16.911 9.548 21.921 12.407 29.227 16.559c3.125 1.845 4.779 4.843 4.412 8.026Z" fill="url(#e)"/><path d="m281.919 127.194-1.7 13.982L85.475 30.236l1.608-12.967c.368-2.585 3.813-4.015 6.294-2.585l36.891 20.906 42.633 24.181 15.344 8.722 21.317 12.09 67.992 38.581c3.078 1.8 4.778 4.799 4.365 8.03Z" fill="#3531A1"/><path d="m245.192 116.741-11.748-6.893c-.321-.184-.597-.597-.551-.965.046-.321.367-.413.689-.23l11.747 6.893c.322.184.597.643.551.965-.046.322-.321.414-.688.23ZM272.956 133.007a.993.993 0 0 1-.459-.505l-6.424-12.912c-.184-.368-.092-.735.183-.781.275-.046.688.229.872.597l6.425 12.912c.183.368.091.735-.184.781-.138 0-.275-.046-.413-.092Z" fill="#fff"/><path d="M265.43 128.596a1.396 1.396 0 0 1-.367-.368c-.23-.367-.23-.735.046-.873l8.581-4.135c.23-.138.643.092.872.413.229.368.229.736-.046.873l-8.581 4.136c-.138.092-.322.046-.505-.046ZM256.251 112.743c-2.845-1.7-5.461-.827-5.782 1.838-.322 2.711 1.698 6.249 4.543 7.904 2.845 1.7 5.461.827 5.782-1.838.367-2.666-1.698-6.25-4.543-7.904Zm3.304 7.168c-.275 2.068-2.249 2.666-4.406 1.425-2.156-1.241-3.717-3.998-3.441-6.02.275-2.022 2.248-2.665 4.405-1.424 2.157 1.286 3.717 3.998 3.442 6.019Z" fill="#fff"/><path d="m221.348 241.222 48.69-28.259 3.331-26.882-72.966 42.617 20.945 12.524Z" fill="url(#f)"/><path d="m165.068 210.266 20.993 12.575 90.34-51.683 2.475-20.13-5.454-3.086-108.354 62.324Z" fill="url(#g)"/><path d="m260.625 110.721-132.269 77.972 21.006 12.551 133.186-78.11-21.923-12.413Z" fill="url(#h)"/><path d="m226.305 90.503-134.202 77.5 20.999 12.563 135.028-77.683-21.825-12.38Z" fill="url(#i)"/><path d="m94.901 19.187 17.347 10.247 17.3-10.017-17.3-10.201-17.347 9.971Z" fill="#FFAF6C"/><path d="m112.248 177.993 17.301-10.017V19.416l-17.301 10.018v148.559Z" fill="#D9705B"/><path d="m94.901 167.746 17.347 10.247V29.434L94.901 19.187v148.559Z" fill="url(#j)"/><path d="m168.601 107.918 17.3 10.201 17.347-9.971-17.347-10.247-17.3 10.017Z" fill="#FFAF6C"/><path d="m185.9 220.222 17.347-9.971V108.148l-17.347 9.971v102.103Z" fill="#D9705B"/><path d="m168.601 210.021 17.3 10.201V118.12l-17.3-10.202v102.103Z" fill="url(#k)"/><path d="m132.026 63.392 17.347 10.201 17.346-9.971-17.346-10.201-17.347 9.971Z" fill="#FFAF6C"/><path d="m149.373 198.625 17.347-9.971V63.622l-17.347 9.97v125.033Z" fill="#D9705B"/><path d="m132.026 188.424 17.347 10.201V73.593l-17.347-10.201v125.032Z" fill="url(#l)"/><path d="m204.351 140.451 17.347 10.201 17.346-9.971-17.346-10.201-17.347 9.971Z" fill="#FFAF6C"/><path d="m221.698 238.694 17.346-9.971v-88.042l-17.346 9.971v88.042Z" fill="#D9705B"/><path d="m204.351 228.493 17.347 10.201v-88.042l-17.347-10.201v88.042Z" fill="url(#m)"/><path d="M194.006 73.063c-29.638-14.678-40.988-35.272-45.169-50.912l9.465 4.633 1.838-1.835c-5.697-5.275-15.071-21.42-15.071-21.42l-1.838 1.835c-2.114 7.385-4.412 16.512-8.409 22.2l10.752-5.183c4.228 16.374 15.945 38.16 47.053 53.571 51.189 25.364 54.865 68.341 54.911 68.754l1.838-1.835c-.138-.413-2.389-43.573-55.37-69.808Z" fill="#D9705B"/><path d="M191.834 74.794c-29.41-14.67-40.672-35.254-44.822-50.887l11.217 2.796c-5.654-5.272-11.354-14.12-14.956-21.409-2.006 7.84-5.745 17.696-10.213 24.022l10.669-5.18c4.195 16.366 15.822 38.142 46.692 53.546 50.795 25.352 53.029 66.565 53.074 67.024l3.238-.138c-.091-.412-2.326-43.552-54.899-69.774Z" fill="url(#n)"/><path d="M194.392 74.466a6.442 6.442 0 0 0-.596-1.562 9.326 9.326 0 0 0-.826-1.47c-.689-1.012-1.561-1.885-2.524-2.436-.689-.368-1.285-.598-1.882-.598-.367 0-.734.046-1.055.184a1.36 1.36 0 0 0-.367.184l-3.075 1.792c.092-.046.229-.138.367-.184.321-.138.688-.183 1.055-.183a4.48 4.48 0 0 1 1.882.597c.964.551 1.836 1.424 2.524 2.435.321.46.597.965.826 1.47.229.506.413 1.058.551 1.563.229.827.321 1.7.275 2.482-.092 1.47-.642 2.527-1.514 3.032l3.074-1.792c.872-.505 1.423-1.562 1.515-3.033.137-.827 0-1.654-.23-2.481Z" fill="#D9705B"/><path d="M187.371 70.744c2.524 1.47 4.405 5.055 4.222 7.995-.184 2.987-2.341 4.182-4.819 2.757-2.524-1.47-4.405-5.054-4.222-7.995.138-2.987 2.341-4.227 4.819-2.757Z" fill="url(#o)"/><path d="M188.013 79.015c.643 0 1.102-.551 1.148-1.47.091-1.517-.872-3.309-2.157-4.044a1.93 1.93 0 0 0-.964-.276c-.642 0-1.101.552-1.147 1.47-.092 1.517.872 3.31 2.157 4.044.321.184.688.276.963.276Z" fill="url(#p)"/><path d="M140.232 57.23 76.261 281.01l1.606 2.022 63.282-222.448-.917-3.355Z" fill="#F7F7FA"/><path d="M141.149 60.583 77.867 283.031l6.195-1.194L148.033 58.01l-6.884 2.573Z" fill="url(#q)"/><path d="m87.275 250.361 23.496 16.634 4.222-4.044-26.984-15.256-.734 2.666Z" fill="#F7F7FA"/><path d="m88.008 247.695 23.955 17.002 5.277-2.481-23.954-17.002-5.278 2.481Z" fill="url(#r)"/><path d="m96.59 217.184 23.496 16.634 4.176-4.044-26.983-15.255-.689 2.665Z" fill="#F7F7FA"/><path d="m97.278 214.519 23.955 17.002 5.277-2.482-23.955-17.001-5.277 2.481Z" fill="url(#s)"/><path d="m105.86 184.007 23.542 16.635 4.176-4.044-26.983-15.256-.735 2.665Z" fill="#F7F7FA"/><path d="m106.594 181.342 23.954 17.002 5.278-2.481-23.955-17.048-5.277 2.527Z" fill="url(#t)"/><path d="m115.175 150.831 23.496 16.634 4.176-4.043-26.937-15.302-.735 2.711Z" fill="#F7F7FA"/><path d="m115.91 148.12 23.955 17.048 5.231-2.482-23.954-17.047-5.232 2.481Z" fill="url(#u)"/><path d="m124.445 117.654 23.541 16.634 4.177-4.043-26.984-15.302-.734 2.711Z" fill="#F7F7FA"/><path d="m125.18 114.943 23.954 17.048 5.278-2.481-23.955-17.048-5.277 2.481Z" fill="url(#v)"/><path d="m133.762 84.432 23.495 16.68 4.177-4.044-26.938-15.301-.734 2.665Z" fill="#F7F7FA"/><path d="m134.496 81.767 23.954 17.047 5.232-2.48-23.955-17.049-5.231 2.482Z" fill="url(#w)"/><path d="M166.481 68.579 102.51 292.36l1.606 2.021 63.283-222.448-.918-3.354Z" fill="#F7F7FA"/><path d="m167.445 71.933-63.329 222.448 6.792-3.262 63.42-221.76-6.883 2.574Z" fill="url(#x)"/><path d="M122.713 127.493c-.734 1.47-1.744 2.619-1.056 2.895.78.322 2.891-.873 3.121-.643 1.055 1.056-2.708 2.527-4.36 2.527-2.111 0-6.654 13.463-6.654 13.463l-5.139-2.113s6.562-10.523 7.25-13.464c.275-1.103 1.01-2.757 2.845-3.998.459-.321 2.846 1.149 3.35-.965.459-1.838 1.239-3.124 1.515-3.032.504.138-.138 3.86-.872 5.33Z" fill="#FFD1AA"/><path d="M87.973 149.917c.138 3.952 4.13 4.411 9.683 3.768 4.681-.505 11.105-1.746 16.337-6.479 2.065-1.884-3.579-6.295-5.186-5.882-1.606.46-5.231 1.746-10.83 2.482-6.7.873-10.142 2.619-10.004 6.111Z" fill="url(#y)"/><path d="M90.498 245.817c-.688.689-1.56 4.365-.918 5.054.368.414.826.644 1.331.827 4.085 1.563 10.371-3.905 11.381-4.779.964-.827 1.927-2.665 1.377-3.814-.413-.964-12.253 1.839-13.17 2.712Z" fill="url(#z)"/><path d="M96.418 242.554c-1.514.597-5.506 2.803-6.195 3.446-.734.69-1.285 3.079-.688 3.768.367.368 1.285.735 1.79.919 1.973.689 7.434-1.884 10.187-4.273.964-.827 2.524-2.757 2.019-3.906-.413-.965-4.222-1.057-7.113.046Z" fill="#0D0848"/><path d="M95.087 247.609c-.32 0-.596.321-.596.735 0 .413.275.735.596.735.322 0 .597-.322.597-.735 0-.368-.275-.735-.597-.735Z" fill="url(#A)"/><path d="M90.452 246.276s-1.055 1.011-.734 3.63c0 0 .459.781 1.79.873 0 0-.092-2.665.459-3.492l.275-.551-1.147-1.517-.643 1.057Z" fill="url(#B)"/><path d="M90.865 244.254c-.137.689-.23 1.379-.413 2.022.321-.184.78-.276 1.102-.046.367.23.55.689.412 1.103.964.184 2.066-.138 2.938-.506 2.523-1.056 2.982-2.527 2.753-3.032-.734-1.655-6.058.551-6.792.459Z" fill="#FFD1AA"/><path d="M88.523 212.318c-.413.919-1.239 5.285-.78 10.293.46 5.009 1.79 21.321 1.79 21.321 5.048 1.93 7.664-.505 7.664-.505s1.79-22.929 1.973-30.052c.138-7.076-9.545-3.584-10.647-1.057Z" fill="#1D1273"/><path d="M98.849 177.396c-3.717-3.263-7.434-2.712-8.628-1.793-5.002 3.768-4.956 12.775-4.68 15.762.229 2.711 2.065 17.691 2.799 22.056 1.101 6.433 10.784 6.893 10.784 2.114-.046-4.687 6.425-32.304-.275-38.139Z" fill="#1D1273"/><path d="M106.42 223.898c-.826.46-2.57 3.814-2.156 4.641.229.46.642.827 1.101 1.149 3.533 2.527 11.014-1.149 12.253-1.746 1.147-.551 2.523-2.068 2.294-3.308-.184-1.057-12.39-1.333-13.492-.736Z" fill="url(#C)"/><path d="M112.982 222.29c-1.606.184-6.012 1.333-6.838 1.792-.872.506-2.019 2.665-1.606 3.447.229.459 1.056 1.056 1.514 1.332 1.744 1.149 7.664.046 10.922-1.562 1.148-.552 3.167-2.022 2.937-3.263-.229-1.057-3.855-2.113-6.929-1.746Z" fill="#0D0848"/><path d="M110.413 226.839c-.322-.092-.643.184-.735.597-.091.414.046.782.367.874.322.091.643-.184.735-.598.091-.413-.046-.827-.367-.873Z" fill="url(#D)"/><path d="M106.283 224.358s-1.285.689-1.606 3.354c0 0 .23.873 1.515 1.287 0 0 .596-2.62 1.33-3.263l.413-.459-.734-1.747-.918.828Z" fill="url(#E)"/><path d="M107.201 222.474c-.275.643-.551 1.286-.918 1.883.367-.091.826-.091 1.102.23.275.322.321.781.137 1.149.872.414 2.019.414 2.983.276 2.708-.414 3.534-1.7 3.396-2.252-.321-1.792-6.058-.965-6.7-1.286Z" fill="#FFD1AA"/><path d="M116.287 191.043c-.735.735-2.891 5.376-4.36 10.155-1.423 4.825-6.47 21.321-6.47 21.321 3.946 3.676 7.801 1.149 7.801 1.149s9.958-20.218 12.757-26.743c2.754-6.525-7.755-7.812-9.728-5.882Z" fill="#3531A1"/><path d="M94.351 177.993c-4.543 1.976-4.268 7.26-3.992 8.731 1.101 6.157 5.92 7.719 8.673 8.822 2.524 1.011 15.052 3.952 19.274 5.239 6.241 1.929 10.738-6.158 6.883-9.007-3.212-2.343-24.734-16.45-30.838-13.785Z" fill="#3531A1"/><path d="M110.918 156.028c0-8.317-12.85-11.533-16.75-11.533-7.893 0-8.26 10.063-7.16 17.415 1.102 7.352-2.018 24.216-2.018 24.216 5.828 6.709 26.708 2.16 26.708 2.16-2.019-8.731-.78-24.951-.78-32.258Z" fill="url(#F)"/><path d="M107.018 132.731c-.092-.965-1.194-.276-1.928-.919-.78-.689-1.835-.919-2.845-1.011-.918-.092-1.881-.092-2.662.414-.55.367-.963.965-1.284 1.516-2.295 4.09-1.194 7.398-1.882 11.718 1.239.643 5.094 2.021 6.471 2.205.229.046-1.561-2.205-1.102-4.135 1.836.551 3.029-1.838 4.727-4.687.505-.827.229-2.206-.046-2.849-.275-.919.642-1.287.551-2.252Z" fill="#FFD1AA"/><path d="M103.208 127.585c.092-2.528-5.186-2.619-4.635.275-2.432-.367-5.782 1.747-4.451 5.009-1.331 2.573 1.193 5.147 1.881 6.709.138.322.689 1.654.689 1.654s3.304.873 4.634 0c1.515-1.011 2.066-2.803 2.387-4.503.55-2.757 2.203-1.424 2.203-3.814 1.055-.505 1.514 1.011 1.514 1.011 2.432-4.641-1.56-7.858-4.222-6.341Z" fill="#1D1273"/><path d="M102.749 144.449c-3.12-1.608-4.451-1.838-5.92-1.93a1.183 1.183 0 0 0-1.147.597l-.872 1.333 9.637 3.079c0-1.333-.918-2.666-1.698-3.079Z" fill="#fff"/><path d="M136.157 141.002c-1.055 1.241-1.101 1.884-1.606 1.333-.596-.597-1.331-2.206-1.652-2.252-.642-.092-.275 1.7.413 3.033.321.597-.092 2.114-.321 2.527-1.744 3.079-10.188 10.661-10.188 10.661l3.947 3.952s8.535-11.396 10.968-13.188c.917-.689 3.441-1.884 3.258-2.436-.184-.505-.597-2.94-1.01-3.4-.413-.459-3.442.46-1.377-.597 1.653-.873 2.892-2.62 2.295-2.39-.964.414-3.671 1.517-4.727 2.757Z" fill="#FFD1AA"/><path d="M101.832 153.317c-1.515 3.63 1.927 5.698 7.204 7.49 4.452 1.516 10.785 3.079 17.531 1.011 2.661-.827-.597-7.26-2.249-7.536-1.652-.276-5.461-.597-10.876-2.298-6.425-2.021-10.279-1.884-11.61 1.333Z" fill="url(#G)"/><defs><linearGradient id="a" x1="107.501" y1="266.928" x2="223.865" y2="266.928" gradientUnits="userSpaceOnUse"><stop offset="0" stop-color="#C8D6F9"/><stop offset="1" stop-color="#BAC1E8"/></linearGradient><linearGradient id="b" x1="152.462" y1="211.763" x2="201.83" y2="211.763" gradientUnits="userSpaceOnUse"><stop offset="0" stop-color="#C8D6F9"/><stop offset="1" stop-color="#BAC1E8"/></linearGradient><linearGradient id="c" x1="149.796" y1="213.118" x2="199.164" y2="213.118" gradientUnits="userSpaceOnUse"><stop stop-color="#F0F0FB"/><stop offset="1" stop-color="#D2D7F6"/></linearGradient><linearGradient id="d" x1="65.198" y1="141.603" x2="294.328" y2="141.603" gradientUnits="userSpaceOnUse"><stop offset="0" stop-color="#C8D6F9"/><stop offset="1" stop-color="#BAC1E8"/></linearGradient><linearGradient id="e" x1="69.654" y1="142.917" x2="281.986" y2="142.917" gradientUnits="userSpaceOnUse"><stop stop-color="#4D5FD1"/><stop offset="1" stop-color="#45D7DE"/></linearGradient><linearGradient id="f" x1="212.789" y1="241.222" x2="212.789" y2="186.081" gradientUnits="userSpaceOnUse"><stop stop-color="#1D1273" stop-opacity=".29"/><stop offset="1" stop-opacity="0"/></linearGradient><linearGradient id="g" x1="184.388" y1="222.841" x2="184.388" y2="147.942" gradientUnits="userSpaceOnUse"><stop stop-color="#1D1273" stop-opacity=".29"/><stop offset="1" stop-opacity="0"/></linearGradient><linearGradient id="h" x1="154.531" y1="201.244" x2="154.531" y2="110.721" gradientUnits="userSpaceOnUse"><stop stop-color="#1D1273" stop-opacity=".29"/><stop offset="1" stop-opacity="0"/></linearGradient><linearGradient id="i" x1="118.589" y1="180.566" x2="118.589" y2="90.503" gradientUnits="userSpaceOnUse"><stop stop-color="#1D1273" stop-opacity=".29"/><stop offset="1" stop-opacity="0"/></linearGradient><linearGradient id="j" x1="94.892" y1="98.586" x2="112.23" y2="98.586" gradientUnits="userSpaceOnUse"><stop stop-color="#FF6279"/><stop offset="1" stop-color="#FFAD60"/></linearGradient><linearGradient id="k" x1="168.582" y1="164.069" x2="185.918" y2="164.069" gradientUnits="userSpaceOnUse"><stop stop-color="#FF6279"/><stop offset="1" stop-color="#FFAD60"/></linearGradient><linearGradient id="l" x1="132.03" y1="131.006" x2="149.368" y2="131.006" gradientUnits="userSpaceOnUse"><stop stop-color="#FF6279"/><stop offset="1" stop-color="#FFAD60"/></linearGradient><linearGradient id="m" x1="204.362" y1="189.575" x2="221.702" y2="189.575" gradientUnits="userSpaceOnUse"><stop stop-color="#FF6279"/><stop offset="1" stop-color="#FFAD60"/></linearGradient><linearGradient id="n" x1="133.033" y1="75.031" x2="246.671" y2="75.031" gradientUnits="userSpaceOnUse"><stop stop-color="#FF6279"/><stop offset="1" stop-color="#FFAD60"/></linearGradient><linearGradient id="o" x1="182.529" y1="76.103" x2="191.612" y2="76.103" gradientUnits="userSpaceOnUse"><stop stop-color="#FF6279"/><stop offset="1" stop-color="#FFAD60"/></linearGradient><linearGradient id="p" x1="184.906" y1="76.103" x2="189.148" y2="76.103" gradientUnits="userSpaceOnUse"><stop stop-color="#5752D0"/><stop offset="1" stop-color="#7F7CF9"/></linearGradient><linearGradient id="q" x1="77.847" y1="170.54" x2="148.04" y2="170.54" gradientUnits="userSpaceOnUse"><stop offset="0" stop-color="#C8D6F9"/><stop offset="1" stop-color="#BAC1E8"/></linearGradient><linearGradient id="r" x1="88.005" y1="254.949" x2="117.232" y2="254.949" gradientUnits="userSpaceOnUse"><stop offset="0" stop-color="#C8D6F9"/><stop offset="1" stop-color="#BAC1E8"/></linearGradient><linearGradient id="s" x1="97.298" y1="221.771" x2="126.527" y2="221.771" gradientUnits="userSpaceOnUse"><stop offset="0" stop-color="#C8D6F9"/><stop offset="1" stop-color="#BAC1E8"/></linearGradient><linearGradient id="t" x1="106.594" y1="188.586" x2="135.819" y2="188.586" gradientUnits="userSpaceOnUse"><stop offset="0" stop-color="#C8D6F9"/><stop offset="1" stop-color="#BAC1E8"/></linearGradient><linearGradient id="u" x1="115.896" y1="155.408" x2="145.109" y2="155.408" gradientUnits="userSpaceOnUse"><stop offset="0" stop-color="#C8D6F9"/><stop offset="1" stop-color="#BAC1E8"/></linearGradient><linearGradient id="v" x1="125.183" y1="122.227" x2="154.404" y2="122.227" gradientUnits="userSpaceOnUse"><stop offset="0" stop-color="#C8D6F9"/><stop offset="1" stop-color="#BAC1E8"/></linearGradient><linearGradient id="w" x1="134.477" y1="89.049" x2="163.7" y2="89.049" gradientUnits="userSpaceOnUse"><stop offset="0" stop-color="#C8D6F9"/><stop offset="1" stop-color="#BAC1E8"/></linearGradient><linearGradient id="x" x1="104.124" y1="181.88" x2="174.315" y2="181.88" gradientUnits="userSpaceOnUse"><stop offset="0" stop-color="#C8D6F9"/><stop offset="1" stop-color="#BAC1E8"/></linearGradient><linearGradient id="y" x1="87.951" y1="147.609" x2="114.4" y2="147.609" gradientUnits="userSpaceOnUse"><stop stop-color="#F0F0FB"/><stop offset="1" stop-color="#D2D7F6"/></linearGradient><linearGradient id="z" x1="89.367" y1="247.429" x2="103.857" y2="247.429" gradientUnits="userSpaceOnUse"><stop stop-color="#F0F0FB"/><stop offset="1" stop-color="#D2D7F6"/></linearGradient><linearGradient id="A" x1="94.52" y1="248.37" x2="95.669" y2="248.37" gradientUnits="userSpaceOnUse"><stop stop-color="#F0F0FB"/><stop offset="1" stop-color="#D2D7F6"/></linearGradient><linearGradient id="B" x1="89.671" y1="248.026" x2="92.279" y2="248.026" gradientUnits="userSpaceOnUse"><stop stop-color="#F0F0FB"/><stop offset="1" stop-color="#D2D7F6"/></linearGradient><linearGradient id="C" x1="104.191" y1="227.084" x2="119.916" y2="227.084" gradientUnits="userSpaceOnUse"><stop stop-color="#F0F0FB"/><stop offset="1" stop-color="#D2D7F6"/></linearGradient><linearGradient id="D" x1="109.635" y1="227.541" x2="110.811" y2="227.541" gradientUnits="userSpaceOnUse"><stop stop-color="#F0F0FB"/><stop offset="1" stop-color="#D2D7F6"/></linearGradient><linearGradient id="E" x1="104.647" y1="226.252" x2="107.906" y2="226.252" gradientUnits="userSpaceOnUse"><stop stop-color="#F0F0FB"/><stop offset="1" stop-color="#D2D7F6"/></linearGradient><linearGradient id="F" x1="84.978" y1="167.134" x2="111.698" y2="167.134" gradientUnits="userSpaceOnUse"><stop offset="0" stop-color="#D82C53"/><stop offset="1" stop-color="#FF5774"/></linearGradient><linearGradient id="G" x1="101.445" y1="156.731" x2="127.543" y2="156.731" gradientUnits="userSpaceOnUse"><stop stop-color="#F0F0FB"/><stop offset="1" stop-color="#D2D7F6"/></linearGradient></defs></svg>