<svg width="356" height="300" fill="none" xmlns="http://www.w3.org/2000/svg"><path d="M1.762 206.996c0 1.987 1.283 3.974 3.902 5.477l132.492 76.687c5.184 3.007 13.522 3.007 18.653 0l193.58-112.613c2.566-1.504 3.848-3.437 3.848-5.371v6.821c0 1.933-1.282 3.92-3.848 5.37L156.755 295.98c-5.131 3.007-13.468 3.007-18.652 0L5.663 219.293c-2.618-1.503-3.9-3.49-3.9-5.477v-6.82Z" fill="url(#a)"/><path d="m5.684 212.898 132.497 76.048c5.185 2.983 13.523 2.983 18.654-.053l193.587-111.675c5.131-2.983 5.078-7.776-.107-10.758L217.818 90.465c-5.131-2.982-13.522-2.982-18.653.054L5.577 202.14c-5.13 2.982-5.077 7.775.107 10.757Z" fill="#F8F6FB"/><path d="m14.1 199.874 146.56 84.244L350.713 174.19 204.152 90 14.099 199.874Z" fill="url(#b)"/><path d="m324.351 195.079 11.307-6.129c.531-.299.956-.05.956.548v.299c0 .598-.425 1.296-.956 1.595l-11.307 6.128c-.53.299-.955.05-.955-.548v-.299c0-.598.425-1.295.955-1.594Z" fill="#fff"/><path d="M322.779 196.006c.054-.219.217-.438.325-.657.163-.218.326-.383.543-.547l11.556-6.73c.272-.164.543-.164.706-.055l.705.438c-.163-.109-.434-.109-.705.055l-11.557 6.73c-.217.109-.38.328-.542.547a1.85 1.85 0 0 0-.326.657 1.966 1.966 0 0 0-.108.547v.328c0 .328.108.547.271.657l-.705-.438c-.163-.109-.272-.328-.272-.657v-.328c0-.164.055-.383.109-.547Zm-11.285 6.128c.162-.219.325-.383.542-.547l5.48-3.228c.271-.164.543-.164.705-.055l.706.438c-.163-.11-.434-.11-.706.055l-5.48 3.173c-.217.11-.379.328-.542.547a1.867 1.867 0 0 0-.326.657c-.054.219-.108.383-.108.547v.328c0 .329.108.547.271.657l-.705-.438c-.163-.109-.271-.328-.271-.656v-.329c0-.164.054-.383.108-.547.054-.219.163-.438.326-.602Z" fill="#EFEFF4"/><path d="m312.982 201.866 5.847-3.196c.579-.331 1.042-.056 1.042.606v.33c0 .662-.463 1.433-1.042 1.764l-5.847 3.196c-.578.33-1.042.055-1.042-.606v-.331c0-.661.464-1.488 1.042-1.763Z" fill="#fff"/><path d="m268.693 122.014 17.258 10.059c.533.322.586.753.106 1.022-.479.269-1.278.215-1.811-.054l-17.258-10.059c-.532-.323-.585-.807-.106-1.022.479-.269 1.278-.269 1.811.054Zm-90.977 55.78 39.949 23.291c.852.484 2.184.484 3.036 0 .852-.484.852-1.291 0-1.775l-39.949-23.291c-.852-.484-2.183-.484-3.036 0-.852.484-.852 1.291 0 1.775Zm-40.215-14.9 39.949 23.291c.852.485 2.237.485 3.036 0 .852-.484.852-1.291 0-1.775l-39.949-23.291c-.852-.484-2.184-.484-3.036 0-.852.484-.852 1.291 0 1.775Zm100.405 45.722-11.665-6.778c-.853-.484-2.184-.484-3.036 0-.853.484-.853 1.291 0 1.775l11.665 6.778c.852.484 2.184.484 3.036 0 .852-.484.852-1.291 0-1.775Zm-101.843-50.24-11.665-6.778c-.852-.484-2.237-.484-3.036 0-.852.485-.852 1.291 0 1.776l11.665 6.777c.852.484 2.184.484 3.036 0 .799-.484.799-1.291 0-1.775Zm38.83 14.577-43.677-25.496c-.852-.484-2.184-.484-3.036 0-.852.484-.852 1.291 0 1.775l43.677 25.496c.852.484 2.184.484 3.036 0 .852-.538.852-1.291 0-1.775Zm53.638 39.321-43.677-25.497c-.852-.484-2.184-.484-3.036 0-.853.484-.853 1.291 0 1.775l43.677 25.497c.852.484 2.184.484 3.036 0 .852-.484.852-1.291 0-1.775Z" fill="#CBD3FA"/><path d="m306.884 174.478-18.584-10.9c-2.525-1.526-2.578-3.924 0-5.395 2.578-1.471 6.714-1.526 9.292 0l18.583 10.899c2.579 1.472 2.579 3.924 0 5.45-2.578 1.417-6.713 1.417-9.291-.054Z" fill="#F3F1F6"/><path d="m158.518 202.263-11.899-6.76c-1.631-.905-1.631-2.396 0-3.354 1.63-.905 4.292-.905 5.922 0l11.9 6.76c1.63.905 1.63 2.449 0 3.354-1.63.904-4.293.904-5.923 0Z" fill="url(#c)"/><path d="m43.178 195.265 125.583 72.088.427-.212L43.605 195l-.427.265Z" fill="#D1D3D4"/><path d="m166.503 197.853-11.954-6.736c-1.63-.902-1.63-2.44 0-3.342 1.63-.955 4.293-.955 5.923 0l11.899 6.736c1.63.902 1.63 2.44 0 3.342-1.575.902-4.238.902-5.868 0Z" fill="#F3F1F6"/><path d="m148.04 256.349 14.634 8.357 62.91-36.589-14.634-8.411-62.91 36.643Z" fill="#D66F5A"/><path d="m127.772 244 14.486 8.353 48.96-27.824-14.485-8.352L127.772 244Z" fill="#F3F1F6"/><path d="m107.505 232.667 14.487 8.215 31.335-17.372-14.541-8.216-31.281 17.373Z" fill="url(#d)"/><path d="M93.651 175.202c-2.832-1.338-7.054-1.124-9.406.535-2.351 1.659-1.924 4.067.962 5.458 2.886 1.338 7.054 1.124 9.406-.535 2.351-1.659 1.924-4.12-.962-5.458Z" fill="#FF9D26"/><path d="M97.713 172.259c-5.719-2.73-14.163-2.195-18.812 1.123-4.703 3.318-3.848 8.188 1.87 10.863 5.719 2.73 14.162 2.195 18.812-1.07 4.703-3.371 3.848-8.241-1.87-10.916Zm-14.59 10.328c-4.169-1.98-4.757-5.512-1.39-7.92 3.367-2.408 9.513-2.783 13.681-.803 4.17 1.98 4.757 5.512 1.39 7.92-3.367 2.408-9.513 2.783-13.681.803Z" fill="#00EBE9"/><path d="M78.9 173.329c-2.511 1.766-3.42 4.013-2.832 6.154l3.58-.428c-.373-1.552.268-3.104 2.085-4.388 3.367-2.408 9.513-2.783 13.681-.803l2.298-1.605c-5.665-2.73-14.109-2.248-18.812 1.07Z" fill="url(#e)"/><path d="m97.712 172.259-2.298 1.605c3.207 1.498 4.329 3.96 3.1 6.1l3.474.643c1.656-2.89.16-6.261-4.276-8.348Zm19.827 18.408c-3.634-.428-7.161.91-7.909 2.997-.748 2.087 1.603 4.12 5.237 4.549 3.581.428 7.162-.91 7.91-2.997.748-2.087-1.604-4.121-5.238-4.549Z" fill="#F3F1F6"/><path d="M119.036 186.814c-7.215-.856-14.323 1.82-15.766 6.047-1.496 4.174 3.207 8.295 10.422 9.151 7.215.856 14.322-1.873 15.819-6.047 1.389-4.174-3.26-8.295-10.475-9.151Zm-4.649 13.111c-5.238-.642-8.658-3.585-7.589-6.636 1.068-3.05 6.252-4.976 11.49-4.388 5.237.589 8.658 3.586 7.589 6.636-1.123 3.05-6.253 4.977-11.49 4.388Z" fill="url(#f)"/><path d="m126.999 189.757-2.832 1.338c1.55 1.231 2.244 2.836 1.71 4.442-1.069 3.05-6.253 4.977-11.49 4.388l-.748 2.087c7.214.856 14.322-1.873 15.819-6.047.801-2.248-.214-4.495-2.459-6.208Z" fill="#FF9D26"/><path d="m106.744 195.323-3.634.321c.855 3.05 4.917 5.672 10.528 6.314l.748-2.087c-4.061-.428-7.001-2.354-7.642-4.548Z" fill="#00EBE9"/><path d="M92.048 205.437c-3.58-.428-7.161.91-7.91 2.997-.748 2.087 1.604 4.12 5.184 4.548 3.581.428 7.162-.91 7.91-2.997.748-2.087-1.55-4.12-5.184-4.548Z" fill="#F3F1F6"/><path d="M93.49 201.584c-7.214-.856-14.322 1.819-15.765 5.993-1.496 4.174 3.207 8.295 10.421 9.151 7.215.856 14.323-1.819 15.766-5.993 1.496-4.228-3.207-8.295-10.421-9.151Zm-4.649 13.057c-5.237-.642-8.658-3.585-7.535-6.636 1.069-3.05 6.252-4.976 11.49-4.388 5.237.642 8.658 3.586 7.589 6.636-1.123 3.05-6.253 5.03-11.544 4.388Z" fill="#F3F1F6"/><path d="m101.507 204.474-2.832 1.337c1.55 1.231 2.245 2.837 1.71 4.442-1.069 3.05-6.253 4.977-11.49 4.388l-.695 2.087c7.215.856 14.323-1.819 15.766-5.993.748-2.301-.267-4.549-2.459-6.261Z" fill="url(#g)"/><path d="m81.199 210.093-3.635.321c.856 3.05 4.917 5.672 10.529 6.314l.694-2.087c-4.008-.481-6.894-2.354-7.588-4.548Z" fill="#00EBE9"/><path d="M65.058 189.757c-3.58-.535-7.215.696-8.177 2.73-.962 2.087 1.176 4.174 4.757 4.709 3.58.535 7.215-.696 8.176-2.729.963-2.034-1.175-4.174-4.756-4.71Z" fill="#FF9D26"/><path d="M66.715 185.958c-7.161-1.124-14.483 1.338-16.407 5.512-1.924 4.12 2.352 8.348 9.513 9.472 7.108 1.07 14.483-1.392 16.353-5.512 1.924-4.174-2.351-8.402-9.459-9.472Zm-5.986 12.897c-5.183-.803-8.283-3.907-6.894-6.904 1.39-2.996 6.734-4.762 11.918-4.013 5.184.803 8.284 3.853 6.894 6.903-1.39 2.997-6.734 4.816-11.918 4.014Z" fill="#F3F1F6"/><path d="M66.715 185.958c-3.848-.589-7.803-.161-10.903 1.07l2.138 1.713c2.245-.857 5.024-1.178 7.803-.696 5.184.803 8.284 3.853 6.894 6.903l3.527.535c1.924-4.227-2.351-8.455-9.46-9.525Z" fill="url(#h)"/><path d="M72.647 194.841c-1.069 2.301-4.489 3.907-8.39 4.121l.374 2.087c5.344-.321 10.047-2.515 11.49-5.726l-3.474-.482Z" fill="#00EBE9"/><path d="m118.395 168.513-14.269-8.242c-.695-.428-.695-1.07 0-1.444.695-.428 1.817-.428 2.565 0l14.27 8.241c.694.428.694 1.07 0 1.498-.695.375-1.871.375-2.566-.053Z" fill="#F3F1F6"/><path d="m114.547 170.76-14.269-8.241c-.695-.428-.695-1.07 0-1.445.695-.428 1.87-.428 2.565 0l14.269 8.241c.695.428.695 1.07 0 1.445-.748.428-1.87.428-2.565 0Z" fill="url(#i)"/><path d="m110.646 173.008-14.269-8.241c-.695-.429-.695-1.071 0-1.499.695-.428 1.817-.428 2.565 0l14.269 8.241c.695.428.695 1.071 0 1.499-.748.428-1.87.428-2.565 0Z" fill="#FF9D26"/><path d="m147.948 185.583-14.269-8.241c-.695-.428-.695-1.07 0-1.445.695-.428 1.87-.428 2.565 0l14.269 8.242c.695.428.695 1.07 0 1.498-.748.375-1.87.375-2.565-.054Zm-3.848 2.248-14.269-8.241c-.695-.428-.695-1.07 0-1.445.695-.428 1.817-.428 2.512 0l14.269 8.241c.695.428.695 1.07 0 1.498-.695.322-1.817.322-2.512-.053Z" fill="#00EBE9"/><path d="m140.199 190.079-14.269-8.241c-.695-.429-.695-1.071 0-1.499.695-.428 1.817-.428 2.566 0l14.215 8.241c.695.428.695 1.07 0 1.499-.694.428-1.817.374-2.512 0Z" fill="#F3F1F6"/><path d="m292.803 178.552-11.538-6.707c-.843-.479-2.16-.479-3.003 0s-.843 1.277 0 1.756l11.538 6.707c.843.479 2.161.479 3.003 0 .843-.479.843-1.277 0-1.756Zm-17.07-9.848-8.745-5.109c-.843-.479-2.16-.479-3.003 0s-.843 1.277 0 1.756l8.745 5.11c.843.479 2.16.479 3.003 0s.843-1.278 0-1.757Zm7.218 15.596-11.538-6.707c-.843-.479-2.16-.479-3.003 0-.843.48-.843 1.278 0 1.757l11.538 6.707c.843.479 2.16.479 3.003 0 .843-.533.843-1.278 0-1.757Zm-19.335 11.284-11.486-6.759c-.843-.48-2.212-.48-3.003 0-.843.479-.843 1.277 0 1.756l11.538 6.707c.843.479 2.161.479 3.004 0 .79-.426.79-1.224-.053-1.704Z" fill="#CBD3FA"/><path d="M258.682 101.674v42.436c0 6.957-4.436 13.914-13.307 19.265l-.107-45.058c.054 0 13.414-9.686 13.414-16.643Z" fill="url(#j)"/><path d="M233.457 99.052c0-.428-.053-.803-.16-1.23a4.871 4.871 0 0 0-.321-1.178c-2.031-5.512-8.871-8.027-14.109-8.937-5.932-1.07-12.345-.642-18.01 1.552-1.069.428-2.084.91-2.993 1.445l.054 45.808a25.633 25.633 0 0 1 2.993-1.445c5.558-2.194 11.81-2.622 17.689-1.606 5.024.857 11.33 3.051 13.949 7.813.213.375.481.803.641 1.178.053.214.16.374.267.588V99.052Z" fill="url(#k)"/><path d="m245.322 147.589-18.01-10.489v-28.308l18.01 10.488v28.309Zm-47.457-6.743-18.011-10.489V81.179l18.011 10.488v49.179Z" fill="#D66F5A"/><path d="M245.535 81.179c17.102 12.094 18.01 27.613-.214 38.155l-18.064-10.489c8.177-4.763 8.231-12.415.107-17.124-8.123-4.71-21.377-4.71-29.554 0L179.8 81.232c18.224-10.596 47.511-12.95 65.735-.053Z" fill="url(#l)"/><path d="M197.864 96.376v39.6l-.267.321c-1.497.91-2.726 1.927-3.634 2.997v1.445l-1.978 2.462-6.947 8.562V88.885l12.826 7.491Z" fill="url(#m)"/><path d="m179.801 85.78 18.01 10.49c-6.574 3.799-8.07 9.311-3.902 14.074l-22.82 6.742c-9.245-10.595-5.825-22.85 8.712-31.305Z" fill="#F8F6FB"/><path d="M166.012 106.49c0 .054.054.108.054.161.053.375.107.749.16 1.07 0 .054 0 .107.054.107.053.375.16.75.267 1.124 0 .054.053.161.053.214.107.375.214.749.374 1.124 0 .053.054.107.054.16.16.429.32.803.481 1.231v.054c.214.428.374.803.641 1.231.053.053.053.16.107.214.053.107.16.214.214.321.053.107.16.267.267.428.053.107.16.214.214.321.107.107.16.268.267.375.053.107.16.214.214.374.107.107.213.268.267.375.107.107.16.214.267.321.107.107.16.214.267.321l.802.963.053 39.654-.801-.964-.107-.107c-.054-.053-.107-.16-.16-.214-.107-.107-.161-.214-.268-.321a1.636 1.636 0 0 1-.267-.374c-.107-.107-.16-.214-.267-.322-.107-.107-.16-.267-.267-.374-.054-.107-.161-.214-.214-.321-.107-.161-.16-.268-.267-.428-.054-.107-.161-.214-.214-.321 0-.054-.053-.054-.053-.107 0-.054-.054-.054-.054-.107-.214-.429-.427-.803-.641-1.231v-.054a12.262 12.262 0 0 1-.535-1.231c0-.053-.053-.053-.053-.107v-.053a9.31 9.31 0 0 1-.374-1.124c0-.053-.054-.16-.054-.214a8.637 8.637 0 0 1-.267-1.124v-.16l-.16-1.124v-.161c-.054-.374-.054-.749-.054-1.123v-.107c0-.107-.107-.268-.107-.375l-.16-39.653v-.054c0 .161.107.321.107.535 0 .428.107.803.16 1.177Z" fill="url(#n)"/><path d="M194.016 149.836v.214l-22.713 6.69-.161.053v-.214l-.053-24.027v-15.68l13.948-4.12 8.872-2.623.053 23.439v7.171l.054 9.097Z" fill="url(#o)"/><path d="M174.724 134.531c9.673 8.188 23.996 13.004 36.341 13.165h.267v23.599s-1.015 0-1.55-.053c-12.666-.428-26.935-3.639-36.501-12.522-.748-.696-1.443-1.392-2.085-2.195L171.143 131c1.015 1.284 2.245 2.461 3.581 3.531Z" fill="#D66F5A"/><path d="M211.385 130.893v16.803h-.267c-12.292 0-26.721-5.03-36.341-13.164a28.154 28.154 0 0 1-3.634-3.479l22.82-6.743c3.474 3.96 10.208 6.369 17.422 6.583Z" fill="url(#p)"/><path d="M213.577 154.92c10.207.321 21.377-2.355 30.355-7.117.428-.268.909-.482 1.39-.749l.053 16.375c-9.299 5.351-20.255 7.599-30.89 7.866-1.069.054-1.87.054-3.153 0V154.92h2.245Z" fill="url(#q)"/><path d="M227.311 136.511 245.322 147c-.481.268-.909.535-1.39.749-8.978 4.816-20.201 7.492-30.355 7.118h-2.245V139.99c3.581.107 7.215-.268 10.635-1.285a19.972 19.972 0 0 0 5.344-2.194Z" fill="#F8F6FB"/><path opacity=".8" d="M136.459 48.642c.321 6.69 4.062 13.325 11.009 19.212 1.603 1.391 12.292 8.669 19.186 11.023 12.506 4.335 26.828 7.385 41.899 7.385 19.934 0 38.479-4.388 52.267-12.415 10.475-6.1 16.995-13.592 18.759-21.459-2.085-7.973-8.551-18.73-20.202-24.883-28.378-14.984-74.499-14.93-102.717 0-11.223 5.993-17.903 13.432-20.201 21.137Z" fill="url(#r)"/><path d="M259.323 16.695c-28.378-14.984-74.499-14.984-102.717 0-16.674 8.883-23.461 20.977-20.308 32.483 2.084-7.92 8.872-15.52 20.308-21.62 28.218-14.984 74.339-14.984 102.717-.053 11.651 6.154 18.171 16.91 20.202 24.883 3.206-11.559-3.314-26.81-20.202-35.693Z" fill="url(#s)"/><path d="m128.656 48.107-.053 11.345c0 6.475 2.137 13.914 4.222 17.338 2.404 3.907 5.451 7.332 12.879 12.95l1.71-12.04c.054 0-16.781-19.746-18.758-29.593Z" fill="url(#t)"/><path d="M157.569 79.787c9.406 3.693 12.773 4.816 16.193 5.833 6.734 1.927 13.574 3.318 20.469 4.014 12.131 1.23 24.476 1.016 36.501-1.124 11.757-2.087 23.515-5.833 33.883-12.148 15.391-9.311 23.14-26.97 23.14-26.97l-.053 8.562c-.054 12.254-7.749 24.455-23.141 33.82-5.825 3.532-12.131 6.261-18.544 8.348a112.371 112.371 0 0 1-17.743 4.174c-6.093.964-12.239 1.499-18.438 1.499-12.666 0-36.127-1.606-52.374-10.114V79.787h.107Z" fill="url(#u)"/><path d="m157.515 95.627-32.654 17.82.054-10.863 32.6-17.82v10.863Z" fill="url(#v)"/><path d="m118.822 93.112 3.741 10.703 34.952-18.998c41.418 15.894 79.843 11.666 107.152-4.227 15.071-8.776 22.714-20.175 23.088-31.68.16-5.458-1.336-10.97-4.543-16.161a36.282 36.282 0 0 0-2.886-4.174c-.588-.696-1.122-1.338-1.71-2.034-.588-.695-1.283-1.338-1.924-2.033-1.336-1.284-2.779-2.622-4.382-3.853-.802-.642-1.603-1.23-2.459-1.873-.427-.321-.855-.589-1.282-.91-.909-.588-1.764-1.177-2.726-1.766-.481-.267-.962-.588-1.496-.856-31.157-17.98-81.661-17.98-112.604 0-.481.268-.962.589-1.443.856-.802.535-1.657 1.017-2.405 1.552a53.34 53.34 0 0 0-6.253 4.763c-.694.642-1.389 1.284-2.03 1.926-.642.589-1.176 1.178-1.764 1.82-.267.32-3.474 4.334-3.474 4.388-.321.428-.588.803-.855 1.23-.16.268-1.122 1.927-1.443 2.516-.214.374-.374.749-.588 1.124-.16.32-.267.642-.427.963-.214.481-.428 1.017-.642 1.498a4.749 4.749 0 0 0-.267.803c-.214.589-.641 2.14-.695 2.408-.16.696-.32 1.445-.427 2.14-.107.375-.107.75-.161 1.07a19.555 19.555 0 0 0-.213 3.051v.856c.16 8.937 3.046 21.673 17.582 30.075l-27.416 14.823Zm28.646-25.258c-7.108-6.047-10.956-12.897-11.063-19.8v-.696c0-.696.053-1.391.107-2.033.053-.108.053-.268.053-.375.054-.107.054-.321.107-.482.107-.535.214-1.016.321-1.552.053-.214.374-1.337.534-1.765.054-.161.107-.375.214-.59.16-.427.321-.802.481-1.176.107-.215.214-.482.321-.75.107-.214.267-.535.427-.802.267-.482.962-1.713 1.176-1.98.16-.268.321-.482.481-.75.534-.695 2.512-3.21 3.046-3.853.428-.481.909-.963 1.336-1.39.642-.643 1.123-1.125 1.71-1.606a52.532 52.532 0 0 1 5.452-4.174c.694-.482 1.442-.91 2.137-1.392.321-.214.535-.32.802-.481l.641-.375c13.682-7.973 32.28-12.415 52.214-12.415 19.934 0 38.585 4.442 52.534 12.469.428.267.909.535 1.336.802a31.856 31.856 0 0 1 2.458 1.606c.268.16 1.123.749 1.123.749a78.3 78.3 0 0 1 2.191 1.605 54.666 54.666 0 0 1 3.741 3.265c.534.535 1.069 1.07 1.603 1.659.481.535 1.016 1.123 1.497 1.712a34.872 34.872 0 0 1 2.244 3.157c2.458 4.014 3.581 8.027 3.474 12.04-.267 9.205-7.108 18.195-19.239 25.26-13.789 8.026-32.333 12.414-52.267 12.414-15.071 0-29.394-3.05-41.9-7.385-7.001-2.247-17.636-9.525-19.292-10.916Z" fill="#F8F6FB"/><path d="M125.075 94.824c3.207 3.532 5.451 8.188 6.2 12.951.106.856.213 1.659.213 2.515 0 3.585-1.282 6.1-3.313 7.278l-59.75 34.837c2.032-1.178 3.314-3.693 3.314-7.278 0-5.084-2.244-10.221-5.344-14.128-1.496-1.98-3.367-3.799-5.451-5.083-1.977-1.231-4.543-2.248-6.894-1.713-.588.107-1.176.321-1.657.642 0 0 59.856-34.89 59.909-34.944 4.596-2.515 9.941 1.766 12.773 4.923Z" fill="#1565C0"/><path d="M60.463 125.541c6.253 3.639 11.277 12.362 11.277 19.532 0 7.171-5.078 10.114-11.33 6.476-6.253-3.586-11.277-12.362-11.277-19.533 0-7.171 5.13-10.06 11.33-6.475Z" fill="#1D1273"/><defs><linearGradient id="a" x1="1.749" y1="234.675" x2="354.177" y2="234.675" gradientUnits="userSpaceOnUse"><stop stop-color="#C8D6F9"/><stop offset="1" stop-color="#BAC1E8"/></linearGradient><linearGradient id="b" x1="14.096" y1="187.035" x2="350.733" y2="187.035" gradientUnits="userSpaceOnUse"><stop stop-color="#4D5FD1"/><stop offset="1" stop-color="#45D7DE"/></linearGradient><linearGradient id="c" x1="145.354" y1="197.204" x2="165.668" y2="197.204" gradientUnits="userSpaceOnUse"><stop stop-color="#FF6279"/><stop offset="1" stop-color="#FFAD60"/></linearGradient><linearGradient id="d" x1="107.481" y1="228.082" x2="153.352" y2="228.082" gradientUnits="userSpaceOnUse"><stop stop-color="#FF6279"/><stop offset="1" stop-color="#FFAD60"/></linearGradient><linearGradient id="e" x1="75.904" y1="174.99" x2="97.737" y2="174.99" gradientUnits="userSpaceOnUse"><stop stop-color="#FF6279"/><stop offset="1" stop-color="#FFAD60"/></linearGradient><linearGradient id="f" x1="102.955" y1="194.397" x2="129.707" y2="194.397" gradientUnits="userSpaceOnUse"><stop stop-color="#FF6279"/><stop offset="1" stop-color="#FFAD60"/></linearGradient><linearGradient id="g" x1="88.13" y1="210.688" x2="104.192" y2="210.688" gradientUnits="userSpaceOnUse"><stop stop-color="#FF6279"/><stop offset="1" stop-color="#FFAD60"/></linearGradient><linearGradient id="h" x1="55.815" y1="190.535" x2="76.629" y2="190.535" gradientUnits="userSpaceOnUse"><stop stop-color="#FF6279"/><stop offset="1" stop-color="#FFAD60"/></linearGradient><linearGradient id="i" x1="99.768" y1="165.909" x2="117.614" y2="165.909" gradientUnits="userSpaceOnUse"><stop stop-color="#FF6279"/><stop offset="1" stop-color="#FFAD60"/></linearGradient><linearGradient id="j" x1="246.417" y1="132.539" x2="256.325" y2="132.539" gradientUnits="userSpaceOnUse"><stop stop-color="#FF6279"/><stop offset="1" stop-color="#FFAD60"/></linearGradient><linearGradient id="k" x1="215.662" y1="135.559" x2="215.662" y2="87.349" gradientUnits="userSpaceOnUse"><stop stop-color="#FF6279"/><stop offset="1" stop-color="#FFAD60"/></linearGradient><linearGradient id="l" x1="179.813" y1="95.818" x2="258.693" y2="95.818" gradientUnits="userSpaceOnUse"><stop stop-color="#FF6279"/><stop offset="1" stop-color="#FFAD60"/></linearGradient><linearGradient id="m" x1="185.024" y1="120.318" x2="197.856" y2="120.318" gradientUnits="userSpaceOnUse"><stop stop-color="#F0F0FB"/><stop offset="1" stop-color="#D2D7F6"/></linearGradient><linearGradient id="n" x1="165.758" y1="130.822" x2="171.16" y2="130.822" gradientUnits="userSpaceOnUse"><stop stop-color="#F0F0FB"/><stop offset="1" stop-color="#D2D7F6"/></linearGradient><linearGradient id="o" x1="171.091" y1="133.453" x2="193.992" y2="133.453" gradientUnits="userSpaceOnUse"><stop stop-color="#C8D6F9"/><stop offset="1" stop-color="#BAC1E8"/></linearGradient><linearGradient id="p" x1="171.097" y1="135.996" x2="211.36" y2="135.996" gradientUnits="userSpaceOnUse"><stop stop-color="#FF6279"/><stop offset="1" stop-color="#FFAD60"/></linearGradient><linearGradient id="q" x1="211.351" y1="159.16" x2="245.414" y2="159.16" gradientUnits="userSpaceOnUse"><stop stop-color="#C8D6F9"/><stop offset="1" stop-color="#BAC1E8"/></linearGradient><linearGradient id="r" x1="279.54" y1="51.311" x2="136.467" y2="51.311" gradientUnits="userSpaceOnUse"><stop stop-color="#45D7DE"/><stop offset="1" stop-color="#4D5FD1"/></linearGradient><linearGradient id="s" x1="135.552" y1="28.937" x2="280.33" y2="28.937" gradientUnits="userSpaceOnUse"><stop stop-color="#C8D6F9"/><stop offset="1" stop-color="#BAC1E8"/></linearGradient><linearGradient id="t" x1="128.645" y1="68.915" x2="147.445" y2="68.915" gradientUnits="userSpaceOnUse"><stop stop-color="#C8D6F9"/><stop offset="1" stop-color="#BAC1E8"/></linearGradient><linearGradient id="u" x1="157.547" y1="77.55" x2="287.774" y2="77.55" gradientUnits="userSpaceOnUse"><stop stop-color="#C8D6F9"/><stop offset="1" stop-color="#BAC1E8"/></linearGradient><linearGradient id="v" x1="124.886" y1="99.103" x2="157.537" y2="99.103" gradientUnits="userSpaceOnUse"><stop stop-color="#C8D6F9"/><stop offset="1" stop-color="#BAC1E8"/></linearGradient></defs></svg>