<svg width="356" height="300" fill="none" xmlns="http://www.w3.org/2000/svg"><path d="M286.827 80.294c2.307 0 4.483.202 6.461.605h11.603V85.4c-.264 3.897-7.582 8.13-18.064 8.13-10.483 0-17.735-4.233-18.065-8.13V80.9h11.604c1.977-.336 4.153-.605 6.461-.605Z" fill="url(#a)"/><path d="M287.267 93.53c-10.612 0-18.041-4.093-18.505-7.929v-4.412c0-.192.133-.32.332-.32h11.673c1.99-.383 4.245-.575 6.5-.575s4.444.192 6.566.576h11.607c.199 0 .332.127.332.32V85.6c-.464 3.772-7.893 7.928-18.505 7.928Zm-17.842-8.185v.064c.266 3.517 7.628 7.417 17.776 7.417s17.51-3.9 17.775-7.417v-3.964h-11.342a36.098 36.098 0 0 0-6.499-.575c-2.256 0-4.378.191-6.434.575h-11.408v3.9h.132Z" fill="#fff"/><path d="M302.868 88.833c-.327.272-.718.612-1.11.885v-8.85h1.11v7.965Zm-20.888-8.168v12.388c-.391-.068-.783-.136-1.109-.204V80.8h.065c.326 0 .653-.068 1.044-.136Zm1.893 12.66c-.391-.068-.783-.068-1.11-.136V80.53c.392-.069.719-.069 1.11-.136v12.932Zm-9.53-2.586c-.391-.205-.783-.409-1.109-.613v-9.189h1.109v9.802Zm11.423 2.722c-.392 0-.718-.068-1.11-.068v-13c.392 0 .718-.069 1.11-.069v13.137Zm-13.316-3.948c-.391-.34-.783-.612-1.109-.953V80.87h1.109v8.644Zm5.679 2.723c-.392-.136-.783-.272-1.11-.34V80.869h1.11v11.367Zm1.958.545c-.391-.068-.783-.205-1.109-.273v-11.64h1.109v11.913Zm-3.851-1.157c-.391-.137-.783-.34-1.109-.477V80.87h1.109v10.755Zm20.953.34c-.392.136-.718.272-1.11.34V80.801h1.11v11.163Zm-7.637 1.497c-.392 0-.718.068-1.11.068V80.324c.392 0 .784 0 1.11.069V93.46Zm-1.893-13.137V93.53h-1.11V80.324h.718c.131-.068.261 0 .392 0Zm17.232 5.037c-.065.885-.522 1.77-1.24 2.655v-7.147h1.24v4.492Zm-34.334 2.315c-.587-.75-.913-1.566-.913-2.315V80.87h.979v6.807h-.066Zm30.418 2.586c-.327.204-.718.409-1.11.613V80.869h1.11v9.393Zm-9.53 2.995c-.392.068-.718.068-1.11.136V80.46c.392 0 .718.069 1.11.137v12.66Zm7.637-2.042c-.392.136-.718.34-1.11.477V80.869h1.11v10.346Zm-3.786 1.361c-.392.069-.718.205-1.11.273v-11.98h1.11v11.707Zm-1.893.409c-.392.068-.718.136-1.11.204V80.665c.392.068.718.136 1.11.204v12.116Z" fill="#ED7B63"/><path d="M286.827 72.353c10.614 0 18.064 4.462 18.064 8.382 0 3.989-7.384 8.383-18.064 8.383-10.615 0-18.065-4.462-18.065-8.383 0-3.92 7.384-8.382 18.065-8.382Z" fill="url(#b)"/><path d="M287.267 89.118c-10.877 0-18.505-4.385-18.505-8.383 0-3.933 7.628-8.382 18.505-8.382 10.878 0 18.505 4.385 18.505 8.382 0 3.934-7.627 8.383-18.505 8.383Zm0-16.056c-10.479 0-17.842 4.063-17.842 7.673 0 3.611 7.296 7.673 17.842 7.673 10.48 0 17.776-4.062 17.776-7.673 0-3.61-7.296-7.673-17.776-7.673Z" fill="#fff"/><path opacity=".25" d="M298.723 87.014a27.056 27.056 0 0 1-3.929 1.221l-14.982-15.271a43.093 43.093 0 0 1 4.528-.611l14.383 14.66Zm-10.388 2.104h-2.93l-13.118-13.371c.599-.34 1.199-.68 1.931-1.019l14.117 14.39Z" fill="#fff"/><path d="M259.51 92.647c2.307 0 4.483.202 6.461.605h11.603v4.501c-.264 3.897-7.582 8.129-18.064 8.129-10.417 0-17.735-4.232-18.065-8.129v-4.501h11.604c1.978-.403 4.153-.605 6.461-.605Z" fill="url(#c)"/><path d="M259.069 105.882c-10.612 0-18.107-4.092-18.505-7.928v-4.412c0-.192.133-.32.332-.32h11.673c1.99-.383 4.245-.575 6.5-.575s4.444.192 6.567.575h11.607c.199 0 .331.128.331.32v4.412c-.398 3.836-7.892 7.928-18.505 7.928Zm-17.775-8.184v.064c.265 3.517 7.628 7.417 17.775 7.417 10.148 0 17.51-3.9 17.776-7.417v-3.964h-11.342a36.11 36.11 0 0 0-6.5-.576 34.86 34.86 0 0 0-6.434.576h-11.408v3.9h.133Z" fill="#fff"/><path d="M274.669 100.67c-.326.255-.718.573-1.109.828V93.22h1.109v7.45Zm-20.952-7.64v11.588c-.392-.064-.784-.127-1.11-.191v-11.27h.065c.392 0 .718-.064 1.045-.128Zm1.958 11.843c-.392-.064-.783-.064-1.11-.128V92.902c.392-.064.718-.064 1.11-.128v12.099Zm-9.53-2.484a17.43 17.43 0 0 1-1.11-.573V93.22h1.11v9.169ZM257.568 105c-.392 0-.783-.064-1.11-.064V92.774c.392 0 .718-.063 1.11-.063V105Zm-13.316-3.693a7.477 7.477 0 0 1-1.11-.892V93.22h1.11v8.087Zm5.679 2.547c-.392-.128-.783-.191-1.11-.319V93.22h1.11v10.634Zm1.893.446c-.392-.064-.784-.191-1.11-.255V93.156h1.11V104.3Zm-3.786-1.083c-.392-.127-.783-.318-1.11-.446v-9.615h1.11v10.061Zm20.953.382c-.392.127-.718.191-1.11.319V93.156h1.11V103.6Zm-7.637 1.337c-.392 0-.718.064-1.11.064V92.647c.392 0 .718.064 1.11.064v12.225Zm-1.893-12.289V105h-1.11V92.647h1.11Zm17.232 4.776c-.065.827-.522 1.655-1.24 2.483V93.22h1.24v4.203Zm-34.334 2.165a3.91 3.91 0 0 1-.914-2.165V93.22h.979v6.368h-.065Zm30.417 2.356c-.326.191-.718.382-1.109.573v-9.36h1.109v8.787Zm-9.529 2.865c-.392.064-.718.064-1.11.127V92.838c.392 0 .718.064 1.11.127v11.844Zm7.636-1.91c-.326.127-.718.318-1.109.445V93.22h1.109v9.679Zm-3.851 1.21c-.391.063-.718.191-1.109.254V93.156h1.109v10.953Zm-1.893.382c-.391.063-.718.127-1.109.191V92.965c.391.064.783.128 1.109.191v11.335Z" fill="#ED7B63"/><path d="M259.161 84.689c10.566 0 17.982 4.337 17.982 8.149 0 3.877-7.35 8.149-17.982 8.149-10.567 0-17.983-4.337-17.983-8.15.066-3.81 7.416-8.148 17.983-8.148Z" fill="url(#d)"/><path d="M259.161 101.381c-10.763 0-18.311-4.469-18.311-8.543 0-4.009 7.548-8.543 18.311-8.543s18.311 4.468 18.311 8.543c0 4.074-7.482 8.543-18.311 8.543Zm0-16.363c-10.37 0-17.655 4.14-17.655 7.82 0 3.68 7.22 7.82 17.655 7.82 10.369 0 17.589-4.14 17.589-7.82.065-3.68-7.154-7.82-17.589-7.82Z" fill="#fff"/><path opacity=".25" d="M270.525 98.595c-1.159.45-2.382.836-3.798 1.157L252.18 85.285a42.482 42.482 0 0 1 4.377-.58l13.968 13.89Zm-10.106 1.993h-2.832L244.97 87.985c.58-.321 1.159-.707 1.867-.964l13.582 13.567Z" fill="#fff"/><path d="M259.161 86.2c2.297 0 4.463.198 6.432.592h11.551v4.403c-.263 3.812-7.548 7.952-17.983 7.952-10.369 0-17.654-4.14-17.982-7.952v-4.403h11.551c1.968-.394 4.134-.591 6.431-.591Z" fill="url(#e)"/><path d="M259.161 99.475c-10.5 0-17.917-4.206-18.31-8.149v-4.534c0-.197.131-.329.328-.329h11.551c1.968-.394 4.2-.591 6.431-.591 2.232 0 4.398.197 6.498.591h11.485c.197 0 .328.132.328.329v4.534c-.394 3.943-7.81 8.15-18.311 8.15Zm-17.589-8.411v.065c.263 3.615 7.548 7.623 17.589 7.623 10.042 0 17.327-4.008 17.589-7.623v-4.074h-11.223a34.43 34.43 0 0 0-6.431-.592c-2.232 0-4.332.198-6.366.592h-11.289v4.008h.131Z" fill="#fff"/><path d="M274.912 94.415c-.328.263-.721.591-1.115.854v-8.543h1.115v7.69Zm-21.067-7.82v11.96a37.131 37.131 0 0 1-1.115-.197V86.726h.065c.394-.066.722-.131 1.05-.131Zm1.969 12.223c-.394-.066-.787-.066-1.116-.131V86.463c.394-.065.722-.065 1.116-.131v12.486Zm-9.582-2.563a17.456 17.456 0 0 1-1.116-.591v-8.872h1.116v9.463Zm11.485 2.695c-.393 0-.787-.066-1.115-.066V86.332c.393 0 .722-.066 1.115-.066V98.95Zm-13.388-3.812c-.394-.329-.788-.592-1.116-.92v-7.426h1.116v8.346Zm5.71 2.563c-.394-.131-.788-.197-1.116-.329V86.726h1.116v10.975Zm1.903.526c-.394-.066-.788-.198-1.116-.263V86.726h1.116v11.5Zm-3.807-1.118c-.393-.131-.787-.328-1.115-.46v-9.923h1.115V97.11Zm21.068.395c-.394.131-.722.263-1.116.328V86.726h1.116v10.778Zm-7.679 1.38c-.394 0-.722.066-1.116.066V86.2c.394 0 .722 0 1.116.066v12.618ZM259.621 86.2V98.95h-1.116V86.2h1.116Zm17.326 4.928c-.066.855-.525 1.709-1.247 2.563v-6.9h1.247v4.337Zm-34.521 2.169a4.076 4.076 0 0 1-.919-2.234v-4.338h.984v6.572h-.065Zm30.583 2.497c-.328.197-.722.394-1.116.592v-9.66h1.116v9.068Zm-9.582 2.892c-.394.065-.722.065-1.115.131V86.332c.393 0 .721.066 1.115.131v12.224Zm7.679-1.906c-.328.131-.722.328-1.116.46V86.792h1.116v9.989Zm-3.872 1.248c-.394.066-.722.198-1.116.263V86.726h1.116V98.03Zm-1.904.395c-.393.066-.721.131-1.115.197V86.529c.394.066.787.132 1.115.197v11.698Z" fill="#ED7B63"/><path d="M259.161 78.249c10.566 0 17.982 4.337 17.982 8.149 0 3.877-7.35 8.149-17.982 8.149-10.567 0-17.983-4.338-17.983-8.15.066-3.877 7.416-8.148 17.983-8.148Z" fill="url(#f)"/><path d="M259.161 94.94c-10.763 0-18.311-4.468-18.311-8.542 0-4.075 7.548-8.543 18.311-8.543s18.311 4.468 18.311 8.543c0 4.074-7.482 8.543-18.311 8.543Zm0-16.363c-10.37 0-17.655 4.14-17.655 7.82 0 3.68 7.22 7.82 17.655 7.82 10.369 0 17.589-4.14 17.589-7.82 0-3.68-7.154-7.82-17.589-7.82Z" fill="#fff"/><path opacity=".25" d="M270.909 92.51c-1.182.46-2.429.854-3.873 1.182l-14.832-14.786a43.232 43.232 0 0 1 4.463-.592l14.242 14.195Zm-10.304 2.036h-2.888l-12.863-12.88c.59-.328 1.181-.723 1.903-.986l13.848 13.866Z" fill="#fff"/><path d="M259.161 79.169c2.297 0 4.463.197 6.432.591h11.551v4.403c-.263 3.812-7.548 7.952-17.983 7.952-10.369 0-17.654-4.14-17.982-7.952V79.76h11.551c1.968-.394 4.134-.591 6.431-.591Z" fill="url(#g)"/><path d="M259.161 92.444c-10.5 0-17.917-4.206-18.31-8.15V79.76c0-.197.131-.328.328-.328h11.551c2.034-.395 4.2-.592 6.431-.592 2.232 0 4.398.197 6.498.592h11.485c.197 0 .328.131.328.328v4.535c-.394 3.943-7.81 8.148-18.311 8.148Zm-17.589-8.412v.066c.263 3.614 7.548 7.623 17.589 7.623 10.042 0 17.327-4.009 17.589-7.624v-4.074h-11.223a34.43 34.43 0 0 0-6.431-.591c-2.232 0-4.332.197-6.366.591h-11.289v4.009h.131Z" fill="#fff"/><path d="M274.912 87.45c-.328.262-.721.59-1.115.853V79.76h1.115v7.69Zm-21.067-7.887v11.96a36.799 36.799 0 0 1-1.115-.197V79.695h.065c.394-.066.722-.066 1.05-.132Zm1.969 12.223c-.394-.065-.787-.065-1.116-.131V79.432c.394-.066.722-.066 1.116-.132v12.486Zm-9.582-2.563c-.394-.197-.787-.394-1.116-.657v-8.871h1.116v9.528Zm11.485 2.695c-.393 0-.787-.066-1.115-.066V79.3c.393 0 .722-.066 1.115-.066v12.684Zm-13.388-3.812c-.394-.328-.788-.591-1.116-.92V79.76h1.116v8.346Zm5.71 2.629c-.394-.132-.788-.263-1.116-.329V79.76h1.116v10.975Zm1.903.46c-.394-.066-.788-.197-1.116-.263V79.695h1.116v11.5Zm-3.807-1.117c-.393-.132-.787-.329-1.115-.46v-9.923h1.115v10.383Zm21.068.394c-.394.132-.722.197-1.116.329V79.695h1.116v10.777Zm-7.679 1.38c-.394 0-.722.066-1.116.066v-12.75c.394 0 .722 0 1.116.066v12.618Zm-1.903-12.683v12.749h-1.116v-12.75h1.116Zm17.326 4.928c-.066.855-.525 1.71-1.247 2.564v-6.9h1.247v4.337Zm-34.521 2.235a4.076 4.076 0 0 1-.919-2.234V79.76h.984v6.572h-.065Zm30.583 2.431c-.328.197-.722.395-1.116.592v-9.66h1.116v9.068Zm-9.582 2.958c-.394.065-.722.065-1.115.131V79.366c.393.066.721.066 1.115.131v12.224Zm7.679-1.972c-.328.132-.722.329-1.116.46V79.76h1.116v9.99Zm-3.872 1.249c-.394.066-.722.197-1.116.263V79.695h1.116v11.303Zm-1.904.394c-.393.066-.721.132-1.115.197V79.497c.394.066.787.132 1.115.198v11.697Z" fill="#ED7B63"/><path d="M259.161 71.217c10.566 0 17.982 4.338 17.982 8.149 0 3.877-7.35 8.149-17.982 8.149-10.567 0-17.983-4.337-17.983-8.149.066-3.877 7.416-8.149 17.983-8.149Z" fill="url(#h)"/><path d="M259.161 87.91c-10.763 0-18.311-4.47-18.311-8.544 0-4.009 7.548-8.543 18.311-8.543s18.311 4.469 18.311 8.543c0 4.074-7.482 8.543-18.311 8.543Zm0-16.364c-10.37 0-17.655 4.14-17.655 7.82 0 3.68 7.22 7.82 17.655 7.82 10.369 0 17.589-4.14 17.589-7.82.065-3.68-7.154-7.82-17.589-7.82Z" fill="#fff"/><path opacity=".25" d="M270.909 85.478c-1.182.46-2.429.854-3.873 1.183l-14.832-14.852a43.26 43.26 0 0 1 4.463-.592l14.242 14.26Zm-10.304 2.037h-2.888l-12.863-12.88c.59-.33 1.181-.723 1.903-.986l13.848 13.866Z" fill="#fff"/><path d="M259.161 72.663c2.297 0 4.463.197 6.432.591h11.551v4.403c-.263 3.812-7.548 7.952-17.983 7.952-10.369 0-17.654-4.14-17.982-7.952v-4.403h11.551c1.968-.328 4.134-.591 6.431-.591Z" fill="url(#i)"/><path d="M259.161 86.003c-10.5 0-17.917-4.206-18.31-8.148v-4.6c0-.198.131-.33.328-.33h11.551c2.034-.394 4.2-.59 6.431-.59 2.232 0 4.398.196 6.498.59h11.485c.197 0 .328.132.328.33v4.534c-.394 4.008-7.81 8.214-18.311 8.214Zm-17.589-8.411v.065c.263 3.615 7.548 7.624 17.589 7.624 10.042 0 17.327-4.01 17.589-7.624v-4.074h-11.223a34.43 34.43 0 0 0-6.431-.591c-2.232 0-4.332.197-6.366.59h-11.289v4.01h.131Z" fill="#fff"/><path d="M274.912 80.943c-.328.263-.721.592-1.115.854v-8.543h1.115v7.69Zm-21.067-7.82v11.96a37.114 37.114 0 0 1-1.115-.197V73.254h.065c.394-.065.722-.131 1.05-.131Zm1.969 12.157c-.394-.065-.787-.065-1.116-.131V72.926c.394-.066.722-.066 1.116-.132V85.28Zm-9.582-2.497a17.507 17.507 0 0 1-1.116-.591v-8.938h1.116v9.53Zm11.485 2.629c-.393 0-.787-.066-1.115-.066V72.794c.393 0 .722-.066 1.115-.066v12.684ZM244.329 81.6c-.394-.328-.788-.591-1.116-.92v-7.426h1.116V81.6Zm5.71 2.629c-.394-.132-.788-.197-1.116-.329V73.254h1.116V84.23Zm1.903.526c-.394-.066-.788-.197-1.116-.263V73.254h1.116v11.5Zm-3.807-1.117c-.393-.132-.787-.33-1.115-.46v-9.924h1.115v10.383Zm21.068.328c-.394.132-.722.263-1.116.329v-11.04h1.116v10.711Zm-7.679 1.446c-.394 0-.722.066-1.116.066v-12.75c.394 0 .722.066 1.116.066v12.618Zm-1.903-12.684v12.75h-1.116v-12.75h.722c.131-.065.262 0 .394 0Zm17.326 4.864c-.066.854-.525 1.708-1.247 2.563v-6.9h1.247v4.337Zm-34.521 2.234a4.076 4.076 0 0 1-.919-2.234v-4.338h.984v6.572h-.065Zm30.583 2.497c-.328.197-.722.395-1.116.592v-9.66h1.116v9.068Zm-9.582 2.892c-.394.065-.722.065-1.115.131V72.86c.393 0 .721.066 1.115.131v12.224Zm7.679-1.972c-.328.132-.722.329-1.116.46V73.254h1.116v9.99Zm-3.872 1.315c-.394.065-.722.197-1.116.262V73.254h1.116v11.303Zm-1.904.394c-.393.066-.721.131-1.115.197V73.057c.394.066.787.132 1.115.197v11.698Z" fill="#ED7B63"/><path d="M259.161 64.711c10.566 0 17.982 4.337 17.982 8.149 0 3.877-7.35 8.149-17.982 8.149-10.567 0-17.983-4.338-17.983-8.15.066-3.81 7.416-8.148 17.983-8.148Z" fill="url(#j)"/><path d="M259.161 81.469c-10.763 0-18.311-4.469-18.311-8.543 0-4.01 7.548-8.544 18.311-8.544s18.311 4.47 18.311 8.544c0 4.008-7.482 8.543-18.311 8.543Zm0-16.364c-10.37 0-17.655 4.14-17.655 7.82 0 3.68 7.22 7.82 17.655 7.82 10.369 0 17.589-4.14 17.589-7.82.065-3.68-7.154-7.82-17.589-7.82Z" fill="#fff"/><path opacity=".25" d="M270.909 79.037c-1.182.46-2.429.855-3.873 1.183l-14.832-14.852a43.232 43.232 0 0 1 4.463-.591l14.242 14.26Zm-10.304 2.038h-2.888l-12.863-12.947c.59-.328 1.181-.657 1.903-.985l13.848 13.932Z" fill="#fff"/><path d="M259.161 66.223c2.297 0 4.463.197 6.432.591h11.551v4.403c-.263 3.812-7.548 7.952-17.983 7.952-10.369 0-17.654-4.14-17.982-7.952v-4.403h11.551c1.968-.394 4.134-.591 6.431-.591Z" fill="url(#k)"/><path d="M259.161 79.498c-10.5 0-17.917-4.206-18.31-8.15v-4.534c0-.197.131-.328.328-.328h11.551c2.034-.395 4.2-.592 6.431-.592 2.232 0 4.398.197 6.498.592h11.485c.197 0 .328.131.328.328v4.535c-.394 3.943-7.81 8.148-18.311 8.148Zm-17.589-8.347v.066c.263 3.615 7.548 7.623 17.589 7.623 10.042 0 17.327-4.008 17.589-7.623v-4.074h-11.223a34.43 34.43 0 0 0-6.431-.592c-2.232 0-4.332.198-6.366.592h-11.289v4.008h.131Z" fill="#fff"/><path d="M274.912 74.503c-.328.263-.721.591-1.115.854v-8.543h1.115v7.689Zm-21.067-7.886v11.96a37.435 37.435 0 0 1-1.115-.197V66.75h.065c.394 0 .722-.066 1.05-.132Zm1.969 12.223c-.394-.065-.787-.065-1.116-.131V66.486c.394-.066.722-.066 1.116-.132V78.84Zm-9.582-2.563c-.394-.197-.787-.394-1.116-.657V66.75h1.116v9.528Zm11.485 2.695c-.393 0-.787-.066-1.115-.066V66.354c.393 0 .722-.066 1.115-.066v12.684Zm-13.388-3.812c-.394-.328-.788-.591-1.116-.92v-7.426h1.116v8.346Zm5.71 2.629c-.394-.132-.788-.263-1.116-.329V66.814h1.116V77.79Zm1.903.46c-.394-.066-.788-.197-1.116-.263V66.749h1.116v11.5Zm-3.807-1.117c-.393-.132-.787-.329-1.115-.46v-9.923h1.115v10.383Zm21.068.394c-.394.131-.722.263-1.116.329V66.749h1.116v10.777Zm-7.679 1.38c-.394 0-.722.066-1.116.066v-12.75c.394 0 .722 0 1.116.066v12.618Zm-1.903-12.683v12.749h-1.116v-12.75h1.116Zm17.326 4.928c-.066.855-.525 1.71-1.247 2.563v-6.9h1.247v4.338Zm-34.521 2.235a4.076 4.076 0 0 1-.919-2.234v-4.338h.984v6.572h-.065Zm30.583 2.431c-.328.198-.722.395-1.116.592v-9.66h1.116v9.068Zm-9.582 2.958c-.394.065-.722.065-1.115.131V66.42c.393 0 .721.066 1.115.131v12.224Zm7.679-1.972c-.328.132-.722.329-1.116.46V66.814h1.116v9.99Zm-3.872 1.249c-.394.065-.722.197-1.116.263V66.749h1.116v11.303Zm-1.904.394c-.393.066-.721.131-1.115.197V66.551c.394.066.787.132 1.115.198v11.697Z" fill="#ED7B63"/><path d="M259.161 58.271c10.566 0 17.982 4.337 17.982 8.149 0 3.877-7.35 8.149-17.982 8.149-10.567 0-17.983-4.337-17.983-8.149.066-3.812 7.416-8.149 17.983-8.149Z" fill="url(#l)"/><path d="M259.161 74.963c-10.763 0-18.311-4.469-18.311-8.543 0-4.009 7.548-8.543 18.311-8.543s18.311 4.469 18.311 8.543c0 4.074-7.482 8.543-18.311 8.543Zm0-16.363c-10.37 0-17.655 4.14-17.655 7.82 0 3.68 7.22 7.82 17.655 7.82 10.369 0 17.589-4.14 17.589-7.82.065-3.68-7.154-7.82-17.589-7.82Z" fill="#fff"/><path opacity=".25" d="M270.909 72.532c-1.182.46-2.429.854-3.873 1.183l-14.832-14.852a43.26 43.26 0 0 1 4.463-.592l14.242 14.26Zm-10.304 2.103h-2.888l-12.863-12.947c.59-.328 1.181-.657 1.903-.985l13.848 13.932Z" fill="#fff"/><path d="M259.161 59.782c2.297 0 4.463.198 6.432.592h11.551v4.403c-.263 3.811-7.548 7.952-17.983 7.952-10.369 0-17.654-4.14-17.982-7.952v-4.403h11.551c1.968-.394 4.134-.592 6.431-.592Z" fill="url(#m)"/><path d="M259.161 73.057c-10.5 0-17.917-4.206-18.31-8.149v-4.534c0-.197.131-.329.328-.329h11.551c2.034-.394 4.2-.591 6.431-.591 2.232 0 4.398.197 6.498.591h11.485c.197 0 .328.132.328.329v4.534c-.394 3.943-7.81 8.15-18.311 8.15Zm-17.589-8.412v.066c.263 3.615 7.548 7.623 17.589 7.623 10.042 0 17.327-4.008 17.589-7.623v-4.074h-11.223a34.43 34.43 0 0 0-6.431-.592c-2.232 0-4.332.197-6.366.592h-11.289v4.008h.131Z" fill="#fff"/><path d="M274.912 68.063c-.328.263-.721.591-1.115.854v-8.543h1.115v7.689Zm-21.067-7.886v11.96a36.799 36.799 0 0 1-1.115-.197V60.308h.065c.394-.066.722-.066 1.05-.131Zm1.969 12.223c-.394-.066-.787-.066-1.116-.131V60.045c.394-.065.722-.065 1.116-.131V72.4Zm-9.582-2.563c-.394-.197-.787-.394-1.116-.657v-8.872h1.116v9.53Zm11.485 2.694c-.393 0-.787-.065-1.115-.065V59.914c.393 0 .722-.066 1.115-.066v12.683Zm-13.388-3.811c-.394-.329-.788-.591-1.116-.92v-7.426h1.116v8.346Zm5.71 2.629c-.394-.132-.788-.263-1.116-.329V60.374h1.116v10.975Zm1.903.46c-.394-.066-.788-.197-1.116-.263V60.308h1.116v11.5Zm-3.807-1.118c-.393-.131-.787-.328-1.115-.46v-9.923h1.115v10.383Zm21.068.395c-.394.131-.722.263-1.116.328V60.308h1.116v10.778Zm-7.679 1.38c-.394 0-.722.066-1.116.066v-12.75c.394 0 .722.066 1.116.066v12.618Zm-1.903-12.683V72.53h-1.116V59.782h1.116Zm17.326 4.928c-.066.855-.525 1.709-1.247 2.563v-6.9h1.247v4.337Zm-34.521 2.169a4.076 4.076 0 0 1-.919-2.234v-4.338h.984v6.572h-.065Zm30.583 2.497c-.328.197-.722.394-1.116.592v-9.66h1.116v9.068Zm-9.582 2.892c-.394.065-.722.065-1.115.131V59.914c.393.066.721.066 1.115.131V72.27Zm7.679-1.906c-.328.131-.722.328-1.116.46v-10.45h1.116v9.99Zm-3.872 1.249c-.394.065-.722.197-1.116.262V60.308h1.116v11.304Zm-1.904.394c-.393.066-.721.131-1.115.197V60.11c.394.066.787.132 1.115.197v11.698Z" fill="#ED7B63"/><path d="M259.161 51.83c10.566 0 17.982 4.338 17.982 8.15 0 3.877-7.35 8.149-17.982 8.149-10.567 0-17.983-4.338-17.983-8.15.066-3.877 7.416-8.148 17.983-8.148Z" fill="url(#n)"/><path d="M259.161 68.523c-10.763 0-18.311-4.469-18.311-8.543 0-4.01 7.548-8.543 18.311-8.543s18.311 4.468 18.311 8.543c0 4.008-7.482 8.543-18.311 8.543Zm0-16.364c-10.37 0-17.655 4.14-17.655 7.82 0 3.68 7.22 7.82 17.655 7.82 10.369 0 17.589-4.14 17.589-7.82 0-3.68-7.154-7.82-17.589-7.82Z" fill="#fff"/><path opacity=".25" d="M270.909 66.091c-1.182.46-2.429.855-3.873 1.183l-14.832-14.852a43.26 43.26 0 0 1 4.463-.591l14.242 14.26Zm-10.304 2.038h-2.888l-12.863-12.947c.59-.328 1.181-.723 1.903-.985l13.848 13.932Z" fill="#fff"/><path d="M259.161 52.75c2.297 0 4.463.198 6.432.592h11.551v4.403c-.263 3.812-7.548 7.952-17.983 7.952-10.369 0-17.654-4.14-17.982-7.952v-4.403h11.551c1.968-.394 4.134-.591 6.431-.591Z" fill="url(#o)"/><path d="M259.161 66.025c-10.5 0-17.917-4.205-18.31-8.148v-4.535c0-.197.131-.328.328-.328h11.551c2.034-.395 4.2-.592 6.431-.592 2.232 0 4.398.197 6.498.592h11.485c.197 0 .328.131.328.328v4.535c-.394 3.943-7.81 8.148-18.311 8.148Zm-17.589-8.411v.066c.263 3.614 7.548 7.623 17.589 7.623 10.042 0 17.327-4.01 17.589-7.623v-4.075h-11.223a34.43 34.43 0 0 0-6.431-.591c-2.232 0-4.332.197-6.366.591h-11.289v4.009h.131Z" fill="#fff"/><path d="M274.912 61.031c-.328.263-.721.592-1.115.854v-8.543h1.115v7.69Zm-21.067-7.886v11.96a37.131 37.131 0 0 1-1.115-.197V53.276h.065c.394 0 .722-.065 1.05-.13Zm1.969 12.223c-.394-.065-.787-.065-1.116-.131V53.014c.394-.066.722-.066 1.116-.132v12.486Zm-9.582-2.563c-.394-.197-.787-.394-1.116-.657v-8.872h1.116v9.53Zm11.485 2.695c-.393 0-.787-.066-1.115-.066V52.882c.393 0 .722-.066 1.115-.066V65.5Zm-13.388-3.812c-.394-.328-.788-.591-1.116-.92v-7.426h1.116v8.346Zm5.71 2.629c-.394-.131-.788-.197-1.116-.329V53.342h1.116v10.975Zm1.903.46c-.394-.066-.788-.197-1.116-.263V53.277h1.116v11.5Zm-3.807-1.117c-.393-.132-.787-.329-1.115-.46v-9.924h1.115V63.66Zm21.068.394c-.394.132-.722.263-1.116.329V53.277h1.116v10.777Zm-7.679 1.38c-.394 0-.722.066-1.116.066V52.75c.394 0 .722 0 1.116.066v12.618Zm-1.903-12.683V65.5h-1.116V52.75h1.116Zm17.326 4.928c-.066.855-.525 1.71-1.247 2.563v-6.9h1.247v4.337Zm-34.521 2.235a4.076 4.076 0 0 1-.919-2.235v-4.337h.984v6.572h-.065Zm30.583 2.431c-.328.198-.722.395-1.116.592v-9.66h1.116v9.068Zm-9.582 2.958c-.394.065-.722.065-1.115.131V52.948c.393 0 .721.066 1.115.131v12.224Zm7.679-1.972c-.328.132-.722.329-1.116.46V53.342h1.116v9.99Zm-3.872 1.249c-.394.066-.722.197-1.116.263V53.276h1.116V64.58Zm-1.904.394c-.393.066-.721.132-1.115.197V53.08c.394.066.787.132 1.115.197v11.698Z" fill="#ED7B63"/><path d="M259.161 44.8c10.566 0 17.982 4.336 17.982 8.148 0 3.877-7.35 8.149-17.982 8.149-10.567 0-17.983-4.337-17.983-8.149.066-3.812 7.416-8.149 17.983-8.149Z" fill="url(#p)"/><path d="M259.161 61.491c-10.763 0-18.311-4.469-18.311-8.543 0-4.009 7.548-8.543 18.311-8.543s18.311 4.468 18.311 8.543c0 4.074-7.482 8.543-18.311 8.543Zm0-16.363c-10.37 0-17.655 4.14-17.655 7.82 0 3.68 7.22 7.82 17.655 7.82 10.369 0 17.589-4.14 17.589-7.82.065-3.68-7.154-7.82-17.589-7.82Z" fill="#fff"/><path opacity=".25" d="M270.909 59.06c-1.182.46-2.429.854-3.873 1.182l-14.832-14.786a43.232 43.232 0 0 1 4.463-.591l14.242 14.195Zm-10.304 2.037h-2.888l-12.863-12.88c.59-.33 1.181-.724 1.903-.986l13.848 13.866Z" fill="#fff"/><path d="M259.161 46.31c2.297 0 4.463.198 6.432.592h11.551v4.403c-.263 3.812-7.548 7.952-17.983 7.952-10.369 0-17.654-4.14-17.982-7.952v-4.403h11.551c1.968-.394 4.134-.592 6.431-.592Z" fill="url(#q)"/><path d="M259.161 59.585c-10.5 0-17.917-4.206-18.31-8.148v-4.535c0-.197.131-.329.328-.329h11.551c2.034-.394 4.2-.591 6.431-.591 2.232 0 4.398.197 6.498.591h11.485c.197 0 .328.132.328.329v4.535c-.394 3.943-7.81 8.148-18.311 8.148Zm-17.589-8.411v.065c.263 3.615 7.548 7.623 17.589 7.623 10.042 0 17.327-4.008 17.589-7.623v-4.074h-11.223a34.43 34.43 0 0 0-6.431-.592c-2.232 0-4.332.198-6.366.592h-11.289v4.009h.131Z" fill="#fff"/><path d="M274.912 54.525c-.328.263-.721.592-1.115.854v-8.543h1.115v7.69Zm-21.067-7.82v11.96a37.114 37.114 0 0 1-1.115-.197V46.836h.065c.394-.065.722-.131 1.05-.131Zm1.969 12.223c-.394-.066-.787-.066-1.116-.131V46.573c.394-.065.722-.065 1.116-.131v12.486Zm-9.582-2.563c-.394-.197-.787-.394-1.116-.657v-8.872h1.116v9.53Zm11.485 2.629c-.393 0-.787-.066-1.115-.066V46.376c.393 0 .722-.066 1.115-.066v12.684Zm-13.388-3.812c-.394-.328-.788-.591-1.116-.92v-7.426h1.116v8.346Zm5.71 2.629c-.394-.132-.788-.263-1.116-.329V46.836h1.116v10.975Zm1.903.526c-.394-.066-.788-.198-1.116-.263V46.836h1.116v11.5Zm-3.807-1.118c-.393-.13-.787-.328-1.115-.46v-9.923h1.115V57.22Zm21.068.33c-.394.13-.722.262-1.116.328V46.77h1.116v10.777Zm-7.679 1.445c-.394 0-.722.066-1.116.066V46.31c.394 0 .722 0 1.116.066v12.618Zm-1.903-12.684v12.75h-1.116V46.31h1.116Zm17.326 4.93c-.066.854-.525 1.708-1.247 2.562v-6.9h1.247v4.337Zm-34.521 2.168a4.076 4.076 0 0 1-.919-2.234v-4.338h.984v6.572h-.065Zm30.583 2.497c-.328.197-.722.395-1.116.592v-9.66h1.116v9.068Zm-9.582 2.892c-.394.065-.722.065-1.115.131V46.442c.393 0 .721.066 1.115.131v12.224Zm7.679-1.906c-.328.131-.722.328-1.116.46V46.902h1.116v9.989Zm-3.872 1.248c-.394.066-.722.198-1.116.263V46.836h1.116V58.14Zm-1.904.395c-.393.066-.721.131-1.115.197V46.639c.394.066.787.132 1.115.197v11.698Z" fill="#ED7B63"/><path d="M259.161 38.359c10.566 0 17.982 4.337 17.982 8.149 0 3.877-7.35 8.149-17.982 8.149-10.567 0-17.983-4.338-17.983-8.15.066-3.876 7.416-8.148 17.983-8.148Z" fill="url(#r)"/><path d="M259.161 55.051c-10.763 0-18.311-4.469-18.311-8.543 0-4.009 7.548-8.543 18.311-8.543s18.311 4.468 18.311 8.543c0 4.008-7.482 8.543-18.311 8.543Zm0-16.364c-10.37 0-17.655 4.14-17.655 7.82 0 3.681 7.22 7.821 17.655 7.821 10.369 0 17.589-4.14 17.589-7.82 0-3.68-7.154-7.82-17.589-7.82Z" fill="#fff"/><path opacity=".25" d="M270.909 52.62c-1.182.46-2.429.854-3.873 1.182l-14.832-14.786a43.233 43.233 0 0 1 4.463-.591l14.242 14.194Zm-10.304 2.037h-2.888L244.854 41.71c.59-.328 1.181-.723 1.903-.985l13.848 13.932Z" fill="#fff"/><path d="M259.161 39.804c2.297 0 4.463.198 6.432.592h11.551v4.403c-.263 3.812-7.548 7.952-17.983 7.952-10.369 0-17.654-4.14-17.982-7.952v-4.403h11.551c1.968-.394 4.134-.592 6.431-.592Z" fill="url(#s)"/><path d="M259.161 53.08c-10.5 0-17.917-4.207-18.31-8.15v-4.534c0-.197.131-.329.328-.329h11.551c2.034-.394 4.2-.591 6.431-.591 2.232 0 4.398.197 6.498.591h11.485c.197 0 .328.132.328.329v4.534c-.394 3.943-7.81 8.15-18.311 8.15Zm-17.589-8.347v.066c.263 3.614 7.548 7.623 17.589 7.623 10.042 0 17.327-4.009 17.589-7.623v-4.075h-11.223a34.43 34.43 0 0 0-6.431-.59c-2.232 0-4.332.196-6.366.59h-11.289v4.01h.131Z" fill="#fff"/><path d="M274.912 48.085c-.328.263-.721.591-1.115.854v-8.543h1.115v7.689Zm-21.067-7.886v12.026a37.131 37.131 0 0 1-1.115-.197V40.396h.065c.394-.066.722-.132 1.05-.197Zm1.969 12.223c-.394-.066-.787-.066-1.116-.131V40.067c.394-.065.722-.065 1.116-.131v12.486Zm-9.582-2.563c-.394-.197-.787-.394-1.116-.657v-8.806h1.116v9.463Zm11.485 2.694c-.393 0-.787-.065-1.115-.065V39.936c.393 0 .722-.066 1.115-.066v12.684Zm-13.388-3.811c-.394-.329-.788-.591-1.116-.92v-7.426h1.116v8.346Zm5.71 2.629c-.394-.132-.788-.198-1.116-.329V40.396h1.116v10.975Zm1.903.46c-.394-.066-.788-.198-1.116-.263V40.396h1.116v11.435Zm-3.807-1.117c-.393-.132-.787-.33-1.115-.46v-9.858h1.115v10.318Zm21.068.394c-.394.131-.722.197-1.116.328v-11.04h1.116v10.712Zm-7.679 1.38c-.394 0-.722.066-1.116.066v-12.75c.394 0 .722.066 1.116.066v12.618Zm-1.903-12.684v12.75h-1.116v-12.75h1.116Zm17.326 4.93c-.066.854-.525 1.708-1.247 2.562v-6.9h1.247v4.337Zm-34.521 2.234a4.076 4.076 0 0 1-.919-2.235v-4.337h.984v6.572h-.065Zm30.583 2.497c-.328.197-.722.394-1.116.591v-9.66h1.116v9.069Zm-9.582 2.891c-.394.066-.722.066-1.115.132V40.002c.393 0 .721.065 1.115.131v12.223Zm7.679-1.971c-.328.131-.722.329-1.116.46V40.396h1.116v9.989Zm-3.872 1.248c-.394.066-.722.198-1.116.263v-11.5h1.116v11.237Zm-1.904.46c-.393.066-.721.132-1.115.198V40.199c.394.066.787.131 1.115.197v11.697Z" fill="#ED7B63"/><path d="M259.161 31.853c10.566 0 17.982 4.337 17.982 8.149 0 3.877-7.35 8.149-17.982 8.149-10.567 0-17.983-4.338-17.983-8.15.066-3.81 7.416-8.148 17.983-8.148Z" fill="url(#t)"/><path d="M259.161 48.545c-10.763 0-18.311-4.469-18.311-8.543 0-4.009 7.548-8.543 18.311-8.543s18.311 4.468 18.311 8.543c0 4.074-7.482 8.543-18.311 8.543Zm0-16.364c-10.37 0-17.655 4.14-17.655 7.82 0 3.68 7.22 7.821 17.655 7.821 10.369 0 17.589-4.14 17.589-7.82.065-3.68-7.154-7.82-17.589-7.82Z" fill="#fff"/><path opacity=".25" d="M270.909 46.113c-1.182.46-2.429.855-3.873 1.183L252.27 32.51a43.223 43.223 0 0 1 4.463-.591l14.176 14.194Zm-10.304 2.103h-2.888l-12.863-12.88c.59-.329 1.181-.657 1.903-.986l13.848 13.866Z" fill="#fff"/><path d="M259.161 33.364c2.297 0 4.463.198 6.432.592h11.551v4.403c-.263 3.811-7.548 7.951-17.983 7.951-10.369 0-17.654-4.14-17.982-7.951v-4.403h11.551c1.968-.395 4.134-.592 6.431-.592Z" fill="url(#u)"/><path d="M259.161 46.639c-10.5 0-17.917-4.206-18.31-8.149v-4.534c0-.197.131-.329.328-.329h11.551c2.034-.394 4.2-.591 6.431-.591 2.232 0 4.398.197 6.498.591h11.485c.197 0 .328.132.328.329v4.534c-.394 3.943-7.81 8.149-18.311 8.149Zm-17.589-8.412v.066c.263 3.614 7.548 7.623 17.589 7.623 10.042 0 17.327-4.008 17.589-7.623v-4.074h-11.223a34.43 34.43 0 0 0-6.431-.592c-2.232 0-4.332.197-6.366.592h-11.289v4.008h.131Z" fill="#fff"/><path d="M274.912 41.645c-.328.262-.721.591-1.115.854v-8.543h1.115v7.689Zm-21.067-7.886v11.96a37.131 37.131 0 0 1-1.115-.197V33.89h.065c.394-.066.722-.066 1.05-.131Zm1.969 12.223c-.394-.066-.787-.066-1.116-.132V33.627c.394-.066.722-.066 1.116-.131v12.486Zm-9.582-2.563c-.394-.197-.787-.394-1.116-.657V33.89h1.116v9.529Zm11.485 2.694c-.393 0-.787-.065-1.115-.065V33.496c.393 0 .722-.066 1.115-.066v12.683Zm-13.388-3.811c-.394-.329-.788-.592-1.116-.92v-7.426h1.116v8.346Zm5.71 2.628c-.394-.131-.788-.197-1.116-.328V33.956h1.116V44.93Zm1.903.46c-.394-.065-.788-.197-1.116-.262V33.89h1.116v11.5Zm-3.807-1.117c-.393-.131-.787-.328-1.115-.46V33.89h1.115v10.383Zm21.068.395c-.394.131-.722.262-1.116.328V33.89h1.116v10.778Zm-7.679 1.38c-.394 0-.722.065-1.116.065V33.364c.394 0 .722.066 1.116.066v12.618Zm-1.903-12.684v12.75h-1.116v-12.75h1.116Zm17.326 4.93c-.066.853-.525 1.708-1.247 2.562v-6.9h1.247v4.337Zm-34.521 2.168a4.076 4.076 0 0 1-.919-2.235V33.89h.984v6.572h-.065Zm30.583 2.497c-.328.197-.722.394-1.116.591v-9.66h1.116v9.069Zm-9.582 2.891c-.394.066-.722.066-1.115.132V33.496c.393 0 .721.066 1.115.131V45.85Zm7.679-1.905c-.328.131-.722.328-1.116.46v-10.45h1.116v9.99Zm-3.872 1.248c-.394.066-.722.198-1.116.263V33.89h1.116v11.303Zm-1.904.395c-.393.065-.721.131-1.115.197V33.693c.394.066.787.131 1.115.197v11.698Z" fill="#ED7B63"/><path d="M259.161 25.413c10.566 0 17.982 4.337 17.982 8.149 0 3.877-7.35 8.148-17.982 8.148-10.567 0-17.983-4.337-17.983-8.148.066-3.878 7.416-8.15 17.983-8.15Z" fill="url(#v)"/><path d="M259.161 42.105c-10.763 0-18.311-4.47-18.311-8.544 0-4.008 7.548-8.543 18.311-8.543s18.311 4.469 18.311 8.543c0 4.075-7.482 8.544-18.311 8.544Zm0-16.364c-10.37 0-17.655 4.14-17.655 7.82 0 3.68 7.22 7.82 17.655 7.82 10.369 0 17.589-4.14 17.589-7.82.065-3.68-7.154-7.82-17.589-7.82Z" fill="#fff"/><path opacity=".25" d="M270.909 39.673c-1.182.46-2.429.854-3.873 1.183L252.204 26.07a43.26 43.26 0 0 1 4.463-.592l14.242 14.195Zm-10.304 2.037h-2.888l-12.863-12.88c.59-.329 1.181-.723 1.903-.986l13.848 13.866Z" fill="#fff"/><path d="M271.894 117.482c2.297 0 4.463.197 6.431.591h11.551v4.403c-.262 3.812-7.547 7.952-17.982 7.952-10.37 0-17.655-4.14-17.983-7.952v-4.403h11.551c1.969-.328 4.135-.591 6.432-.591Z" fill="url(#w)"/><path d="M271.894 130.756c-10.501 0-17.852-4.205-18.311-8.148v-4.535c0-.197.131-.328.328-.328h11.551c1.969-.395 4.2-.592 6.432-.592 2.231 0 4.463.197 6.497.592h11.485c.197 0 .329.131.329.328v4.535c-.46 3.943-7.81 8.148-18.311 8.148Zm-17.655-8.346v.066c.263 3.615 7.548 7.623 17.589 7.623 10.042 0 17.326-4.008 17.589-7.623v-4.009h-11.223c-2.1-.394-4.2-.591-6.432-.591-2.231 0-4.331.197-6.366.591h-11.288v3.943h.131Z" fill="#fff"/><path d="M287.579 125.762c-.328.263-.721.592-1.115.854v-8.543h1.115v7.689Zm-21.001-7.886v11.961c-.394-.066-.788-.132-1.116-.198v-11.631h.066c.328 0 .656-.066 1.05-.132Zm1.903 12.223c-.394-.065-.787-.065-1.116-.131v-12.223c.394-.066.722-.066 1.116-.132v12.486Zm-9.582-2.497c-.394-.197-.787-.394-1.116-.657v-8.872h1.116v9.529Zm11.485 2.629c-.393 0-.722-.066-1.115-.066v-12.552c.393 0 .722-.065 1.115-.065v12.683Zm-13.388-3.812c-.394-.328-.788-.591-1.116-.92v-7.426h1.116v8.346Zm5.71 2.629c-.394-.131-.788-.197-1.116-.329v-10.646h1.116v10.975Zm1.969.526c-.394-.066-.788-.197-1.116-.263v-11.238h1.116v11.501Zm-3.873-1.118c-.393-.131-.787-.328-1.115-.46v-9.923h1.115v10.383Zm21.068.329c-.394.132-.722.263-1.116.329v-11.106h1.116v10.777Zm-7.679 1.446c-.394 0-.722.066-1.116.066v-12.749c.394 0 .722 0 1.116.065v12.618Zm-1.903-12.683v12.749h-1.116v-12.749h.722c.131-.066.262 0 .394 0Zm17.326 4.863c-.066.854-.525 1.708-1.247 2.563v-6.901h1.247v4.338Zm-34.521 2.234c-.525-.723-.854-1.512-.919-2.234v-4.338h.919v6.572Zm30.583 2.497c-.328.197-.722.394-1.116.592v-9.661h1.116v9.069Zm-9.582 2.892c-.394.065-.722.065-1.115.131v-12.486c.393 0 .721.066 1.115.131v12.224Zm7.679-1.972c-.394.132-.722.329-1.116.46v-10.449h1.116v9.989Zm-3.807 1.315c-.393.065-.722.197-1.115.262v-11.566h1.115v11.304Zm-1.903.394c-.394.066-.722.131-1.116.197v-12.092c.394.066.722.132 1.116.197v11.698Z" fill="#ED7B63"/><path d="M271.893 109.53c10.567 0 17.983 4.337 17.983 8.149 0 3.877-7.351 8.149-17.983 8.149-10.566 0-17.982-4.337-17.982-8.149 0-3.812 7.35-8.149 17.982-8.149Z" fill="url(#x)"/><path d="M271.893 126.222c-10.763 0-18.31-4.469-18.31-8.543 0-4.009 7.547-8.543 18.31-8.543 10.764 0 18.311 4.469 18.311 8.543 0 4.074-7.547 8.543-18.311 8.543Zm0-16.298c-10.369 0-17.654 4.141-17.654 7.821 0 3.68 7.219 7.82 17.654 7.82 10.37 0 17.655-4.14 17.655-7.82-.066-3.746-7.285-7.821-17.655-7.821Z" fill="#fff"/><path opacity=".25" d="M283.576 123.856c-1.182.46-2.429.855-3.873 1.183l-14.832-14.786a43.365 43.365 0 0 1 4.463-.592l14.242 14.195Zm-10.239 2.038h-2.887l-12.929-12.881c.59-.329 1.181-.723 1.903-.986l13.913 13.867Z" fill="#fff"/><path d="M282.655 163.023c2.297 0 4.463.197 6.432.592h11.551v4.403c-.263 3.811-7.548 7.951-17.983 7.951-10.37 0-17.654-4.14-17.983-7.951v-4.403h11.551c1.969-.395 4.135-.592 6.432-.592Z" fill="url(#y)"/><path d="M282.655 176.298c-10.501 0-17.917-4.206-18.311-8.149v-4.534c0-.198.131-.329.328-.329h11.551c1.969-.394 4.201-.591 6.432-.591 2.231 0 4.397.197 6.497.591h11.486c.196 0 .328.131.328.329v4.534c-.46 3.943-7.81 8.149-18.311 8.149Zm-17.654-8.346v.066c.262 3.614 7.547 7.623 17.588 7.623 10.042 0 17.327-4.009 17.589-7.623v-4.075h-11.223c-2.1-.394-4.2-.591-6.431-.591-2.232 0-4.332.197-6.366.591h-11.223v4.009h.066Z" fill="#fff"/><path d="M298.406 171.303c-.328.263-.722.592-1.115.855v-8.543h1.115v7.688Zm-21.067-7.886v11.961a41.43 41.43 0 0 1-1.116-.197v-11.632h.066c.328 0 .722-.066 1.05-.132Zm1.903 12.224c-.393-.066-.722-.066-1.115-.132v-12.223c.393-.066.722-.066 1.115-.131v12.486Zm-9.582-2.563a17.414 17.414 0 0 1-1.115-.592v-8.871h1.115v9.463Zm11.486 2.694c-.394 0-.722 0-1.116-.066v-12.551c.394 0 .722-.066 1.116-.066v12.683Zm-13.389-3.811a7.638 7.638 0 0 1-1.116-.92v-7.426h1.116v8.346Zm5.776 2.628c-.394-.131-.788-.263-1.116-.328v-10.646h1.116v10.974Zm1.903.46c-.394-.065-.788-.197-1.116-.263v-11.237h1.116v11.5Zm-3.872-1.117c-.394-.131-.788-.328-1.116-.46v-9.923h1.116v10.383Zm21.067.394c-.394.132-.722.263-1.116.329v-11.106h1.116v10.777Zm-7.679 1.38c-.394 0-.722.066-1.116.066v-12.749c.394 0 .722 0 1.116.066v12.617Zm-1.903-12.683v12.749h-1.116v-12.749h1.116Zm17.326 4.929c-.065.854-.525 1.709-1.247 2.563v-6.9h1.247v4.337Zm-34.521 2.234a4.083 4.083 0 0 1-.919-2.234v-4.337h.985v6.571h-.066Zm30.583 2.497c-.328.198-.722.395-1.115.592v-9.66h1.115v9.068Zm-9.516 2.892c-.394.066-.722.066-1.116.131V163.22c.394.066.722.066 1.116.132v12.223Zm7.613-1.971c-.394.131-.722.328-1.116.46v-10.449h1.116v9.989Zm-3.806 1.248c-.394.066-.722.197-1.116.263v-11.566h1.116v11.303Zm-1.904.394c-.393.066-.722.132-1.115.198v-12.092a34.7 34.7 0 0 1 1.115.197v11.697Z" fill="#ED7B63"/><path d="M282.655 155.072c10.566 0 17.983 4.337 17.983 8.148 0 3.878-7.351 8.149-17.983 8.149-10.566 0-17.983-4.337-17.983-8.149 0-3.811 7.417-8.148 17.983-8.148Z" fill="url(#z)"/><path d="M282.655 171.763c-10.763 0-18.311-4.468-18.311-8.543 0-4.008 7.548-8.543 18.311-8.543s18.311 4.469 18.311 8.543c0 4.075-7.548 8.543-18.311 8.543Zm0-16.363c-10.37 0-17.654 4.14-17.654 7.82 0 3.68 7.219 7.821 17.654 7.821 10.37 0 17.589-4.141 17.589-7.821 0-3.68-7.219-7.82-17.589-7.82Z" fill="#fff"/><path opacity=".25" d="M294.337 169.332c-1.181.46-2.428.854-3.872 1.183l-14.767-14.786a43.402 43.402 0 0 1 4.463-.592l14.176 14.195Zm-10.238 2.103h-2.888l-12.929-12.946c.591-.329 1.182-.723 1.904-.986l13.913 13.932Z" fill="#fff"/><path d="M241.308 103.024c2.297 0 4.463.197 6.432.591h11.551v4.404c-.263 3.811-7.548 7.951-17.983 7.951-10.369 0-17.654-4.14-17.982-7.951v-4.404h11.551c1.968-.394 4.134-.591 6.431-.591Z" fill="url(#A)"/><path d="M241.308 116.299c-10.5 0-17.851-4.206-18.31-8.149v-4.535c0-.197.131-.328.328-.328h11.551c1.968-.394 4.2-.592 6.431-.592 2.232 0 4.397.198 6.498.592h11.485c.197 0 .328.131.328.328v4.535c-.459 3.943-7.81 8.149-18.311 8.149Zm-17.654-8.412v.066c.262 3.614 7.547 7.623 17.589 7.623 10.041 0 17.326-4.009 17.588-7.623v-4.075h-11.222a34.466 34.466 0 0 0-6.432-.591c-2.231 0-4.332.197-6.366.591h-11.288v4.009h.131Z" fill="#fff"/><path d="M257.06 111.304c-.329.263-.722.592-1.116.855v-8.544h1.116v7.689Zm-21.068-7.886v11.961c-.393-.066-.787-.132-1.115-.197V103.55h.065c.328-.066.722-.066 1.05-.132Zm1.904 12.224c-.394-.066-.788-.066-1.116-.132v-12.223c.394-.066.722-.066 1.116-.132v12.487Zm-9.582-2.563a17.185 17.185 0 0 1-1.116-.592v-8.872h1.116v9.464Zm11.485 2.694c-.394 0-.722-.066-1.116-.066v-12.552c.394 0 .722-.065 1.116-.065v12.683Zm-13.389-3.811c-.393-.329-.787-.592-1.115-.921v-7.426h1.115v8.347Zm5.776 2.628c-.394-.131-.788-.263-1.116-.328v-10.647h1.116v10.975Zm1.903.46c-.394-.066-.787-.197-1.116-.263V103.55h1.116v11.5Zm-3.806-1.117c-.394-.131-.788-.329-1.116-.46v-9.923h1.116v10.383Zm21.001.394c-.394.132-.722.263-1.116.329V103.55h1.116v10.777Zm-7.613 1.38c-.394 0-.722.066-1.116.066v-12.749c.394 0 .722 0 1.116.066v12.617Zm-1.969-12.683v12.749h-1.116v-12.749h1.116Zm17.327 4.929c-.066.854-.526 1.708-1.247 2.563v-6.901h1.247v4.338Zm-34.522 2.234a4.09 4.09 0 0 1-.919-2.234v-4.338h.919v6.572Zm30.584 2.432c-.328.197-.722.394-1.116.591v-9.66h1.116v9.069Zm-9.517 2.957c-.393.066-.722.066-1.115.131v-12.486c.393.066.722.066 1.115.132v12.223Zm7.613-1.972c-.393.132-.722.329-1.115.46v-10.449h1.115v9.989Zm-3.806 1.249c-.394.066-.722.197-1.116.263V103.55h1.116v11.303Zm-1.903.394c-.394.066-.722.132-1.116.197v-12.091c.394.065.787.131 1.116.197v11.697Z" fill="#ED7B63"/><path d="M241.309 95.072c10.566 0 17.982 4.338 17.982 8.149 0 3.878-7.35 8.149-17.982 8.149-10.567 0-17.983-4.337-17.983-8.149 0-3.877 7.416-8.149 17.983-8.149Z" fill="url(#B)"/><path d="M241.309 111.764c-10.764 0-18.311-4.468-18.311-8.543 0-4.008 7.547-8.543 18.311-8.543 10.763 0 18.311 4.469 18.311 8.543 0 4.075-7.548 8.543-18.311 8.543Zm0-16.363c-10.37 0-17.655 4.14-17.655 7.82 0 3.68 7.22 7.82 17.655 7.82 10.435 0 17.654-4.14 17.654-7.82 0-3.68-7.285-7.82-17.654-7.82Z" fill="#fff"/><path opacity=".25" d="M252.991 109.333c-1.182.46-2.429.854-3.873 1.183l-14.766-14.787a43.196 43.196 0 0 1 4.463-.59l14.176 14.194Zm-10.239 2.037h-2.887l-12.929-12.88c.59-.329 1.181-.723 1.903-.986l13.913 13.866Z" fill="#fff"/><path d="M241.308 96.584c2.297 0 4.463.197 6.432.591h11.551v4.403c-.263 3.812-7.548 7.952-17.983 7.952-10.369 0-17.654-4.14-17.982-7.952v-4.403h11.551c1.968-.394 4.134-.591 6.431-.591Z" fill="url(#C)"/><path d="M241.308 109.859c-10.5 0-17.851-4.206-18.31-8.149v-4.535c0-.197.131-.328.328-.328h11.551c1.968-.395 4.2-.592 6.431-.592 2.232 0 4.397.197 6.498.592h11.485c.197 0 .328.131.328.328v4.535c-.459 3.943-7.81 8.149-18.311 8.149Zm-17.654-8.412v.066c.262 3.614 7.547 7.623 17.589 7.623 10.041 0 17.326-4.009 17.588-7.623v-4.075h-11.222a34.44 34.44 0 0 0-6.432-.591 33.23 33.23 0 0 0-6.366.591h-11.288v4.009h.131Z" fill="#fff"/><path d="M257.06 104.798c-.329.263-.722.592-1.116.855v-8.544h1.116v7.689Zm-21.068-7.82v11.961c-.393-.066-.787-.132-1.115-.198V97.109h.065c.328-.065.722-.13 1.05-.13Zm1.904 12.158c-.394-.066-.788-.066-1.116-.132V96.781c.394-.066.722-.066 1.116-.132v12.487Zm-9.582-2.498c-.394-.197-.788-.394-1.116-.657V97.11h1.116v9.528Zm11.485 2.629c-.394 0-.722-.066-1.116-.066V96.65c.394 0 .722-.066 1.116-.066v12.683Zm-13.389-3.811c-.393-.329-.787-.592-1.115-.92v-7.427h1.115v8.347Zm5.776 2.628c-.394-.131-.788-.263-1.116-.328V97.109h1.116v10.975Zm1.903.526c-.394-.066-.787-.197-1.116-.263V97.11h1.116v11.5Zm-3.806-1.117c-.394-.132-.788-.329-1.116-.46v-9.924h1.116v10.384Zm21.001.328c-.394.132-.722.263-1.116.329V97.044h1.116v10.777Zm-7.613 1.446c-.394 0-.722.066-1.116.066v-12.75c.394 0 .722.067 1.116.067v12.617Zm-1.969-12.683v12.749h-1.116v-12.75h1.116Zm17.327 4.863c-.066.854-.526 1.708-1.247 2.563v-6.9h1.247v4.337Zm-34.522 2.234a4.09 4.09 0 0 1-.919-2.234v-4.338h.919v6.572Zm30.584 2.497c-.328.198-.722.395-1.116.592v-9.66h1.116v9.068Zm-9.517 2.892c-.393.066-.722.066-1.115.131V96.715c.393 0 .722.066 1.115.132v12.223Zm7.613-1.906c-.393.132-.722.329-1.115.46V97.175h1.115v9.989Zm-3.806 1.249c-.394.066-.722.197-1.116.263V97.109h1.116v11.304Zm-1.903.394c-.394.066-.722.132-1.116.197V96.912c.394.066.787.132 1.116.197v11.698Z" fill="#ED7B63"/><path d="M241.309 88.632c10.566 0 17.982 4.338 17.982 8.15 0 3.876-7.35 8.148-17.982 8.148-10.567 0-17.983-4.337-17.983-8.149 0-3.877 7.416-8.149 17.983-8.149Z" fill="url(#D)"/><path d="M241.309 105.324c-10.764 0-18.311-4.468-18.311-8.543 0-4.009 7.547-8.543 18.311-8.543 10.763 0 18.311 4.469 18.311 8.543 0 4.009-7.548 8.543-18.311 8.543Zm0-16.363c-10.37 0-17.655 4.14-17.655 7.82 0 3.68 7.22 7.82 17.655 7.82 10.435 0 17.654-4.14 17.654-7.82 0-3.68-7.285-7.82-17.654-7.82Z" fill="#fff"/><path opacity=".25" d="M252.991 102.893c-1.182.46-2.429.854-3.873 1.183l-14.766-14.852a43.195 43.195 0 0 1 4.463-.592l14.176 14.261Zm-10.239 2.037h-2.887l-12.929-12.946c.59-.329 1.181-.723 1.903-.986l13.913 13.932Z" fill="#fff"/><path d="M241.308 90.078c2.297 0 4.463.197 6.432.591h11.551v4.403c-.263 3.812-7.548 7.952-17.983 7.952-10.369 0-17.654-4.14-17.982-7.952V90.67h11.551c1.968-.394 4.134-.591 6.431-.591Z" fill="url(#E)"/><path d="M241.308 103.352c-10.5 0-17.851-4.205-18.31-8.148v-4.535c0-.197.131-.328.328-.328h11.551c1.968-.395 4.2-.592 6.431-.592 2.232 0 4.397.197 6.498.592h11.485c.197 0 .328.131.328.328v4.535c-.459 3.943-7.81 8.148-18.311 8.148Zm-17.654-8.346v.066c.262 3.615 7.547 7.623 17.589 7.623 10.041 0 17.326-4.008 17.588-7.623v-4.074h-11.222a34.44 34.44 0 0 0-6.432-.592 33.23 33.23 0 0 0-6.366.592h-11.288v4.008h.131Z" fill="#fff"/><path d="M257.06 98.358c-.329.263-.722.591-1.116.854V90.67h1.116v7.689Zm-21.068-7.886v12.026c-.393-.066-.787-.131-1.115-.197V90.669h.065c.328-.066.722-.131 1.05-.197Zm1.904 12.223c-.394-.065-.788-.065-1.116-.131V90.341c.394-.066.722-.066 1.116-.132v12.486Zm-9.582-2.563a17.048 17.048 0 0 1-1.116-.591v-8.872h1.116v9.463Zm11.485 2.695c-.394 0-.722-.066-1.116-.066V90.209c.394 0 .722-.066 1.116-.066v12.684Zm-13.389-3.812c-.393-.328-.787-.591-1.115-.92V90.67h1.115v8.346Zm5.776 2.629c-.394-.132-.788-.263-1.116-.329V90.669h1.116v10.975Zm1.903.46c-.394-.066-.787-.197-1.116-.263V90.603h1.116v11.501Zm-3.806-1.117c-.394-.132-.788-.329-1.116-.46v-9.924h1.116v10.384Zm21.001.394c-.394.131-.722.263-1.116.329V90.603h1.116v10.778Zm-7.613 1.38c-.394 0-.722.066-1.116.066v-12.75c.394 0 .722 0 1.116.066v12.618Zm-1.969-12.683v12.749h-1.116v-12.75h1.116Zm17.327 4.928c-.066.855-.526 1.71-1.247 2.563v-6.9h1.247v4.337Zm-34.522 2.235a4.091 4.091 0 0 1-.919-2.235V90.67h.919v6.572Zm30.584 2.497c-.328.197-.722.394-1.116.591v-9.66h1.116v9.069Zm-9.517 2.892c-.393.065-.722.065-1.115.131V90.275c.393 0 .722.066 1.115.131v12.224Zm7.613-1.972c-.393.132-.722.329-1.115.46V90.669h1.115v9.989Zm-3.806 1.249c-.394.065-.722.197-1.116.263V90.603h1.116v11.304Zm-1.903.46c-.394.065-.722.131-1.116.197V90.472c.394.066.787.131 1.116.197v11.698Z" fill="#ED7B63"/><path d="M241.309 82.126c10.566 0 17.982 4.337 17.982 8.149 0 3.877-7.35 8.149-17.982 8.149-10.567 0-17.983-4.338-17.983-8.15 0-3.81 7.416-8.148 17.983-8.148Z" fill="url(#F)"/><path d="M241.309 98.818c-10.764 0-18.311-4.469-18.311-8.543 0-4.009 7.547-8.543 18.311-8.543 10.763 0 18.311 4.468 18.311 8.543 0 4.074-7.548 8.543-18.311 8.543Zm0-16.364c-10.37 0-17.655 4.14-17.655 7.82 0 3.68 7.22 7.821 17.655 7.821 10.435 0 17.654-4.14 17.654-7.82 0-3.68-7.285-7.82-17.654-7.82Z" fill="#fff"/><path opacity=".25" d="M252.991 96.387c-1.182.46-2.429.854-3.873 1.183l-14.766-14.852a43.224 43.224 0 0 1 4.463-.592l14.176 14.26Zm-10.239 2.103h-2.887l-12.929-12.947c.59-.328 1.181-.657 1.903-.985l13.913 13.931Z" fill="#fff"/><path d="M241.308 83.638c2.297 0 4.463.197 6.432.591h11.551v4.403c-.263 3.811-7.548 7.952-17.983 7.952-10.369 0-17.654-4.14-17.982-7.952v-4.403h11.551c1.968-.394 4.134-.591 6.431-.591Z" fill="url(#G)"/><path d="M241.308 96.912c-10.5 0-17.851-4.206-18.31-8.149V84.23c0-.197.131-.329.328-.329h11.551c1.968-.394 4.2-.591 6.431-.591 2.232 0 4.397.197 6.498.591h11.485c.197 0 .328.132.328.329v4.534c-.459 3.943-7.81 8.15-18.311 8.15ZM223.654 88.5v.066c.262 3.615 7.547 7.623 17.589 7.623 10.041 0 17.326-4.008 17.588-7.623v-4.074h-11.222a34.44 34.44 0 0 0-6.432-.592 33.23 33.23 0 0 0-6.366.592h-11.288V88.5h.131Z" fill="#fff"/><path d="M257.06 91.918c-.329.263-.722.591-1.116.854V84.23h1.116v7.689Zm-21.068-7.886v11.96c-.393-.066-.787-.131-1.115-.197V84.163h.065c.328-.066.722-.066 1.05-.131Zm1.904 12.223c-.394-.066-.788-.066-1.116-.131V83.9c.394-.065.722-.065 1.116-.131v12.486Zm-9.582-2.563c-.394-.197-.788-.394-1.116-.657v-8.872h1.116v9.53Zm11.485 2.695c-.394 0-.722-.066-1.116-.066V83.769c.394 0 .722-.066 1.116-.066v12.683Zm-13.389-3.812c-.393-.329-.787-.591-1.115-.92v-7.426h1.115v8.346Zm5.776 2.629c-.394-.132-.788-.263-1.116-.329V84.229h1.116v10.975Zm1.903.46c-.394-.066-.787-.198-1.116-.263V84.163h1.116v11.5Zm-3.806-1.118c-.394-.131-.788-.328-1.116-.46v-9.923h1.116v10.383Zm21.001.395c-.394.131-.722.197-1.116.328V84.163h1.116v10.778Zm-7.613 1.38c-.394 0-.722.066-1.116.066v-12.75c.394 0 .722.066 1.116.066v12.618Zm-1.969-12.683v12.748h-1.116V83.638h1.116Zm17.327 4.928c-.066.855-.526 1.709-1.247 2.563v-6.9h1.247v4.337Zm-34.522 2.169a4.091 4.091 0 0 1-.919-2.234v-4.338h.919v6.572Zm30.584 2.497c-.328.197-.722.394-1.116.592v-9.66h1.116v9.068Zm-9.517 2.892c-.393.065-.722.065-1.115.131V83.77c.393.066.722.066 1.115.131v12.224Zm7.613-1.906c-.393.131-.722.328-1.115.46V84.229h1.115v9.989Zm-3.806 1.248c-.394.066-.722.198-1.116.263V84.163h1.116v11.303Zm-1.903.395c-.394.066-.722.131-1.116.197V83.966c.394.066.787.132 1.116.197v11.698Z" fill="#ED7B63"/><path d="M241.309 75.686c10.566 0 17.982 4.337 17.982 8.149 0 3.811-7.35 8.149-17.982 8.149-10.567 0-17.983-4.338-17.983-8.15 0-3.81 7.416-8.148 17.983-8.148Z" fill="url(#H)"/><path d="M241.309 92.378c-10.764 0-18.311-4.469-18.311-8.543 0-4.01 7.547-8.544 18.311-8.544 10.763 0 18.311 4.47 18.311 8.544 0 4.008-7.548 8.543-18.311 8.543Zm0-16.364c-10.37 0-17.655 4.14-17.655 7.82 0 3.68 7.22 7.82 17.655 7.82 10.435 0 17.654-4.14 17.654-7.82 0-3.68-7.285-7.82-17.654-7.82Z" fill="#fff"/><path opacity=".25" d="M252.991 89.946c-1.182.46-2.429.855-3.873 1.183l-14.766-14.852a43.195 43.195 0 0 1 4.463-.591l14.176 14.26Zm-10.239 2.038h-1.443c-.46 0-.985 0-1.444-.066l-12.929-12.815c.59-.328 1.181-.657 1.903-.986l13.913 13.867Z" fill="#fff"/><path d="M236.255 75.094c2.297 0 4.463.198 6.432.592h11.551v4.403c-.263 3.811-7.548 7.951-17.983 7.951-10.369 0-17.654-4.14-17.983-7.951v-4.403h11.551c1.969-.395 4.135-.592 6.432-.592Z" fill="url(#I)"/><path d="M236.255 88.37c-10.501 0-17.851-4.207-18.311-8.15v-4.534c0-.197.132-.329.328-.329h11.551c1.969-.394 4.201-.591 6.432-.591 2.231 0 4.397.197 6.497.591h11.486c.197 0 .328.132.328.329v4.534c-.46 3.943-7.81 8.15-18.311 8.15Zm-17.654-8.413v.066c.262 3.615 7.547 7.623 17.588 7.623 10.042 0 17.327-4.008 17.589-7.623V75.95h-11.091a34.44 34.44 0 0 0-6.432-.592c-2.231 0-4.331.197-6.366.592h-11.288v4.008Z" fill="#fff"/><path d="M252.006 83.375c-.328.263-.722.591-1.115.854v-8.543h1.115v7.689Zm-21.067-7.886v11.96a37.785 37.785 0 0 1-1.116-.197V75.62h.066c.328 0 .722-.066 1.05-.131Zm1.903 12.223c-.393-.066-.787-.066-1.115-.132V75.358c.394-.066.722-.066 1.115-.131v12.486Zm-9.581-2.563c-.394-.197-.788-.394-1.116-.657V75.62h1.116v9.529Zm11.485 2.694c-.394 0-.722-.065-1.116-.065V75.226c.394 0 .722-.066 1.116-.066v12.683Zm-13.389-3.811c-.394-.329-.787-.592-1.115-.92v-7.426h1.115v8.346Zm5.776 2.629c-.394-.132-.788-.263-1.116-.33V75.687h1.116V86.66Zm1.903.46c-.394-.066-.788-.198-1.116-.263V75.62h1.116v11.5Zm-3.872-1.118c-.394-.131-.788-.328-1.116-.46V75.62h1.116v10.383Zm21.067.395c-.394.131-.722.197-1.116.328V75.62h1.116v10.778Zm-7.679 1.38c-.394 0-.722.065-1.115.065V75.094c.393 0 .721.066 1.115.066v12.618Zm-1.903-12.684v12.75h-1.116v-12.75h1.116Zm17.326 4.93c-.065.853-.525 1.708-1.247 2.562v-6.9h1.247v4.337Zm-34.521 2.233c-.525-.722-.853-1.511-.919-2.234v-4.337h.985v6.571h-.066Zm30.583 2.432c-.328.197-.721.394-1.115.591v-9.66h1.115v9.069Zm-9.516 2.957c-.394.066-.722.066-1.116.132V75.29c.394.066.722.066 1.116.132v12.223Zm7.613-1.971c-.394.131-.722.328-1.116.46v-10.45h1.116v9.99Zm-3.806 1.248c-.394.066-.722.198-1.116.263V75.62h1.116v11.303Zm-1.904.395c-.393.065-.721.131-1.115.197V75.423c.394.066.787.131 1.115.197v11.698Z" fill="#ED7B63"/><path d="M236.256 67.143c10.566 0 17.982 4.337 17.982 8.149 0 3.877-7.35 8.148-17.982 8.148-10.567 0-17.983-4.337-17.983-8.148 0-3.812 7.416-8.15 17.983-8.15Z" fill="url(#J)"/><path d="M236.256 83.835c-10.764 0-18.311-4.469-18.311-8.543 0-4.075 7.547-8.544 18.311-8.544 10.763 0 18.31 4.47 18.31 8.544 0 4.074-7.547 8.543-18.31 8.543Zm0-16.364c-10.37 0-17.655 4.14-17.655 7.82 0 3.68 7.219 7.82 17.655 7.82 10.369 0 17.588-4.14 17.588-7.82 0-3.68-7.219-7.82-17.588-7.82Z" fill="#fff"/><path opacity=".25" d="M247.937 81.403c-1.181.46-2.428.854-3.872 1.183L229.298 67.8a43.297 43.297 0 0 1 4.463-.592l14.176 14.195Zm-10.238 2.037h-2.888l-12.929-12.946c.591-.328 1.182-.723 1.904-.986l13.913 13.932Z" fill="#fff"/><path d="M281.869 109.464c2.297 0 4.463.197 6.432.592h11.55v4.403c-.262 3.811-7.547 7.951-17.982 7.951-10.37 0-17.655-4.14-17.983-7.951v-4.403h11.551c1.969-.395 4.135-.592 6.432-.592Z" fill="url(#K)"/><path d="M281.869 122.739c-10.501 0-17.851-4.206-18.311-8.149v-4.534c0-.198.131-.329.328-.329h11.551c1.969-.394 4.2-.591 6.432-.591 2.231 0 4.397.197 6.497.591h11.485c.197 0 .329.131.329.329v4.534c-.46 3.943-7.81 8.149-18.311 8.149Zm-17.655-8.412v.066c.263 3.614 7.548 7.623 17.589 7.623 10.042 0 17.327-4.009 17.589-7.623v-4.074h-11.223a34.37 34.37 0 0 0-6.431-.592c-2.232 0-4.332.197-6.367.592h-11.288v4.008h.131Z" fill="#fff"/><path d="M297.555 117.744c-.329.263-.722.592-1.116.855v-8.543h1.116v7.688Zm-21.002-7.886v12.027c-.394-.066-.788-.132-1.116-.198v-11.631h.066c.328-.066.722-.132 1.05-.198Zm1.903 12.224c-.394-.066-.787-.066-1.115-.132v-12.223c.393-.066.721-.066 1.115-.131v12.486Zm-9.582-2.563c-.393-.197-.787-.394-1.115-.657v-8.806h1.115v9.463Zm11.486 2.694c-.394 0-.788-.066-1.116-.066v-12.551c.394 0 .722-.066 1.116-.066v12.683Zm-13.389-3.811c-.394-.329-.788-.592-1.116-.92v-7.426h1.116v8.346Zm5.775 2.628c-.393-.131-.787-.263-1.115-.328v-10.646h1.115v10.974Zm1.904.46c-.394-.065-.788-.197-1.116-.263v-11.171h1.116v11.434Zm-3.872-1.117c-.394-.131-.788-.328-1.116-.46v-9.857h1.116v10.317Zm21.067.394c-.394.132-.722.263-1.116.329v-11.04h1.116v10.711Zm-7.679 1.38c-.394 0-.722.066-1.116.066v-12.749c.394 0 .788 0 1.116.066v12.617Zm-1.903-12.683v12.749h-1.116v-12.749h1.116Zm17.326 4.929c-.066.854-.525 1.709-1.247 2.563v-6.9h1.247v4.337Zm-34.521 2.234c-.525-.723-.853-1.511-.919-2.234v-4.337h.984v6.571h-.065Zm30.583 2.432c-.328.197-.722.394-1.115.591v-9.594h1.115v9.003Zm-9.516 2.957c-.394.066-.722.066-1.116.131v-12.486c.394 0 .722.066 1.116.132v12.223Zm7.613-1.971c-.394.131-.722.328-1.116.46v-10.449h1.116v9.989Zm-3.807 1.248c-.393.066-.721.197-1.115.263v-11.5h1.115v11.237Zm-1.903.394c-.394.066-.722.132-1.116.198v-12.092c.394.065.788.131 1.116.197v11.697Z" fill="#ED7B63"/><path d="M281.868 101.513c10.567 0 17.983 4.337 17.983 8.148 0 3.878-7.351 8.149-17.983 8.149-10.566 0-17.982-4.337-17.982-8.149 0-3.811 7.416-8.148 17.982-8.148Z" fill="url(#L)"/><path d="M281.868 118.204c-10.763 0-18.31-4.468-18.31-8.543 0-4.008 7.547-8.543 18.31-8.543 10.764 0 18.311 4.469 18.311 8.543 0 4.075-7.547 8.543-18.311 8.543Zm0-16.363c-10.369 0-17.654 4.14-17.654 7.82 0 3.68 7.219 7.821 17.654 7.821 10.37 0 17.589-4.141 17.589-7.821 0-3.68-7.219-7.82-17.589-7.82Z" fill="#fff"/><path opacity=".25" d="M293.55 115.773c-1.181.46-2.428.854-3.872 1.183l-14.766-14.786a43.345 43.345 0 0 1 4.462-.592l14.176 14.195Zm-10.238 2.037h-2.888l-12.863-12.946a25.377 25.377 0 0 1 1.903-.986l13.848 13.932Z" fill="#fff"/><path d="M211.841 100.264c-.525.394-1.05.854-1.575 1.249-7.416 0-11.879 4.731-13.454 7.82-.656 1.38-.131 3.023 1.247 3.68 1.378.657 3.019.131 3.741-1.183.197-.394 1.51-2.76 4.463-4.009-.656 2.629-.197 5.389 1.247 8.149 2.822 5.192 9.976 10.121 14.438 8.609.066 0 .132-.066.197-.066 3.151-1.182 5.251-4.994 5.119-9.266-.131-5.454-4.069-9.989-9.844-12.289 5.907-2.957 9.319-1.84 11.223-.92 6.169 2.958 4.922 8.346 6.497 8.346 2.297 0 2.888-8.806-4.003-13.011-5.513-3.286-12.733-1.972-19.296 2.891Zm9.911 15.181c.065 2.168-.854 3.614-1.444 3.877-1.51.131-6.563-2.76-8.204-6.835-.788-1.84-.591-3.614.525-5.257.722.131 1.444.329 2.166.526 6.103 2.037 6.891 6.046 6.957 7.689ZM117.991 267.71c-5.382-3.089-24.48-3.746-24.48-3.746l.853 9.398c0 2.037 1.378 4.074 4.069 5.651 5.382 3.089 14.11 3.089 19.558 0 5.381-3.088 5.381-8.149 0-11.303Zm11.813 22.081c.263 2.103 1.838 4.206 4.594 5.783 6.169 3.549 16.276 3.549 22.446 0 3.084-1.775 4.659-4.14 4.659-6.506l1.904-13.472-36.753.394 3.15 13.801Zm76.065-29.31c.263 2.103 1.838 4.206 4.594 5.783 6.169 3.549 16.276 3.549 22.446 0 3.084-1.774 4.659-4.14 4.659-6.506l10.632-43.044-43.972 25.498 1.641 18.269Z" fill="#5752D0"/><path d="M119.435 118.27C59.646 148.5 30.441 228.28 93.577 267.381c22.511 13.932 65.236 17.809 109.011-4.666 59.789-30.689 62.545-94.5 42.791-121.312-19.689-26.879-66.221-53.362-125.944-23.133Z" fill="url(#M)"/><path d="M245.444 141.403c-19.689-26.813-66.22-53.362-126.009-23.133-59.789 30.23-88.994 110.01-25.858 149.111 22.511 13.932 65.236 17.81 109.011-4.666 59.789-30.689 62.545-94.5 42.856-121.312Zm-37.999 98.772c-32.29 30.755-70.487 38.444-93.589 32.069-64.908-17.743-59.92-94.632-15.75-136.296 44.168-41.664 91.422-30.558 115.442-12.289 24.021 18.269 38 74.457-6.103 116.516Z" fill="#4990D6"/><path d="m103.42 264.556.132-.066c-.066.066-.066.066-.132.066Z" fill="#CE6480"/><path d="m68.243 128.128 28.55 21.752c3.937-2.563 4.79-7.952 1.771-11.566-5.906-7.097-16.735-16.232-30.32-10.186Zm105.205 34.895c-22.511-12.289-45.416 5.981-45.416 5.981 24.611 4.928 33.734 41.861 33.734 41.861 27.958-9.857 26.12-39.956 11.682-47.842Z" fill="#7F7CF9"/><path d="M124.553 222.891c.919-.986 1.444-2.431 1.444-4.403 0-4.994-3.544-11.106-7.875-13.669-4.332-2.497-7.876-.46-7.876 4.535v.328c5.71 3.22 10.566 7.755 14.307 13.209Zm-38.262-25.038c.131-1.314-1.247-10.712-10.304-10.514-5.053.131-9.647 5.585-8.991 8.477 6.432-.789 13.06 0 19.295 2.037Z" fill="#023248"/><path d="M66.274 129.771c-8.532 10.646 6.694 32.267 6.694 32.267 5.776-12.158 23.824-12.092 23.824-12.092s-21.92-30.821-30.518-20.175Zm61.758 39.233s17.72 10.449 33.733 41.861c0 0 17.13-28.324 3.873-43.044-10.436-11.632-37.606 1.183-37.606 1.183Zm-40.494 39.89c-7.941-2.892-19.426-.066-31.568 6.243-12.47 6.571 37.737 41.204 37.737 41.204s9.648-7.82 11.157-22.541c.985-9.923-3.806-19.978-17.326-24.906Z" fill="#5752D0"/><path d="M73.56 218.028c-12.667-6.9-22.709-4.337-22.446 5.652.262 9.989 10.763 23.723 23.43 30.624 12.666 6.9 22.708 4.337 22.445-5.652-.328-9.989-10.763-23.724-23.43-30.624Z" fill="#7F7CF9"/><path d="M64.043 222.563c-1.903-1.052-3.347 1.38-3.216 5.323.131 3.943 1.706 7.951 3.61 9.003 1.903 1.051 3.347-1.38 3.216-5.323-.132-3.943-1.707-7.952-3.61-9.003Zm16.801 11.763c-1.903-1.052-3.347 1.38-3.216 5.323.132 3.943 1.707 7.952 3.61 9.003 1.903 1.051 3.347-1.38 3.216-5.323-.131-3.943-1.706-8.017-3.61-9.003Z" fill="#023248"/><path d="M192.545 112.947c-42.331-.329-73.965 30.361-75.343 31.676a7.098 7.098 0 0 0-.591 10.054 6.86 6.86 0 0 0 4.725 2.366c1.904.197 3.807-.394 5.316-1.774.329-.263 28.746-34.107 65.762-33.844 3.741 0 6.825-1.841 6.825-4.206.066-2.3-2.953-4.206-6.694-4.272Z" fill="#5752D0"/><path d="M192.217 114.853c-40.887-.263-71.274 30.624-72.652 31.872-2.822 2.498-3.085 6.835-.591 9.726a6.622 6.622 0 0 0 4.529 2.301c1.837.197 3.675-.395 5.184-1.709.329-.263 27.631-34.238 63.399-33.976 3.61 0 6.563-1.774 6.628-4.074 0-2.3-2.887-4.14-6.497-4.14Z" fill="#023248"/><path d="m125.96 83.009 15.095 8.674.065 13.275-15.094-8.609-.066-13.34Z" fill="url(#N)"/><path d="m141.12 104.958-.065-13.275.065 13.275Z" fill="url(#O)"/><path d="m141.12 104.958-.065-13.275 3.937-2.3 11.026-6.506.066 13.472-14.898 8.675-.066-.066Z" fill="url(#P)"/><path d="m141.12 104.958-.065-13.275 14.963-8.806.066 13.472-14.898 8.675-.066-.066Z" fill="url(#Q)"/><path d="m174.723 85.44-.131-13.472 15.029-8.74.066 13.406-14.964 8.806Z" fill="url(#R)"/><path d="m174.723 85.44-.131-13.472 15.029-8.74.066 13.406-14.964 8.806Z" fill="url(#S)"/><path d="m159.561 63.36 15.029 8.608.132 13.472-15.095-8.674-.066-13.407Z" fill="url(#T)"/><path d="m156.019 82.877-15.161-8.609-14.963 8.74 15.16 8.675 14.964-8.806Z" fill="url(#U)"/><path d="m141.055 92.472-16.473-9.463 16.342-9.53 16.539 9.398-16.408 9.595Zm-13.782-9.463 13.717 7.886 13.585-7.952-13.782-7.82-13.52 7.886Z" fill="#fff"/><path d="m189.555 63.228-15.16-8.609-14.898 8.74 15.094 8.675 14.964-8.806Z" fill="url(#V)"/><path d="m174.592 72.823-16.473-9.463 16.342-9.53 16.538 9.398-16.407 9.595Zm-13.717-9.463 13.717 7.886 13.651-7.952-13.782-7.82-13.586 7.886Z" fill="#fff"/><path d="M168.525 46.64a29.55 29.55 0 0 0 2.166 5.454l2.953 10.054 3.807-1.117c3.216-1.249 4.988-8.609 2.297-17.678-2.625-9.069-8.073-14.326-11.485-13.603l-3.807 1.117 2.953 10.055c.132 1.774.525 3.68 1.116 5.717Z" fill="url(#W)"/><path d="M173.58 62.805c-.328 0-.591-.197-.656-.525l-2.954-10.055a35.049 35.049 0 0 1-2.166-5.455 31.943 31.943 0 0 1-1.181-5.848l-2.953-9.923c-.066-.198 0-.395.065-.526.066-.132.263-.263.394-.329l3.807-1.117h.197c3.675-.657 9.319 4.535 12.141 14.13 2.822 9.594.853 16.954-2.625 18.466-.066.065-.131.065-.197.065l-3.806 1.117h-.066Zm-4.397-16.363c.59 1.906 1.247 3.68 2.1 5.323l2.822 9.529 3.019-.92h.066c2.887-1.117 4.397-8.28 1.903-16.824-2.494-8.543-7.613-13.8-10.698-13.143h-.065l-3.019.92 2.756 9.398c.197 1.971.525 3.811 1.116 5.717Z" fill="#fff"/><path d="M179.682 58.205c.197-.394.328-.788.46-1.183l-7.417 2.169.263.986 6.694-1.972Zm-12.207-16.297 10.435-3.09c-.131-.328-.328-.656-.459-.92l-10.107 2.958v.066c.065.394.131.657.131.986Zm11.091-1.446c-.131-.329-.262-.657-.393-.92l-10.632 3.088.197.986 10.828-3.154Zm-4.594-7.69c-.262-.262-.525-.59-.853-.853l-7.744 2.3.262.986 8.335-2.432Zm5.251 9.333c-.131-.329-.197-.657-.328-.986L168 44.339c.066.329.131.657.263.986l10.96-3.22Zm-6.76-10.712c-.394-.263-.722-.526-1.116-.723l-6.497 1.906.262.986 7.351-2.17Zm3.741 4.337c-.197-.328-.394-.591-.591-.92l-9.254 2.694.263.986 9.582-2.76Zm.919 1.577c-.197-.328-.329-.591-.525-.92l-9.714 2.892.263.986 9.976-2.958Zm-1.969-3.088c-.197-.329-.46-.592-.722-.855l-8.598 2.498.263.985 9.057-2.628Zm5.71 18.203v-1.051l-9.648 2.826.262.985 9.386-2.76Zm-.722-6.966c-.066-.328-.132-.657-.263-.986l-11.026 3.22c.132.33.197.658.328.986l10.961-3.22Zm-11.551 1.577 11.091-3.285c-.065-.132-.065-.263-.131-.395l-.197-.591-11.091 3.286.197.591c.065.132.131.263.131.394Zm8.729 13.801c.721-.263 1.378-.854 1.903-1.709l-6.038 1.775.328 1.051 3.807-1.117Zm-6.892-30.624c-.787-.329-1.509-.394-2.165-.263l-3.807 1.117.263.855 5.709-1.709Zm9.976 26.024c.066-.329.197-.723.263-1.117l-8.401 2.431.263.986 7.875-2.3Zm.066-9.07-.197-.985-10.829 3.22c.131.329.262.657.394.92l10.632-3.154Zm.262 7.164c.066-.329.066-.723.132-1.117l-9.057 2.694.262.986 8.663-2.563Zm.132-3.68c0-.329-.066-.723-.066-1.052l-10.041 2.958.262.985 9.845-2.891Zm-.132-1.775c-.065-.328-.065-.657-.131-1.05L170.1 50.91c.132.328.263.657.46.92l10.172-2.958Z" fill="#ED7B63"/><path d="M161.635 48.676c2.691 9.2 8.335 14.524 11.682 13.538 3.348-.986 5.185-8.477 2.494-17.743-2.69-9.2-8.335-14.524-11.682-13.538-3.347.986-5.25 8.543-2.494 17.743Z" fill="url(#X)"/><path d="M172.465 63.068c-3.741 0-8.926-5.257-11.551-14.194-1.313-4.338-1.641-8.74-1.05-12.29.59-3.417 2.034-5.717 4.003-6.308 3.741-1.117 9.713 4.271 12.535 13.997 1.313 4.338 1.641 8.74 1.05 12.29-.59 3.417-2.034 5.717-4.003 6.308-.262.132-.656.197-.984.197ZM162.292 48.48c2.691 9.266 8.138 13.866 10.829 13.078 1.378-.395 2.559-2.366 3.019-5.258.591-3.351.197-7.491-.985-11.631-2.69-9.266-8.138-13.867-10.828-13.078-1.379.394-2.56 2.366-3.019 5.257-.591 3.352-.263 7.492.984 11.632Z" fill="#fff"/><path opacity=".25" d="M176.992 55.248c.131-1.117.131-2.366.066-3.68l-16.67-9.07c.131 1.25.328 2.63.656 4.01l15.948 8.74Zm-.853-9.463c-.131-.395-.197-.855-.328-1.249-.132-.394-.263-.854-.394-1.248l-14.504-7.952a94.84 94.84 0 0 0-.394 1.906l15.62 8.543Z" fill="#fff"/><path d="M133.48 67.274a34.988 34.988 0 0 0 2.101 5.455l2.953 10.054 3.806-1.117c3.216-1.248 4.988-8.609 2.297-17.678-2.625-9.003-8.072-14.326-11.485-13.603l-3.806 1.117 2.953 10.055c.197 1.774.591 3.68 1.181 5.717Z" fill="url(#Y)"/><path d="M138.534 83.44c-.132 0-.197 0-.329-.065-.131-.066-.262-.263-.328-.395l-2.953-10.054c-.788-1.578-1.575-3.483-2.1-5.455a31.864 31.864 0 0 1-1.182-5.849l-2.887-9.923c-.132-.394.131-.723.459-.854l3.807-1.117h.197c3.675-.592 9.319 4.534 12.141 14.129 2.822 9.594.853 17.02-2.625 18.466-.066.066-.131.066-.197.066l-3.807 1.117c-.065-.066-.131-.066-.196-.066Zm-4.398-16.363a27.189 27.189 0 0 0 2.101 5.323l2.822 9.529 3.084-.92h.066c2.888-1.117 4.397-8.28 1.903-16.824-2.494-8.543-7.613-13.8-10.698-13.143h-.065l-3.019.92 2.756 9.398c.066 1.905.46 3.811 1.05 5.717Z" fill="#fff"/><path d="M144.637 78.84c.197-.394.328-.788.46-1.183l-7.416 2.169.262.986 6.694-1.972ZM132.43 62.542l10.435-3.088c-.131-.329-.328-.657-.459-.92l-10.107 2.957v.066c.065.328.065.657.131.985Zm11.092-1.51c-.132-.33-.263-.658-.394-.921L132.496 63.2l.197.986 10.829-3.155Zm-4.66-7.624c-.263-.263-.525-.592-.853-.789l-7.745 2.3.263.986 8.335-2.497Zm5.25 9.266c-.131-.329-.197-.657-.328-.986l-10.894 3.22.196.986 11.026-3.22Zm-6.694-10.646c-.394-.263-.722-.526-1.116-.723l-6.497 1.906.262.986 7.351-2.17Zm3.741 4.337a9.601 9.601 0 0 0-.591-.854l-9.254 2.694.263.986 9.582-2.826Zm.919 1.512c-.197-.329-.328-.592-.525-.92l-9.714 2.891.263.986 9.976-2.957Zm-1.969-3.023c-.197-.329-.46-.592-.722-.855l-8.598 2.498.263.985 9.057-2.628Zm5.71 18.203v-1.051l-9.648 2.826.263.985 9.385-2.76Zm-.722-7.032c-.066-.328-.132-.657-.263-.985l-11.026 3.22c.132.328.197.657.328.986l10.961-3.22Zm-11.551 1.578 11.091-3.286c-.065-.131-.065-.263-.131-.394l-.197-.592-11.091 3.286.197.591c.065.132.131.263.131.395Zm8.729 13.866c.722-.263 1.378-.854 1.903-1.709l-6.038 1.775.328 1.051 3.807-1.117Zm-6.892-30.69c-.787-.328-1.509-.394-2.165-.263l-3.807 1.118.263.854 5.709-1.709Zm9.976 26.024c.066-.394.197-.723.263-1.117l-8.401 2.497.263.986 7.875-2.366Zm.066-9.069-.197-.986-10.829 3.22c.131.33.263.658.394.92l10.632-3.154Zm.262 7.163c.066-.328.066-.723.132-1.117l-9.057 2.695.262.985 8.663-2.563Zm.132-3.614c0-.329-.066-.723-.066-1.052l-10.041 2.958.262.985 9.845-2.891Zm-.132-1.775c-.065-.328-.065-.657-.131-1.051l-10.501 3.089c.132.328.263.657.46.92l10.172-2.957Z" fill="#ED7B63"/><path d="M126.522 69.246c2.691 9.2 8.335 14.523 11.682 13.537 3.347-.986 5.185-8.477 2.494-17.743-2.691-9.2-8.335-14.524-11.682-13.538-3.347 1.051-5.185 8.543-2.494 17.744Z" fill="url(#Z)"/><path d="M137.417 83.638c-1.772 0-3.807-1.183-5.776-3.286-2.428-2.629-4.462-6.506-5.775-10.91-2.888-9.725-.788-17.48 2.953-18.597 3.741-1.117 9.714 4.272 12.536 13.998 2.887 9.726.787 17.48-2.954 18.597a2.629 2.629 0 0 1-.984.198Zm-7.548-31.545c-.196 0-.459 0-.656.066-2.691.789-4.791 7.623-2.034 16.89 1.247 4.14 3.15 7.82 5.447 10.317 1.969 2.169 3.938 3.154 5.382 2.76 2.69-.788 4.791-7.557 2.034-16.89-2.494-8.542-7.285-13.143-10.173-13.143Z" fill="#fff"/><path opacity=".25" d="M141.947 75.817c.131-1.117.131-2.365.065-3.68l-16.67-9.134c.132 1.314.328 2.628.657 4.008l15.948 8.806Zm-.854-9.463c-.131-.394-.196-.854-.328-1.248-.131-.395-.262-.855-.393-1.25l-14.505-7.95a95.066 95.066 0 0 0-.393 1.905l15.619 8.543Z" fill="#fff"/><path d="M99.417 54.59a29.535 29.535 0 0 0 2.166 5.455l2.953 10.055 3.807-1.117c3.216-1.249 4.988-8.61 2.297-17.678-2.625-9.003-8.073-14.326-11.485-13.603l-3.807 1.117 2.954 10.054c.13 1.775.524 3.746 1.115 5.718Z" fill="url(#aa)"/><path d="M104.471 70.823c-.329 0-.591-.197-.657-.526l-2.953-10.055c-.853-1.577-1.575-3.482-2.1-5.454a31.878 31.878 0 0 1-1.182-5.849l-2.887-9.923c-.066-.197 0-.394.065-.526.066-.131.263-.263.394-.328l3.807-1.117c.065 0 .197-.066.197 0 3.675-.658 9.319 4.534 12.141 14.128 2.822 9.595.853 16.955-2.625 18.467-.066.066-.131.066-.197.066l-3.807 1.117c-.065-.066-.131 0-.196 0Zm-4.398-16.43a27.189 27.189 0 0 0 2.101 5.324l2.822 9.529 3.019-.92h.065c2.888-1.118 4.397-8.28 1.903-16.824-2.493-8.543-7.613-13.8-10.697-13.143h-.066l-3.019.92 2.757 9.397c.197 1.972.525 3.812 1.115 5.718Z" fill="#fff"/><path d="M110.574 66.157c.197-.394.328-.789.46-1.183l-7.416 2.169.262.985 6.694-1.971ZM98.367 49.859l10.435-3.089c-.131-.328-.328-.657-.459-.92l-10.107 2.958v.066c.066.394.131.657.131.985Zm11.092-1.446c-.132-.328-.263-.657-.394-.92l-10.632 3.09.197.985 10.829-3.154Zm-4.595-7.688c-.262-.263-.525-.592-.853-.855l-7.744 2.3.263.986 8.334-2.431Zm5.185 9.331c-.131-.328-.197-.657-.328-.985l-10.895 3.22.197.986 11.026-3.22Zm-6.694-10.646c-.394-.263-.722-.525-1.116-.723l-6.497 1.906.262.986 7.351-2.169Zm3.741 4.272c-.197-.329-.394-.592-.591-.92l-9.254 2.694.263.986 9.582-2.76Zm.919 1.577c-.197-.328-.328-.591-.525-.92l-9.713 2.892.262.985 9.976-2.957Zm-1.969-3.089c-.197-.328-.46-.591-.722-.854l-8.598 2.497.263.986 9.057-2.629Zm5.71 18.27v-1.052l-9.648 2.826.263.986 9.385-2.76Zm-.722-7.032c-.066-.329-.132-.657-.263-.986l-11.026 3.22c.132.329.197.657.329.986l10.96-3.22Zm-11.551 1.577 11.091-3.286c-.065-.131-.065-.263-.131-.394l-.197-.591-11.091 3.285.197.592c.065.131.13.263.13.394Zm8.729 13.8c.722-.262 1.378-.854 1.903-1.708l-6.038 1.774.328 1.052 3.807-1.117Zm-6.892-30.623c-.787-.329-1.509-.395-2.165-.263l-3.807 1.117.263.854 5.709-1.708Zm9.976 26.023c.066-.394.197-.722.263-1.117l-8.401 2.432.263.986 7.875-2.3Zm.066-9.068-.197-.986-10.829 3.22c.131.328.263.657.394.92l10.632-3.154Zm.262 7.163c.066-.329.066-.723.132-1.117l-9.057 2.694.262.986 8.663-2.563Zm.132-3.68c0-.329-.066-.723-.066-1.052l-10.041 2.957.262.986 9.845-2.892Zm-.132-1.775c-.065-.328-.065-.657-.131-1.051l-10.501 3.088c.132.329.263.658.46.92l10.172-2.957Z" fill="#ED7B63"/><path d="M92.461 56.628c2.691 9.2 8.335 14.523 11.682 13.538 3.347-.986 5.185-8.543 2.494-17.744-2.691-9.2-8.335-14.523-11.682-13.537-3.281.985-5.185 8.543-2.494 17.743Z" fill="url(#ab)"/><path d="M103.356 71.02c-3.741 0-8.926-5.257-11.551-14.195-1.247-4.337-1.64-8.74-1.05-12.289.59-3.417 2.034-5.717 4.003-6.309 3.741-1.117 9.713 4.272 12.536 13.998 1.312 4.337 1.64 8.74 1.05 12.29-.591 3.416-2.035 5.716-4.004 6.308a2.629 2.629 0 0 1-.984.197Zm-7.548-31.544c-.197 0-.46 0-.656.066-1.378.394-2.56 2.366-3.019 5.257-.59 3.352-.197 7.492.985 11.632 2.69 9.266 8.138 13.866 10.828 13.078 1.379-.395 2.56-2.366 3.019-5.258.591-3.351.197-7.492-.984-11.632-2.494-8.543-7.285-13.143-10.173-13.143Z" fill="#fff"/><path opacity=".25" d="M107.884 63.2c.131-1.117.131-2.366.065-3.68l-16.67-9.07c.132 1.315.328 2.63.657 4.01l15.948 8.74Zm-.854-9.464c-.131-.394-.196-.854-.328-1.248-.131-.394-.262-.854-.393-1.249l-14.505-7.951a94.773 94.773 0 0 0-.393 1.905l15.619 8.544Z" fill="#fff"/><path d="M68.44 19.432a35.006 35.006 0 0 0 2.1 5.455l2.954 10.054 3.806-1.117c3.216-1.248 4.988-8.609 2.297-17.677-2.625-9.07-8.072-14.327-11.485-13.604L64.306 3.66l2.953 10.055c.263 1.774.59 3.68 1.181 5.717Z" fill="url(#ac)"/><path d="M73.56 35.599c-.329 0-.591-.197-.657-.526L69.95 25.018c-.853-1.577-1.575-3.483-2.1-5.454a31.878 31.878 0 0 1-1.182-5.849l-2.887-9.923c-.066-.197 0-.395.065-.526.066-.131.263-.263.394-.329l3.806-1.117c.066 0 .132-.065.197 0 3.676-.657 9.32 4.535 12.142 14.13 2.822 9.594.853 17.02-2.625 18.466-.066 0-.132.066-.197.066l-3.807 1.117h-.197ZM65.225 4.12l2.756 9.398c.197 1.971.59 3.877 1.181 5.717a27.234 27.234 0 0 0 2.1 5.323l2.823 9.53 3.084-.92h.066c2.887-1.118 4.397-8.281 1.903-16.824C76.644 7.8 71.525 2.609 68.44 3.2h-.065l-3.15.92Z" fill="#fff"/><path d="M79.663 30.998c.197-.394.328-.788.46-1.182l-7.417 2.168.263.986 6.694-1.971ZM67.456 14.701l10.435-3.089c-.131-.329-.328-.657-.46-.92L67.325 13.65v.066c0 .329.066.657.132.986Zm11.091-1.446a12.873 12.873 0 0 0-.394-.92l-10.632 3.089.197.985 10.83-3.154Zm-4.66-7.689c-.262-.263-.525-.591-.853-.854l-7.744 2.3.262.986 8.335-2.432Zm5.25 9.332c-.13-.329-.196-.657-.327-.986l-10.895 3.22.197.986 11.026-3.22ZM72.445 4.186c-.394-.263-.722-.526-1.116-.723L64.83 5.37l.263.986 7.35-2.169Zm3.74 4.337c-.196-.328-.393-.591-.59-.92l-9.254 2.695.263.986 9.582-2.76Zm.854 1.512c-.197-.329-.328-.592-.525-.92l-9.714 2.891.263.986 9.976-2.957Zm-1.904-3.023c-.197-.329-.459-.592-.722-.854l-8.597 2.497.263.986 9.056-2.63Zm5.71 18.203v-1.051l-9.647 2.826.262.986 9.385-2.76Zm-.787-7.031c-.066-.329-.132-.657-.263-.986l-11.026 3.286c.132.328.197.657.329.986l10.96-3.286ZM68.57 19.76l11.092-3.286c-.066-.131-.066-.263-.131-.394l-.197-.592-11.092 3.286.197.592c.066.197.066.328.131.394Zm8.663 13.866c.723-.263 1.379-.854 1.904-1.709L73.1 33.694l.328 1.051 3.806-1.117Zm-6.89-30.624c-.788-.328-1.51-.394-2.166-.263L64.37 3.858l.263.854 5.71-1.709Zm9.975 25.958c.066-.328.197-.723.263-1.117l-8.4 2.497.262.986 7.875-2.366Zm.066-9.003-.197-.986-10.829 3.22c.131.33.263.658.394.92l10.632-3.154Zm.262 7.098c.066-.33.066-.723.132-1.118l-9.057 2.695.262.985 8.663-2.563Zm.132-3.615c0-.328-.066-.723-.066-1.051l-9.976 2.957.263.986 9.779-2.892Zm-.132-1.774c-.065-.329-.065-.657-.131-1.052l-10.5 3.089c.13.328.262.657.459.92l10.172-2.957Z" fill="#ED7B63"/><path d="M61.55 21.47c2.69 9.2 8.335 14.523 11.682 13.537 3.347-.986 5.185-8.543 2.494-17.743-2.69-9.2-8.335-14.524-11.682-13.538-3.347.986-5.185 8.543-2.494 17.744Z" fill="url(#ad)"/><path d="M72.445 35.796c-3.741 0-8.926-5.258-11.551-14.195-1.313-4.337-1.641-8.74-1.05-12.29.59-3.416 2.034-5.716 4.003-6.308 1.969-.591 4.397.592 6.76 3.155C73.035 8.786 75.07 12.664 76.382 17c1.313 4.337 1.641 8.74 1.05 12.289-.59 3.417-2.034 5.717-4.003 6.309-.328.197-.656.197-.984.197ZM62.206 21.272c2.691 9.266 8.138 13.867 10.83 13.078 1.377-.394 2.559-2.366 3.018-5.257.59-3.352.197-7.492-.984-11.632s-3.15-7.82-5.447-10.318c-1.97-2.168-3.938-3.154-5.382-2.76-1.378.394-2.56 2.366-3.02 5.258-.59 3.351-.262 7.426.985 11.631Z" fill="#fff"/><path opacity=".25" d="M76.907 27.976c.131-1.118.131-2.366.066-3.68l-16.67-9.07a29.98 29.98 0 0 0 .656 4.01l15.948 8.74Zm-.787-9.398c-.132-.394-.197-.854-.329-1.249-.13-.394-.262-.854-.393-1.248L60.893 8.129c-.13.591-.262 1.249-.393 1.906l15.62 8.543Z" fill="#fff"/><path d="M176.401 22.981a35.091 35.091 0 0 0 2.1 5.454l2.954 10.055 3.806-1.117c3.216-1.249 4.988-8.609 2.297-17.678-2.625-9.069-8.072-14.326-11.485-13.603l-3.806 1.117 2.953 10.055c.262 1.774.591 3.68 1.181 5.717Z" fill="url(#ae)"/><path d="M181.52 39.147c-.328 0-.591-.197-.656-.526l-2.954-10.054c-.787-1.577-1.575-3.483-2.1-5.455a31.86 31.86 0 0 1-1.181-5.848l-2.888-9.924c-.066-.197 0-.394.066-.525.065-.132.262-.263.393-.329l3.807-1.117h.197c3.741-.657 9.319 4.534 12.141 14.129 2.823 9.595.854 17.02-2.625 18.466-.065.066-.131.066-.197.066l-3.806 1.117h-.197ZM173.185 7.67l2.756 9.397a27.624 27.624 0 0 0 1.182 5.718 27.247 27.247 0 0 0 2.1 5.323l2.822 9.529 3.085-.92h.065c2.888-1.117 4.397-8.28 1.903-16.824-2.494-8.543-7.613-13.8-10.697-13.143h-.066l-3.15.92Z" fill="#fff"/><path d="M187.625 34.547c.196-.394.328-.788.459-1.183l-7.416 2.169.262.986 6.695-1.972ZM175.417 18.25l10.436-3.088c-.132-.329-.329-.657-.46-.92l-10.107 2.957v.066c.066.328.066.657.131.985Zm11.092-1.445a12.89 12.89 0 0 0-.394-.92l-10.632 3.088.197.986 10.829-3.154Zm-4.66-7.69c-.262-.262-.525-.59-.853-.788l-7.744 2.3.262.986 8.335-2.497Zm5.25 9.333c-.131-.329-.196-.658-.328-.986l-10.894 3.22.197.986 11.025-3.22Zm-6.694-10.712c-.394-.263-.722-.526-1.115-.723l-6.498 1.906.263.985 7.35-2.168Zm3.741 4.337c-.197-.329-.394-.591-.59-.92l-9.254 2.694.262.986 9.582-2.76Zm.919 1.512c-.197-.329-.328-.592-.525-.92l-9.713 2.891.262.986 9.976-2.957Zm-1.969-3.023c-.197-.329-.459-.592-.722-.855l-8.597 2.498.262.985 9.057-2.628Zm5.71 18.203v-1.051l-9.648 2.825.263.986 9.385-2.76Zm-.722-7.032c-.066-.328-.131-.657-.263-.985l-11.025 3.22c.131.328.196.657.328.986l10.96-3.22Zm-11.551 1.578 11.092-3.286c-.066-.132-.066-.263-.132-.395l-.197-.591-11.091 3.286.197.591c.065.198.131.329.131.395Zm8.729 13.866c.722-.263 1.378-.855 1.903-1.709l-6.038 1.775.328 1.051 3.807-1.117Zm-6.891-30.624c-.788-.329-1.51-.394-2.166-.263l-3.807 1.117.263.854 5.71-1.708Zm9.91 25.958c.065-.329.197-.723.262-1.117l-8.4 2.497.262.986 7.876-2.366Zm.131-9.069-.197-.986-10.829 3.22c.132.329.263.658.394.92l10.632-3.154Zm.263 7.163c.065-.328.065-.723.131-1.117l-9.123 2.694.263.986 8.729-2.563Zm.131-3.614c0-.329-.066-.723-.066-1.052l-10.041 2.957.262.986 9.845-2.891Zm-.197-1.775c-.066-.328-.066-.657-.131-1.051l-10.501 3.089c.131.328.262.657.459.92l10.173-2.958Z" fill="#ED7B63"/><path d="M169.511 25.018c2.691 9.2 8.335 14.523 11.682 13.538 3.347-.986 5.185-8.543 2.494-17.744-2.691-9.2-8.335-14.523-11.682-13.537-3.347.985-5.185 8.543-2.494 17.743Z" fill="url(#af)"/><path d="M180.406 39.344c-3.741 0-8.926-5.257-11.551-14.129-1.313-4.337-1.641-8.74-1.05-12.289.59-3.417 2.034-5.717 4.003-6.309 3.741-1.117 9.713 4.272 12.535 13.998 2.888 9.726.788 17.48-2.953 18.598-.328.131-.656.131-.984.131Zm-10.239-14.523c2.691 9.266 8.138 13.866 10.829 13.078 2.691-.789 4.791-7.624 2.035-16.89-2.691-9.266-8.138-13.866-10.829-13.077-1.378.394-2.56 2.366-3.019 5.257-.591 3.352-.197 7.426.984 11.632Z" fill="#fff"/><path opacity=".25" d="M184.933 31.524c.131-1.117.131-2.366.066-3.68l-16.67-9.069c.131 1.314.328 2.629.656 4.009l15.948 8.74Zm-.853-9.397c-.131-.395-.197-.855-.328-1.25-.132-.393-.263-.853-.394-1.248l-14.504-7.951a88.35 88.35 0 0 0-.394 1.905l15.62 8.544Z" fill="#fff"/><path d="M112.412 25.347a35.089 35.089 0 0 0 2.1 5.454l2.954 10.055 3.806-1.117c3.216-1.249 4.988-8.61 2.297-17.678-2.625-9.003-8.072-14.326-11.485-13.603l-3.807 1.117 2.954 10.055c.197 1.774.59 3.68 1.181 5.717Z" fill="url(#ag)"/><path d="M117.466 41.513c-.328 0-.591-.197-.656-.526l-2.954-10.054a34.95 34.95 0 0 1-2.165-5.455 31.864 31.864 0 0 1-1.182-5.849l-2.953-9.923c-.066-.197 0-.394.066-.525.065-.132.262-.263.393-.329l3.807-1.117h.197c3.675-.657 9.319 4.534 12.141 14.129 2.822 9.595.854 16.955-2.625 18.466-.065.066-.131.066-.197.066l-3.806 1.117h-.066Zm-4.397-16.363c.591 1.905 1.247 3.68 2.1 5.323l2.822 9.529 3.019-.92h.066c2.887-1.117 4.397-8.28 1.903-16.824-2.494-8.543-7.613-13.735-10.698-13.143h-.065l-3.019.92 2.756 9.397c.131 1.906.525 3.812 1.116 5.718Z" fill="#fff"/><path d="M123.569 36.913c.197-.394.328-.788.459-1.183l-7.416 2.169.263.986 6.694-1.972Zm-12.207-16.298 10.435-3.088c-.131-.329-.328-.658-.459-.92l-10.107 2.957v.066c.065.328.065.657.131.985Zm11.091-1.445a12.445 12.445 0 0 0-.394-.92l-10.566 3.088.197.986 10.763-3.154Zm-4.66-7.69c-.262-.262-.525-.59-.853-.788l-7.744 2.3.262.986 8.335-2.497Zm5.251 9.332c-.131-.328-.197-.657-.328-.985l-10.895 3.22c.066.328.131.657.263.986l10.96-3.22Zm-6.694-10.711c-.394-.263-.722-.526-1.116-.723l-6.497 1.906.262.985 7.351-2.168Zm3.741 4.337c-.197-.329-.394-.591-.591-.92l-9.254 2.694.263.986 9.582-2.76Zm.918 1.511c-.197-.328-.328-.59-.525-.92l-9.713 2.892.263.986 9.975-2.957Zm-1.969-3.022c-.196-.329-.459-.592-.721-.855l-8.598 2.498.263.985 9.056-2.628Zm5.71 18.203v-1.051l-9.647 2.825.262.986 9.385-2.76Zm-.722-6.966c-.065-.329-.131-.657-.262-.986l-11.026 3.22c.131.329.197.658.328.986l10.96-3.22Zm-11.551 1.512 11.092-3.286c-.066-.132-.066-.263-.131-.395l-.197-.591-11.092 3.286.197.591c.066.197.131.329.131.395Zm8.729 13.866c.722-.263 1.378-.855 1.903-1.709l-6.037 1.775.328 1.051 3.806-1.117Zm-6.891-30.624c-.787-.329-1.509-.394-2.166-.263l-3.806 1.117.262.854 5.71-1.708Zm9.976 26.024c.065-.329.197-.723.262-1.118l-8.4 2.432.262.986 7.876-2.3Zm.065-9.07-.196-.985-10.829 3.22c.131.329.262.657.393.92l10.632-3.154Zm.263 7.098c.066-.328.066-.723.131-1.117l-9.057 2.694.263.986 8.663-2.563Zm.131-3.614c0-.329-.065-.658-.065-1.052l-10.042 2.958.263.985 9.844-2.891Zm-.131-1.775c-.066-.328-.066-.657-.131-1.051l-10.501 3.089c.131.328.262.657.459.92l10.173-2.958Z" fill="#ED7B63"/><path d="M105.454 27.384c2.691 9.2 8.335 14.523 11.683 13.538 3.347-.986 5.184-8.478 2.493-17.744-2.69-9.2-8.335-14.523-11.682-13.537-3.281.985-5.184 8.543-2.494 17.743Z" fill="url(#ah)"/><path d="M116.349 41.71c-3.74 0-8.925-5.257-11.55-14.195-1.313-4.337-1.641-8.74-1.051-12.289.591-3.417 2.035-5.717 4.004-6.308 3.741-1.117 9.713 4.271 12.535 13.997 1.247 4.338 1.641 8.74 1.05 12.29-.59 3.417-2.034 5.717-4.003 6.308-.328.197-.656.197-.985.197Zm-7.547-31.478c-.197 0-.459 0-.656.066-1.379.394-2.56 2.366-3.019 5.257-.591 3.352-.197 7.492.984 11.632 2.691 9.266 8.138 13.866 10.829 13.077 1.378-.394 2.56-2.365 3.019-5.257.591-3.351.197-7.491-.984-11.632-2.494-8.608-7.285-13.143-10.173-13.143Z" fill="#fff"/><path opacity=".25" d="M120.878 33.89c.132-1.117.132-2.366.066-3.68l-16.67-9.069a29.95 29.95 0 0 0 .656 4.009l15.948 8.74Zm-.853-9.398c-.131-.394-.197-.854-.328-1.248s-.263-.854-.394-1.249l-14.504-7.951a94.71 94.71 0 0 0-.394 1.905l15.62 8.543Z" fill="#fff"/><path d="M128.032 31.787a35.089 35.089 0 0 0 2.1 5.455l2.954 10.054 3.806-1.117c3.216-1.249 4.988-8.609 2.297-17.678-2.625-9.003-8.072-14.326-11.485-13.603l-3.807 1.117 2.954 10.055c.197 1.774.59 3.68 1.181 5.717Z" fill="url(#ai)"/><path d="M133.086 47.953c-.328 0-.591-.197-.656-.525l-2.954-10.055c-.853-1.577-1.575-3.483-2.1-5.454a31.943 31.943 0 0 1-1.181-5.85l-2.953-9.922c-.066-.198 0-.395.065-.526.066-.132.263-.263.394-.329l3.806-1.117c.066 0 .132-.066.197 0 3.676-.657 9.32 4.534 12.142 14.13 2.822 9.594.853 17.02-2.625 18.465-.066 0-.132.066-.197.066l-3.807 1.117h-.131Zm-8.269-31.478 2.756 9.398a27.686 27.686 0 0 0 1.181 5.717 27.187 27.187 0 0 0 2.101 5.323l2.822 9.529 3.084-.92h.066c2.888-1.117 4.397-8.28 1.903-16.824-2.494-8.543-7.613-13.8-10.697-13.143h-.066l-3.15.92Z" fill="#fff"/><path d="M139.255 43.353c.197-.394.328-.788.459-1.183l-7.416 2.169.262.986 6.695-1.972Zm-12.208-16.297 10.436-3.09c-.132-.328-.329-.656-.46-.92l-10.107 2.958v.066c0 .328.066.657.131.986Zm11.092-1.446a12.867 12.867 0 0 0-.394-.92l-10.632 3.088.197.986 10.829-3.154Zm-4.66-7.689c-.262-.263-.525-.591-.853-.854l-7.679 2.3.263.985 8.269-2.431Zm5.251 9.332c-.132-.329-.197-.657-.329-.986l-10.894 3.22.197.986 11.026-3.22Zm-6.76-10.712c-.394-.263-.722-.526-1.116-.723l-6.497 1.906.262.986 7.351-2.17Zm3.741 4.337c-.197-.328-.394-.591-.591-.92l-9.254 2.695.263.985 9.582-2.76Zm.918 1.512c-.196-.329-.328-.592-.525-.92l-9.713 2.826.263.985 9.975-2.891Zm-1.903-3.023c-.197-.329-.459-.592-.722-.855l-8.597 2.498.262.985 9.057-2.628Zm5.644 18.203V36.52l-9.647 2.826.262.985 9.385-2.76Zm-.722-7.031c-.065-.329-.131-.658-.262-.986l-11.026 3.22c.131.328.197.657.328.986l10.96-3.22Zm-11.485 1.577 11.092-3.286c-.066-.131-.066-.263-.132-.394l-.197-.592-11.091 3.22.197.592c.066.263.066.394.131.46Zm8.663 13.866c.722-.263 1.379-.854 1.904-1.709l-6.038 1.775.328 1.051 3.806-1.117Zm-6.891-30.624c-.787-.329-1.509-.394-2.166-.263l-3.806 1.117.262.855 5.71-1.709Zm9.976 25.958c.066-.394.197-.723.262-1.117l-8.4 2.497.262.986 7.876-2.366Zm.066-9.069-.197-.986-10.829 3.22c.131.33.262.658.394.92l10.632-3.154Zm.262 7.163c.066-.328.066-.723.131-1.117l-9.057 2.694.263.986 8.663-2.563Zm.131-3.614c0-.329-.065-.723-.065-1.052l-10.042 2.958.263.985 9.844-2.891Zm-.131-1.774c-.066-.329-.066-.658-.131-1.052l-10.501 3.089c.131.328.263.657.459.92l10.173-2.957Z" fill="#ED7B63"/><path d="M121.141 33.824c2.691 9.2 8.335 14.523 11.682 13.538 3.348-.986 5.185-8.543 2.494-17.744-2.69-9.2-8.335-14.523-11.682-13.537-3.347.985-5.185 8.477-2.494 17.743Z" fill="url(#aj)"/><path d="M131.97 48.15c-3.741 0-8.926-5.257-11.551-14.194-1.247-4.338-1.641-8.74-1.05-12.29.591-3.417 2.035-5.717 4.003-6.308 1.969-.592 4.398.591 6.76 3.154 2.429 2.629 4.463 6.506 5.776 10.843 1.247 4.338 1.641 8.74 1.05 12.29-.591 3.417-2.035 5.717-4.004 6.308-.262.197-.59.197-.984.197Zm-7.482-31.478c-.197 0-.459 0-.656.066-1.378.394-2.56 2.366-3.019 5.257-.591 3.352-.197 7.492.984 11.632 2.691 9.266 8.138 13.866 10.829 13.078 1.379-.395 2.56-2.366 3.019-5.258.591-3.351.197-7.491-.984-11.632-1.247-4.14-3.15-7.82-5.447-10.317-1.641-1.84-3.348-2.826-4.726-2.826Z" fill="#fff"/><path opacity=".25" d="M136.498 40.33c.131-1.117.131-2.365.066-3.68l-16.605-9.069c.132 1.315.329 2.629.657 4.009l15.882 8.74Zm-.853-9.463c-.131-.394-.197-.854-.328-1.248-.131-.395-.263-.855-.394-1.25l-14.504-7.95a94.84 94.84 0 0 0-.394 1.905l15.62 8.543Z" fill="#fff"/><path fill-rule="evenodd" clip-rule="evenodd" d="M126.091 133.52c.066 7.615 2.822 13.035 7.154 15.552l2.392 1.35a120.192 120.192 0 0 1 5.74-5.227 29.588 29.588 0 0 1-.191-3.157l-.131-36.783-15.095-8.453.131 36.718Z" fill="url(#ak)"/><path fill-rule="evenodd" clip-rule="evenodd" d="m141.121 105.191.131 36.782a27.159 27.159 0 0 0 .069 3.27c4.119-3.52 9.192-7.37 15.022-10.838a11.26 11.26 0 0 1-.061-1.079l-.132-36.654-14.898 8.583-.131-.064Zm33.323 21.091c4.706-1.424 9.664-2.385 14.819-2.672.509-3.041.731-6.256.621-9.643l-.131-36.654-14.964 8.647.131 36.654c0 1.186-.167 2.424-.476 3.668Z" fill="#C9294D"/><path fill-rule="evenodd" clip-rule="evenodd" d="M156.215 131.262v2.129c.004.366.024.718.059 1.056 5.441-3.243 11.542-6.155 18.143-8.156.296-1.225.45-2.443.437-3.612l-.132-36.654-15.094-8.454.131 36.654c0 .621.01 1.289.021 1.99.08 5.132.188 12.037-3.565 15.047Z" fill="url(#al)"/><path fill-rule="evenodd" clip-rule="evenodd" d="M175.132 126.079c.257-1.173.39-2.339.378-3.465l-.131-36.654a.676.676 0 0 0-.329-.58l-15.094-8.454c-.263-.129-.526-.129-.722 0a.676.676 0 0 0-.329.58l.132 36.655v1.936c.131 4.969.262 11.809-3.282 14.584a.582.582 0 0 0-.262.516v2.13c0 .532.033 1.043.098 1.531.451-.274.907-.546 1.368-.816a11.105 11.105 0 0 1-.022-.715v-1.678c3.806-3.356 3.675-10.325 3.544-15.488v-1.936l-.132-35.492 13.717 7.68.131 36.266c0 1.238-.193 2.54-.546 3.849.491-.155.984-.305 1.481-.449Z" fill="#fff"/><path fill-rule="evenodd" clip-rule="evenodd" d="M140.66 145.812a27.027 27.027 0 0 1-.13-3.903l-.131-36.718c0-.258.131-.452.328-.581.131-.064.263-.064.328-.064l14.636-8.39c.197-.129.459-.129.722 0 .197.13.328.323.328.581l.131 36.654c0 .235.007.465.021.69-.415.243-.826.488-1.233.735a11.583 11.583 0 0 1-.101-1.554l-.131-35.492-13.651 7.937.131 36.267c-.036.947-.024 1.862.034 2.742-.438.369-.865.735-1.282 1.096Zm47.861-22.156a47.24 47.24 0 0 0 .641-9.624l-.131-35.493-13.586 7.809.132 36.266a15.403 15.403 0 0 1-.374 3.444c-.538.156-1.072.318-1.604.486.346-1.292.534-2.578.534-3.801l-.132-36.653c0-.259.132-.452.394-.581 0 0 .066 0 .066-.065l14.898-8.582c.197-.13.459-.13.722 0 .197.129.328.322.328.58l.131 36.654a49.12 49.12 0 0 1-.59 9.48c-.478.021-.954.048-1.429.08Z" fill="#fff"/><path fill-rule="evenodd" clip-rule="evenodd" d="M142.053 144.623c-.409.343-.808.684-1.199 1.021a30.97 30.97 0 0 1-.259-3.67l-.131-36.396-13.717-7.68.131 35.558c.066 7.098 2.429 12.454 6.76 14.971l.263.194 2.286 1.271c-.353.339-.693.669-1.02.99l-3.235-1.81.065-.064c-4.2-2.969-6.497-8.389-6.563-15.552l-.131-37.945 16.473 9.228.132 37.17c.008.936.057 1.842.145 2.714Z" fill="#fff"/><defs><linearGradient id="a" x1="268.761" y1="86.937" x2="304.859" y2="86.937" gradientUnits="userSpaceOnUse"><stop stop-color="#FF6279"/><stop offset="1" stop-color="#FFAD60"/></linearGradient><linearGradient id="b" x1="268.761" y1="80.796" x2="304.859" y2="80.796" gradientUnits="userSpaceOnUse"><stop stop-color="#FF6279"/><stop offset="1" stop-color="#FFAD60"/></linearGradient><linearGradient id="c" x1="241.49" y1="99.26" x2="277.591" y2="99.26" gradientUnits="userSpaceOnUse"><stop stop-color="#FF6279"/><stop offset="1" stop-color="#FFAD60"/></linearGradient><linearGradient id="d" x1="241.223" y1="92.868" x2="277.16" y2="92.868" gradientUnits="userSpaceOnUse"><stop stop-color="#FF6279"/><stop offset="1" stop-color="#FFAD60"/></linearGradient><linearGradient id="e" x1="241.223" y1="92.643" x2="277.16" y2="92.643" gradientUnits="userSpaceOnUse"><stop stop-color="#FF6279"/><stop offset="1" stop-color="#FFAD60"/></linearGradient><linearGradient id="f" x1="241.223" y1="86.402" x2="277.16" y2="86.402" gradientUnits="userSpaceOnUse"><stop stop-color="#FF6279"/><stop offset="1" stop-color="#FFAD60"/></linearGradient><linearGradient id="g" x1="241.223" y1="85.629" x2="277.16" y2="85.629" gradientUnits="userSpaceOnUse"><stop stop-color="#FF6279"/><stop offset="1" stop-color="#FFAD60"/></linearGradient><linearGradient id="h" x1="241.223" y1="79.385" x2="277.16" y2="79.385" gradientUnits="userSpaceOnUse"><stop stop-color="#FF6279"/><stop offset="1" stop-color="#FFAD60"/></linearGradient><linearGradient id="i" x1="241.223" y1="79.16" x2="277.16" y2="79.16" gradientUnits="userSpaceOnUse"><stop stop-color="#FF6279"/><stop offset="1" stop-color="#FFAD60"/></linearGradient><linearGradient id="j" x1="241.223" y1="72.918" x2="277.16" y2="72.918" gradientUnits="userSpaceOnUse"><stop stop-color="#FF6279"/><stop offset="1" stop-color="#FFAD60"/></linearGradient><linearGradient id="k" x1="241.223" y1="72.696" x2="277.16" y2="72.696" gradientUnits="userSpaceOnUse"><stop stop-color="#FF6279"/><stop offset="1" stop-color="#FFAD60"/></linearGradient><linearGradient id="l" x1="241.223" y1="66.453" x2="277.16" y2="66.453" gradientUnits="userSpaceOnUse"><stop stop-color="#FF6279"/><stop offset="1" stop-color="#FFAD60"/></linearGradient><linearGradient id="m" x1="241.223" y1="66.229" x2="277.16" y2="66.229" gradientUnits="userSpaceOnUse"><stop stop-color="#FF6279"/><stop offset="1" stop-color="#FFAD60"/></linearGradient><linearGradient id="n" x1="241.223" y1="59.987" x2="277.16" y2="59.987" gradientUnits="userSpaceOnUse"><stop stop-color="#FF6279"/><stop offset="1" stop-color="#FFAD60"/></linearGradient><linearGradient id="o" x1="241.223" y1="59.213" x2="277.16" y2="59.213" gradientUnits="userSpaceOnUse"><stop stop-color="#FF6279"/><stop offset="1" stop-color="#FFAD60"/></linearGradient><linearGradient id="p" x1="241.223" y1="52.972" x2="277.16" y2="52.972" gradientUnits="userSpaceOnUse"><stop stop-color="#FF6279"/><stop offset="1" stop-color="#FFAD60"/></linearGradient><linearGradient id="q" x1="241.223" y1="52.748" x2="277.16" y2="52.748" gradientUnits="userSpaceOnUse"><stop stop-color="#FF6279"/><stop offset="1" stop-color="#FFAD60"/></linearGradient><linearGradient id="r" x1="241.223" y1="46.505" x2="277.16" y2="46.505" gradientUnits="userSpaceOnUse"><stop stop-color="#FF6279"/><stop offset="1" stop-color="#FFAD60"/></linearGradient><linearGradient id="s" x1="241.223" y1="46.282" x2="277.16" y2="46.282" gradientUnits="userSpaceOnUse"><stop stop-color="#FF6279"/><stop offset="1" stop-color="#FFAD60"/></linearGradient><linearGradient id="t" x1="241.223" y1="40.04" x2="277.16" y2="40.04" gradientUnits="userSpaceOnUse"><stop stop-color="#FF6279"/><stop offset="1" stop-color="#FFAD60"/></linearGradient><linearGradient id="u" x1="241.223" y1="39.816" x2="277.16" y2="39.816" gradientUnits="userSpaceOnUse"><stop stop-color="#FF6279"/><stop offset="1" stop-color="#FFAD60"/></linearGradient><linearGradient id="v" x1="241.223" y1="33.573" x2="277.16" y2="33.573" gradientUnits="userSpaceOnUse"><stop stop-color="#FF6279"/><stop offset="1" stop-color="#FFAD60"/></linearGradient><linearGradient id="w" x1="253.91" y1="123.973" x2="289.842" y2="123.973" gradientUnits="userSpaceOnUse"><stop stop-color="#FF6279"/><stop offset="1" stop-color="#FFAD60"/></linearGradient><linearGradient id="x" x1="253.909" y1="117.731" x2="289.842" y2="117.731" gradientUnits="userSpaceOnUse"><stop stop-color="#FF6279"/><stop offset="1" stop-color="#FFAD60"/></linearGradient><linearGradient id="y" x1="264.682" y1="169.499" x2="300.615" y2="169.499" gradientUnits="userSpaceOnUse"><stop stop-color="#FF6279"/><stop offset="1" stop-color="#FFAD60"/></linearGradient><linearGradient id="z" x1="264.682" y1="163.256" x2="300.615" y2="163.256" gradientUnits="userSpaceOnUse"><stop stop-color="#FF6279"/><stop offset="1" stop-color="#FFAD60"/></linearGradient><linearGradient id="A" x1="223.341" y1="109.487" x2="259.274" y2="109.487" gradientUnits="userSpaceOnUse"><stop stop-color="#FF6279"/><stop offset="1" stop-color="#FFAD60"/></linearGradient><linearGradient id="B" x1="223.342" y1="103.244" x2="259.275" y2="103.244" gradientUnits="userSpaceOnUse"><stop stop-color="#FF6279"/><stop offset="1" stop-color="#FFAD60"/></linearGradient><linearGradient id="C" x1="223.341" y1="103.019" x2="259.274" y2="103.019" gradientUnits="userSpaceOnUse"><stop stop-color="#FF6279"/><stop offset="1" stop-color="#FFAD60"/></linearGradient><linearGradient id="D" x1="223.342" y1="96.776" x2="259.275" y2="96.776" gradientUnits="userSpaceOnUse"><stop stop-color="#FF6279"/><stop offset="1" stop-color="#FFAD60"/></linearGradient><linearGradient id="E" x1="223.341" y1="96.553" x2="259.274" y2="96.553" gradientUnits="userSpaceOnUse"><stop stop-color="#FF6279"/><stop offset="1" stop-color="#FFAD60"/></linearGradient><linearGradient id="F" x1="223.342" y1="90.312" x2="259.275" y2="90.312" gradientUnits="userSpaceOnUse"><stop stop-color="#FF6279"/><stop offset="1" stop-color="#FFAD60"/></linearGradient><linearGradient id="G" x1="223.341" y1="90.088" x2="259.274" y2="90.088" gradientUnits="userSpaceOnUse"><stop stop-color="#FF6279"/><stop offset="1" stop-color="#FFAD60"/></linearGradient><linearGradient id="H" x1="223.342" y1="83.846" x2="259.275" y2="83.846" gradientUnits="userSpaceOnUse"><stop stop-color="#FF6279"/><stop offset="1" stop-color="#FFAD60"/></linearGradient><linearGradient id="I" x1="218.283" y1="81.56" x2="254.215" y2="81.56" gradientUnits="userSpaceOnUse"><stop stop-color="#FF6279"/><stop offset="1" stop-color="#FFAD60"/></linearGradient><linearGradient id="J" x1="218.283" y1="75.317" x2="254.216" y2="75.317" gradientUnits="userSpaceOnUse"><stop stop-color="#FF6279"/><stop offset="1" stop-color="#FFAD60"/></linearGradient><linearGradient id="K" x1="263.894" y1="115.937" x2="299.827" y2="115.937" gradientUnits="userSpaceOnUse"><stop stop-color="#FF6279"/><stop offset="1" stop-color="#FFAD60"/></linearGradient><linearGradient id="L" x1="263.894" y1="109.694" x2="299.827" y2="109.694" gradientUnits="userSpaceOnUse"><stop stop-color="#FF6279"/><stop offset="1" stop-color="#FFAD60"/></linearGradient><linearGradient id="M" x1="58.179" y1="191.761" x2="256.382" y2="191.761" gradientUnits="userSpaceOnUse"><stop stop-color="#4D5FD1"/><stop offset="1" stop-color="#45D7DE"/></linearGradient><linearGradient id="N" x1="125.939" y1="94.006" x2="141.099" y2="94.006" gradientUnits="userSpaceOnUse"><stop stop-color="#F0F0FB"/><stop offset="1" stop-color="#D2D7F6"/></linearGradient><linearGradient id="O" x1="114.921" y1="53.536" x2="144.086" y2="103.358" gradientUnits="userSpaceOnUse"><stop offset=".035" stop-color="#9D9EB3"/><stop offset=".581" stop-color="#D4D1D8"/><stop offset="1" stop-color="#EEEBF2"/></linearGradient><linearGradient id="P" x1="122.419" y1="49.148" x2="151.583" y2="98.968" gradientUnits="userSpaceOnUse"><stop offset=".035" stop-color="#9D9EB3"/><stop offset=".581" stop-color="#D4D1D8"/><stop offset="1" stop-color="#EEEBF2"/></linearGradient><linearGradient id="Q" x1="141.026" y1="93.964" x2="156.096" y2="93.964" gradientUnits="userSpaceOnUse"><stop stop-color="#C8D6F9"/><stop offset="1" stop-color="#BAC1E8"/></linearGradient><linearGradient id="R" x1="155.989" y1="29.496" x2="185.154" y2="79.318" gradientUnits="userSpaceOnUse"><stop offset=".035" stop-color="#9D9EB3"/><stop offset=".581" stop-color="#D4D1D8"/><stop offset="1" stop-color="#EEEBF2"/></linearGradient><linearGradient id="S" x1="174.62" y1="74.328" x2="189.689" y2="74.328" gradientUnits="userSpaceOnUse"><stop stop-color="#C8D6F9"/><stop offset="1" stop-color="#BAC1E8"/></linearGradient><linearGradient id="T" x1="159.531" y1="74.393" x2="174.691" y2="74.393" gradientUnits="userSpaceOnUse"><stop stop-color="#F0F0FB"/><stop offset="1" stop-color="#D2D7F6"/></linearGradient><linearGradient id="U" x1="125.912" y1="82.969" x2="156.023" y2="82.969" gradientUnits="userSpaceOnUse"><stop stop-color="#F0F0FB"/><stop offset="1" stop-color="#D2D7F6"/></linearGradient><linearGradient id="V" x1="159.478" y1="63.32" x2="189.587" y2="63.32" gradientUnits="userSpaceOnUse"><stop stop-color="#F0F0FB"/><stop offset="1" stop-color="#D2D7F6"/></linearGradient><linearGradient id="W" x1="164.414" y1="45.912" x2="181.03" y2="45.912" gradientUnits="userSpaceOnUse"><stop stop-color="#FF6279"/><stop offset="1" stop-color="#FFAD60"/></linearGradient><linearGradient id="X" x1="160.308" y1="46.589" x2="177.097" y2="46.589" gradientUnits="userSpaceOnUse"><stop stop-color="#FF6279"/><stop offset="1" stop-color="#FFAD60"/></linearGradient><linearGradient id="Y" x1="129.359" y1="66.51" x2="145.975" y2="66.51" gradientUnits="userSpaceOnUse"><stop stop-color="#FF6279"/><stop offset="1" stop-color="#FFAD60"/></linearGradient><linearGradient id="Z" x1="125.251" y1="67.187" x2="142.038" y2="67.187" gradientUnits="userSpaceOnUse"><stop stop-color="#FF6279"/><stop offset="1" stop-color="#FFAD60"/></linearGradient><linearGradient id="aa" x1="95.302" y1="53.874" x2="111.918" y2="53.874" gradientUnits="userSpaceOnUse"><stop stop-color="#FF6279"/><stop offset="1" stop-color="#FFAD60"/></linearGradient><linearGradient id="ab" x1="91.197" y1="54.551" x2="107.985" y2="54.551" gradientUnits="userSpaceOnUse"><stop stop-color="#FF6279"/><stop offset="1" stop-color="#FFAD60"/></linearGradient><linearGradient id="ac" x1="64.361" y1="18.689" x2="80.978" y2="18.689" gradientUnits="userSpaceOnUse"><stop stop-color="#FF6279"/><stop offset="1" stop-color="#FFAD60"/></linearGradient><linearGradient id="ad" x1="60.256" y1="19.366" x2="77.045" y2="19.366" gradientUnits="userSpaceOnUse"><stop stop-color="#FF6279"/><stop offset="1" stop-color="#FFAD60"/></linearGradient><linearGradient id="ae" x1="172.339" y1="22.237" x2="188.953" y2="22.237" gradientUnits="userSpaceOnUse"><stop stop-color="#FF6279"/><stop offset="1" stop-color="#FFAD60"/></linearGradient><linearGradient id="af" x1="168.232" y1="22.915" x2="185.021" y2="22.915" gradientUnits="userSpaceOnUse"><stop stop-color="#FF6279"/><stop offset="1" stop-color="#FFAD60"/></linearGradient><linearGradient id="ag" x1="108.293" y1="24.607" x2="124.909" y2="24.607" gradientUnits="userSpaceOnUse"><stop stop-color="#FF6279"/><stop offset="1" stop-color="#FFAD60"/></linearGradient><linearGradient id="ah" x1="104.185" y1="25.286" x2="120.974" y2="25.286" gradientUnits="userSpaceOnUse"><stop stop-color="#FF6279"/><stop offset="1" stop-color="#FFAD60"/></linearGradient><linearGradient id="ai" x1="123.942" y1="31.042" x2="140.558" y2="31.042" gradientUnits="userSpaceOnUse"><stop stop-color="#FF6279"/><stop offset="1" stop-color="#FFAD60"/></linearGradient><linearGradient id="aj" x1="119.837" y1="31.719" x2="136.625" y2="31.719" gradientUnits="userSpaceOnUse"><stop stop-color="#FF6279"/><stop offset="1" stop-color="#FFAD60"/></linearGradient><linearGradient id="ak" x1="126.012" y1="127.011" x2="147.962" y2="127.011" gradientUnits="userSpaceOnUse"><stop stop-color="#D82C53"/><stop offset="1" stop-color="#FF5774"/></linearGradient><linearGradient id="al" x1="156.22" y1="108.736" x2="174.829" y2="108.736" gradientUnits="userSpaceOnUse"><stop stop-color="#D82C53"/><stop offset="1" stop-color="#FF5774"/></linearGradient></defs></svg>