<svg width="1920" height="1080" fill="none" xmlns="http://www.w3.org/2000/svg"><g clip-path="url(#a)" fill="#F5F5F5"><rect x="635" y="688.477" width="517.119" height="87.968" rx="43.984" transform="rotate(-48 635 688.477)"/><path d="M1529.17 311.516c-15.34-13.808-16.58-37.433-2.77-52.768l219.5-243.776c13.81-15.336 37.43-16.574 52.77-2.766 15.33 13.808 16.57 37.433 2.76 52.768l-219.5 243.776c-13.8 15.335-37.43 16.574-52.76 2.766Z"/><rect x="1572" y="932.31" width="402.761" height="74.728" rx="37.364" transform="rotate(-48 1572 932.31)"/><rect x="641.954" y="811.469" width="480.624" height="87.968" rx="43.984" transform="rotate(-48 641.954 811.469)"/><rect width="153.702" height="87.968" rx="43.984" transform="scale(-1 1) rotate(48 -1390.213 -1212.9)"/><rect width="161.605" height="87.968" rx="43.984" transform="scale(-1 1) rotate(48 -733.996 -1169.978)"/><circle cx="237" cy="286" r="10"/><circle cx="589" cy="25" r="10"/><circle cx="708" cy="459" r="9"/><circle cx="400" cy="822" r="17"/><circle cx="222" cy="964" r="10"/><circle cx="845" cy="142" r="49"/><circle cx="998" cy="154" r="23"/><circle cx="1226" cy="607" r="17"/><circle cx="1853" cy="420" r="10"/><circle cx="1853" cy="1025" r="10"/><circle cx="1281" cy="25" r="13"/><circle cx="1378" cy="25" r="13"/><circle cx="1233" cy="73" r="13"/><circle cx="1330" cy="73" r="13"/><circle cx="1427" cy="73" r="13"/><circle cx="1357" cy="989" r="13"/><circle cx="1357" cy="1058" r="13"/><circle cx="1426" cy="989" r="13"/><circle cx="1426" cy="1058" r="13"/><circle cx="1495" cy="989" r="13"/><circle cx="1495" cy="1058" r="13"/><circle cx="1282" cy="121" r="13"/><circle cx="1379" cy="121" r="13"/><circle cx="1330" cy="169" r="13"/><path d="M522.079 430.505c38.827-11.529 68.6-44.107 76.091-84.507l-76.091 84.507ZM599.732 318.288a108.758 108.758 0 0 0-3.588-21.129L473.317 433.573a109.754 109.754 0 0 0 21.382 1.365l105.033-116.65ZM580.374 263.586a108.953 108.953 0 0 1 8.907 15.219L454.334 428.679a108.451 108.451 0 0 1-16.071-7.263l142.111-157.83ZM569.178 250.044a109.576 109.576 0 0 0-12.6-11.118l-145.317 161.39c3.823 4.1 7.958 7.905 12.368 11.376l145.549-161.648ZM525.348 222.522a108.389 108.389 0 0 1 16.346 6.959L400.316 386.497a108.843 108.843 0 0 1-8.635-15.524l133.667-148.451ZM506.009 218.025A109.93 109.93 0 0 0 491 217c-2.308 0-4.6.072-6.872.213L382.093 330.534a108.932 108.932 0 0 0 3.082 21.69l120.834-134.199ZM384.737 301.623c8.428-36.894 35.576-66.657 70.92-78.765l-70.92 78.765ZM933.986 822.505c38.827-11.529 68.604-44.107 76.094-84.507l-76.094 84.507ZM1011.64 710.288a108.987 108.987 0 0 0-3.59-21.129L885.224 825.573a109.754 109.754 0 0 0 21.382 1.365l105.034-116.65ZM992.281 655.586a109.162 109.162 0 0 1 8.909 15.219L866.241 820.679a108.451 108.451 0 0 1-16.071-7.263l142.111-157.83ZM981.085 642.044a109.492 109.492 0 0 0-12.6-11.118l-145.316 161.39c3.822 4.1 7.958 7.905 12.368 11.376l145.548-161.648ZM937.255 614.522a108.389 108.389 0 0 1 16.346 6.959L812.223 778.497a108.837 108.837 0 0 1-8.634-15.524l133.666-148.451ZM917.916 610.025A109.918 109.918 0 0 0 902.907 609c-2.308 0-4.599.072-6.872.213L794 722.534a108.933 108.933 0 0 0 3.083 21.69l120.833-134.199ZM796.644 693.623c8.428-36.894 35.577-66.657 70.92-78.765l-70.92 78.765ZM1605.99 625.505c38.82-11.529 68.6-44.107 76.09-84.507l-76.09 84.507ZM1683.64 513.288a108.987 108.987 0 0 0-3.59-21.129l-122.83 136.414a109.897 109.897 0 0 0 21.39 1.365l105.03-116.65ZM1664.28 458.586c3.36 4.804 6.35 9.892 8.91 15.219l-134.95 149.874a108.533 108.533 0 0 1-16.07-7.263l142.11-157.83ZM1653.09 445.044a110.083 110.083 0 0 0-12.6-11.118l-145.32 161.39c3.82 4.1 7.96 7.905 12.37 11.376l145.55-161.648ZM1609.25 417.522a108.217 108.217 0 0 1 16.35 6.959l-141.38 157.016a108.717 108.717 0 0 1-8.63-15.524l133.66-148.451ZM1589.92 413.025c-4.91-.676-9.92-1.025-15.01-1.025-2.31 0-4.6.072-6.88.213L1466 525.534c.3 7.447 1.36 14.701 3.08 21.69l120.84-134.199ZM1468.64 496.623c8.43-36.894 35.58-66.657 70.92-78.765l-70.92 78.765Z"/><circle cx="45" cy="549" r="10"/><circle cx="344" cy="605" r="53"/><path d="M292.31 0 25.69 296.111c-18.606 20.665-16.937 52.501 3.727 71.107 20.665 18.607 52.5 16.938 71.108-3.726L427.814 0H292.31ZM1658.74 0 1543 128.543c-13.81 15.335-12.57 38.96 2.77 52.768 15.33 13.808 38.96 12.57 52.76-2.765L1759.3 0h-100.56ZM1920 467.285c-13.65-4.505-29.27-.882-39.5 10.482L1661 721.543c-13.81 15.335-12.57 38.96 2.77 52.768 15.33 13.808 38.96 12.57 52.76-2.765L1920 545.575v-78.29ZM1920 657.205l-211 234.338c-13.81 15.335-12.57 38.96 2.77 52.768 15.33 13.808 38.96 12.57 52.76-2.765L1920 768.884V657.205ZM1639.23 1080a37.31 37.31 0 0 0 6.77-21.5c0-20.71-16.79-37.5-37.5-37.5s-37.5 16.79-37.5 37.5c0 8 2.5 15.41 6.77 21.5h61.46ZM1075.75 1080h118.38l68.83-76.45c16.26-18.053 14.8-45.864-3.25-62.119-18.06-16.254-45.87-14.797-62.12 3.256L1075.75 1080Z"/><path d="M957.795 1080h118.375l195.79-217.451c16.26-18.052 14.8-45.863-3.25-62.118-18.06-16.254-45.87-14.797-62.12 3.256L957.795 1080ZM398.145 1080h100.331c-2.553-8.18-7.267-15.79-14.094-21.94-20.277-18.26-51.516-16.62-69.774 3.66L398.145 1080Z"/><path d="M265.558 1080H398.52l150.518-167.168c18.258-20.277 16.621-51.516-3.656-69.773-20.278-18.258-51.516-16.621-69.774 3.656L265.558 1080ZM0 1058.85l280.038-311.018c18.258-20.277 16.621-51.516-3.656-69.773-20.278-18.258-51.516-16.621-69.774 3.656L0 911.177v147.673Z"/><path d="m0 911.476 132.038-146.644c18.258-20.277 16.621-51.516-3.656-69.773-20.278-18.258-51.516-16.621-69.774 3.656L0 763.806v147.67Z"/></g><defs><clipPath id="a"><path fill="#fff" d="M0 0h1920v1080H0z"/></clipPath></defs></svg>