<svg width="32" height="32" fill="none" xmlns="http://www.w3.org/2000/svg"><path fill-rule="evenodd" clip-rule="evenodd" d="M21.285 31.49c-2.414 1.193-5.347.22-6.55-2.171l-2.996-5.953L25.653 5.07a.612.612 0 0 1 .852-.118l.728.544a.6.6 0 0 1 .12.844l-3.468 4.56 5.6 11.132c1.204 2.391.223 5.297-2.19 6.49l-6.01 2.969Zm-2.716-12.852a3.915 3.915 0 0 0-1.78 5.273c.977 1.943 3.36 2.733 5.321 1.764a3.915 3.915 0 0 0 1.78-5.273c-.977-1.943-3.36-2.733-5.32-1.764ZM10.715.51c2.414-1.193 5.347-.22 6.55 2.171l2.996 5.953L6.347 26.93a.612.612 0 0 1-.852.118l-.728-.544a.599.599 0 0 1-.12-.844l3.468-4.56-5.6-11.131c-1.204-2.392-.223-5.298 2.19-6.49l6.01-2.97Zm2.716 12.852a3.915 3.915 0 0 0 1.78-5.273c-.977-1.943-3.36-2.733-5.321-1.764a3.915 3.915 0 0 0-1.78 5.273c.977 1.943 3.36 2.733 5.32 1.764Z"/></svg>