<svg aria-hidden="true" style="display: none;">
    <symbol id="i-alpha" viewBox="0 0 134 51">
        <path d="m126.141 23.098 5.44-5.94h-4.028l-4.446 4.95v-4.95h-3.192v12.505h3.192v-5.262l4.76 5.262H132l-5.859-6.565zm-11.928-1.303h-4.394v-4.637h-3.244v12.505h3.244v-4.95h4.394v4.95h3.244V17.158h-3.244v4.637zm-93.171 2.136c-.052 2.345-.366 2.814-1.674 2.814v2.918h.471c3.296 0 4.081-1.667 4.185-5.419l.157-4.168h3.087v9.587h3.191V17.158h-9.155l-.261 6.774zm17.421-2.97h-2.302v-3.804H32.97v12.505h5.598c3.505 0 4.761-2.241 4.761-4.377-.105-2.814-1.831-4.325-4.865-4.325zm-.262 5.94h-2.093v-3.178h2.093c1.099 0 1.779.469 1.779 1.511 0 1.146-.628 1.667-1.779 1.667zm15.485-10.056v-4.637h-3.191v4.637c-3.662.313-6.173 2.918-6.173 6.513 0 3.647 2.459 6.253 6.173 6.565v4.689h3.191v-4.689c3.662-.313 6.173-2.918 6.173-6.565 0-3.595-2.511-6.2-6.173-6.513zm-3.191 10.056c-1.779-.261-2.877-1.563-2.877-3.543 0-1.928 1.099-3.282 2.877-3.543v7.086zm3.191 0v-7.034c1.779.261 2.877 1.563 2.877 3.543.052 1.928-1.099 3.283-2.877 3.491zm18.205-1.094v-4.22c0-3.074-1.936-5.002-5.284-5.002-3.4 0-5.231 2.032-5.388 4.168h3.244c.105-.469.628-1.25 2.093-1.25 1.256 0 2.04.573 2.04 2.084h-3.191c-2.877 0-4.551 1.511-4.551 3.96 0 2.605 1.831 4.377 4.499 4.377 1.936 0 3.034-.938 3.505-1.615.419.834 1.36 1.303 2.563 1.303h1.099v-2.866c-.418 0-.628-.261-.628-.938zm-3.243-.834c0 1.459-1.046 2.241-2.354 2.241-1.151 0-2.093-.417-2.093-1.667 0-1.198.994-1.407 1.883-1.407h2.563v.834zM85.65 18.93h-3.61v-3.543h8.318v-3.178H78.692v17.403h6.958c3.871 0 6.068-1.928 6.068-5.419 0-3.283-2.249-5.262-6.068-5.262zm-.157 7.555H82.04v-4.533h3.453c1.779 0 2.773.834 2.773 2.241 0 1.511-.994 2.293-2.773 2.293zm18.467-.677v-4.22c0-3.074-1.936-5.002-5.284-5.002-3.4 0-5.231 2.032-5.388 4.168h3.243c.105-.469.628-1.25 2.093-1.25 1.256 0 2.04.573 2.04 2.084h-3.191c-2.877 0-4.551 1.511-4.551 3.96 0 2.605 1.831 4.377 4.499 4.377 1.936 0 3.034-.938 3.505-1.615.418.834 1.36 1.303 2.563 1.303h1.099v-2.866c-.367 0-.628-.261-.628-.938zm-3.191-.834c0 1.459-1.047 2.241-2.355 2.241-1.151 0-2.093-.417-2.093-1.667 0-1.198.994-1.407 1.883-1.407h2.564v.834zM2 34.457h17.159V38H2v-3.543zm11.718-19.852C13.248 13.146 12.672 12 10.736 12s-2.511 1.146-3.034 2.605L2.366 29.663h3.505l1.203-3.595h6.801l1.151 3.595h3.767c-.052 0-.052 0-5.074-15.058zM8.12 23.046l2.406-7.138h.105l2.249 7.138H8.121z"/>
    </symbol>
    <symbol id="i-atb" viewBox="0 0 134 51">
        <path d="M75.901 12.822c-.359-1.031-.923-1.34-2.052-1.34h-3.232c-1.129 0-1.693.258-2.052 1.391L58.817 39.26c-.359 1.134-.103 1.701 1.129 1.701h2.822c2.052 0 2.616-.361 2.976-1.495l1.334-3.865h10.107l1.334 3.865c.359 1.237 1.026 1.495 3.078 1.495h2.976c1.231 0 1.488-.567 1.129-1.701l-9.799-26.437zm-7.028 17.213 2.155-6.493c1.026-2.937.923-5.102.923-5.102h.359s.103 2.061 1.026 5.102l2.155 6.39c0 .103-6.618.103-6.618.103zm35.142-18.553H84.417c-1.334 0-1.693.361-1.693 1.701v2.834c0 1.237.359 1.701 1.693 1.701h6.464v21.593c0 1.34.359 1.701 1.693 1.701h3.283c1.334 0 1.693-.361 1.693-1.701V17.667h6.362c1.334 0 1.693-.361 1.693-1.701v-2.731c.102-1.288-.359-1.752-1.591-1.752zm17.546 10.822h-6.669v-4.793h12.363c1.232 0 1.693-.464 1.693-1.701v-2.628c0-1.34-.461-1.701-1.693-1.701h-17.34c-1.231 0-1.693.361-1.693 1.701V39.26c0 1.237.462 1.598 1.693 1.598h11.697c5.695 0 9.388-3.556 9.388-9.225.052-5.823-3.745-9.328-9.439-9.328zm-.924 12.626h-5.694v-6.597h5.694c2.155 0 3.386 1.34 3.386 3.298.052 1.907-1.18 3.298-3.386 3.298zM42.041 2H10.798A7.769 7.769 0 0 0 3 9.782v31.385C3 45.496 6.489 49 10.798 49h31.243c4.309 0 7.798-3.504 7.798-7.833V9.782A7.768 7.768 0 0 0 42.041 2zm5.336 38.342c-.103.103-.205.103-.257.103-6.002-3.711-13.133-5.772-20.675-5.772s-14.621 2.061-20.675 5.72c-.103.103-.308 0-.308-.051-.103-.103-.103-.258.103-.258 5.438-4.226 10.209-9.586 13.8-16.027a54.17 54.17 0 0 0 6.823-19.996c0-.103.103-.206.256-.206.103 0 .205.103.256.206.924 6.854 3.181 13.657 6.823 19.996s8.414 11.647 13.954 15.873c0 .103 0 .309-.103.412z"/>
    </symbol>
    <symbol id="i-gazprom" viewBox="0 0 134 51">
        <path d="M2.433 25.5a12.86 12.86 0 0 1 1.002-5.009 13.015 13.015 0 0 1 2.88-4.246 13.27 13.27 0 0 1 4.316-2.833 13.463 13.463 0 0 1 5.091-.986 13.463 13.463 0 0 1 5.091.986 13.27 13.27 0 0 1 4.316 2.833 13.026 13.026 0 0 1 2.88 4.246 12.87 12.87 0 0 1 1.002 5.008 12.85 12.85 0 0 1-1.002 5.008 13.026 13.026 0 0 1-2.88 4.246 13.27 13.27 0 0 1-4.316 2.833 13.44 13.44 0 0 1-5.091.986 13.425 13.425 0 0 1-5.091-.986 13.27 13.27 0 0 1-4.316-2.833c-1.235-1.215-2.214-2.658-2.88-4.246S2.429 27.218 2.433 25.5zM2 25.5C2 32.889 8.211 39 15.722 39s13.722-6.111 13.722-13.5S23.233 12 15.722 12 2 18.111 2 25.5zm22.533-1.421c-.144.142-.289.142-.289.284-.723.568-2.023.995-3.611 1.421-3.466.853-5.922.995-8.811 1.706-.578.142-1.155.284-1.733.568.577.284 1.156.569 1.733.711l3.322-.711c.577-.142 2.6-.426 4.044-.71 2.456-.568 6.211-1.705 5.344-3.268zM22.8 20.952c-.578-.284-1.155-.426-1.878-.711-.289.284-.722.426-1.3.711.867.142 1.589.426 2.311.568.145.142.723-.426.867-.568zm-12.567 3.411c3.323-.995 6.934-1.279 10.4-2.274-1.444-.426-2.166-.568-3.611-.284-2.167.284-4.478.711-6.5 1.279-.722.284-4.911 1.421-3.755 2.984 0 0 .722-.995 3.466-1.705zm-2.31 5.542c0 .284.145.568.578.853 0-.142.145-.284.289-.427l-.867-.426h.001zm1.589-.142.867-.426c-.433-.142-1.011-.426-1.445-.568a1.978 1.978 0 0 0-.577.426 4.36 4.36 0 0 1 1.155.568zM22.367 22.8c-.723.284-1.589.568-3.034.852-1.155.284-3.9.71-6.933 1.279-.867.142-3.467.852-4.767 1.847.289.285.578.285 1.011.569.577-.284 1.155-.711 2.311-.853 1.878-.426 3.178-.71 4.767-.994s4.767-.853 6.355-1.421c.578-.142 1.011-.426 1.445-.711 0-.142-1.155-.71-1.155-.568zm1.011-.711.867.427c.145-.427.145-.711-.289-.995-.145.284-.434.426-.578.568zm-15.6 5.969c-.289-.142-.433-.285-.722-.426-.145.284.145.568.434.71l.289-.284zm14.3-9.095c0 .284-.289.426-.433.711.433.142 1.011.284 1.445.426-.145-.426-.578-.852-1.011-1.137zM6.333 21.805c3.467-2.274 7.367-3.553 14.011-2.416.289-.142.577-.426.722-.852-1.589-.568-3.467-.853-5.778-.711-2.023 0-5.778.853-7.8 1.99l.577-.711c1.445-.852 5.056-1.847 7.8-1.989 1.878 0 2.889 0 5.2.71-.144-.426-.722-.568-1.3-.853-2.166-.994-6.355-.994-9.677.427.433-.284.866-.569 1.444-.711 1.156-.568 2.889-.995 5.2-.995 1.878 0 4.044.711 5.345 1.99.289.284.289.568.433.71 1.011.568 1.589.994 2.023 1.563.144.284.144.568.144.995a4.58 4.58 0 0 1 .867.711c.145.284.289.568.289.711 0 .284.144.71-.289 1.137.289.142.577.71.722.853.144.711-.289 1.563-1.011 2.131-.722.711-2.455 1.421-3.9 1.847-2.744.711-5.2.995-7.077 1.279.866.142 2.022.427 3.9.427 4.044 0 7.8-1.847 7.8-1.847s-.145.284-.145.426c-2.6 1.563-6.789 2.132-8.522 2.132-2.166-.142-3.755-.427-5.2-.853l-1.3.426c2.311.995 3.9 1.279 5.923 1.421s5.2-.284 7.944-1.279c-.145.142-.145.284-.289.426-1.444.711-4.334 1.421-5.923 1.563-1.444 0-3.322 0-4.911-.285-1.3-.284-2.455-.71-3.611-1.137-.145.142-.289.285-.289.568 4.478 2.274 8.811 2.416 13.578.853l-.433.426c-5.345 2.132-9.389 1.279-12.711-.284-.145 0-.289-.142-.289-.142.289.568 2.745 2.273 5.489 2.558 1.877.142 4.189-.142 5.489-.711l-.867.426c-.722.284-2.456.995-4.911.853-3.322-.284-5.055-1.705-5.922-2.416-.433-.284-.578-.711-.722-1.279-.722-.426-1.155-.71-1.589-1.422-.289-.284-.145-.711-.145-.994l.145-.284c-.289-.284-.723-.568-.867-.853-.289-.568-.145-.995.145-1.421-.145-.285-.434-.427-.434-.711-.144-.284-.144-.568-.144-.852 0-.426.289-.853.722-1.279.722-.853 1.877-1.421 3.755-2.132 1.877-.568 2.6-.71 4.045-.995 1.589-.426 3.611-.568 5.344-1.137-4.622-.853-9.389 0-13.289 2.558l.289-.568zm40.445 1.279.578 3.552h-1.011l.433-3.552zm-4.189 8.384h2.889l.289-1.99h1.877l.289 1.99h2.889l-2.456-11.795H44.9l-2.311 11.795zm10.978-7.247c.433 0 1.3-.284 1.3-1.137 0-.995-1.011-1.137-1.156-1.137-.289 0-.866 0-1.589.284v-2.558c1.011-.284 1.589-.284 2.455-.284 2.311 0 3.322 1.563 3.322 3.127s-.867 2.416-1.733 2.7v.142c.866.284 1.877.995 1.877 2.842 0 2.273-1.589 3.41-3.611 3.41-1.011 0-1.733-.142-2.6-.568v-2.416c.723.284 1.3.426 1.878.426.867 0 1.3-.711 1.3-1.137 0-.711-.433-1.137-1.444-1.137H52.41V24.22h1.156zm5.633-4.689h7.655v11.937H64.11v-9.095h-2.022v9.095H59.2V19.531zm11.989 2.7h.722c.578 0 1.011.426 1.011 1.421 0 1.279-.722 1.421-1.011 1.421h-.722v-2.842zm-2.745 9.237h2.745v-3.837h.866c2.745 0 3.611-2.416 3.611-3.979s-1.011-3.979-3.611-3.979h-3.611v11.795zm12.566-2.842c-1.011 0-1.444-1.137-1.444-3.268s.433-3.268 1.444-3.268 1.444 1.137 1.444 3.269-.577 3.268-1.444 3.268zm0 2.984c3.323 0 4.478-2.984 4.478-6.11s-1.156-6.111-4.478-6.111-4.477 2.985-4.477 6.111 1.155 6.11 4.477 6.11zm19.211-2.558v-2.7h.433c.29 0 1.156 0 1.156 1.279s-.866 1.421-1.156 1.421h-.433zm-2.744 2.416h3.322c.722 0 3.755-.284 3.755-3.837 0-2.984-2.31-3.553-3.9-3.553h-.433v-1.563h3.756v-2.842h-6.355v11.795h-.145zm17.189-11.937h2.6v4.263h2.022v-4.263h2.744v11.937h-2.744v-4.832h-2.023v4.832h-2.6l.001-11.936zm9.244 0h2.744l-.144 4.263h.723l1.444-4.263h3.033l-2.166 5.684L132 31.468h-3.178l-1.589-4.832h-.722l.144 4.832h-2.744V19.531zm-86.666 0h5.633v2.984h-2.889v8.952h-2.745l.001-11.937zm49.4 0H89.1l2.022 2.842 2.167-2.842H95.6v11.937h-2.745v-7.247l-1.733 1.989-1.589-1.99v7.248h-2.889V19.531zm22.678 3.694.578 3.553h-1.011l.433-3.553zm-4.189 8.242h2.889l.289-1.99h1.878l.289 1.99h2.889l-2.456-11.795h-3.466l-2.312 11.795z"/>
    </symbol>
    <symbol id="i-mkb" viewBox="0 0 134 51">
        <path d="M65.784 14.052h-5.5v21.896h4.866V21.506h.317l5.183 8.334h2.592l5.183-8.334h.317v14.442h4.919V14.052h-5.395l-6.188 9.939-6.294-9.939zm28.084 0h-4.972v21.896h4.972v-9.369H96.3l6.823 9.369h6.452l-9.149-11.699L108.729 14h-6.188l-6.346 8.075-2.433.259v-8.282h.106zm37.075 0h-17.77v21.896h10.101c1.27 0 2.433-.155 3.491-.466s2.01-.776 2.75-1.346a6.89 6.89 0 0 0 1.851-2.226c.423-.932.635-1.915.635-3.054s-.212-2.174-.635-3.106c-.476-.88-1.057-1.605-1.798-2.174-.793-.621-1.692-1.035-2.803-1.294-1.058-.311-2.221-.414-3.491-.414h-5.13v-3.416h8.409l4.39-4.4zm-12.799 17.496v-5.435h5.289c1.164 0 2.01.207 2.644.725.635.466.952 1.087.952 1.967 0 .828-.317 1.449-.952 1.967-.581.466-1.533.725-2.75.725h-5.183v.052zM29.661 14.052 18.554 24.974l-5.5-5.435 5.553-5.487H7.5L2 19.539 18.66 36l14.227-14.132h8.515l7.88-7.816H29.661zm-8.674 21.689 1.587-1.553 11.001-10.819h15.761l-7.933 7.713h-4.654l-4.654 4.659H20.987z"/>
    </symbol>
    <symbol id="i-mts" viewBox="0 0 134 51">
        <path fill-rule="evenodd" d="M2 27.706C2 31.853 4.306 36 9.441 36c5.083 0 7.388-4.147 7.388-8.294 0-2.818-.943-6.061-2.515-8.666C12.794 16.489 10.96 15 9.441 15s-3.353 1.489-4.873 4.041C2.943 21.646 2 24.889 2 27.706zm52.503-6.539h-5.187v-5.051h15.877v5.051h-5.187v13.716h-5.554V21.167h.052zm22.584 0h8.122v-5.051h-8.122c-7.493 0-11.475 3.775-11.475 9.357s3.982 9.357 11.475 9.357h8.122v-5.05h-8.122c-3.458 0-5.711-1.276-5.711-4.306-.052-3.03 2.253-4.306 5.711-4.306zm-41.971 6.167 2.934-11.218h9.798v18.767h-5.554V19.625L38.26 34.884h-6.34l-4.035-15.258v15.258h-5.554V16.116h9.798l2.987 11.218zm63.873-5.795H97.05V23.4h1.939c.472 0 .786-.266.786-.744v-.319c.052-.532-.21-.797-.786-.797zm.524 3.934H94.43v-9.357h7.441v2.233H97.05v1.223h2.463c2.044 0 3.039 1.01 3.039 2.871 0 1.914-.995 3.03-3.039 3.03zm9.065-3.828h-2.044l1.048-3.456.996 3.456zm3.982 3.828-2.829-9.357h-3.878l-2.829 9.357h2.463l.523-1.808h3.249l.524 1.808h2.777zm6.602 0v-3.615h-2.986v3.615h-2.673v-9.357h2.673v3.456h2.986v-3.456h2.673v9.357h-2.673zm7.389-5.901h-.472v-3.456h-2.672v9.357h2.672v-3.615h.367l2.463 3.615H132l-3.353-4.891 3.091-4.466h-2.829l-2.358 3.456z"/>
    </symbol>
    <symbol id="i-newage" viewBox="0 0 134 51">
        <path d="M12.938 15.479c.027-3.841 2.353-6.399 5.227-6.477s5.336 2.507 5.436 5.66a8.33 8.33 0 0 1-1.165 4.364c-1.092 1.965-4.707 5.632-4.707 5.632l-1.375-2.697 1.34-1.744a14.164 14.164 0 0 0 2.357-3.862 4.084 4.084 0 0 0 .334-1.639c-.043-1.351-.982-2.429-2.132-2.421s-2.113 1.117-2.132 2.441a4.58 4.58 0 0 0 .73 2.725 18.62 18.62 0 0 1 .645 1.117l-2.027 2.441a18.768 18.768 0 0 1-1.246-1.838c-.808-1.358-1.293-2.83-1.293-3.71l.008.008zm-.785 3.613a7.39 7.39 0 0 0-3.126-1.841c-2.99-.825-6.094.837-6.854 3.674a5.72 5.72 0 0 0 4.008 6.902 8.17 8.17 0 0 0 4.411-.019 14.2 14.2 0 0 0 1.553-.487l-1.526-2.908-1.107.339a3.877 3.877 0 0 1-2.738-.211c-1.223-.514-1.868-1.818-1.44-2.908s1.802-1.62 2.994-1.168a5.96 5.96 0 0 1 1.65 1.133c2.718 2.335 3.779 6.438 3.779 6.438S10.262 29.204 9 30.072c-2.451 1.716-3.495 4.726-2.54 7.252a5.067 5.067 0 0 0 4.66 3.417 5.93 5.93 0 0 0 3.286-1.015 5.95 5.95 0 0 0 2.174-2.671c.707-1.654.874-3.402.909-5.181a17.78 17.78 0 0 0-1.373-6.934 17.76 17.76 0 0 0-3.963-5.848zm1.27 17.003c-.501.884-1.239 1.428-2.295 1.362a1.803 1.803 0 0 1-1.046-.367 1.81 1.81 0 0 1-.635-.91c-.361-1.005 0-1.826.606-2.647 1.052-1.421 3.992-2.165 3.992-2.165l.109 1.616a6.11 6.11 0 0 1-.734 3.114l.003-.004zm6.19-.264a7.68 7.68 0 0 0 1.717 3.25c2.12 2.312 5.611 2.577 7.716.572 2.179-2.074 2.244-5.671.128-8.03a8.33 8.33 0 0 0-3.767-2.378 14.143 14.143 0 0 0-1.553-.424l-.19 3.297 1.115.312A3.97 3.97 0 0 1 27 34.082c.777 1.098.656 2.554-.264 3.251s-2.365.389-3.138-.635a6.176 6.176 0 0 1-.823-1.853c-1.122-3.46.089-7.516.089-7.516s3.584.902 5.091.833c2.944-.121 5.39-2.11 5.876-4.776a5.25 5.25 0 0 0-2.225-5.45 5.817 5.817 0 0 0-6.531.187c-1.449 1.024-2.489 2.425-3.429 3.916a17.914 17.914 0 0 0-2.399 6.681 17.95 17.95 0 0 0 .38 7.091l-.012.02zm7.639-15.151a2.32 2.32 0 0 1 1.337-.373 2.33 2.33 0 0 1 1.312.455 1.86 1.86 0 0 1 .702.874 1.87 1.87 0 0 1 .075 1.119c-.206 1.047-.931 1.557-1.875 1.927-1.624.639-4.505-.316-4.505-.316l.738-1.432a5.9 5.9 0 0 1 2.217-2.254zm14.121 18.147h-3.305a.66.66 0 0 1-.636-.378.67.67 0 0 1-.063-.253v-2.931a.663.663 0 0 1 .22-.453.66.66 0 0 1 .474-.166h3.309a.66.66 0 0 1 .474.166c.13.116.209.279.22.453v2.931a.656.656 0 0 1-.221.452.66.66 0 0 1-.474.166v.012zm8.155 0h-3.343a.66.66 0 0 1-.639-.376.66.66 0 0 1-.063-.254v-2.962a.663.663 0 0 1 .22-.453.66.66 0 0 1 .474-.166h3.343a.66.66 0 0 1 .475.166.67.67 0 0 1 .221.453v2.963a.66.66 0 0 1-.695.619l.008.012zm8.175 0H54.36a.66.66 0 0 1-.633-.379.66.66 0 0 1-.062-.252v-2.962a.66.66 0 0 1 .696-.619h3.343a.66.66 0 0 1 .475.166.67.67 0 0 1 .221.453v2.963a.66.66 0 0 1-.696.619v.012zm8.179 0h-3.344a.66.66 0 0 1-.633-.379.66.66 0 0 1-.062-.252v-2.962a.66.66 0 0 1 .696-.619h3.344a.66.66 0 0 1 .474.166.67.67 0 0 1 .221.453v2.963a.656.656 0 0 1-.221.452.66.66 0 0 1-.474.166v.012zm8.178 0h-3.336a.66.66 0 0 1-.64-.377.656.656 0 0 1-.063-.254v-2.962a.66.66 0 0 1 .446-.585.66.66 0 0 1 .256-.034h3.344a.66.66 0 0 1 .475.166.67.67 0 0 1 .221.453v2.963a.66.66 0 0 1-.695.619l-.008.012zm8.178 0h-3.359a.66.66 0 0 1-.68-.631v-2.962a.66.66 0 0 1 .68-.619h3.344a.66.66 0 0 1 .474.166c.13.116.209.279.22.453v2.963a.66.66 0 0 1-.695.619l.015.012zm8.179 0h-3.343a.66.66 0 0 1-.633-.379.66.66 0 0 1-.062-.252v-2.962a.66.66 0 0 1 .695-.619h3.344a.66.66 0 0 1 .475.166.67.67 0 0 1 .221.453v2.963a.66.66 0 0 1-.695.619v.012zm8.179 0h-3.344a.66.66 0 0 1-.633-.379.66.66 0 0 1-.062-.252v-2.962a.66.66 0 0 1 .696-.619h3.343a.66.66 0 0 1 .475.166c.13.116.21.279.221.453v2.963a.665.665 0 0 1-.221.453.66.66 0 0 1-.475.166v.012zm8.178 0h-3.344a.655.655 0 0 1-.478-.17.67.67 0 0 1-.154-.209.668.668 0 0 1-.062-.252v-2.962a.66.66 0 0 1 .694-.619h3.344a.66.66 0 0 1 .695.619v2.963a.66.66 0 0 1-.695.619v.012zm8.179 0h-3.344a.655.655 0 0 1-.478-.17.67.67 0 0 1-.155-.209.668.668 0 0 1-.062-.252v-2.962a.665.665 0 0 1 .221-.453.66.66 0 0 1 .474-.166h3.344a.66.66 0 0 1 .695.619v2.963a.66.66 0 0 1-.695.619v.012zm8.178 0h-3.343a.66.66 0 0 1-.257-.037.65.65 0 0 1-.439-.594v-2.962a.67.67 0 0 1 .221-.453.66.66 0 0 1 .475-.166h3.343a.66.66 0 0 1 .695.619v2.963a.66.66 0 0 1-.694.619l-.001.012zm8.175.016h-3.34a.66.66 0 0 1-.474-.166.665.665 0 0 1-.221-.453V35.25a.665.665 0 0 1 .221-.453.66.66 0 0 1 .474-.166h3.34c.174-.01.344.05.474.166a.66.66 0 0 1 .221.453v2.97a.66.66 0 0 1-.695.623zm-93.825-26.93h5.34v.915h-4.298v2.308h2.179c.402-.008.802.046 1.188.16a2.27 2.27 0 0 1 .839.46c.222.197.393.446.497.724a2.68 2.68 0 0 1 .163.958 2.59 2.59 0 0 1-.163.946 1.97 1.97 0 0 1-.486.74 2.164 2.164 0 0 1-.776.467 3.1 3.1 0 0 1-1.049.163h-3.433l-.001-7.84zm1.041 6.91h2.256a2.39 2.39 0 0 0 .59-.07 1.22 1.22 0 0 0 .474-.23 1.09 1.09 0 0 0 .315-.424c.082-.21.12-.433.112-.658a1.593 1.593 0 0 0-.12-.654 1.05 1.05 0 0 0-.342-.428 1.44 1.44 0 0 0-.54-.23 3.42 3.42 0 0 0-.722-.07h-2.023v2.764zm5.313.914 2.928-7.945h1.27l2.831 7.945h-1.165l-.824-2.394h-3.067l-.87 2.394h-1.103zm4.753-3.223-1.187-3.48-1.316 3.48h2.504zm3.239-4.601h1.033v3.227h4.152v-3.227h1.044v7.824h-1.044v-3.683H52.86v3.683h-1.041l.008-7.824zm7.853 0h1.041v3.811l3.79-3.811h1.457l-3.25 3.157 3.339 4.671h-1.34l-2.75-3.943-1.262 1.219v2.725h-1.041l.016-7.828zm41.117 9.864h5.333a4.91 4.91 0 0 1 1.165.125 3.36 3.36 0 0 1 .877.342c.317.179.591.425.804.721a2.51 2.51 0 0 1 .427.992c.04.2.061.403.063.607a3.44 3.44 0 0 1-.075.743 2.06 2.06 0 0 1-.232.6 1.862 1.862 0 0 1-.416.49 3.01 3.01 0 0 1-.609.389 2.72 2.72 0 0 1 .885.51 2.29 2.29 0 0 1 .509.658 2.49 2.49 0 0 1 .237.728c.038.239.057.482.058.724a3.25 3.25 0 0 1-.287 1.401 2.8 2.8 0 0 1-.812 1.02 3.69 3.69 0 0 1-1.274.627 6.05 6.05 0 0 1-1.666.214h-4.986v-10.89h-.001zm2.183 4.282h2.804a2.41 2.41 0 0 0 .571-.066 1.4 1.4 0 0 0 .486-.218 1.11 1.11 0 0 0 .337-.389 1.22 1.22 0 0 0 .125-.572 1.27 1.27 0 0 0-.113-.576.93.93 0 0 0-.315-.358 1.26 1.26 0 0 0-.466-.187 2.95 2.95 0 0 0-.563-.051h-2.862l-.004 2.418zm0 4.722h2.831a2.56 2.56 0 0 0 .695-.09 1.55 1.55 0 0 0 .552-.269 1.23 1.23 0 0 0 .361-.459c.09-.208.133-.432.128-.658a1.597 1.597 0 0 0-.155-.779 1.15 1.15 0 0 0-.411-.44 1.493 1.493 0 0 0-.58-.202 4.42 4.42 0 0 0-.655-.047h-2.774l.008 2.943zm8.753-9.004h7.977v1.876h-5.798v2.417h5.332v1.884h-5.332v2.748h6.054v1.97h-8.232l-.001-10.895zm10.175 0h2.272v4.434l4.155-4.434h2.936l-4.439 4.461 4.695 6.435h-2.877l-3.363-4.827-1.111 1.133v3.69h-2.268V21.778zm-84.387 0H39.8v4.142h4.272v-4.142h2.271v10.899h-2.272v-4.873h-4.272v4.87H37.52V21.778zm10.543 5.446a7.6 7.6 0 0 1 .326-2.27 5.11 5.11 0 0 1 .975-1.81A4.51 4.51 0 0 1 51 21.94a5.6 5.6 0 0 1 2.291-.436 5.23 5.23 0 0 1 2.175.436 4.79 4.79 0 0 1 1.666 1.203 5.36 5.36 0 0 1 1.022 1.818 7.27 7.27 0 0 1 0 4.531 5.35 5.35 0 0 1-1.022 1.814 4.79 4.79 0 0 1-1.647 1.203 5.23 5.23 0 0 1-2.175.436 5.593 5.593 0 0 1-2.291-.436 4.51 4.51 0 0 1-1.655-1.203 5.11 5.11 0 0 1-.974-1.818 7.6 7.6 0 0 1-.326-2.265zm5.227 3.748c.431.008.857-.088 1.243-.281a2.72 2.72 0 0 0 .928-.778 3.59 3.59 0 0 0 .583-1.168 5.764 5.764 0 0 0 0-3.001 3.59 3.59 0 0 0-.583-1.168 2.72 2.72 0 0 0-.928-.778 2.88 2.88 0 0 0-2.486 0 2.72 2.72 0 0 0-.928.778 3.66 3.66 0 0 0-.583 1.168 5.64 5.64 0 0 0 0 3.001 3.64 3.64 0 0 0 .583 1.168 2.72 2.72 0 0 0 .928.778 2.67 2.67 0 0 0 1.247.284l-.004-.004zm7.13-9.195h5.332a4.9 4.9 0 0 1 1.166.125 3.37 3.37 0 0 1 .877.342 2.5 2.5 0 0 1 .803.721 2.54 2.54 0 0 1 .428.992c.041.2.061.403.063.607a3.43 3.43 0 0 1-.074.743 2.09 2.09 0 0 1-.233.6 1.95 1.95 0 0 1-.388.49 2.977 2.977 0 0 1-.61.389 2.71 2.71 0 0 1 .862.51 2.29 2.29 0 0 1 .524.666c.116.229.197.475.237.728a4.74 4.74 0 0 1 .058.724 3.23 3.23 0 0 1-.295 1.385 2.804 2.804 0 0 1-.812 1.02 3.69 3.69 0 0 1-1.278.627 6.01 6.01 0 0 1-1.666.214h-4.994V21.778zm2.183 4.282h2.804a2.41 2.41 0 0 0 .571-.066 1.38 1.38 0 0 0 .486-.218 1.12 1.12 0 0 0 .338-.389 1.21 1.21 0 0 0 .124-.572 1.26 1.26 0 0 0-.117-.576.93.93 0 0 0-.314-.358 1.253 1.253 0 0 0-.466-.187 2.93 2.93 0 0 0-.563-.051h-2.862v2.418zm0 4.722h2.831a2.55 2.55 0 0 0 .695-.09 1.57 1.57 0 0 0 .552-.269 1.22 1.22 0 0 0 .361-.459c.091-.207.134-.432.128-.658a1.59 1.59 0 0 0-.155-.779 1.147 1.147 0 0 0-.412-.44 1.48 1.48 0 0 0-.579-.202 4.32 4.32 0 0 0-.653-.047h-2.773l.004 2.943zm8.753-9.004h2.272v4.282h2.792a4.88 4.88 0 0 1 .816.109c.301.065.594.163.874.292a2.61 2.61 0 0 1 .776.568 2.78 2.78 0 0 1 .579.934 3.86 3.86 0 0 1 .221 1.398c.013.472-.062.941-.221 1.385a2.89 2.89 0 0 1-.567.93 2.5 2.5 0 0 1-.776.565 4.13 4.13 0 0 1-1.538.396h-5.227v-10.86zm2.272 9.023h1.942a4.78 4.78 0 0 0 .641-.043 1.78 1.78 0 0 0 .606-.195c.189-.101.346-.254.454-.44.129-.238.19-.508.178-.779a1.56 1.56 0 0 0-.175-.806 1.16 1.16 0 0 0-.474-.463 1.74 1.74 0 0 0-.633-.187l-.707-.039h-1.833v2.95zm7.541-9.023h2.272v10.899H81.17V21.778zm4.311 0h2.182v7.419h.031l4.303-7.419h2.299v10.899h-2.214v-7.38l-4.31 7.377h-2.291V21.778zm4.415 1.123H88.56l1.142-2.184h1.604l-1.41 2.184z"/>
    </symbol>
    <symbol id="i-raif" viewBox="0 0 134 51">
        <path d="M16.02 28.147 8.06 36l-3.145-3.101 7.96-7.852-1.67-1.649v-3.22l-1.156-1.138v2.827l-.994.981-4.06-4.004-.995.982c0-.747.159-2.906 1.99-4.672 1.99-1.885 4.14-1.021 4.896-.315l4.02 4.005-1.036 1.02 2.11 2.081 2.11-2.08-.995-1.02 4.02-4.006c.716-.745 2.905-1.57 4.896.315A6.625 6.625 0 0 1 28 19.825l-.995-.982-4.02 4.004-.995-.981v-2.827l-1.154 1.138v3.22l-1.672 1.649 7.96 7.852L23.98 36l-7.96-7.853zm110.38-5.963h-2.677.041V14.58h2.677v2.696h2.473V14.58h2.637v7.604h-2.677v-3.058H126.4v3.058zm-16.996-6.074c-.649 0-1.42.281-1.988.643l-.689-1.65c.811-.442 2.028-.764 3.123-.764 1.136 0 3.042.362 3.042 2.132 0 .805-.406 1.489-1.095 1.77 1.055.282 1.541 1.087 1.541 1.891 0 .563-.365 2.333-3.447 2.333a6.825 6.825 0 0 1-3.448-.925l.689-1.81c.771.483 1.38.724 2.312.724s1.096-.483 1.096-.724c0-.604-.69-.644-1.096-.644h-1.176v-1.65h1.339c.243 0 .892 0 .892-.643s-.771-.684-1.095-.684zm-4.746-4.265c-.568 1.287-1.825 1.77-3.042 1.77s-2.474-.483-3.001-1.77l1.744-.644c.203.885.933.926 1.258.926s1.094-.04 1.297-.926l1.744.644zm-7.261 10.339v-7.603h2.718v4.102l2.637-4.103h2.596v7.604h-2.677V18l-2.677 4.184h-2.597z"/><path fill-rule="evenodd" d="M79.388 22.345v3.178-.04h2.677v-3.178c1.623 0 4.26-.644 4.26-3.943 0-3.258-2.637-3.902-4.26-3.902v-3.3h-2.677v3.34c-1.622 0-4.259.643-4.259 3.901 0 3.3 2.677 3.943 4.259 3.943zm.162-5.995v4.225c-.892 0-1.825-.684-1.825-2.133s.933-2.092 1.825-2.092zm2.353 4.225V16.35c.934-.04 1.825.644 1.825 2.133 0 1.448-.933 2.092-1.825 2.092zM67.3 22.345v3.138h2.678v-3.178c1.623 0 4.259-.644 4.259-3.943 0-3.258-2.636-3.902-4.26-3.902v-3.3h-2.676v3.34c-1.623 0-4.259.643-4.259 3.901 0 3.3 2.677 3.943 4.259 3.943zm.163-5.995v4.224c-.933 0-1.825-.683-1.825-2.132s.933-2.092 1.825-2.092zm2.353 4.225V16.35c.892-.04 1.825.644 1.825 2.133 0 1.448-.933 2.092-1.825 2.092z"/><path d="M61.014 11.845c-.568 1.287-1.825 1.77-3.042 1.77s-2.474-.483-3.002-1.77l1.745-.644c.243.885.973.926 1.298.926.283 0 1.054-.04 1.257-.926l1.744.644zm-7.22 10.339V14.58h2.678v4.063l2.676-4.063h2.596v7.604h-2.677V18l-2.677 4.184h-2.596z"/><path fill-rule="evenodd" d="M38.99 11h-4.543v11.224h2.88v-3.822h1.663c3.042 0 3.934-2.172 3.934-3.7S42.073 11 38.99 11zm-1.623 2.414v2.534h.974c1.338 0 1.46-.804 1.46-1.287 0-.563-.203-1.247-1.46-1.247h-.974zm58.369 8.77V14.58h-2.678v.724c-.568-.684-1.502-1.006-2.353-1.006-2.23 0-3.772 1.891-3.772 4.063s1.581 4.063 3.813 4.063c.851 0 1.785-.32 2.27-1.085h.041v.845h2.68zm-6.085-3.782c0-.925.65-1.73 1.745-1.73s1.744.805 1.744 1.73c0 .965-.65 1.69-1.744 1.69s-1.745-.724-1.745-1.69zm-37.519 3.782V14.58h-2.678v.724c-.568-.684-1.5-1.006-2.352-1.006-2.231 0-3.772 1.891-3.772 4.063s1.581 4.063 3.812 4.063c.852 0 1.785-.32 2.271-1.085v.845h2.719zm-6.085-3.782c0-.925.65-1.73 1.745-1.73s1.744.805 1.744 1.73c0 .965-.65 1.69-1.744 1.69s-1.745-.724-1.745-1.69zm76.378.603v-.282c0-2.614-1.541-4.223-4.137-4.223-2.434 0-4.178 1.528-4.178 4.063 0 2.655 1.866 4.063 4.381 4.063 1.744 0 3.407-.805 3.853-2.615h-2.596c-.324.483-.73.684-1.298.684-1.095 0-1.663-.604-1.663-1.69h5.638zm-2.474-1.569h-3.123c.162-.764.811-1.206 1.622-1.206.69 0 1.379.482 1.501 1.206zM42.68 37.672c.569-.523.812-1.287.933-2.051.163-1.086-.202-1.932-.892-2.454-.893-.765-2.15-.886-3.164-.886H38.22l.365-2.252h4.665l.364-2.213h-7.707L34 39h4.502c1.136-.04 2.962-.12 4.178-1.328zm-4.745-3.339h.81c1.745 0 1.907.523 1.786 1.248-.122.643-.446 1.125-2.231 1.125h-.771l.406-2.373zm9.532 2.695h4.259l.446 1.931h3.286L52.86 27.776h-3.366l-6.45 11.184h3.286l1.136-1.932zm3.123-5.793.649 3.581h-2.556l1.866-3.58h.041z"/><path d="M69.532 27.775h3.123l-.81 4.627h.04l4.502-4.626H80.2l-5.597 5.31 4.177 5.874h-4.016l-3.163-4.868h-.04l-.812 4.868h-3.083l1.866-11.185zM60.04 31.96l.69-4.185h-3L55.903 38.96h3.002l.77-4.828h4.098l-.771 4.828h3.001l1.826-11.185h-3.002l-.69 4.184h-4.096z"/><path fill-rule="evenodd" d="M30 11H2v28h28V11Zm-1 1H3v26h26V12Z"/>
    </symbol>
    <symbol id="i-renaissance" viewBox="0 0 134 51">
        <path d="M37.777 14.39c3.029 0 5.118 2.504 5.118 4.955a5.065 5.065 0 0 1-5.118 5.007h-3.761v4.016h-2.298V14.39h6.059zm-.209 7.824c1.985 0 3.029-1.513 3.029-2.869 0-1.46-1.045-2.869-3.029-2.869h-3.499v5.79h3.499v-.052zm6.006 1.043c0-2.973 2.037-5.32 5.275-5.32 3.291 0 4.857 2.764 4.857 5.477v.522h-7.835c.313 1.773 1.828 2.764 3.865 2.764 1.306 0 2.35-.365 3.291-.939v1.93c-.836.626-2.194.991-3.761.991-3.186 0-5.693-2.139-5.693-5.424zm7.834-1.043c0-1.043-.836-2.451-2.664-2.451-1.776 0-2.768 1.2-2.82 2.451h5.484zm4.283-4.016h2.298v3.964h5.171v-3.964h2.298v10.171H63.16v-4.277h-5.17v4.277h-2.298V18.198zm11.7 5.059c0-2.973 2.037-5.32 5.275-5.32 3.291 0 4.857 2.764 4.857 5.477v.522H69.69c.313 1.773 1.828 2.764 3.865 2.764a6.09 6.09 0 0 0 3.29-.939v1.93c-.836.626-2.194.991-3.761.991-3.186 0-5.693-2.139-5.693-5.424zm7.835-1.043c0-1.043-.836-2.451-2.664-2.451-1.776 0-2.768 1.2-2.82 2.451h5.484zm3.604 1.043c0-3.182 2.507-5.32 5.589-5.32 1.201 0 2.142.209 3.029.678v1.93c-.94-.469-1.776-.678-2.768-.678-1.985 0-3.656 1.356-3.656 3.442s1.619 3.442 3.656 3.442c1.149 0 2.037-.209 2.873-.782v1.878a6.69 6.69 0 0 1-3.291.835c-2.925 0-5.432-2.191-5.432-5.424zm9.871 0c0-3.182 2.507-5.32 5.589-5.32 1.201 0 2.141.209 3.029.678v1.93c-.94-.469-1.776-.678-2.768-.678-1.985 0-3.656 1.356-3.656 3.442s1.619 3.442 3.656 3.442c1.149 0 2.037-.209 2.873-.782v1.878c-.992.522-1.985.835-3.291.835-2.82 0-5.432-2.191-5.432-5.424zm21.31 3.234v1.669c-.313.209-.835.313-1.306.313-.992 0-1.828-.469-2.141-1.46-.783.835-1.985 1.617-3.76 1.617-2.142 0-3.813-1.2-3.813-3.442 0-2.295 1.671-2.973 3.865-2.973h3.499v-.156c0-1.773-1.462-2.191-2.977-2.191-1.201 0-2.455.469-3.186.939v-1.982a8.32 8.32 0 0 1 3.761-.834c2.768 0 4.752 1.304 4.752 3.86v3.808c0 .626.366.991.836.991 0 0 .261 0 .47-.157zm-3.76-2.504h-2.664c-1.462 0-2.455.313-2.455 1.304 0 1.148.993 1.513 2.194 1.513s2.35-.626 2.872-1.2v-1.617h.053zm5.379-5.79h2.298v3.964h5.171v-3.964h2.298v10.171h-2.298v-4.277h-5.171v4.277h-2.298v-10.17zm11.648 5.059c0-3.182 2.507-5.32 5.588-5.32 1.202 0 2.142.209 3.03.678v1.93c-.941-.469-1.776-.678-2.769-.678-1.984 0-3.656 1.356-3.656 3.442s1.619 3.442 3.656 3.442c1.149 0 2.037-.209 2.873-.782v1.878c-.992.522-1.985.835-3.29.835-2.925 0-5.432-2.191-5.432-5.424zM32.816 33.845v1.982l1.828-1.982h1.306l-2.141 2.295 2.507 2.764H35.01l-2.141-2.295v2.295H31.72v-5.059h1.097zm4.857 0h2.194c1.045 0 1.776.626 1.776 1.513 0 .939-.679 1.513-1.776 1.513H38.77v1.982h-1.045v-5.007h-.052zm2.142 2.139c.47 0 .783-.209.783-.626s-.313-.626-.783-.626H38.77v1.2h1.045v.052zm3.395-2.139h3.656v.939h-2.664v.991h2.141v.939h-2.141v1.304h2.82v.939h-3.813v-5.111zm5.641 4.121c.47-.678.679-1.617.679-3.286v-.782h3.499v4.121h.679V40h-.992v-.991h-3.447V40h-.992v-2.034h.575zm3.186 0v-3.182h-1.462c0 1.043-.052 2.139-.522 3.182h1.985zm3.291-4.12h1.045v3.286l2.455-3.286h.94v5.007h-.992v-3.286l-2.611 3.286h-.836v-5.007zm10.08 0v.939h-1.619v4.121h-1.045v-4.12h-1.619v-.939h4.283zM5.29 33.845H2V19.763C2 14.964 5.969 11 10.775 11h10.812v8.658c0 4.851-3.969 8.763-8.775 8.763H7.327l1.201-3.286h4.178a5.48 5.48 0 0 0 5.484-5.477v-5.372h-7.52a5.48 5.48 0 0 0-5.484 5.477v14.083h.104z"/>
    </symbol>
    <symbol id="i-sber" viewBox="0 0 134 51">
        <path d="M19.598 24.819 19.6 25a7.6 7.6 0 1 1-3.352-6.303l2.018-1.49A9.958 9.958 0 0 0 12 15a10 10 0 1 0 10 10 10.05 10.05 0 0 0-.168-1.832l-2.234 1.65zm1.3-3.829a10.697 10.697 0 0 0-1.2-1.99l-7.903 5.813L8 22.43v2.877l3.814 2.403 9.084-6.719zm15.823 7.429a4.68 4.68 0 0 1-2.242.571c-2.34 0-4.03-1.675-4.03-3.98s1.69-3.98 4.03-3.98a3.917 3.917 0 0 1 2.36.748l1.868-1.38-.118-.117c-1.082-.966-2.537-1.458-4.188-1.458-1.79 0-3.421.61-4.6 1.714a5.967 5.967 0 0 0-1.365 2.011 5.919 5.919 0 0 0-.445 2.383 6.228 6.228 0 0 0 1.81 4.473 6.507 6.507 0 0 0 4.58 1.773c1.868 0 3.5-.65 4.6-1.833l-1.67-1.24-.59.315z"/><path fill-rule="evenodd" d="M46.906 23.67H43.76v-2.68h5.033l2.714-2.01H41.164v12.04h5.407c3.028 0 4.778-1.38 4.778-3.784 0-2.305-1.573-3.567-4.443-3.567zm-.433 5.34H43.76v-3.33h2.713c1.652 0 2.419.551 2.419 1.674s-.827 1.655-2.42 1.655z"/><path d="m60.139 20.99 2.713-2.01h-9.084v12.04h9.084v-2.01h-6.488v-3.074h5.544v-2.01h-5.544V20.99h3.775Z"/><path fill-rule="evenodd" d="M65.27 18.98h4.934c3.166 0 5.132 1.655 5.132 4.316s-1.966 4.315-5.112 4.315h-2.36v3.408H65.27V18.98zm2.575 6.62h2.3c1.672 0 2.576-.827 2.576-2.304s-.904-2.306-2.576-2.306h-2.3v4.61z"/><path d="M106.538 31.04V19h2.596v4.946h5.525V19h2.595v12.039h-2.595v-4.927h-5.525v4.927h-2.596Z"/><path fill-rule="evenodd" d="M102.075 31.04h2.733L99.736 19h-2.635l-5.17 12.04h2.614l1.042-2.424h5.505l.983 2.423Zm-5.701-4.434 2.005-4.828 1.888 4.828h-3.893Z"/><path d="M124.686 26.172h-1.613v4.847h-2.594V18.98h2.594v5.162h1.436l3.853-5.162h2.969l-4.64 5.812L132 31.02h-3.343l-3.971-4.847Z"/><path fill-rule="evenodd" d="M83.358 23.69v-2.68h6.783V19h-9.378v12.04h5.406c3.028 0 4.778-1.38 4.778-3.784 0-2.305-1.573-3.567-4.443-3.567h-3.146zm0 2.01h2.713c1.652 0 2.419.551 2.419 1.674s-.807 1.675-2.418 1.675h-2.714V25.7z"/>
    </symbol>
    <symbol id="i-sphere" viewBox="0 0 134 51">
        <path d="M38.028 31.625a6.7 6.7 0 0 1-3.15-.76 5.99 5.99 0 0 1-2.163-2.184 6.91 6.91 0 0 1 0-6.361 5.99 5.99 0 0 1 2.163-2.184c.987-.522 2.068-.807 3.15-.76a6.18 6.18 0 0 1 4.607 2.089c.047.047.094.095.188.095a.359.359 0 0 0 .188-.095l2.397-2.326a.291.291 0 0 0 0-.38c-.846-.997-1.927-1.757-3.103-2.279-1.41-.617-2.962-.949-4.466-.902-1.833-.047-3.667.427-5.265 1.282-1.551.807-2.821 2.041-3.714 3.513a10.327 10.327 0 0 0-1.363 5.127 9.433 9.433 0 0 0 1.363 5.127 9.16 9.16 0 0 0 3.714 3.513 10.744 10.744 0 0 0 5.265 1.234c1.551 0 3.056-.285 4.466-.855a8.81 8.81 0 0 0 2.915-2.041.23.23 0 0 0 0-.332l-2.209-2.516a.359.359 0 0 0-.188-.095c-.094 0-.141.048-.188.095-1.222 1.282-2.868 2.041-4.607 1.994zm27.642.949c-1.927 1.472-4.231 2.231-6.628 2.279v3.75c0 .142-.094.237-.235.237h-3.103c-.141 0-.235-.095-.235-.237v-3.75c-2.398-.047-4.701-.807-6.581-2.231-1.551-1.377-2.397-3.371-2.256-5.459-.094-2.041.752-4.035 2.303-5.317a11.107 11.107 0 0 1 6.628-2.184v-4.083c0-.142.141-.237.235-.237H58.9c.141 0 .235.095.235.237v4.083a11.45 11.45 0 0 1 6.581 2.231c1.504 1.329 2.35 3.276 2.257 5.27a7.15 7.15 0 0 1-2.303 5.412zm-13.868-2.421a6.41 6.41 0 0 0 3.667 1.329v-8.545a6.476 6.476 0 0 0-3.667 1.282 3.99 3.99 0 0 0-1.128 2.943c0 1.092.376 2.184 1.128 2.991zm10.953 0c.799-.807 1.175-1.899 1.128-3.038.047-1.092-.329-2.184-1.128-2.943-1.081-.759-2.35-1.234-3.667-1.282v8.593a6.41 6.41 0 0 0 3.667-1.329zm22.377-1.756H74.084c.188.902.658 1.709 1.41 2.231.799.57 1.786.855 2.773.807.705 0 1.41-.095 2.069-.332a5.49 5.49 0 0 0 1.41-.902c.047-.048.094-.095.188-.095s.141.047.188.095l1.927 2.136a.291.291 0 0 1 0 .38 7.53 7.53 0 0 1-5.876 2.231c-1.504.047-3.009-.332-4.372-.997a7.23 7.23 0 0 1-2.962-2.753c-.705-1.234-1.081-2.611-1.034-3.988 0-1.377.329-2.753 1.034-3.988a6.88 6.88 0 0 1 2.821-2.754 8.494 8.494 0 0 1 7.851 0 6.83 6.83 0 0 1 2.774 2.659c.705 1.282 1.081 2.706 1.034 4.178-.047-.047-.141.38-.188 1.092zm-9.919-4.842c-.658.57-1.081 1.424-1.175 2.279h7.239c-.094-.902-.564-1.709-1.175-2.279-.658-.57-1.504-.855-2.398-.855-.94 0-1.833.285-2.491.855zm24.539-3.038a6.483 6.483 0 0 1 2.632 2.659 7.918 7.918 0 0 1 .94 3.988 8.092 8.092 0 0 1-.94 4.035c-.611 1.092-1.551 2.041-2.632 2.611a7.72 7.72 0 0 1-3.714.949c-1.645.095-3.244-.57-4.419-1.804v5.602c0 .142-.094.237-.235.237h-3.573c-.141 0-.235-.095-.235-.237V20.041c0-.142.094-.237.235-.237h3.432c.141 0 .235.095.235.237v1.424a5.495 5.495 0 0 1 4.607-1.899c1.269 0 2.539.332 3.667.949zm-1.739 9.637a4.304 4.304 0 0 0 1.034-2.991c.047-1.092-.329-2.136-1.034-2.991-1.457-1.472-3.855-1.472-5.359 0a4.304 4.304 0 0 0-1.034 2.991c-.047 1.092.329 2.136 1.034 2.991 1.504 1.472 3.902 1.472 5.359 0zM121 20.041v14.195c0 .142-.094.237-.235.237h-3.338c-.141 0-.235-.095-.235-.237v-1.424a5.404 5.404 0 0 1-4.56 1.899c-1.316 0-2.585-.285-3.761-.95-1.081-.617-2.021-1.519-2.632-2.611a7.918 7.918 0 0 1-.94-3.988 7.92 7.92 0 0 1 .94-3.988c.611-1.139 1.504-2.041 2.632-2.658s2.445-.949 3.761-.949c1.646-.095 3.244.57 4.372 1.756v-1.329c0-.143.094-.237.235-.237h3.526c.094.047.235.142.235.285zm-5.03 10.112a4.304 4.304 0 0 0 1.034-2.991c.047-1.092-.329-2.136-1.034-2.991-.705-.712-1.645-1.139-2.68-1.092-.987-.047-1.974.38-2.679 1.092a4.304 4.304 0 0 0-1.034 2.991 4.304 4.304 0 0 0 1.034 2.991 3.55 3.55 0 0 0 2.679 1.044 3.485 3.485 0 0 0 2.68-1.044zM49.78 14.772l-2.068 1.994c-.047.047-.094.095-.188.095a.351.351 0 0 1-.188-.095c-4.043-4.7-10.765-5.982-16.218-3.133s-8.274 9.162-6.769 15.192c1.551 5.982 6.911 10.112 13.022 10.112.094 0 .188 0 .188.142 0 .76-.094 3.038-.094 3.038 0 .142-.094.237-.235.237-7.192.095-13.633-4.558-15.889-11.489-1.692-5.127-.799-10.777 2.303-15.192s8.18-6.979 13.539-6.979c4.795 0 9.308 2.089 12.458 5.697.235.095.235.285.141.38zM36.759 49c-10.154-.237-18.945-7.074-21.812-16.901a23.67 23.67 0 0 1 9.308-26.11 22.587 22.587 0 0 1 13.069-3.988c.141 0 .235.095.235.237v3.038c0 .047-.047.142-.141.142A19.59 19.59 0 0 0 26.23 8.741c-7.239 4.89-10.483 14.005-8.039 22.455s10.107 14.29 18.851 14.432h.235c3.432 0 6.816-.854 9.778-2.564.141-.047.282 0 .329.095l1.41 2.469c.047.048.047.142.047.19s-.047.142-.141.142A22.81 22.81 0 0 1 37.323 49h-.564z"/>
    </symbol>
    <symbol id="i-standart" viewBox="0 0 134 51">
        <path d="M123.97 26.915c-1.084 0-1.58.109-2.351.508l.844-1.869H132l-.845 1.868c-.349-.326-.662-.508-1.451-.508h-1.691V34.5c0 .744.091 1.035.404 1.47h-3.307c.312-.436.404-.726.404-1.47v-7.586h-1.544zm-8.8-.109v4.791h.937c1.708 0 2.572-.835 2.572-2.486 0-1.597-.827-2.305-2.572-2.305h-.937zm1.305-1.252c3.16 0 4.758 1.179 4.758 3.502 0 2.269-1.819 3.72-4.758 3.72h-1.305V34.5c0 .744.091 1.035.404 1.47h-3.308c.313-.436.405-.726.405-1.47v-7.477c0-.744-.092-1.035-.405-1.47h4.209zm-13.064 6.878h3.546l-1.727-4.392-1.819 4.392zm4.061 1.288h-4.594l-.239.599c-.313.799-.368 1.09-.092 1.652h-2.554c.422-.436.717-.926 1.011-1.597l3.417-7.805c-.239-.436-.367-.599-.771-1.016h3.031l3.822 8.821c.295.689.552 1.125 1.048 1.597h-3.731c.294-.617.184-.926-.109-1.652l-.239-.599zm-15.343-2.414c0 1.526-.165 2.523-.771 3.34h3.564c.404 0 .515-.272.515-.544v-7.278h-2.793c-.368 0-.515.253-.515.525v3.957zm5.807 2.214c0 .854.33 1.452 1.323 1.707v1.815c-1.084-.78-1.709-1.071-2.811-1.071h-5.42c-1.01 0-1.782.345-2.793 1.07v-1.814c1.948-.708 2.242-2.142 2.242-4.084v-4.119c0-.744-.092-1.035-.404-1.47h8.269c-.313.434-.404.726-.404 1.47v6.497-.001zm-13.505-2.249h-4.483v3.23c0 .744.092 1.034.404 1.47h-3.308c.313-.436.405-.726.405-1.47v-7.477c0-.744-.092-1.035-.405-1.47h3.308c-.313.434-.404.726-.404 1.47v2.886h4.483v-2.886c0-.744-.092-1.035-.404-1.47h3.308c-.313.434-.405.726-.405 1.47v7.477c0 .744.092 1.035.405 1.47h-3.308c.313-.436.404-.726.404-1.47v-3.23zm-16.426 1.161h3.547l-1.728-4.392-1.819 4.392zm4.061 1.288h-4.594l-.239.599c-.312.799-.367 1.09-.092 1.652h-2.554c.423-.436.717-.926 1.011-1.597l3.418-7.805c-.239-.436-.368-.599-.772-1.016h3.032l3.822 8.821c.294.689.552 1.125 1.047 1.597h-3.73c.294-.617.184-.926-.111-1.652l-.239-.599zm-14.239-6.805c-1.084 0-1.58.109-2.352.508l.846-1.869h9.536l-.846 1.868c-.349-.326-.661-.508-1.451-.508h-1.691V34.5c0 .744.092 1.035.405 1.47h-3.308c.313-.436.404-.726.404-1.47v-7.586h-1.543zm-3.692-.472c-.864-.944-1.911-1.38-3.142-1.38-2.463 0-3.914 1.943-3.914 4.883 0 2.886 1.103 4.81 3.987 4.81 1.415 0 2.628-.726 3.583-1.706l.68 1.179c-1.323 1.125-2.518 1.942-4.961 1.942-3.731 0-6.12-2.251-6.12-6.134 0-3.485 2.591-6.262 6.486-6.262 1.691 0 2.426.327 3.455.327.459 0 .827-.091 1.287-.363l-1.341 2.705zm62.453-19.161c-.202.327-.313.598-.313.816 0 .291.239.636.919.636.698 0 .938-.344.938-.636 0-.236-.11-.489-.313-.816h.993c.165.218.422.617.422.998 0 .817-.753 1.307-2.04 1.307-1.267 0-2.039-.49-2.039-1.307 0-.381.257-.78.441-.998h.992zm2.812 4.61c0-.744-.092-1.035-.404-1.47h3.307c-.313.435-.405.726-.405 1.47v7.478c0 .744.093 1.034.405 1.47h-3.307c.312-.436.404-.726.404-1.47v-5.082l-4.484 4.772v.31c0 .744.092 1.034.404 1.47h-3.307c.312-.436.404-.726.404-1.47v-7.48c0-.743-.092-1.034-.404-1.47h3.307c-.312.436-.404.726-.404 1.47v5.082L119.4 12.2v-.31.001zm-12.457 0c0-.744-.092-1.035-.404-1.47h3.307c-.313.435-.404.726-.404 1.47v7.478c0 .744.091 1.034.404 1.47h-3.307c.312-.436.404-.726.404-1.47v-5.082l-4.484 4.772v.31c0 .744.092 1.034.405 1.47h-3.308c.313-.436.404-.726.404-1.47v-7.48c0-.743-.092-1.034-.404-1.47h3.308c-.313.436-.405.726-.405 1.47v5.082l4.484-4.772v-.31.001zM90.627 15.54l3.638-3.721c.625-.634.717-.889.698-1.397h3.234c-.79.526-1.287.98-1.856 1.543l-3.142 3.103 3.418 4.121c.753.926 1.102 1.215 1.855 1.651h-4.135c.019-.454-.055-.744-.459-1.252l-3.253-3.92v3.702c0 .744.092 1.034.404 1.47h-3.307c.313-.436.404-.726.404-1.47v-7.48c0-.743-.092-1.034-.404-1.47h3.307c-.312.436-.404.726-.404 1.47v3.649zm-8.598 5.499c-2.793 0-5.016-1.761-5.016-5.353 0-3.105 2.242-5.446 5.641-5.446 1.378 0 2.187.327 2.885.327a1.71 1.71 0 0 0 .938-.254l-.974 2.305a3.47 3.47 0 0 0-2.646-1.143c-2.04 0-3.198 1.652-3.198 4.211 0 2.396.919 3.975 3.014 3.975a4.31 4.31 0 0 0 1.865-.417 4.29 4.29 0 0 0 1.498-1.181l.478 1.162c-1.194 1.198-2.388 1.815-4.484 1.815zm-10.013 0c-2.793 0-5.016-1.761-5.016-5.353 0-3.105 2.242-5.446 5.641-5.446 1.378 0 2.187.327 2.885.327.33 0 .588-.055.937-.254l-.974 2.305c-.533-.563-1.341-1.143-2.646-1.143-2.04 0-3.197 1.652-3.197 4.211 0 2.396.918 3.975 3.013 3.975a4.31 4.31 0 0 0 1.865-.417 4.293 4.293 0 0 0 1.498-1.181l.478 1.162c-1.194 1.198-2.389 1.815-4.483 1.815zm-11.06-.418-3.804-8.457c-.386-.835-.735-1.362-1.102-1.743h3.73c-.276.526-.184 1.125.037 1.652l2.37 5.535 2.076-5.554c.184-.525.313-1.107.074-1.633h2.646c-.441.436-.643.799-.918 1.543l-2.959 7.678c-.808 2.104-1.801 3.938-4.3 3.938-1.139 0-2.002-.326-2.848-1.071l.735-1.47c.478.69 1.103 1.252 2.15 1.252.956 0 1.635-.58 2.113-1.67zM49.839 10.185h-1.176v5.445h1.176c1.856 0 2.848-.998 2.848-2.759 0-1.724-.938-2.686-2.848-2.686zm-3.786.018c0-.744-.092-1.034-.405-1.47h4.594c3.289 0 5.127 1.452 5.127 4.065 0 2.668-1.911 4.283-5.127 4.283h-1.579v2.287c0 .744.092 1.033.404 1.47h-3.419c.313-.436.405-.726.405-1.469v-9.166zm-26.129 5.478c.194-.092.709-.329 1.053-.429 0 0-.296 1.018-.243 2.679a14.74 14.74 0 0 1 1.865-.17c-1.029-.378-.972-2.321-.276-3.312.203-.289-.032-.318-.295-.236l-.9.313s.158-2.584 2.423-4.618c-2.14.911-3.754 3.949-3.627 5.772zm9.861-4.623c-.134 1.016-.358.97-.596.889-.436-.147-1.217-.241-1.521-.123.829.722 1.385 1.812 1.385 1.812.078-.361-.118-.91-.205-1.101-.067-.145.009-.123.18-.078l.477.137c.307.108.343-.035.378-.268.047-.267.076-.669-.098-1.269zm-4.678-4.057c-.543.354-1.144.868-1.528 1.715-.066.141.043.296.256.176a4.605 4.605 0 0 1 1.033-.396c-.136-.437.398-1.159.651-1.46.077-.091.005-.285-.412-.035zm8.564 8.668c-.231.788-.746 1.185-1.052 1.273-.499.142-.933-.024-.933-.024l-.369.377c-.197.186-.282.05-.268-.062s.037-.232-.046-.371c-.133-.221-.293-.006-.51.065-.21.069-.271-.206-.271-.206-1.173-.234-1.725.36-1.725.36.851.117 1.255.657 1.32.928.049.206.574.206.804.045.058-.041.218-.124.203.087a1.84 1.84 0 0 1-.071.363c.4.217.519.262.391.482-.458.793-.859.669-.964.633-1.683-.609-3.272-.871-4.264-.91.129-.181.545-.537.545-.537-6.83 0-7.983.822-8.341 1.268-.238.3-.031.771-.031.771-.816.155-2.843.515-3.776 1.335-.838.736-.903 2.375-.933 2.976a4.79 4.79 0 0 1 1.277-.886c.921-.437 1.995-.354 3.385-.304.584.02.883.247 1.057.588s-.245.3-.482.148c-1.171-.755-1.598.639-2.861.268.39.48.937.477 1.24.364 1.259-.474 1.566.027 1.633.149-.817-.046-2.093.448-2.719.582-.776.169-1.514.192-1.514.192.509.614 1.251.614 1.788.614.545 0 2.296-.142 3.342-.035 2.684.271 2.848 2.731 1.283 4.247 1.275-.346 1.782-1.564 1.782-1.564.92 4.16-2.915 6.364-6.043 5.717a9.456 9.456 0 0 1-3.587-1.587 14.27 14.27 0 0 1-1.39-1.146c2.069.531 5.186.559 7.329-.417-4.115.053-6.908-.999-8.833-2.03-.783-.42-.965-.575-1.243-1.064-.611-1.079-1.005-2.058-1.389-3.492 1.589 1.383 4.988 3.232 6.645 3.385-4.265-2.465-6.363-6.076-6.581-6.477-.179-.333-.496-.682-.455-1.472.056-1.051.379-2.615.763-3.663.506 1.444 1.779 4.061 3.28 5.303-1.506-3.186-1.736-7.297-1.708-8.001.013-.322.074-.584.35-.976a15.25 15.25 0 0 1 2.132-2.345c-.192 1.137-.485 3.437-.058 5.649.582-3.466 1.918-6.128 2.837-7.309.191-.245.318-.421.662-.595.413-.21 1.567-.711 2.936-1.013-1.178.804-2.145 2.396-2.46 3.255 4.005-3.842 7.858-3.813 10.11-4.822.445-.198.695.185.666.468-.04.362-.195.965-.195.965 1.379.333 1.968 1.006 1.968 1.006-.045-.178-.022-.487-.022-.487 1.887 1.67 2.512 2.951 2.454 3.994-.05.942.677 1.461 1.067 1.671s1.913 1.162 2.201 1.408c.229.195-.103.631-.356.86zM28.036 26.56c.531.146 1.293.246 1.79.017-2.388-.61-3.72-3.943-9.129-4.419-.266-.023-.802.046-.465-.465s2.45-1.977 2.45-1.977c-.408 0-2.224.158-2.769.234s-.675-.104-.698-.465c0 0-1.094 1.024-.573 1.546.081.078.314.105.596-.026a6.35 6.35 0 0 1 .967-.316c.038-.007.077.013.046.061-.122.197-.435.706-.518.949-.101.314-.126.47.364.621.487.157 2.975.931 4.507 1.961 1.516 1.03 5.127 3.828 4.93 9.028a15.192 15.192 0 0 0 2.042-1.657c.108-.103.083-.269.063-.331-.522-1.537-1.979-3.761-3.601-4.761zm7.878-5.167c-.001-.157-.076-.199-.114-.214-1.501-.612-2.465-.821-2.465-.821a1.48 1.48 0 0 0 .758-.9 5.51 5.51 0 0 1-2.771.594c1.394.568 3.249 1.535 4.533 2.605a13.21 13.21 0 0 0 .058-1.264zm-1.056 4.786c-2.166-1.864-4.78-3.116-7.221-3.573 2.535 1.106 4.969 3.704 6.198 6.203a13.81 13.81 0 0 0 1.131-2.301c.053-.163-.043-.272-.108-.329zm-9.11 2.003c1.588 1.733 1.372 4.959.839 6.454-.026.076-.071.23-.256.287-.911.337-1.971.565-2.548.652 2.48-2.236 2.852-5.463 1.964-7.393zM21.463 2C10.712 2 2 10.672 2 21.369s8.713 19.368 19.462 19.368 19.463-8.671 19.463-19.368S32.212 2 21.463 2zm0 36.721c-9.612 0-17.43-7.779-17.43-17.343S11.85 4.029 21.463 4.029s17.433 7.781 17.433 17.349-7.82 17.344-17.433 17.343zm51.623 6.415 2.657-2.713c.457-.462.523-.648.51-1.018h2.415a8.537 8.537 0 0 0-1.382 1.125l-2.268 2.262 2.496 3.005c.55.674.805.886 1.355 1.203h-3.072c.014-.33-.041-.542-.336-.912l-2.375-2.859v2.701c0 .542.067.754.295 1.071h-2.47c.229-.317.296-.529.296-1.071v-5.451c0-.544-.067-.755-.296-1.072h2.47c-.228.317-.295.529-.295 1.072v2.659zm-5.956.464h-3.381v2.329c0 .542.067.754.295 1.071h-2.47c.228-.317.296-.529.296-1.071v-5.451c0-.544-.068-.755-.296-1.072h2.47c-.229.317-.295.529-.295 1.072v2.103h3.382v-2.103c0-.544-.068-.755-.295-1.072h2.468c-.228.317-.295.529-.295 1.072v5.451c0 .542.067.754.295 1.071h-2.468c.228-.317.295-.529.295-1.071V45.6zm-12.303.819h2.59l-1.262-3.201-1.329 3.201zm2.966.967h-3.355l-.174.41c-.228.582-.268.794-.067 1.204h-1.892c.308-.317.51-.675.738-1.165l2.469-5.624a2.73 2.73 0 0 0-.577-.807h2.334l2.791 6.43c.214.503.402.821.765 1.165h-2.778c.214-.45.134-.675-.081-1.203l-.174-.41zm-9.23.688c.953 0 1.597-.37 1.597-1.377 0-1.032-.631-1.416-1.584-1.416h-.616v2.792h.604zM45.786 49c.228-.317.295-.529.295-1.071v-5.451c-.001-.544-.067-.755-.295-1.072h5.797l-.551 1.284c-.241-.212-.509-.331-1.087-.331h-1.986v2.024h.832c1.824 0 3.167.61 3.167 2.315 0 1.722-1.343 2.302-3.167 2.302h-3.005z"/>
    </symbol>
    <symbol id="i-vtb" viewBox="0 0 134 51">
        <path d="M39.434 8.792H8.664L10.88 3h30.77l-2.216 5.792zm-1.108 2.896H7.541L5.325 17.48h30.77l2.231-5.792zM35 20.351H4.217L2 26.143h30.742L35 20.351zm78.459 21.604h5.571a4.966 4.966 0 0 0 2.338-.289 4.86 4.86 0 0 0 1.924-1.331 5.124 5.124 0 0 0 1.086-3.418 4.625 4.625 0 0 0-.428-2.278 4.76 4.76 0 0 0-1.48-1.807 5.67 5.67 0 0 0-3.496-.872h-5.515v9.994zm-7.313 6.032V12.014h23.943l-2.103 6.032h-14.527v7.965h5.919c4.777 0 7.257 1.117 8.97 2.546a10.592 10.592 0 0 1 2.817 3.855 10.36 10.36 0 0 1 .818 4.669 10.134 10.134 0 0 1-1.009 4.99 10.39 10.39 0 0 1-3.323 3.915c-2.298 1.552-4.708 1.988-9.61 1.988l-11.895.014zm-21.198 0V18.032H74.307v-6.017h29.541l-2.103 6.031H92.33V48l-7.382-.014zM55.463 26.419h4.178a9.07 9.07 0 0 0 2.549-.19 4.02 4.02 0 0 0 2.124-1.566 3.87 3.87 0 0 0 .662-2.519 3.57 3.57 0 0 0-.618-2.512 3.72 3.72 0 0 0-2.168-1.477 10.39 10.39 0 0 0-2.785-.245h-3.942v8.51zm0 6.223v9.435h5.097a5.567 5.567 0 0 0 3.942-1.062 4.7 4.7 0 0 0 1.189-1.684 4.61 4.61 0 0 0 .343-2.019 5.04 5.04 0 0 0-.975-3.077c-1.086-1.362-2.423-1.62-4.707-1.62l-4.889.028zm11.783-3.799v.122a12.987 12.987 0 0 1 3.441 1.934 8.515 8.515 0 0 1 2.421 3.155 8.31 8.31 0 0 1 .699 3.884c0 4.915-2.674 8.469-7.062 9.531a19.16 19.16 0 0 1-5.348.504H48.15V12.014h11.783a22.28 22.28 0 0 1 5.571.504c4.262 1.117 7.062 3.989 7.062 8.523a7.79 7.79 0 0 1-.561 3.164 7.95 7.95 0 0 1-1.793 2.691 8.95 8.95 0 0 1-2.897 1.92l-.07.027z"/>
    </symbol>
    <symbol id="i-place_black_24dp" viewBox="0 0 24 24">
        <path d="M12 12c-1.1 0-2-.9-2-2s.9-2 2-2 2 .9 2 2-.9 2-2 2Zm6-1.8C18 6.57 15.35 4 12 4s-6 2.57-6 6.2c0 2.34 1.95 5.44 6 9.14 4.05-3.7 6-6.8 6-9.14ZM12 2c4.2 0 8 3.22 8 8.2 0 3.32-2.67 7.25-8 11.8-5.33-4.55-8-8.48-8-11.8C4 5.22 7.8 2 12 2Z"/>
    </symbol>
    <symbol id="i-login_black_24dp" viewBox="0 0 24 24">
        <path d="M10.3 7.7a.984.984 0 0 0 0 1.4l1.9 1.9H3c-.55 0-1 .45-1 1s.45 1 1 1h9.2l-1.9 1.9a.984.984 0 0 0 0 1.4c.39.39 1.01.39 1.4 0l3.59-3.59a.996.996 0 0 0 0-1.41L11.7 7.7a.984.984 0 0 0-1.4 0ZM20 19h-7c-.55 0-1 .45-1 1s.45 1 1 1h7c1.1 0 2-.9 2-2V5c0-1.1-.9-2-2-2h-7c-.55 0-1 .45-1 1s.45 1 1 1h7v14Z"/>
    </symbol>
    <symbol id="i-menu_black_24dp" viewBox="0 0 24 24">
        <path d="M4 18H20C20.55 18 21 17.55 21 17C21 16.45 20.55 16 20 16H4C3.45 16 3 16.45 3 17C3 17.55 3.45 18 4 18ZM4 13H20C20.55 13 21 12.55 21 12C21 11.45 20.55 11 20 11H4C3.45 11 3 11.45 3 12C3 12.55 3.45 13 4 13ZM3 7C3 7.55 3.45 8 4 8H20C20.55 8 21 7.55 21 7C21 6.45 20.55 6 20 6H4C3.45 6 3 6.45 3 7Z"/>
    </symbol>
    <symbol id="i-blank" viewBox="0 0 96 96">
        <path d="M35.16 9.188c-.543.187-1.35.6-1.78.9-.976.675-16.857 16.237-17.607 17.268-1.162 1.575-1.106 0-1.106 26.813 0 21.3.037 24.656.281 25.612.713 2.757 2.475 5.063 4.894 6.32 2.531 1.33 1.05 1.274 27.919 1.274 26.793 0 25.387.056 27.843-1.237 2.25-1.182 3.957-3.225 4.838-5.794l.506-1.5-.037-30.3c-.038-33.263.018-31.706-1.163-34.238-.637-1.35-2.231-3.13-3.6-4.012-.506-.319-1.556-.788-2.325-1.031l-1.425-.45-18.131.018c-17.156 0-18.188.02-19.106.357Zm37.65 3.525c1.876.75 3.244 2.268 3.844 4.275.207.712.263 6.056.263 31.593.019 30.17.019 30.75-.356 31.557-.488 1.143-1.875 2.475-3.17 3.075l-1.068.506h-49.5l-1.069-.525a6.688 6.688 0 0 1-3.093-3.094l-.525-1.069-.057-24.056-.037-24.037h7.012c6.507 0 7.107-.02 8.232-.375 1.65-.507 3.037-1.763 3.806-3.413l.544-1.181.056-6.656c.019-3.657.094-6.77.131-6.9.075-.188 3.319-.225 17.006-.188l16.932.056 1.05.432ZM34.26 24.73c-.15 1.032-.993 1.95-2.062 2.25-.862.225-11.419.3-11.306.057.037-.075 2.925-2.925 6.431-6.338 3.506-3.412 6.506-6.356 6.656-6.544.244-.3.282.188.338 4.707.037 2.775 0 5.418-.056 5.868Z"/>
        <path d="M51.605 33.375v1.875h18.75V31.5h-18.75v1.875ZM25.355 45.563v1.874h8.25v-3.75h-8.25v1.876ZM38.48 45.563v1.874h31.875v-3.75H38.48v1.876ZM25.355 58.125V60h29.062v-3.75H25.355v1.875ZM59.105 58.125V60h11.25v-3.75h-11.25v1.875ZM28.805 67.838c-1.65.768-2.457 2.437-2.644 5.4-.132 2.08.112 2.943.956 3.468.806.488 1.313.45 2.025-.169.581-.543.581-.562.619-2.4.056-2.456.225-2.887 1.181-2.887.863 0 1.144.206 3.487 2.381 2.194 2.063 3.563 2.738 5.42 2.738 1.593 0 2.4-.3 3.506-1.294 1.125-1.013 1.725-2.325 1.837-3.919.15-2.4-.487-3.544-1.987-3.544-.507 0-.77.15-1.22.638-.505.581-.543.694-.45 1.688.15 1.687-.43 2.624-1.65 2.624-.787 0-1.593-.525-3.43-2.268-2.25-2.119-3.338-2.681-5.382-2.757-1.162-.037-1.669.038-2.268.3Z" fill="currentColor"/>
    </symbol>
    <symbol id="i-bag" viewBox="0 0 96 96">
        <path d="M42.469 1.762c-.413.132-1.2.47-1.725.732-1.35.693-2.981 1.106-3.806.937-.357-.056-1.22-.337-1.894-.637-1.688-.675-2.269-.788-3.094-.563-1.087.3-1.575.881-1.575 1.838 0 .656.225 1.237 1.106 2.83.6 1.107 1.875 3.563 2.831 5.476 3.92 7.894 5.72 9.375 12.02 9.937 7.593.675 12.75-.356 15.28-3.037 1.313-1.388 2.607-3.581 5.682-9.6 2.944-5.756 3-5.906 1.894-6.9-.938-.863-1.5-.844-4.425.112-6.45 2.1-9.844 2.12-15.394.038-3.863-1.444-5.25-1.688-6.9-1.163Zm5.343 4.5c3.15 1.182 4.594 1.575 6.976 1.838 2.38.262 5.85 0 7.93-.6.713-.206 1.426-.375 1.557-.375.3 0-3.469 7.294-4.538 8.719-.562.768-1.143 1.312-1.8 1.668-1.743.938-2.587 1.088-7.05 1.182-8.53.187-9.15-.188-13.387-8.157-.919-1.762-1.688-3.225-1.688-3.262 0-.056.657-.094 1.463-.094 1.556-.019 3.581-.581 5.25-1.462 1.256-.675 2.381-.563 5.288.543ZM35.231 24.15c-4.856 3.169-9.187 8.1-12.056 13.706-3.338 6.525-6.131 16.05-7.219 24.581-.881 6.882-.993 16.332-.243 19.182.993 3.675 3.112 5.831 6.693 6.806.75.206 2.419.338 5.063.45 4.669.169 4.819.206 8.812 2.25 5.531 2.831 7.688 3.3 14.719 3.131 2.756-.056 6.131-.281 9-.581 5.156-.563 5.662-.544 10.219.3 4.05.731 6.056.863 7.5.431 1.33-.375 2.4-1.35 2.7-2.437.3-1.125.243-3.169-.17-5.456-.805-4.52-.805-4.388-.187-9.432.77-6.394 1.013-10.012.863-13.987-.375-11.682-3.281-20.588-9.019-27.75-1.819-2.27-9.6-9.975-10.556-10.425l-.844-.413-2.55.413c-9.394 1.518-15.019 1.218-19.087-1.032-.638-.356-1.407-.637-1.706-.637-.338 0-1.07.337-1.932.9Zm2.606 3.487c4.144 2.063 11.288 2.532 18.938 1.238 1.162-.206 2.306-.413 2.55-.488.356-.075.75.207 2.287 1.67 2.194 2.08 6.582 6.955 8.1 9 2.325 3.112 3.675 5.774 5.175 10.33 1.463 4.388 2.12 8.42 2.307 14.082.112 4.125-.02 6.206-.882 13.35-.543 4.444-.562 4.593-.28 6.656.15 1.163.412 2.775.562 3.581.337 1.8.356 3.244.056 3.45-.488.281-2.981.075-6.056-.525-2.832-.543-3.525-.618-6.188-.6-1.65 0-4.425.15-6.187.319-6.488.656-12.375.581-15.394-.169-.6-.15-2.756-1.087-4.763-2.062-5.68-2.775-5.718-2.775-10.312-2.831-4.913-.038-6.113-.338-7.556-1.932-1.425-1.575-1.744-4.2-1.463-11.775.3-7.894 1.125-13.444 2.925-19.631 2.888-9.994 5.7-15.413 10.444-20.156 1.462-1.463 4.462-3.957 4.762-3.957.057 0 .488.207.975.45Z"/>
        <path d="M61.369 45.712c-2.7.957-4.2 3.094-4.181 5.925.018.638.13 1.482.28 1.894.15.413.282.806.282.882 0 .075-2.138 2.606-4.744 5.643-3.45 4.013-4.837 5.475-5.025 5.382-.787-.432-3.262-.376-4.519.093-.187.075-1.068-.731-2.756-2.512l-2.475-2.625.282-.975c.693-2.306.168-4.631-1.388-6.188-2.625-2.625-6.394-2.644-8.925-.056-2.25 2.325-2.156 6.244.225 8.625 1.387 1.369 2.662 1.838 4.669 1.688.825-.057 1.706-.15 1.968-.207.413-.093.77.206 2.85 2.438l2.382 2.531-.413.881c-.6 1.35-.562 3.582.094 4.838.6 1.162 2.119 2.625 3.3 3.131 1.275.581 3.563.581 4.763.019 2.85-1.313 4.218-4.275 3.43-7.406l-.318-1.275 1.481-1.725c.806-.957 2.925-3.432 4.725-5.494 1.8-2.063 3.282-3.769 3.282-3.788.018-.018.487.094 1.05.244 2.287.6 4.275.094 5.943-1.481 1.294-1.219 1.781-2.457 1.8-4.556.019-1.294-.056-1.67-.487-2.57-1.369-2.793-4.838-4.33-7.575-3.355Zm3.6 3.582c.694.394 1.406 1.594 1.406 2.419 0 .843-.412 1.706-1.106 2.362-.469.45-.788.563-1.65.637-.9.057-1.2 0-1.725-.375-.956-.637-1.369-1.33-1.481-2.362-.225-2.419 2.362-3.956 4.556-2.681Zm-30.675 5.625c1.856 1.331 1.631 4.181-.413 5.156-1.387.637-3.037.075-3.825-1.294-.9-1.593-.244-3.506 1.444-4.2.712-.3 2.119-.131 2.794.338Zm12.019 13.519c2.174.6 2.737 3.412 1.03 5.062-.524.525-.824.638-1.687.713-.9.075-1.106.018-1.706-.432-.919-.712-1.388-1.537-1.388-2.494 0-1.35.675-2.287 2.007-2.775.881-.3.918-.3 1.743-.075Z" fill="currentColor"/>
    </symbol>
    <symbol id="i-cashbox" viewBox="0 0 96 96">
        <path d="M17.269 21c-.732.169-1.444.656-1.97 1.387-.393.507-.393.77-.524 14.888-.15 15.731-.131 16.2.881 21.881 1.556 8.682 1.65 9.713 1.763 21.657.112 10.537.13 10.8.525 11.662.75 1.613-2.194 1.481 29.512 1.425l28.2-.056.919-.469c1.819-.919 1.687-.15 1.819-11.4.13-10.875.093-10.594 1.575-19.575 1.387-8.494 1.312-7.181 1.312-23.869V23.344l-.469-.806c-.243-.45-.75-.994-1.125-1.22-.637-.393-.88-.412-5.943-.468l-5.288-.056-.056 6.112-.056 6.132-.507.43c-.337.282-.862.488-1.5.563-.543.056-9.206.094-19.237.056l-18.263-.056-.45-.525-.45-.525V20.812l-5.006.02c-2.775.018-5.306.093-5.662.168Zm6.768 8.1c.094 4.8.207 5.456 1.275 6.75.32.375 1.05.919 1.65 1.219l1.07.525h40.312l.768-.413c1.182-.637 1.82-1.237 2.42-2.343l.562-.994.056-4.556.056-4.538H77.625l-.113 14.381c-.112 15.825-.093 15.788-1.387 23.775-1.369 8.513-1.388 8.813-1.406 18.563v8.812l-26.57.056-26.568.038-.075-10.631c-.075-11.888-.075-11.775-1.612-19.369-.9-4.388-1.294-7.2-1.37-9.469-.018-.937-.037-7.2 0-13.931l.038-12.225h5.4l.075 4.35Z"/>
        <path d="M40.444 3.844c-1.088.975-2.044 1.781-2.138 1.781-.075 0-.694-.487-1.368-1.088-1.97-1.78-2.776-2.287-3.6-2.287-.807 0-1.37.45-1.707 1.369-.169.45-.206 4.068-.169 13.575l.038 12.994H35.437V19.313c0-5.982.038-10.875.094-10.875s.619.43 1.257.956c1.462 1.219 1.78 1.181 3.656-.544a94.58 94.58 0 0 1 2.025-1.781l.637-.525 1.969 1.781c1.087.994 2.175 1.838 2.438 1.913.693.168 1.48-.338 4.106-2.682l1.106-.994L54.75 8.42c1.106 1.012 2.194 1.912 2.4 1.968.488.17.975-.093 2.119-1.03.487-.413.937-.732.994-.732.056 0 .112 4.894.112 10.875v10.875h3.75V2.981l-.487-.45c-1.088-1.012-2.1-.581-4.988 2.138l-1.163 1.087-2.025-1.837c-2.737-2.531-2.793-2.531-5.775.206l-1.78 1.65-.582-.506a123.073 123.073 0 0 1-2.119-1.857c-2.119-1.874-2.212-1.874-4.762.432Z M30.431 46.969c-.712.3-1.181 1.125-1.181 2.062 0 .6.206.882 1.725 2.457l1.706 1.762-1.612 1.65c-.919.956-1.669 1.875-1.744 2.194-.262 1.069 1.012 2.587 2.175 2.587.488 0 .881-.28 2.344-1.743l1.781-1.763 1.744 1.725c1.593 1.556 1.837 1.725 2.475 1.725.956 0 1.968-.994 1.968-1.931 0-.75-.337-1.256-2.137-3.225l-1.294-1.425 1.519-1.538c.825-.843 1.594-1.743 1.688-2.025.262-.693.075-1.368-.563-2.025-1.181-1.218-2.006-.975-3.975 1.125-.75.825-1.444 1.482-1.537 1.482-.094 0-.807-.638-1.575-1.425-1.22-1.238-2.25-1.97-2.757-1.95a6.434 6.434 0 0 0-.75.28ZM55.369 47.813c-.469.187-.994 1.087-.994 1.687 0 .206.131.675.281 1.05.488 1.163.9 1.238 6.956 1.163l5.325-.057.507-.525c.431-.431.525-.675.525-1.462 0-.844-.075-1.013-.619-1.5l-.6-.544-5.494.019c-3 0-5.662.075-5.887.169ZM55.5 56.569c-.356.187-.769.562-.9.843-.319.675-.113 1.782.45 2.344.431.431.431.431 6.056.431 5.588 0 5.625 0 6.113-.43.375-.3.525-.657.6-1.276.093-.769.037-.937-.47-1.5l-.562-.637-5.325-.056c-4.762-.038-5.38-.02-5.962.28ZM34.744 66.581c-1.031.3-1.181.713-1.181 3.394v2.4H31.05c-2.362 0-2.569.019-3.037.431-.375.338-.525.656-.582 1.388-.093.843-.037.993.47 1.575l.562.637 2.55.056 2.55.075V81.15l.6.506c.525.431.731.506 1.5.431.6-.075 1.069-.243 1.369-.525.45-.43.468-.525.468-2.85v-2.4h2.344c1.275 0 2.531-.093 2.775-.206 1.069-.487 1.406-2.194.619-3.112-.45-.525-.488-.525-3.056-.62l-2.588-.093-.094-2.362c-.093-2.382-.206-2.794-.919-3.15a2.603 2.603 0 0 0-1.837-.188ZM55.031 73.013c-.862.862-.843 2.418.038 3.112.469.356.731.375 6.375.375 3.675 0 6.037-.075 6.262-.188.507-.28.92-1.162.92-1.968 0-.506-.15-.825-.545-1.238l-.543-.543H55.48l-.45.45Z" fill="currentColor"/>
    </symbol>
    <symbol id="i-cooperation" viewBox="0 0 96 96">
        <path d="M41.499 4.244c-3.379.62-5.113 1.648-6.775 4.076-.759 1.116-1.03 1.347-2.186 1.95-2.366 1.222-3.143 2.197-3.92 4.908-.415 1.47-.38 8.151.054 10.331.38 1.932.361 1.985-.343 2.215-.759.248-1.752 1.17-2.204 2.056-.723 1.418-.307 7.088.686 9.57.398.991 2.168 2.994 3.18 3.632.271.177.506.638.759 1.524.722 2.552 2.42 5.883 3.848 7.478.776.886 1.066 1.719 1.084 3.119.036 3.367-2.295 5.263-8.78 7.177-7.497 2.215-12.43 4.784-16.133 8.4-2.818 2.764-4.137 5.156-4.57 8.31C6.09 79.754 6 82.536 6 85.159v4.802l.524.514c.65.62 1.716.709 2.385.177l.433-.337.109-5.564c.09-5.05.126-5.653.487-6.699 1.41-4.164 5.763-7.868 12.592-10.72 1.102-.462 3.703-1.383 5.817-2.074 5.33-1.737 7.678-3.119 9.16-5.44 1.137-1.755 1.607-4.271 1.21-6.504-.29-1.595-.687-2.428-1.807-3.88-1.156-1.49-2.583-4.342-3.107-6.203-.488-1.772-.723-2.25-1.427-2.782-2.132-1.595-2.421-2.003-2.819-3.987-.252-1.33-.343-4.572-.144-5.086.072-.177.325-.284.632-.284.85 0 1.753-.46 2.168-1.099.325-.514.361-.762.271-2.18-.054-.885-.217-2.02-.361-2.551-.596-2.127-.542-9.162.09-10.774.072-.195.614-.62 1.192-.922 1.68-.886 3.072-2.055 3.668-3.083 1.011-1.755 2.06-2.357 5.112-2.906 2.276-.408 7.172-.39 9.611.035 2.439.408 5.69 1.4 7.226 2.18 2.403 1.24 4.336 3.686 5.059 6.415.252.921.289 1.612.216 3.455-.072 1.258-.234 2.782-.36 3.367-.145.585-.416 2.127-.597 3.403-.307 2.215-.307 2.392-.018 2.977.343.708 1.264 1.329 1.969 1.329.307 0 .56.142.687.336.47.869-.037 5.972-.723 7.266-.18.354-.921 1.187-1.626 1.878-1.481 1.418-1.86 2.038-2.24 3.704-.38 1.595-1.265 3.42-2.547 5.228-1.59 2.268-1.77 2.782-1.861 5.192-.072 1.754-.018 2.25.307 3.314 1.03 3.313 4.155 5.83 9.123 7.3 8.78 2.606 12.61 4.378 15.807 7.337 1.951 1.79 3.523 4.253 4.01 6.291.127.603.254 2.977.326 6.255l.108 5.299.506.425c.922.78 2.186.479 2.656-.638.343-.797.145-10.437-.253-12.138-.343-1.542-1.608-4.076-2.782-5.582-3.342-4.324-8.473-7.213-17.542-9.853-3.956-1.152-5.925-2.038-7.208-3.208-1.192-1.116-1.734-2.268-1.752-3.774 0-1.772.18-2.304 1.463-4.2 1.427-2.073 2.511-4.27 2.981-6.06.325-1.241.416-1.383 1.752-2.677 1.897-1.843 2.511-2.994 2.945-5.546.47-2.765.488-5.706.018-6.716-.38-.85-1.246-1.79-2.023-2.18-.56-.284-.578.089.198-3.81.326-1.613.416-2.623.416-4.785 0-3.207-.307-4.625-1.536-7.07-1.373-2.712-4.19-5.033-7.804-6.397-1.77-.674-5.022-1.507-6.865-1.755-1.95-.266-8.743-.212-10.333.071Z"/>
        <path d="M43.85 64.285c-.63.4-.993 1.165-.993 2.104 0 .452-.344 2.834-.783 5.268-2.254 12.884-2.31 13.353-1.834 14.17.153.296 1.7 1.791 3.419 3.339L46.791 92h2.254l3.399-3.078c2.731-2.468 3.418-3.199 3.514-3.668.172-.835-.153-3.06-1.547-10.833-.668-3.686-1.28-7.32-1.356-8.067-.114-1.2-.21-1.46-.668-1.86-.879-.818-2.33-.592-2.96.469-.44.765-.306 2.886.477 6.78.325 1.618.974 5.148 1.451 7.825l.84 4.869-2.08 1.912-2.102 1.913-2.1-1.913-2.12-1.93.764-4.677c1.126-6.885 1.28-7.807 1.718-9.876.23-1.026.401-2.573.401-3.425 0-1.496-.019-1.548-.592-1.982-.668-.522-1.585-.592-2.234-.174Z" fill="currentColor"/>
    </symbol>
    <symbol id="i-flower" viewBox="0 0 96 96">
        <path d="M56.0814 7.40612C52.8189 11.2686 51.3939 13.3311 50.0439 16.2186C47.6627 21.2811 47.9439 25.9124 50.9439 31.0311C52.5564 33.7874 56.3439 39.0936 56.8689 39.3374C57.7502 39.7686 58.4814 39.3186 60.4314 37.2374C64.5377 32.8311 65.2314 31.6124 65.4002 28.4999C65.4564 27.0561 65.4002 26.3811 65.0814 25.1436C64.6314 23.3061 63.0564 19.3311 61.4064 15.7499C59.8877 12.4686 59.1564 10.1999 58.6877 7.33112C58.4814 6.05612 58.2939 4.98737 58.2564 4.94987C58.2377 4.91237 57.2439 6.01862 56.0814 7.40612ZM56.9814 13.8186C58.4814 16.7999 61.4064 24.0374 61.8939 25.9311C62.2314 27.3374 62.0252 29.2686 61.3877 30.4686C60.8252 31.5374 57.9752 34.9124 57.7502 34.7811C57.6752 34.7436 56.8689 33.5811 55.9314 32.2124C52.8002 27.5999 52.0877 25.9124 52.0502 23.1561C52.0314 21.2436 52.2939 20.0249 53.1564 17.9624C53.7002 16.6874 56.1002 12.7499 56.3439 12.7499C56.3814 12.7499 56.6814 13.2374 56.9814 13.8186Z M19.35 31.725C21.1125 37.5 23.175 42.1687 25.3688 45.3562C26.625 47.1937 29.3813 49.9687 30.9375 50.9625C33.75 52.7812 36.9375 53.6062 41.9063 53.7562C46.2188 53.8875 47.8688 53.6625 48.6188 52.875C49.3125 52.1062 49.2938 51.3187 48.5625 50.5875L47.9813 50.025L46.1625 50.175C42 50.55 37.9688 50.175 35.3438 49.1437C30.9188 47.4375 27.4125 43.2187 24.6375 36.3187C23.7375 34.0687 23.6813 33.8437 24.0938 34.0125C24.8063 34.275 28.0125 34.7062 31.875 35.0625C38.25 35.625 40.6313 36.075 43.4813 37.2562C46.5938 38.5312 48.675 40.35 49.9688 42.9187C50.775 44.5125 51.9188 48.2812 52.1625 50.0812C52.3688 51.6937 52.3688 51.7312 51.7875 53.4C51.45 54.3375 51.1875 55.3312 51.1875 55.5937C51.1875 56.3062 52.1813 57.1875 52.95 57.1875C53.85 57.1875 54.2438 56.775 54.8625 55.275C55.3875 53.9625 55.4063 53.7937 55.4063 51L55.3875 48.0937L54.6188 45.8062C53.1375 41.4937 51.9188 39.3187 49.8938 37.4437C46.4625 34.275 41.325 32.6437 31.6875 31.6875C25.5188 31.0687 24.225 30.8062 20.7938 29.5312C19.5563 29.0625 18.5063 28.6875 18.4688 28.6875C18.45 28.6875 18.8438 30.0562 19.35 31.725Z M81.5624 34.2562C79.1249 35.7937 78.0561 36.2437 74.7186 37.0687C71.4749 37.8562 66.4874 39.3749 64.5374 40.1437C62.6249 40.8937 61.5937 41.5874 60.2999 42.9374C58.4999 44.8312 57.9562 46.4249 57.3749 51.5999C56.9249 55.6124 56.9062 56.6624 57.2999 57.4687C57.8437 58.6499 59.2124 58.7624 60.0937 57.7124C60.4874 57.2437 60.5624 56.9624 60.5624 55.9499C60.5624 54.1874 61.0687 49.5749 61.4062 48.2812C61.7999 46.7812 62.4187 45.7874 63.5624 44.7562C65.0249 43.4249 67.6686 42.4687 75.5436 40.4249C77.3436 39.9562 78.8436 39.5999 78.8999 39.6562C79.0874 39.8249 77.7561 43.6499 76.9311 45.2624C75.8624 47.4187 75.2249 48.3187 74.0624 49.3687C72.2061 51.0374 69.5999 51.9187 65.5311 52.2937C63.6749 52.4812 63.4312 52.5374 63.0562 52.9687C62.4187 53.6999 62.4749 54.6374 63.2062 55.3499L63.7687 55.9312L65.4749 55.7999C72.6936 55.2562 76.9499 52.8562 79.6686 47.7937C81.2999 44.7374 82.1624 41.8687 83.0811 36.3937C83.3811 34.5937 83.5874 33.0937 83.5686 33.0749C83.5311 33.0374 82.6311 33.5812 81.5624 34.2562Z" fill="currentColor"/>
        <path d="M21.7501 59.2312C20.1376 59.4749 19.3876 59.7187 13.7814 61.8187C3.78764 65.5499 1.70639 66.9937 1.91264 70.0124C1.98764 71.0249 2.36264 71.9249 5.02514 77.5124C6.69389 80.9999 8.28764 84.1124 8.56889 84.4124C9.43139 85.3312 10.4439 85.7437 11.8126 85.7437C13.1439 85.7437 13.9876 85.5187 16.6876 84.4687C18.4126 83.7937 18.5251 83.7749 20.5314 83.8499C22.8189 83.9249 22.1814 83.6624 27.3751 86.5124C31.0501 88.5375 34.9689 90.0562 38.3251 90.7875C39.8814 91.125 40.8376 91.2 43.5939 91.2C48.3564 91.2 50.7189 90.7125 56.9439 88.3874C63.6189 85.9124 71.1189 82.4249 75.6564 79.7062C80.1376 77.0062 85.3689 74.5687 89.9064 73.0124C92.3814 72.1499 93.1314 71.6999 93.6751 70.6499C94.0501 69.9187 94.0126 68.6812 93.5626 67.9499C93.1501 67.2937 91.2189 66.1874 90.4501 66.1874C90.2251 66.1874 89.6814 65.8874 89.2501 65.5312C88.3126 64.7437 87.0189 64.3312 85.1251 64.1812C84.0189 64.1062 83.6251 63.9937 83.2501 63.6562C81.9189 62.4562 80.6626 62.2874 77.9814 62.9249C76.3501 63.2999 75.8626 63.5062 75.5626 63.8812C75.0751 64.5187 75.0751 65.6062 75.5626 66.1499C76.1439 66.7499 76.8189 66.8437 78.1876 66.5062C79.9314 66.0562 80.5126 66.0937 80.8876 66.6562C81.4501 67.5187 82.2751 67.8749 83.7189 67.8749C85.6501 67.8937 86.4001 68.1187 87.0189 68.8687C87.3376 69.2624 87.8064 69.5812 88.1626 69.6562C88.7251 69.7874 88.6689 69.8249 87.0939 70.4062C82.7626 71.9437 78.4314 74.0624 73.7251 76.8937C69.3376 79.5374 64.7626 81.7312 58.1251 84.3749C52.9501 86.4374 49.5564 87.3749 45.7876 87.7687C40.8376 88.2749 35.3814 86.9062 29.5314 83.6999C24.7501 81.0749 24.2439 80.8124 23.0814 80.5124C22.2001 80.2874 21.3001 80.2312 19.7064 80.2874C17.5876 80.3624 17.4751 80.3812 15.1314 81.3374C12.5814 82.3874 11.5314 82.5749 11.1564 82.0687C10.7626 81.5062 5.43764 70.1812 5.43764 69.8812C5.43764 69.2062 8.23139 67.6312 11.3251 66.5624C12.5626 66.1499 14.0439 65.5499 14.6064 65.2312C15.1876 64.9124 16.7626 64.2374 18.1126 63.7499C21.1126 62.6249 22.9126 62.3624 25.3876 62.6249C27.9001 62.9062 27.8064 62.8874 42.4314 67.9687C48.9376 70.2374 53.6814 70.7062 60.0939 69.6937C65.7939 68.7749 69.5626 68.6437 70.2376 69.3187C70.9876 70.0874 70.1251 70.6874 66.9564 71.6249C61.5939 73.1999 57.1501 73.8562 50.5876 74.0437L46.1251 74.1562L45.6189 74.6624C44.8876 75.3937 44.8876 76.5374 45.6189 77.1749C46.1439 77.6249 46.2189 77.6249 49.7439 77.6249C56.8501 77.6062 64.2751 76.4624 69.6564 74.5499C72.4126 73.5562 73.6689 72.4499 74.0439 70.6687C74.4564 68.7562 73.5939 66.8999 71.8689 66.0749C70.9876 65.6437 70.5564 65.5499 68.6626 65.4749C67.2001 65.4187 65.6814 65.5124 64.1251 65.7187C59.2314 66.3749 57.0001 66.5624 54.2814 66.5624C49.6876 66.5624 48.4876 66.2812 37.4064 62.5499C32.9814 61.0499 28.6501 59.6999 27.7876 59.5499C25.8564 59.1749 23.1001 59.0437 21.7501 59.2312Z"/>
    </symbol>
    <symbol id="i-time" viewBox="0 0 96 96">
        <path d="M81.941 26.364 81 27.797l.82 1.725c2.056 4.28 3.38 9.507 3.729 14.7L85.671 46H89l-.105-2.381c-.174-4.245-1.167-8.61-2.928-12.975-.889-2.226-2.597-5.556-2.893-5.643-.087-.034-.593.587-1.133 1.363Z M41.84 4.216C24.639 6.413 10.453 18.883 6.183 35.57 5.176 39.502 5 41.114 5 46.198c0 4.039.053 4.889.423 6.908 1.2 6.714 3.83 12.896 7.817 18.298.67.904 1.288 1.63 1.376 1.595.406-.142 2.47-2.002 2.417-2.179a42.073 42.073 0 0 0-1.27-1.771c-4.27-5.74-6.97-13.055-7.464-20.212-.652-9.335 1.924-18.12 7.605-25.933 1.517-2.072 5.664-6.253 7.799-7.847 5.328-3.95 11.221-6.36 17.908-7.316 2.523-.354 7.64-.354 10.216.018 5.735.815 11.08 2.852 15.95 6.04.953.62 1.782 1.134 1.853 1.134.194.018 3.37-1.488 3.37-1.594 0-.053-.494-.46-1.094-.904-5.575-4.18-11.486-6.748-18.385-7.97-2.77-.497-8.77-.62-11.68-.249Z"/>
        <path d="M77.169 16.948c-1.01.504-6.665 3.31-12.567 6.224-18.984 9.407-22.44 11.134-23.504 11.745-.585.324-1.72 1.277-2.553 2.14C36.081 39.576 35 42.22 35 45.763c0 2.284.372 3.957 1.365 6.062.691 1.456 1.046 1.924 2.428 3.327 1.294 1.331 1.897 1.78 3.12 2.392 2.765 1.367 5.389 1.763 8.242 1.223 2.819-.54 5.956-2.41 7.729-4.622.354-.432 2.269-3.184 4.236-6.098 1.985-2.913 5.194-7.662 7.143-10.522a4252.243 4252.243 0 0 0 11.77-17.41c1.188-1.782 1.259-2.537.337-3.472-.922-.936-1.826-.864-4.201.305Zm-1.489 4.965c-.85 1.33-12.018 17.824-15.935 23.526-4.68 6.8-5.743 8.094-7.48 9.03-6.328 3.399-13.897-1.296-13.897-8.616 0-2.644.797-4.55 2.747-6.547 1.188-1.223 1.436-1.367 6.47-3.94 2.872-1.456 7.498-3.776 10.28-5.125 2.784-1.367 7.924-3.904 11.434-5.63 3.51-1.745 6.452-3.166 6.54-3.166.072-.018 0 .198-.159.468Z M82.747 56.233c-.515.151-1.155.396-1.422.547-.943.528-2.116 1.79-2.72 2.978-.587 1.13-.605 1.263-.605 3.166 0 1.753.053 2.111.48 3.054a6.764 6.764 0 0 0 4.907 3.92c2.88.547 5.814-1.15 7.112-4.109.64-1.451.676-3.732.054-5.352-1.192-3.224-4.73-5.127-7.806-4.204Zm3.84 3.167c1.085.754 1.725 2.035 1.725 3.43-.017 2.413-1.635 4.11-3.911 4.09-1.12-.019-1.654-.226-2.49-1.018-2.115-1.96-1.635-5.503.89-6.785 1.066-.528 2.827-.396 3.787.283ZM67.982 75.257c-1.17.46-1.956 1.22-2.517 2.423-.4.85-.465 1.221-.465 2.283 0 .76.112 1.522.272 1.928.962 2.442 3.335 3.663 5.627 2.867 2.966-1.026 4.072-5.096 2.132-7.91-1.09-1.574-3.302-2.264-5.05-1.591Zm2.324 2.689c2.18 1.08 1.475 4.423-.914 4.423-1.57 0-2.532-1.822-1.827-3.468.272-.619.593-.884 1.33-1.15.61-.194.674-.177 1.411.195ZM23.75 77.292c-.803.45-1.154.882-1.505 1.863-.837 2.354.569 4.845 2.743 4.845 1.272 0 2.175-.686 2.71-2.06.402-1 .402-1.941 0-2.981-.635-1.628-2.542-2.432-3.948-1.667ZM45.649 83.39c-1.664.764-2.63 2.24-2.648 4.03-.018 1.32.286 2.206 1.091 3.075C46.955 93.57 52 91.624 52 87.455c0-1.216-.322-2.102-1.038-2.901-1.288-1.477-3.578-1.98-5.313-1.164Zm2.683 2.275c1.324.539 1.557 2.137.448 3.093-.788.695-1.646.66-2.434-.105-.984-.955-.769-2.328.466-2.918.751-.382.751-.382 1.52-.07Z" fill="currentColor"/>
    </symbol>
</svg>