<svg width="356" height="300" fill="none" xmlns="http://www.w3.org/2000/svg"><path d="M308.659 6s-27.293 108.197-50.354 95.764c-19.154-10.314-31.851-70.195-52.687-74.05-26.207-4.831-24.417 64.387-42.269 71.39-17.906 7.004-31.85-37.35-45.144-31.216-13.348 6.135-14.813 63.355-14.813 63.355l205.321 113.084V5.999h-.054Z" fill="url(#a)"/><path d="M308.66 245.847c-.272 0-.489-.055-.76-.163L102.633 132.546a1.597 1.597 0 0 1-.814-1.357c.163-5.972 1.899-58.306 15.681-64.658 7.325-3.366 14.108 5.375 21.27 14.604 7.597 9.772 15.464 19.924 23.929 16.612 7-2.769 11.123-17.59 15.084-31.922 5.806-20.9 11.775-42.562 28.053-39.522 11.937 2.226 20.619 20.141 29.843 39.088 7.326 15.038 14.868 30.564 23.278 35.125 1.899 1.031 3.907 1.086 6.023.108 20.185-8.903 41.943-94.082 42.16-94.95.163-.76.923-1.25 1.683-1.14.759.108 1.356.76 1.356 1.52V244.38c0 .543-.271 1.031-.76 1.303a1.738 1.738 0 0 1-.759.163ZM104.912 130.375l202.228 111.4V17.455c-6.728 23.886-23.766 78.338-40.858 85.884-3.038 1.303-5.968 1.248-8.681-.217-9.333-4.995-16.713-20.304-24.58-36.482-8.465-17.481-17.255-35.505-27.673-37.405-13.511-2.498-19.1 17.752-24.526 37.35-4.341 15.744-8.465 30.62-16.929 33.931-10.581 4.126-19.534-7.384-27.456-17.535-6.403-8.252-12.48-16.07-17.635-13.681-10.038 4.614-13.348 44.734-13.89 61.075Z" fill="#C9294D"/><path d="M293.032 14.74s-25.774 109.011-48.835 96.634c-19.154-10.315-29.029-62.324-52.687-74.05-23.657-11.726-24.417 64.386-42.268 71.389-17.906 7.058-31.851-37.35-45.145-31.215-13.294 6.134-14.813 63.3-14.813 63.3l203.748 112.269V14.74Z" fill="url(#b)"/><path d="M294.552 255.673 87.712 141.721l.054-.923c.162-5.972 1.899-58.306 15.681-64.658 7.325-3.366 14.108 5.375 21.27 14.604 7.597 9.772 15.464 19.924 23.929 16.612 7.054-2.769 11.612-18.838 16.007-34.419 4.883-17.264 9.495-33.605 18.177-37.46 2.876-1.302 6.023-1.085 9.333.544 12.968 6.46 21.65 24.05 30.06 41.042 7.217 14.604 14.054 28.393 22.627 33.008 1.899 1.031 3.852 1.085 5.968.108 19.968-8.957 40.479-94.897 40.696-95.765l2.984-12.65v253.909h.054ZM90.804 139.929l200.71 110.586V26.9c-6.511 24.43-22.627 78.447-39.393 86.048-2.985 1.357-5.86 1.249-8.628-.217-9.441-5.103-16.495-19.327-23.929-34.365-8.193-16.558-16.658-33.659-28.703-39.63-2.496-1.25-4.721-1.412-6.729-.49-7.433 3.312-12.046 19.653-16.495 35.505-4.775 16.993-9.333 33.062-17.797 36.428-10.581 4.18-19.534-7.383-27.456-17.535-6.403-8.252-12.48-16.07-17.635-13.68-10.092 4.56-13.456 44.679-13.945 60.965Z" fill="#fff"/><path d="m272.902 37.487-2.333 221.877L79.952 156.542s.217-6.515 1.193-16.233c.109-.76.163-1.52.217-2.28 1.357-12.812 3.907-28.827 8.357-37.73.325-.652.65-1.249 1.03-1.846 1.249-2.063 2.66-3.529 4.179-4.289 1.465-.706 2.875-.814 4.286-.38.706.217 1.411.489 2.116.923 5.101 2.931 10.256 11.075 15.844 18.187 1.248 1.52 2.442 3.04 3.69 4.397 4.232 4.669 8.736 7.98 13.674 7.438.976-.109 1.953-.38 2.93-.761 7.596-3.203 11.394-18.675 15.084-34.038.163-.706.326-1.466.489-2.172 4.557-18.838 9.387-36.59 21.432-30.673 22.356 11.02 31.092 58.794 49.215 68.512 21.867 11.564 49.214-88.11 49.214-88.11Z" fill="url(#c)"/><path d="M270.569 260.885c-.271 0-.488-.055-.705-.163L79.192 157.845a1.622 1.622 0 0 1-.814-1.412c0-.054.218-6.677 1.194-16.341.054-.434.109-.814.109-1.248l.108-1.086c1.302-12.324 3.853-28.99 8.52-38.22.379-.705.704-1.357 1.084-1.954 1.465-2.334 3.093-4.017 4.83-4.832 1.736-.868 3.526-1.031 5.371-.488a8.501 8.501 0 0 1 2.496 1.086c4.124 2.334 8.085 7.709 12.317 13.355 1.303 1.737 2.605 3.474 3.907 5.157 1.411 1.737 2.55 3.149 3.636 4.343 4.72 5.158 8.627 7.383 12.371 6.949.76-.108 1.574-.271 2.387-.597.055-.054.109-.054.163-.054 6.946-2.932 10.635-18.241 14.216-33.008.163-.706.326-1.466.489-2.171 3.907-16.178 7.542-28.773 14.704-32.14 2.659-1.248 5.643-1.085 8.845.49 12.317 6.08 20.402 22.312 28.161 38.001 6.674 13.464 12.968 26.168 21.107 30.511 1.845.977 3.744 1.031 5.806.108 19.263-8.252 40.913-86.427 41.13-87.187a1.496 1.496 0 0 1 1.682-1.086c.759.108 1.302.76 1.302 1.52l-2.333 221.878c0 .543-.271 1.031-.76 1.303-.108.108-.38.163-.651.163ZM81.471 155.619 269.05 256.813l2.17-208.36c-6.782 22.15-23.495 71.661-39.773 78.61-2.93 1.249-5.806 1.194-8.464-.272-8.953-4.777-15.465-17.915-22.356-31.813-7.596-15.255-15.41-31.053-26.804-36.645-2.388-1.194-4.396-1.302-6.24-.488-6.457 2.986-10.093 18.024-13.023 30.13l-.488 2.117c-3.907 16.178-7.597 31.433-15.844 35.071-.055.054-.109.054-.163.054-1.085.489-2.225.76-3.364.923-6.294.706-11.558-4.18-14.922-7.926-1.139-1.249-2.333-2.66-3.798-4.506a189.422 189.422 0 0 1-3.961-5.266c-4.015-5.375-7.814-10.478-11.395-12.54-.597-.326-1.14-.598-1.79-.76-1.14-.326-2.17-.218-3.256.325-1.194.597-2.387 1.846-3.581 3.746-.326.543-.651 1.14-.977 1.737-4.45 8.795-6.945 25.081-8.193 37.134l-.109 1.031c-.054.38-.054.814-.108 1.194v.055c-.706 7.492-1.031 13.138-1.14 15.255Z" fill="#fff"/><path opacity=".4" d="m270.623 198.616.597-1.086.434-.76-.38-.217-19.642-10.695v-42.237l19.045 10.369.977-1.845-20.022-10.913V85.587h-2.116v54.451l-72.709-39.522V59.094h-2.116v40.282l-21.542-11.727c-.163.706-.325 1.412-.488 2.172l22.03 11.998v42.237l-37.169-20.196-20.293-11.02-15.844-8.578v-9.555c-.706-.434-1.411-.706-2.116-.923v9.338l-8.52-4.615c-.38.597-.705 1.195-1.03 1.846l9.55 5.212v42.182l-17.906-9.718-.543-.271-1.03 1.846 1.301.706 18.178 9.88v17.807h2.116v-16.613l73.251 39.794v15.527h2.117v-14.441l72.709 39.522v15.255h2.116v-14.115l19.045 10.315.109-.217.868-1.683-.868-.489-19.154-10.423v-42.237l19.045 10.424Zm-95.987-9.881-73.251-39.794v-42.29l19.534 10.586 13.673 7.437 40.099 21.77v42.291h-.055Zm74.88 40.608-72.709-39.522v-42.237l72.709 39.522v42.237Zm0-44.625-72.709-39.522v-42.237l72.709 39.522v42.237Z" fill="#fff"/><path d="M216.743 235.369c3.31 0 6.457.271 9.279.814h16.603v6.352c-.434 5.483-10.906 11.455-25.882 11.455s-25.448-5.972-25.882-11.455v-6.352h16.604c2.875-.543 5.968-.814 9.278-.814Z" fill="url(#d)"/><path d="M216.743 254.75c-15.247 0-25.937-6.135-26.588-11.944-.054-.054-.054-.163-.054-.217v-6.352c0-.434.326-.76.76-.76h16.603c2.822-.543 6.023-.814 9.279-.814 3.256 0 6.403.271 9.387.814h16.495c.434 0 .76.326.76.76v6.352c0 .109 0 .163-.054.217-.597 5.809-11.341 11.944-26.588 11.944Zm-25.123-12.378v.109c.38 5.103 10.798 10.749 25.123 10.749 14.325 0 24.743-5.646 25.123-10.749v-5.538h-15.844a52.65 52.65 0 0 0-9.279-.814c-3.147 0-6.24.271-9.116.814H191.62v5.429Z" fill="#fff"/><path d="M239.424 247.258c-.489.434-1.031.815-1.628 1.249v-12.324h1.628v11.075Zm-30.332-11.346v17.264a17.06 17.06 0 0 1-1.628-.272v-16.775h.109c.542-.054 1.031-.109 1.519-.217Zm2.767 17.644-1.628-.163v-17.59l1.628-.163v17.916Zm-13.782-3.692a11.557 11.557 0 0 1-1.628-.923v-12.812h1.628v13.735Zm16.55 3.855c-.543 0-1.086-.055-1.628-.109v-18.132c.542-.055 1.085-.055 1.628-.109v18.35Zm-19.317-5.484a21.032 21.032 0 0 1-1.628-1.303v-10.749h1.628v12.052Zm8.247 3.746-1.627-.488v-15.31h1.627v15.798Zm2.768.706c-.543-.109-1.085-.271-1.628-.38v-16.124h1.628v16.504Zm-5.481-1.574-1.627-.652v-14.223h1.627v14.875Zm30.278.543-1.628.488v-15.961h1.628v15.473Zm-11.015 2.008c-.543.055-1.085.055-1.628.055v-18.296c.543 0 1.085.055 1.628.055v18.186Zm-2.767-18.295v18.35h-1.628v-18.35h1.628Zm24.959 7.112c-.108 1.248-.705 2.497-1.79 3.691v-9.989h1.79v6.298Zm-49.756 3.149c-.814-1.032-1.248-2.118-1.357-3.204v-6.297h1.357v9.501Zm44.113 3.583c-.488.325-1.031.597-1.628.868v-13.898h1.628v13.03Zm-13.782 4.18-1.628.163v-18.024l1.628.163v17.698Zm11.015-2.823-1.628.651v-15.092h1.628v14.441Zm-5.48 1.846c-.543.108-1.085.271-1.628.38v-16.613h1.628v16.233Zm-2.768.597c-.542.108-1.085.163-1.627.271v-17.372c.542.054 1.085.163 1.627.271v16.83Z" fill="#ED7B63"/><path d="M216.743 223.914c15.247 0 25.882 6.189 25.882 11.781 0 5.537-10.635 11.78-25.882 11.78-15.247 0-25.882-6.189-25.882-11.78 0-5.592 10.635-11.781 25.882-11.781Z" fill="url(#e)"/><path d="M216.743 248.235c-15.953 0-26.642-6.46-26.642-12.54 0-6.026 10.689-12.541 26.642-12.541s26.642 6.46 26.642 12.541c0 6.026-10.689 12.54-26.642 12.54Zm0-23.561c-14.379 0-25.123 5.809-25.123 11.021 0 5.211 10.744 11.02 25.123 11.02 14.379 0 25.123-5.809 25.123-11.02 0-5.212-10.744-11.021-25.123-11.021Z" fill="#fff"/><path opacity=".25" d="M233.617 244.49c-1.682.705-3.527 1.248-5.535 1.737l-21.324-21.336c2.008-.38 4.178-.705 6.457-.868l20.402 20.467Zm-14.759 2.931c-.705 0-1.356.054-2.062.054-.705 0-1.411 0-2.062-.054l-18.557-18.567a41.133 41.133 0 0 1 2.713-1.465l19.968 20.032Z" fill="#fff"/><path d="M216.743 226.086c3.31 0 6.457.271 9.279.814h16.603v6.352c-.434 5.483-10.906 11.455-25.882 11.455s-25.448-5.972-25.882-11.455V226.9h16.604c2.875-.543 5.968-.814 9.278-.814Z" fill="url(#f)"/><path d="M216.743 245.413c-15.248 0-25.937-6.135-26.588-11.944-.054-.054-.054-.163-.054-.217V226.9c0-.434.325-.76.759-.76h16.604c2.821-.543 6.023-.814 9.279-.814 3.255 0 6.402.271 9.387.814h16.495c.434 0 .759.326.759.76v6.352c0 .108 0 .163-.054.217-.597 5.809-11.34 11.944-26.587 11.944Zm-25.123-12.324v.109c.38 5.103 10.798 10.749 25.123 10.749 14.324 0 24.742-5.646 25.122-10.749v-5.538h-15.844a52.64 52.64 0 0 0-9.278-.814c-3.148 0-6.24.271-9.116.814H191.62v5.429Z" fill="#fff"/><path d="M239.423 237.975c-.488.434-1.031.814-1.628 1.249V226.9h1.628v11.075Zm-30.331-11.346v17.263c-.543-.108-1.086-.162-1.628-.271v-16.775h.108c.543-.055 1.031-.163 1.52-.217Zm2.767 17.589-1.628-.163v-17.589l1.628-.163v17.915Zm-13.782-3.637a11.6 11.6 0 0 1-1.628-.923v-12.812h1.628v13.735Zm16.549 3.8c-.543 0-1.085-.054-1.628-.109V226.14c.543-.054 1.085-.054 1.628-.109v18.35Zm-19.317-5.483a21.249 21.249 0 0 1-1.627-1.303v-10.749h1.627v12.052Zm8.248 3.8-1.628-.489V226.9h1.628v15.798Zm2.767.706c-.542-.109-1.085-.272-1.628-.38V226.9h1.628v16.504Zm-5.48-1.629-1.628-.651V226.9h1.628v14.875Zm30.277.543-1.628.489v-15.961h1.628v15.472Zm-11.015 2.009c-.542.054-1.085.054-1.627.054v-18.295c.542 0 1.085.054 1.627.054v18.187Zm-2.767-18.241v18.349h-1.628v-18.349h1.628Zm24.96 7.057c-.109 1.249-.705 2.498-1.791 3.692v-9.989h1.791v6.297Zm-49.757 3.203c-.814-1.031-1.248-2.117-1.356-3.203v-6.297h1.356v9.5Zm44.114 3.583c-.489.272-1.031.597-1.628.869V226.9h1.628v13.029Zm-13.782 4.181-1.628.162v-18.023l1.628.162v17.699Zm11.015-2.823-1.628.651v-15.092h1.628v14.441Zm-5.481 1.845c-.542.109-1.085.272-1.628.38V226.9h1.628v16.232Zm-2.767.543c-.543.109-1.085.163-1.628.272v-17.373a17.06 17.06 0 0 1 1.628.272v16.829Z" fill="#ED7B63"/><path d="M216.744 214.631c15.247 0 25.882 6.189 25.882 11.78 0 5.592-10.635 11.781-25.882 11.781-15.248 0-25.883-6.189-25.883-11.781 0-5.591 10.635-11.78 25.883-11.78Z" fill="url(#g)"/><path d="M216.743 238.898c-15.953 0-26.642-6.461-26.642-12.541s10.689-12.541 26.642-12.541 26.642 6.461 26.642 12.541-10.689 12.541-26.642 12.541Zm0-23.507c-14.379 0-25.123 5.809-25.123 11.02 0 5.212 10.744 11.021 25.123 11.021 14.379 0 25.123-5.809 25.123-11.021 0-5.211-10.744-11.02-25.123-11.02Z" fill="#fff"/><path opacity=".25" d="M233.618 235.152c-1.682.706-3.527 1.248-5.535 1.737l-21.324-21.335c2.008-.38 4.178-.706 6.457-.869l20.402 20.467Zm-14.759 2.986c-.705 0-1.356.054-2.062.054-.705 0-1.411 0-2.062-.054l-18.557-18.567a41.124 41.124 0 0 1 2.713-1.466l19.968 20.033Z" fill="#fff"/><path d="M216.743 216.748c3.31 0 6.457.271 9.279.814h16.603v6.352c-.434 5.483-10.906 11.455-25.882 11.455s-25.448-5.972-25.882-11.455v-6.352h16.604c2.875-.488 5.968-.814 9.278-.814Z" fill="url(#h)"/><path d="M216.743 236.129c-15.248 0-25.937-6.135-26.588-11.944-.054-.054-.054-.163-.054-.217v-6.352c0-.434.325-.76.759-.76h16.604c2.821-.543 6.023-.814 9.279-.814 3.255 0 6.402.271 9.387.814h16.495c.434 0 .759.326.759.76v6.352c0 .109 0 .163-.054.217-.597 5.809-11.34 11.944-26.587 11.944Zm-25.123-12.378v.109c.38 5.103 10.798 10.749 25.123 10.749 14.324 0 24.742-5.646 25.122-10.749v-5.538h-15.844a52.64 52.64 0 0 0-9.278-.814c-3.148 0-6.24.271-9.116.814H191.62v5.429Z" fill="#fff"/><path d="M239.423 228.637c-.488.435-1.031.815-1.628 1.249v-12.324h1.628v11.075Zm-30.331-11.292v17.264c-.543-.109-1.086-.163-1.628-.271v-16.776h.108a17.141 17.141 0 0 1 1.52-.217Zm2.767 17.59-1.628-.163v-17.59l1.628-.163v17.916Zm-13.782-3.692a11.5 11.5 0 0 1-1.628-.923v-12.812h1.628v13.735Zm16.549 3.855c-.543 0-1.085-.055-1.628-.109v-18.132c.543-.055 1.085-.055 1.628-.109v18.35Zm-19.317-5.484a21.009 21.009 0 0 1-1.627-1.303v-10.749h1.627v12.052Zm8.248 3.801-1.628-.489v-15.309h1.628v15.798Zm2.767.651c-.542-.109-1.085-.271-1.628-.38v-16.124h1.628v16.504Zm-5.48-1.574-1.628-.652v-14.223h1.628v14.875Zm30.277.543-1.628.488v-15.961h1.628v15.473Zm-11.015 2.008c-.542.055-1.085.055-1.627.055v-18.296c.542 0 1.085.055 1.627.055v18.186Zm-2.767-18.295v18.404h-1.628v-18.35h1.031c.217-.054.434-.054.597-.054Zm24.96 7.112c-.109 1.248-.705 2.497-1.791 3.691v-9.989h1.791v6.298Zm-49.757 3.149c-.814-1.032-1.248-2.118-1.356-3.203v-6.298h1.356v9.501Zm44.114 3.583c-.489.271-1.031.597-1.628.868v-13.898h1.628v13.03Zm-13.782 4.18-1.628.163v-18.024l1.628.163v17.698Zm11.015-2.769-1.628.652v-15.093h1.628v14.441Zm-5.481 1.792c-.542.108-1.085.271-1.628.38v-16.613h1.628v16.233Zm-2.767.597c-.543.108-1.085.163-1.628.271v-17.372c.543.054 1.085.163 1.628.271v16.83Z" fill="#ED7B63"/><path d="M216.744 205.293c15.247 0 25.882 6.189 25.882 11.781 0 5.591-10.635 11.78-25.882 11.78-15.248 0-25.883-6.189-25.883-11.78 0-5.592 10.635-11.781 25.883-11.781Z" fill="url(#i)"/><path d="M216.743 229.614c-15.953 0-26.642-6.46-26.642-12.54 0-6.026 10.689-12.541 26.642-12.541s26.642 6.46 26.642 12.541c0 6.08-10.689 12.54-26.642 12.54Zm0-23.561c-14.379 0-25.123 5.809-25.123 11.021 0 5.211 10.744 11.02 25.123 11.02 14.379 0 25.123-5.809 25.123-11.02 0-5.212-10.744-11.021-25.123-11.021Z" fill="#fff"/><path opacity=".25" d="M233.618 225.868c-1.682.706-3.527 1.249-5.535 1.738l-21.324-21.336c2.008-.38 4.178-.706 6.457-.869l20.402 20.467Zm-14.759 2.932c-.705 0-1.356.054-2.062.054-.705 0-1.411 0-2.062-.054l-18.557-18.567a41.599 41.599 0 0 1 2.713-1.466l19.968 20.033Z" fill="#fff"/><path d="M216.743 207.465c3.31 0 6.457.271 9.279.814h16.603v6.352c-.434 5.483-10.906 11.455-25.882 11.455s-25.448-5.972-25.882-11.455v-6.352h16.604c2.875-.543 5.968-.814 9.278-.814Z" fill="url(#j)"/><path d="M216.743 226.845c-15.248 0-25.937-6.134-26.588-11.943-.054-.054-.054-.163-.054-.217v-6.352c0-.434.325-.76.759-.76h16.604c2.821-.543 6.023-.814 9.279-.814 3.255 0 6.402.271 9.387.814h16.495c.434 0 .759.326.759.76v6.352c0 .108 0 .163-.054.217-.597 5.755-11.34 11.943-26.587 11.943Zm-25.123-12.377v.108c.38 5.103 10.798 10.749 25.123 10.749 14.324 0 24.742-5.646 25.122-10.749v-5.537h-15.844a52.64 52.64 0 0 0-9.278-.815c-3.148 0-6.24.272-9.116.815H191.62v5.429Z" fill="#fff"/><path d="M239.423 219.354c-.488.434-1.031.814-1.628 1.248v-12.323h1.628v11.075Zm-30.331-11.347v17.264c-.543-.108-1.086-.163-1.628-.271v-16.775h.108c.543-.055 1.031-.163 1.52-.218Zm2.767 17.59-1.628-.163v-17.589l1.628-.163v17.915Zm-13.782-3.637a11.7 11.7 0 0 1-1.628-.923v-12.812h1.628v13.735Zm16.549 3.854c-.543 0-1.085-.054-1.628-.108v-18.133c.543-.054 1.085-.054 1.628-.108v18.349Zm-19.317-5.537a21.495 21.495 0 0 1-1.627-1.303v-10.749h1.627v12.052Zm8.248 3.8-1.628-.489v-15.309h1.628v15.798Zm2.767.706c-.542-.109-1.085-.272-1.628-.38v-16.124h1.628v16.504Zm-5.48-1.629-1.628-.651v-14.224h1.628v14.875Zm30.277.543-1.628.488v-15.96h1.628v15.472Zm-11.015 2.009c-.542.054-1.085.054-1.627.054v-18.295c.542 0 1.085.054 1.627.054v18.187Zm-2.767-18.241v18.349h-1.628v-18.349h1.628Zm24.96 7.057c-.109 1.249-.705 2.497-1.791 3.692v-9.989h1.791v6.297Zm-49.757 3.203c-.814-1.031-1.248-2.117-1.356-3.203v-6.297h1.356v9.5Zm44.114 3.583c-.489.272-1.031.597-1.628.869v-13.898h1.628v13.029Zm-13.782 4.18-1.628.163v-18.024l1.628.163v17.698Zm11.015-2.823-1.628.652v-15.092h1.628v14.44Zm-5.481 1.846c-.542.109-1.085.272-1.628.38v-16.612h1.628v16.232Zm-2.767.543c-.543.109-1.085.163-1.628.272v-17.373c.543.054 1.085.163 1.628.272v16.829Z" fill="#ED7B63"/><path d="M216.744 196.01c15.247 0 25.882 6.189 25.882 11.78 0 5.592-10.635 11.781-25.882 11.781-15.248 0-25.883-6.189-25.883-11.781 0-5.591 10.635-11.78 25.883-11.78Z" fill="url(#k)"/><path d="M216.743 220.277c-15.953 0-26.642-6.461-26.642-12.541 0-6.026 10.689-12.541 26.642-12.541s26.642 6.461 26.642 12.541-10.689 12.541-26.642 12.541Zm0-23.507c-14.379 0-25.123 5.808-25.123 11.02s10.744 11.021 25.123 11.021c14.379 0 25.123-5.809 25.123-11.021 0-5.212-10.744-11.02-25.123-11.02Z" fill="#fff"/><path opacity=".25" d="M233.618 216.531c-1.682.706-3.527 1.248-5.535 1.737l-21.324-21.335c2.008-.38 4.178-.706 6.457-.869l20.402 20.467Zm-14.759 2.986c-.705 0-1.356.054-2.062.054-.705 0-1.411 0-2.062-.054l-18.557-18.567a41.124 41.124 0 0 1 2.713-1.466l19.968 20.033Z" fill="#fff"/><path d="M226.021 278.854c3.31 0 6.457.272 9.278.815h16.604v6.351c-.434 5.484-10.906 11.455-25.882 11.455-14.922 0-25.448-5.971-25.882-11.455v-6.351h16.658a53.944 53.944 0 0 1 9.224-.815Z" fill="url(#l)"/><path d="M226.02 298.235c-15.247 0-25.937-6.134-26.588-11.943 0-.054-.054-.163-.054-.217v-6.406c0-.435.325-.76.76-.76h16.658c2.875-.543 6.022-.815 9.278-.815 3.256 0 6.403.272 9.387.815h16.495c.434 0 .76.325.76.76v6.352c0 .108 0 .162-.054.217-.651 5.863-11.395 11.997-26.642 11.997Zm-25.123-12.377v.108c.38 5.103 10.798 10.749 25.123 10.749 14.325 0 24.743-5.646 25.122-10.749v-5.537h-15.844c-6.077-1.086-12.588-1.086-18.394 0h-16.007v5.429Z" fill="#fff"/><path d="M248.701 290.744c-.488.434-1.031.814-1.628 1.248v-12.323h1.628v11.075Zm-30.332-11.292v17.263c-.542-.108-1.085-.162-1.627-.271v-16.775h.108a16.81 16.81 0 0 1 1.519-.217Zm2.768 17.589-1.628-.163v-17.589l1.628-.163v17.915Zm-13.783-3.692a11.641 11.641 0 0 1-1.627-.922v-12.758h1.627v13.68Zm16.55 3.855c-.543 0-1.085-.054-1.628-.109v-18.132c.543-.054 1.085-.054 1.628-.109v18.35Zm-19.317-5.483a21.72 21.72 0 0 1-1.628-1.303v-10.749h1.628v12.052Zm8.302 3.8-1.628-.489v-15.363h1.628v15.852Zm2.713.651c-.543-.108-1.085-.271-1.628-.38v-16.123h1.628v16.503Zm-5.48-1.574-1.628-.651v-14.278h1.628v14.929Zm30.277.543-1.628.489v-15.961h1.628v15.472Zm-11.015 2.009c-.542.054-1.085.054-1.628.054v-18.295c.543 0 1.086.054 1.628.054v18.187Zm-2.713-18.296v18.35h-1.628v-18.35h1.628Zm24.906 7.112c-.109 1.249-.706 2.497-1.791 3.692v-9.989h1.791v6.297Zm-49.757 3.149c-.814-1.032-1.248-2.117-1.357-3.203v-6.243h1.357v9.446Zm44.114 3.583c-.489.271-1.031.597-1.628.869v-13.898h1.628v13.029Zm-13.783 4.18-1.627.163v-18.024l1.627.163v17.698Zm11.015-2.769-1.627.652v-15.092h1.627v14.44Zm-5.48 1.792c-.543.109-1.085.271-1.628.38v-16.612h1.628v16.232Zm-2.767.597c-.543.109-1.085.163-1.628.272v-17.373a17.06 17.06 0 0 1 1.628.272v16.829Z" fill="#ED7B63"/><path d="M226.02 267.399c15.248 0 25.883 6.189 25.883 11.781 0 5.592-10.635 11.781-25.883 11.781-15.247 0-25.882-6.189-25.882-11.781 0-5.538 10.635-11.781 25.882-11.781Z" fill="url(#m)"/><path d="M226.02 291.721c-15.953 0-26.642-6.461-26.642-12.541 0-6.026 10.689-12.541 26.642-12.541 15.952 0 26.642 6.461 26.642 12.541s-10.69 12.541-26.642 12.541Zm0-23.562c-14.379 0-25.123 5.809-25.123 11.021 0 5.212 10.744 11.021 25.123 11.021 14.379 0 25.122-5.809 25.122-11.021 0-5.212-10.743-11.021-25.122-11.021Z" fill="#fff"/><path opacity=".25" d="M242.894 287.975c-1.682.705-3.527 1.248-5.534 1.737l-21.325-21.336c2.008-.38 4.178-.705 6.457-.868l20.402 20.467Zm-14.759 2.931c-.705 0-1.356.055-2.061.055-.706 0-1.411 0-2.062-.055l-18.557-18.566a40.17 40.17 0 0 1 2.713-1.466l19.967 20.032Z" fill="#fff"/><path d="M98.347 275.054c3.31 0 6.457.271 9.279.814h16.603v6.352c-.434 5.483-10.906 11.455-25.882 11.455S72.9 287.703 72.465 282.22v-6.352h16.604c2.821-.543 5.914-.814 9.278-.814Z" fill="url(#n)"/><path d="M98.346 294.435c-15.247 0-25.99-6.135-26.588-11.943-.054-.055-.054-.163-.054-.218v-6.406c0-.434.326-.76.76-.76h16.603c2.876-.543 6.023-.814 9.279-.814 3.256 0 6.403.271 9.387.814h16.495c.434 0 .76.326.76.76v6.352c0 .109 0 .163-.054.217-.651 5.809-11.395 11.998-26.588 11.998Zm-25.123-12.378v.109c.38 5.103 10.798 10.749 25.123 10.749 14.325 0 24.743-5.646 25.123-10.749v-5.538h-15.844a52.202 52.202 0 0 0-9.279-.814c-3.201 0-6.24.271-9.116.814H73.223v5.429Z" fill="#fff"/><path d="M120.973 286.943c-.488.434-1.031.814-1.628 1.249v-12.324h1.628v11.075Zm-30.278-11.346v17.264c-.542-.109-1.085-.163-1.627-.272v-16.721h.108c.489-.108.977-.163 1.52-.271Zm2.714 17.589-1.628-.163v-17.589l1.627-.163v17.915Zm-13.783-3.637a11.52 11.52 0 0 1-1.627-.923v-12.758h1.627v13.681Zm16.55 3.854c-.543 0-1.085-.054-1.628-.108v-18.133c.543-.054 1.085-.054 1.628-.108v18.349Zm-19.263-5.537a21.369 21.369 0 0 1-1.627-1.303v-10.695h1.627v11.998Zm8.248 3.8-1.628-.488v-15.31h1.628v15.798Zm2.767.706c-.542-.109-1.085-.271-1.628-.38v-16.124h1.628v16.504Zm-5.534-1.629-1.628-.651v-14.224h1.628v14.875Zm30.331.543-1.628.489v-15.907h1.628v15.418Zm-11.015 2.009c-.542.054-1.085.054-1.627.054v-18.295c.542 0 1.085.054 1.627.054v18.187Zm-2.767-18.241v18.349h-1.628v-18.349h1.628Zm24.96 7.057c-.109 1.249-.705 2.498-1.791 3.692v-9.935h1.791v6.243Zm-49.757 3.203c-.814-1.031-1.248-2.117-1.356-3.203v-6.243h1.356v9.446Zm44.06 3.584c-.489.271-1.031.597-1.628.868v-13.898h1.628v13.03Zm-13.783 4.18-1.627.163v-18.024l1.627.163v17.698Zm11.07-2.823-1.628.651v-15.038h1.628v14.387Zm-5.535 1.846c-.543.108-1.085.271-1.628.38v-16.613h1.628v16.233Zm-2.767.542c-.543.109-1.086.163-1.628.272v-17.372c.542.054 1.085.162 1.628.271v16.829Z" fill="#ED7B63"/><path d="M98.347 263.599c15.247 0 25.882 6.189 25.882 11.781 0 5.591-10.635 11.78-25.882 11.78-15.247 0-25.882-6.189-25.882-11.78 0-5.592 10.635-11.781 25.882-11.781Z" fill="url(#o)"/><path d="M98.346 287.866c-15.953 0-26.642-6.46-26.642-12.541 0-6.08 10.69-12.54 26.642-12.54 15.953 0 26.642 6.46 26.642 12.54 0 6.081-10.744 12.541-26.642 12.541Zm0-23.507c-14.379 0-25.123 5.809-25.123 11.021 0 5.211 10.744 11.02 25.123 11.02 14.379 0 25.123-5.809 25.123-11.02 0-5.212-10.744-11.021-25.123-11.021Z" fill="#fff"/><path opacity=".25" d="M115.166 284.12c-1.682.706-3.527 1.249-5.534 1.737l-21.325-21.335c2.008-.38 4.178-.706 6.457-.869l20.402 20.467Zm-14.759 2.986c-.705 0-1.356.054-2.061.054-.706 0-1.411 0-2.062-.054l-18.557-18.567a40.93 40.93 0 0 1 2.713-1.465l19.967 20.032Z" fill="#fff"/><path d="M72.464 258.93c3.31 0 6.457.271 9.279.814h16.604v6.352c-.434 5.483-10.907 11.455-25.883 11.455-14.976 0-25.448-5.972-25.882-11.455v-6.352h16.604c2.821-.543 5.914-.814 9.278-.814Z" fill="url(#p)"/><path d="M72.464 278.257c-15.247 0-25.991-6.135-26.588-11.944-.054-.054-.054-.163-.054-.217v-6.352c0-.434.325-.76.76-.76h16.603c2.876-.543 6.023-.814 9.279-.814 3.255 0 6.402.271 9.387.814h16.495c.434 0 .76.326.76.76v6.352c0 .109 0 .163-.055.217-.65 5.809-11.394 11.944-26.587 11.944ZM47.34 265.933v.109c.38 5.103 10.798 10.749 25.123 10.749 14.324 0 24.743-5.646 25.122-10.749v-5.538H81.688a52.642 52.642 0 0 0-9.279-.814c-3.147 0-6.24.271-9.115.814H47.287v5.429h.054Z" fill="#fff"/><path d="M95.09 270.819c-.488.434-1.03.814-1.628 1.249v-12.324h1.628v11.075Zm-30.332-11.346v17.264c-.542-.109-1.085-.163-1.627-.272V259.69h.108c.543-.054 1.031-.163 1.52-.217Zm2.768 17.589-1.628-.163V259.31l1.628-.163v17.915Zm-13.782-3.637a11.527 11.527 0 0 1-1.628-.923V259.69h1.628v13.735Zm16.549 3.8c-.543 0-1.085-.054-1.628-.108v-18.078c.543-.055 1.085-.055 1.628-.109v18.295Zm-19.263-5.483a21.386 21.386 0 0 1-1.627-1.303V259.69h1.628v12.052Zm8.248 3.8-1.628-.488v-15.31h1.628v15.798Zm2.767.706c-.542-.109-1.085-.271-1.627-.38v-16.124h1.627v16.504Zm-5.534-1.629-1.628-.651v-14.224h1.628v14.875Zm30.331.543-1.627.489V259.69h1.627v15.472Zm-11.014 2.009c-.543.054-1.086.054-1.628.054V258.93c.542 0 1.085.054 1.628.054v18.187ZM73.06 258.93v18.349h-1.627V258.93h1.627Zm24.96 7.057c-.108 1.249-.705 2.498-1.79 3.692v-9.989h1.79v6.297Zm-49.757 3.203c-.814-1.031-1.248-2.117-1.356-3.203v-6.297h1.356v9.5Zm44.06 3.584c-.489.271-1.031.597-1.628.868v-13.898h1.628v13.03Zm-13.782 4.18-1.628.163v-18.024l1.628.163v17.698Zm11.069-2.823-1.628.651V259.69h1.628v14.441Zm-5.535 1.846c-.542.108-1.085.271-1.628.38v-16.613h1.628v16.233Zm-2.767.542c-.543.109-1.085.163-1.628.272v-17.372c.543.054 1.085.162 1.628.271v16.829Z" fill="#ED7B63"/><path d="M72.464 247.475c15.248 0 25.883 6.189 25.883 11.781 0 5.591-10.635 11.78-25.883 11.78-15.247 0-25.882-6.189-25.882-11.78 0-5.592 10.635-11.781 25.882-11.781Z" fill="url(#q)"/><path d="M72.464 271.742c-15.953 0-26.642-6.46-26.642-12.54 0-6.026 10.69-12.541 26.642-12.541s26.642 6.46 26.642 12.541c0 6.08-10.744 12.54-26.642 12.54Zm0-23.507c-14.38 0-25.123 5.809-25.123 11.021 0 5.212 10.744 11.021 25.123 11.021 14.379 0 25.122-5.809 25.122-11.021 0-5.212-10.743-11.021-25.122-11.021Z" fill="#fff"/><path opacity=".25" d="M89.284 267.996c-1.682.706-3.527 1.249-5.535 1.737l-21.324-21.335c2.008-.38 4.178-.706 6.457-.869l20.402 20.467Zm-14.759 2.986c-.705 0-1.356.054-2.062.054-.705 0-1.41 0-2.062-.054l-18.557-18.567a40.934 40.934 0 0 1 2.713-1.465l19.968 20.032Z" fill="#fff"/><path d="M140.126 233.523c3.31 0 6.457.272 9.279.815h16.604v6.351c-.434 5.484-10.907 11.455-25.883 11.455-14.975 0-25.448-5.971-25.882-11.455v-6.351h16.604c2.876-.543 5.969-.815 9.278-.815Z" fill="url(#r)"/><path d="M140.126 252.904c-15.247 0-25.991-6.134-26.588-11.943 0-.055-.054-.163-.054-.217v-6.352c0-.435.325-.76.76-.76h16.603c2.876-.543 6.023-.815 9.279-.815 3.255 0 6.403.272 9.387.815h16.495c.434 0 .76.325.76.76v6.352c0 .108 0 .162-.055.217-.596 5.754-11.34 11.943-26.587 11.943Zm-25.123-12.378v.109c.38 5.103 10.798 10.749 25.123 10.749 14.325 0 24.743-5.646 25.122-10.749v-5.538h-15.844a52.726 52.726 0 0 0-9.278-.814c-3.147 0-6.24.272-9.116.814h-16.007v5.429Z" fill="#fff"/><path d="M162.806 245.412c-.488.435-1.031.815-1.627 1.249v-12.323h1.627v11.074Zm-30.331-11.346v17.264c-.543-.109-1.085-.163-1.628-.272v-16.775h.109c.542-.054 1.03-.108 1.519-.217Zm2.767 17.59-1.628-.163v-17.59l1.628-.163v17.916Zm-13.782-3.638a11.5 11.5 0 0 1-1.628-.923v-12.812h1.628v13.735Zm16.549 3.855c-.542 0-1.085-.054-1.627-.109v-18.132c.542-.054 1.085-.054 1.627-.109v18.35Zm-19.316-5.483a21.519 21.519 0 0 1-1.628-1.303v-10.749h1.628v12.052Zm8.301 3.746-1.627-.489v-15.309h1.627v15.798Zm2.714.705c-.543-.108-1.086-.271-1.628-.38v-16.123h1.628v16.503Zm-5.481-1.628-1.628-.652v-14.223h1.628v14.875Zm30.332.543-1.628.488v-15.961h1.628v15.473Zm-11.069 2.008c-.543.055-1.086.055-1.628.055v-18.296c.542 0 1.085.055 1.628.055v18.186Zm-2.713-18.241v18.35h-1.628v-18.35h1.628Zm24.959 7.058c-.108 1.248-.705 2.497-1.79 3.691v-9.989h1.79v6.298Zm-49.811 3.203c-.814-1.032-1.248-2.117-1.356-3.203v-6.298h1.356v9.501Zm44.114 3.583c-.488.271-1.031.597-1.628.868v-13.897h1.628v13.029Zm-13.782 4.18-1.628.163v-18.024l1.628.163v17.698Zm11.015-2.823c-.543.217-1.031.434-1.628.652v-15.093h1.628v14.441Zm-5.48 1.846c-.543.108-1.086.271-1.628.38v-16.612h1.628v16.232Zm-2.768.597c-.542.109-1.085.163-1.628.272v-17.373c.543.054 1.086.163 1.628.272v16.829Z" fill="#ED7B63"/><path d="M140.126 222.068c15.248 0 25.883 6.189 25.883 11.781 0 5.592-10.635 11.78-25.883 11.78-15.247 0-25.882-6.188-25.882-11.78s10.635-11.781 25.882-11.781Z" fill="url(#s)"/><path d="M140.126 246.39c-15.953 0-26.642-6.461-26.642-12.541 0-6.026 10.689-12.541 26.642-12.541 15.952 0 26.642 6.461 26.642 12.541 0 6.026-10.69 12.541-26.642 12.541Zm0-23.562c-14.379 0-25.123 5.809-25.123 11.021 0 5.212 10.744 11.02 25.123 11.02 14.379 0 25.122-5.808 25.122-11.02s-10.743-11.021-25.122-11.021Z" fill="#fff"/><path opacity=".25" d="M157.001 242.589c-1.682.706-3.527 1.249-5.534 1.737l-21.325-21.335c2.008-.38 4.178-.706 6.457-.869l20.402 20.467Zm-14.759 2.986c-.705.054-1.356.054-2.061.054-.706 0-1.411 0-2.062-.054l-18.557-18.567a40.63 40.63 0 0 1 2.713-1.465l19.967 20.032Z" fill="#fff"/><path d="M140.126 224.185c3.31 0 6.457.272 9.279.815h16.604v6.351c-.434 5.484-10.907 11.455-25.883 11.455-14.975 0-25.448-5.971-25.882-11.455V225h16.604c2.876-.489 5.969-.815 9.278-.815Z" fill="url(#t)"/><path d="M140.126 243.566c-15.247 0-25.991-6.134-26.588-11.943 0-.054-.054-.163-.054-.217v-6.352c0-.434.325-.76.76-.76h16.603c2.876-.543 6.023-.814 9.279-.814 3.255 0 6.403.271 9.387.814h16.495c.434 0 .76.326.76.76v6.352c0 .108 0 .163-.055.217-.596 5.809-11.34 11.943-26.587 11.943Zm-25.123-12.377v.108c.38 5.103 10.798 10.749 25.123 10.749 14.325 0 24.743-5.646 25.122-10.749v-5.537h-15.844a52.632 52.632 0 0 0-9.278-.815c-3.147 0-6.24.272-9.116.815h-16.007v5.429Z" fill="#fff"/><path d="M162.806 236.129c-.488.434-1.031.814-1.627 1.248v-12.323h1.627v11.075Zm-30.331-11.347v17.264c-.543-.108-1.085-.163-1.628-.271V225h.109c.542-.055 1.03-.163 1.519-.218Zm2.767 17.59-1.628-.163V224.62l1.628-.163v17.915Zm-13.782-3.637a11.6 11.6 0 0 1-1.628-.923V225h1.628v13.735Zm16.549 3.8c-.542 0-1.085-.054-1.627-.109v-18.132c.542-.054 1.085-.054 1.627-.109v18.35Zm-19.316-5.483a21.519 21.519 0 0 1-1.628-1.303V225h1.628v12.052Zm8.301 3.8-1.627-.489v-15.309h1.627v15.798Zm2.714.706c-.543-.109-1.086-.272-1.628-.38v-16.124h1.628v16.504Zm-5.481-1.629-1.628-.651v-14.224h1.628v14.875Zm30.332.543-1.628.489V225h1.628v15.472Zm-11.069 2.009c-.543.054-1.086.054-1.628.054V224.24c.542 0 1.085.054 1.628.054v18.187Zm-2.713-18.241v18.349h-1.628V224.24h1.031c.163-.055.38 0 .597 0Zm24.959 7.057c-.108 1.249-.705 2.497-1.79 3.692V225h1.79v6.297Zm-49.811 3.203c-.814-1.031-1.248-2.117-1.356-3.203V225h1.356v9.5Zm44.114 3.529c-.488.271-1.031.597-1.628.869V225h1.628v13.029Zm-13.782 4.234-1.628.163v-18.024l1.628.163v17.698Zm11.015-2.823c-.543.218-1.031.435-1.628.652V225h1.628v14.44Zm-5.48 1.792c-.543.109-1.086.271-1.628.38V225h1.628v16.232Zm-2.768.597c-.542.109-1.085.163-1.628.272v-17.373c.543.054 1.086.163 1.628.272v16.829Z" fill="#ED7B63"/><path d="M140.126 212.73c15.248 0 25.883 6.189 25.883 11.781 0 5.592-10.635 11.781-25.883 11.781-15.247 0-25.882-6.189-25.882-11.781 0-5.537 10.635-11.781 25.882-11.781Z" fill="url(#u)"/><path d="M140.126 237.052c-15.953 0-26.642-6.461-26.642-12.541 0-6.026 10.689-12.541 26.642-12.541 15.952 0 26.642 6.461 26.642 12.541s-10.69 12.541-26.642 12.541Zm0-23.561c-14.379 0-25.123 5.808-25.123 11.02s10.744 11.021 25.123 11.021c14.379 0 25.122-5.809 25.122-11.021 0-5.212-10.743-11.02-25.122-11.02Z" fill="#fff"/><path opacity=".25" d="M157.001 233.306c-1.682.706-3.527 1.248-5.534 1.737l-21.325-21.335c2.008-.38 4.178-.706 6.457-.869l20.402 20.467Zm-14.759 2.931c-.705 0-1.356.055-2.061.055-.706 0-1.411 0-2.062-.055l-18.557-18.566a40.17 40.17 0 0 1 2.713-1.466l19.967 20.032Z" fill="#fff"/><path d="M140.126 214.902c3.31 0 6.457.272 9.279.815h16.604v6.351c-.434 5.484-10.907 11.455-25.883 11.455-14.975 0-25.448-5.971-25.882-11.455v-6.351h16.604c2.876-.543 5.969-.815 9.278-.815Z" fill="url(#v)"/><path d="M140.126 234.283c-15.247 0-25.991-6.134-26.588-11.943 0-.055-.054-.163-.054-.217v-6.352c0-.434.325-.76.76-.76h16.603c2.876-.543 6.023-.815 9.279-.815 3.255 0 6.403.272 9.387.815h16.495c.434 0 .76.326.76.76v6.352c0 .108 0 .162-.055.217-.596 5.809-11.34 11.943-26.587 11.943Zm-25.123-12.378v.109c.38 5.049 10.798 10.749 25.123 10.749 14.325 0 24.743-5.646 25.122-10.749v-5.537h-15.844a52.632 52.632 0 0 0-9.278-.815c-3.147 0-6.24.272-9.116.815h-16.007v5.428Z" fill="#fff"/><path d="M162.806 226.792c-.488.434-1.031.814-1.627 1.248v-12.323h1.627v11.075Zm-30.331-11.347v17.264c-.543-.109-1.085-.163-1.628-.271v-16.776h.109c.542-.054 1.03-.108 1.519-.217Zm2.767 17.59-1.628-.163v-17.59l1.628-.163v17.916Zm-13.782-3.638a11.597 11.597 0 0 1-1.628-.922v-12.813h1.628v13.735Zm16.549 3.855c-.542 0-1.085-.054-1.627-.109v-18.078c.542-.054 1.085-.054 1.627-.108v18.295Zm-19.316-5.483a21.519 21.519 0 0 1-1.628-1.303v-10.749h1.628v12.052Zm8.301 3.746-1.627-.489v-15.309h1.627v15.798Zm2.714.705c-.543-.108-1.086-.271-1.628-.38v-16.123h1.628v16.503Zm-5.481-1.628-1.628-.652v-14.223h1.628v14.875Zm30.332.543-1.628.488v-15.961h1.628v15.473Zm-11.069 2.063c-.543.054-1.086.054-1.628.054v-18.295c.542 0 1.085.054 1.628.054v18.187Zm-2.713-18.296v18.35h-1.628v-18.35h1.628Zm24.959 7.058c-.108 1.249-.705 2.497-1.79 3.691v-9.989h1.79v6.298Zm-49.811 3.203c-.814-1.032-1.248-2.117-1.356-3.203v-6.298h1.356v9.501Zm44.114 3.583c-.488.271-1.031.597-1.628.869v-13.898h1.628v13.029Zm-13.782 4.18-1.628.163v-18.024l1.628.163v17.698Zm11.015-2.823c-.543.217-1.031.434-1.628.652v-15.093h1.628v14.441Zm-5.48 1.846c-.543.109-1.086.271-1.628.38v-16.612h1.628v16.232Zm-2.768.597c-.542.109-1.085.163-1.628.272v-17.373c.543.055 1.086.163 1.628.272v16.829Z" fill="#ED7B63"/><path d="M140.126 203.447c15.248 0 25.883 6.189 25.883 11.781 0 5.592-10.635 11.781-25.883 11.781-15.247 0-25.882-6.189-25.882-11.781 0-5.592 10.635-11.781 25.882-11.781Z" fill="url(#w)"/><path d="M140.126 227.769c-15.953 0-26.642-6.461-26.642-12.541 0-6.026 10.689-12.541 26.642-12.541 15.952 0 26.642 6.461 26.642 12.541 0 6.026-10.69 12.541-26.642 12.541Zm0-23.562c-14.379 0-25.123 5.809-25.123 11.021 0 5.212 10.744 11.021 25.123 11.021 14.379 0 25.122-5.809 25.122-11.021 0-5.212-10.743-11.021-25.122-11.021Z" fill="#fff"/><path opacity=".25" d="M157.001 224.023c-1.682.705-3.527 1.248-5.534 1.737l-21.325-21.336c2.008-.38 4.178-.705 6.457-.868l20.402 20.467Zm-14.759 2.931c-.705.055-1.356.055-2.061.055-.706 0-1.411 0-2.062-.055l-18.557-18.567a40.63 40.63 0 0 1 2.713-1.465l19.967 20.032Z" fill="#fff"/><path d="M140.126 205.564c3.31 0 6.457.272 9.279.815h16.604v6.351c-.434 5.484-10.907 11.455-25.883 11.455-14.975 0-25.448-5.971-25.882-11.455v-6.351h16.604c2.876-.489 5.969-.815 9.278-.815Z" fill="url(#x)"/><path d="M140.126 224.945c-15.247 0-25.991-6.134-26.588-11.943 0-.054-.054-.163-.054-.217v-6.406c0-.435.325-.76.76-.76h16.603c2.876-.543 6.023-.815 9.279-.815 3.255 0 6.403.272 9.387.815h16.495c.434 0 .76.325.76.76v6.351c0 .109 0 .163-.055.218-.596 5.863-11.34 11.997-26.587 11.997Zm-25.123-12.377v.108c.38 5.049 10.798 10.749 25.123 10.749 14.325 0 24.743-5.646 25.122-10.749v-5.537h-15.844a52.632 52.632 0 0 0-9.278-.815c-3.147 0-6.24.272-9.116.815h-16.007v5.429Z" fill="#fff"/><path d="M162.806 217.508c-.488.434-1.031.814-1.627 1.248v-12.377h1.627v11.129Zm-30.331-11.346v17.263c-.543-.108-1.085-.163-1.628-.271v-16.775h.109c.542-.055 1.03-.163 1.519-.217Zm2.767 17.589-1.628-.163v-17.589l1.628-.163v17.915Zm-13.782-3.637a11.6 11.6 0 0 1-1.628-.923v-12.812h1.628v13.735Zm16.549 3.8c-.542 0-1.085-.054-1.627-.109v-18.132c.542-.054 1.085-.054 1.627-.109v18.35Zm-19.316-5.483a21.519 21.519 0 0 1-1.628-1.303v-10.749h1.628v12.052Zm8.301 3.8-1.627-.489v-15.363h1.627v15.852Zm2.714.706c-.543-.109-1.086-.272-1.628-.38v-16.178h1.628v16.558Zm-5.481-1.629-1.628-.651v-14.278h1.628v14.929Zm30.332.543-1.628.489v-15.961h1.628v15.472Zm-11.069 2.009c-.543.054-1.086.054-1.628.054v-18.295c.542 0 1.085.054 1.628.054v18.187Zm-2.713-18.241v18.349h-1.628v-18.349h1.031c.163-.055.38 0 .597 0Zm24.959 7.057c-.108 1.249-.705 2.497-1.79 3.692v-9.989h1.79v6.297Zm-49.811 3.203c-.814-1.031-1.248-2.117-1.356-3.203v-6.297h1.356v9.5Zm44.114 3.583c-.488.272-1.031.597-1.628.869v-13.952h1.628v13.083Zm-13.782 4.18-1.628.163v-18.024l1.628.163v17.698Zm11.015-2.823c-.543.218-1.031.435-1.628.652v-15.092h1.628v14.44Zm-5.48 1.792c-.543.109-1.086.271-1.628.38v-16.612h1.628v16.232Zm-2.768.597c-.542.109-1.085.163-1.628.272v-17.373c.543.055 1.086.163 1.628.272v16.829Z" fill="#ED7B63"/><path d="M140.126 194.164c15.248 0 25.883 6.189 25.883 11.78 0 5.592-10.635 11.781-25.883 11.781-15.247 0-25.882-6.189-25.882-11.781 0-5.591 10.635-11.78 25.882-11.78Z" fill="url(#y)"/><path d="M140.126 218.431c-15.953 0-26.642-6.461-26.642-12.541 0-6.026 10.689-12.541 26.642-12.541 15.952 0 26.642 6.461 26.642 12.541s-10.69 12.541-26.642 12.541Zm0-23.507c-14.379 0-25.123 5.809-25.123 11.02 0 5.212 10.744 11.021 25.123 11.021 14.379 0 25.122-5.809 25.122-11.021 0-5.211-10.743-11.02-25.122-11.02Z" fill="#fff"/><path opacity=".25" d="M157.001 214.685c-1.682.705-3.527 1.248-5.534 1.737l-21.325-21.336c2.008-.38 4.178-.705 6.457-.868l20.402 20.467Zm-14.759 2.931c-.705 0-1.356.055-2.061.055-.706 0-1.411 0-2.062-.055l-18.557-18.566a40.17 40.17 0 0 1 2.713-1.466l19.967 20.032Z" fill="#fff"/><path d="M140.126 195.467c3.31 0 6.457.271 9.279.814h16.604v6.352c-.434 5.483-10.907 11.455-25.883 11.455-14.975 0-25.448-5.972-25.882-11.455v-6.352h16.604c2.876-.488 5.969-.814 9.278-.814Z" fill="url(#z)"/><path d="M140.126 214.848c-15.247 0-25.991-6.135-26.588-11.944 0-.054-.054-.163-.054-.217v-6.352c0-.434.325-.76.76-.76h16.603c2.876-.543 6.023-.814 9.279-.814 3.255 0 6.403.271 9.387.814h16.495c.434 0 .76.326.76.76v6.352c0 .109 0 .163-.055.217-.596 5.809-11.34 11.944-26.587 11.944Zm-25.123-12.378v.109c.38 5.103 10.798 10.749 25.123 10.749 14.325 0 24.743-5.646 25.122-10.749v-5.538h-15.844a52.182 52.182 0 0 0-9.278-.814c-3.147 0-6.24.271-9.116.814h-16.007v5.429Z" fill="#fff"/><path d="M162.806 207.41c-.488.435-1.031.815-1.627 1.249v-12.324h1.627v11.075Zm-30.331-11.346v17.264c-.543-.109-1.085-.163-1.628-.272v-16.775h.109c.542-.054 1.03-.163 1.519-.217Zm2.767 17.59-1.628-.163v-17.59l1.628-.163v17.916Zm-13.782-3.638a11.5 11.5 0 0 1-1.628-.923v-12.812h1.628v13.735Zm16.549 3.8c-.542 0-1.085-.054-1.627-.108v-18.133c.542-.054 1.085-.054 1.627-.108v18.349Zm-19.316-5.483a21.032 21.032 0 0 1-1.628-1.303v-10.749h1.628v12.052Zm8.301 3.8-1.627-.488v-15.31h1.627v15.798Zm2.714.706c-.543-.108-1.086-.271-1.628-.38v-16.124h1.628v16.504Zm-5.481-1.628-1.628-.652v-14.224h1.628v14.876Zm30.332.542-1.628.489v-15.961h1.628v15.472Zm-11.069 2.009c-.543.054-1.086.054-1.628.054v-18.295c.542 0 1.085.054 1.628.054v18.187Zm-2.713-18.241v18.35h-1.628v-18.35h1.031c.163-.054.38 0 .597 0Zm24.959 7.058c-.108 1.248-.705 2.497-1.79 3.691v-9.989h1.79v6.298Zm-49.811 3.203c-.814-1.032-1.248-2.118-1.356-3.203v-6.298h1.356v9.501Zm44.114 3.583c-.488.271-1.031.597-1.628.868v-13.898h1.628v13.03Zm-13.782 4.18-1.628.163v-18.024l1.628.163v17.698Zm11.015-2.823c-.543.217-1.031.434-1.628.651v-15.092h1.628v14.441Zm-5.48 1.791c-.543.109-1.086.272-1.628.38v-16.612h1.628v16.232Zm-2.768.598c-.542.108-1.085.163-1.628.271V196.01c.543.054 1.086.163 1.628.271v16.83Z" fill="#ED7B63"/><path d="M140.126 184.066c15.248 0 25.883 6.189 25.883 11.781 0 5.592-10.635 11.781-25.883 11.781-15.247 0-25.882-6.189-25.882-11.781 0-5.592 10.635-11.781 25.882-11.781Z" fill="url(#A)"/><path d="M140.126 208.333c-15.953 0-26.642-6.46-26.642-12.541 0-6.08 10.689-12.54 26.642-12.54 15.952 0 26.642 6.46 26.642 12.54 0 6.081-10.69 12.541-26.642 12.541Zm0-23.561c-14.379 0-25.123 5.809-25.123 11.02 0 5.212 10.744 11.021 25.123 11.021 14.379 0 25.122-5.809 25.122-11.021 0-5.157-10.743-11.02-25.122-11.02Z" fill="#fff"/><path opacity=".25" d="M157.001 204.587c-1.682.706-3.527 1.249-5.534 1.737l-21.325-21.335c2.008-.38 4.178-.706 6.457-.869l20.402 20.467Zm-14.759 2.932c-.705 0-1.356.054-2.061.054-.706 0-1.411 0-2.062-.054l-18.557-18.567a40.622 40.622 0 0 1 2.713-1.466l19.967 20.033Z" fill="#fff"/><path d="M140.126 186.183c3.31 0 6.457.272 9.279.815h16.604v6.351c-.434 5.484-10.907 11.455-25.883 11.455-14.975 0-25.448-5.971-25.882-11.455v-6.351h16.604c2.876-.543 5.969-.815 9.278-.815Z" fill="url(#B)"/><path d="M140.126 205.564c-15.247 0-25.991-6.134-26.588-11.943 0-.054-.054-.163-.054-.217v-6.352c0-.434.325-.76.76-.76h16.603c2.876-.543 6.023-.814 9.279-.814 3.255 0 6.403.271 9.387.814h16.495c.434 0 .76.326.76.76v6.297c0 .109 0 .163-.055.218-.596 5.863-11.34 11.997-26.587 11.997Zm-25.123-12.377v.108c.38 5.103 10.798 10.749 25.123 10.749 14.325 0 24.743-5.646 25.122-10.749v-5.537h-15.844a52.182 52.182 0 0 0-9.278-.815c-3.147 0-6.24.272-9.116.815h-16.007v5.429Z" fill="#fff"/><path d="M162.806 198.073c-.488.434-1.031.814-1.627 1.248v-12.323h1.627v11.075Zm-30.331-11.347v17.264c-.543-.109-1.085-.163-1.628-.271v-16.776h.109c.542-.054 1.03-.108 1.519-.217Zm2.767 17.59-1.628-.163v-17.59l1.628-.162v17.915Zm-13.782-3.638a11.597 11.597 0 0 1-1.628-.922v-12.813h1.628v13.735Zm16.549 3.855c-.542 0-1.085-.054-1.627-.109v-18.132c.542-.054 1.085-.054 1.627-.109v18.35Zm-19.316-5.483a21.519 21.519 0 0 1-1.628-1.303v-10.749h1.628v12.052Zm8.301 3.746-1.627-.489v-15.309h1.627v15.798Zm2.714.705c-.543-.108-1.086-.271-1.628-.38v-16.123h1.628v16.503Zm-5.481-1.628-1.628-.652v-14.223h1.628v14.875Zm30.332.597-1.628.489v-15.961h1.628v15.472Zm-11.069 2.009c-.543.054-1.086.054-1.628.054v-18.295c.542 0 1.085.054 1.628.054v18.187Zm-2.713-18.296v18.35h-1.628v-18.35h1.628Zm24.959 7.112c-.108 1.249-.705 2.497-1.79 3.692v-9.989h1.79v6.297Zm-49.811 3.149c-.814-1.032-1.248-2.117-1.356-3.203v-6.298h1.356v9.501Zm44.114 3.583c-.488.271-1.031.597-1.628.869v-13.898h1.628v13.029Zm-13.782 4.18-1.628.163v-18.024l1.628.163v17.698Zm11.015-2.823c-.543.217-1.031.435-1.628.652v-15.093h1.628v14.441Zm-5.48 1.846c-.543.109-1.086.271-1.628.38v-16.612h1.628v16.232Zm-2.768.597c-.542.109-1.085.163-1.628.272v-17.373c.543.055 1.086.163 1.628.272v16.829Z" fill="#ED7B63"/><path d="M140.126 174.729c15.248 0 25.883 6.188 25.883 11.78s-10.635 11.781-25.883 11.781c-15.247 0-25.882-6.189-25.882-11.781 0-5.592 10.635-11.78 25.882-11.78Z" fill="url(#C)"/><path d="M140.126 199.05c-15.953 0-26.642-6.46-26.642-12.541 0-6.08 10.689-12.54 26.642-12.54 15.952 0 26.642 6.46 26.642 12.54 0 6.026-10.69 12.541-26.642 12.541Zm0-23.561c-14.379 0-25.123 5.808-25.123 11.02s10.744 11.021 25.123 11.021c14.379 0 25.122-5.809 25.122-11.021 0-5.212-10.743-11.02-25.122-11.02Z" fill="#fff"/><path opacity=".25" d="M157.001 195.304a44.348 44.348 0 0 1-5.534 1.737l-21.325-21.335c2.008-.38 4.178-.706 6.457-.869l20.402 20.467Zm-14.759 2.932c-.705 0-1.356.054-2.061.054-.706 0-1.411 0-2.062-.054l-18.557-18.567a40.622 40.622 0 0 1 2.713-1.466l19.967 20.033Z" fill="#fff"/><path d="M140.126 176.846c3.31 0 6.457.271 9.279.814h16.604v6.352c-.434 5.483-10.907 11.455-25.883 11.455-14.975 0-25.448-5.972-25.882-11.455v-6.352h16.604c2.876-.489 5.969-.814 9.278-.814Z" fill="url(#D)"/><path d="M140.126 196.227c-15.247 0-25.991-6.135-26.588-11.944 0-.054-.054-.163-.054-.217v-6.352c0-.434.325-.76.76-.76h16.603c2.876-.543 6.023-.814 9.279-.814 3.255 0 6.403.271 9.387.814h16.495c.434 0 .76.326.76.76v6.352c0 .108 0 .163-.055.217-.596 5.809-11.34 11.944-26.587 11.944Zm-25.123-12.378v.108c.38 5.103 10.798 10.75 25.123 10.75 14.325 0 24.743-5.647 25.122-10.75v-5.537h-15.844a52.182 52.182 0 0 0-9.278-.814c-3.147 0-6.24.271-9.116.814h-16.007v5.429Z" fill="#fff"/><path d="M162.806 188.789c-.488.434-1.031.814-1.627 1.249v-12.324h1.627v11.075Zm-30.331-11.346v17.264c-.543-.109-1.085-.163-1.628-.272v-16.721h.109c.542-.108 1.03-.217 1.519-.271Zm2.767 17.589-1.628-.163V177.28l1.628-.163v17.915Zm-13.782-3.637a11.5 11.5 0 0 1-1.628-.923V177.66h1.628v13.735Zm16.549 3.8c-.542 0-1.085-.054-1.627-.108v-18.133c.542-.054 1.085-.054 1.627-.108v18.349Zm-19.316-5.483a21.273 21.273 0 0 1-1.628-1.303V177.66h1.628v12.052Zm8.301 3.8-1.627-.488v-15.31h1.627v15.798Zm2.714.706c-.543-.109-1.086-.271-1.628-.38v-16.124h1.628v16.504Zm-5.481-1.629-1.628-.651v-14.224h1.628v14.875Zm30.332.543-1.628.489V177.66h1.628v15.472Zm-11.069 2.009c-.543.054-1.086.054-1.628.054V176.9c.542 0 1.085.054 1.628.054v18.187Zm-2.713-18.241v18.35h-1.628V176.9h1.031c.163-.054.38 0 .597 0Zm24.959 7.057c-.108 1.249-.705 2.498-1.79 3.692v-9.989h1.79v6.297Zm-49.811 3.203c-.814-1.031-1.248-2.117-1.356-3.203v-6.297h1.356v9.5Zm44.114 3.584c-.488.271-1.031.597-1.628.868v-13.898h1.628v13.03Zm-13.782 4.18-1.628.163v-18.024l1.628.163v17.698Zm11.015-2.823c-.543.217-1.031.434-1.628.651v-15.038h1.628v14.387Zm-5.48 1.846c-.543.108-1.086.271-1.628.38v-16.613h1.628v16.233Zm-2.768.542c-.542.109-1.085.163-1.628.272v-17.372c.543.054 1.086.162 1.628.271v16.829Z" fill="#ED7B63"/><path d="M140.126 165.445c15.248 0 25.883 6.189 25.883 11.781 0 5.591-10.635 11.78-25.883 11.78-15.247 0-25.882-6.189-25.882-11.78 0-5.592 10.635-11.781 25.882-11.781Z" fill="url(#E)"/><path d="M140.126 189.712c-15.953 0-26.642-6.46-26.642-12.541 0-6.026 10.689-12.54 26.642-12.54 15.952 0 26.642 6.46 26.642 12.54 0 6.081-10.69 12.541-26.642 12.541Zm0-23.507c-14.379 0-25.123 5.809-25.123 11.021 0 5.211 10.744 11.02 25.123 11.02 14.379 0 25.122-5.809 25.122-11.02 0-5.212-10.743-11.021-25.122-11.021Z" fill="#fff"/><path opacity=".25" d="M157.001 185.966c-1.682.706-3.527 1.249-5.534 1.737l-21.325-21.335c2.008-.38 4.178-.706 6.457-.869l20.402 20.467Zm-14.759 2.932c-.705 0-1.356.054-2.061.054-.706 0-1.411 0-2.062-.054l-18.557-18.567a40.622 40.622 0 0 1 2.713-1.466l19.967 20.033Z" fill="#fff"/><path d="M140.126 167.562c3.31 0 6.457.272 9.279.815h16.604v6.351c-.434 5.484-10.907 11.455-25.883 11.455-14.975 0-25.448-5.971-25.882-11.455v-6.351h16.604c2.876-.489 5.969-.815 9.278-.815Z" fill="url(#F)"/><path d="M140.126 186.944c-15.247 0-25.991-6.135-26.588-11.944 0-.054-.054-.163-.054-.217v-6.406c0-.434.325-.76.76-.76h16.603c2.876-.543 6.023-.814 9.279-.814 3.255 0 6.403.271 9.387.814h16.495c.434 0 .76.326.76.76v6.352c0 .108 0 .163-.055.217-.596 5.863-11.34 11.998-26.587 11.998Zm-25.123-12.378v.108c.38 5.104 10.798 10.75 25.123 10.75 14.325 0 24.743-5.646 25.122-10.75v-5.537h-15.844a52.631 52.631 0 0 0-9.278-.814c-3.147 0-6.24.271-9.116.814h-16.007v5.429Z" fill="#fff"/><path d="M162.806 179.452c-.488.434-1.031.814-1.627 1.248v-12.323h1.627v11.075Zm-30.331-11.292v17.263c-.543-.054-1.085-.163-1.628-.271v-16.775h.109a16.71 16.71 0 0 1 1.519-.217Zm2.767 17.589-1.628-.163v-17.589l1.628-.163v17.915Zm-13.782-3.692a11.597 11.597 0 0 1-1.628-.922v-12.758h1.628v13.68Zm16.549 3.855c-.542 0-1.085-.054-1.627-.109v-18.132c.542-.054 1.085-.054 1.627-.109v18.35Zm-19.316-5.483a21.273 21.273 0 0 1-1.628-1.303v-10.749h1.628v12.052Zm8.301 3.746-1.627-.489v-15.309h1.627v15.798Zm2.714.705c-.543-.108-1.086-.271-1.628-.38v-16.123h1.628v16.503Zm-5.481-1.574-1.628-.651v-14.278h1.628v14.929Zm30.332.543-1.628.489v-15.961h1.628v15.472Zm-11.069 2.009c-.543.054-1.086.054-1.628.054v-18.295c.542 0 1.085.054 1.628.054v18.187Zm-2.713-18.296v18.35h-1.628v-18.35h1.628Zm24.959 7.112c-.108 1.249-.705 2.497-1.79 3.692v-9.989h1.79v6.297Zm-49.811 3.149c-.814-1.032-1.248-2.117-1.356-3.203v-6.243h1.356v9.446Zm44.114 3.583c-.488.326-1.031.597-1.628.869v-13.898h1.628v13.029Zm-13.782 4.18-1.628.163v-18.024l1.628.163v17.698Zm11.015-2.768c-.543.217-1.031.434-1.628.651v-15.092h1.628v14.441Zm-5.48 1.791c-.543.109-1.086.271-1.628.38v-16.612h1.628v16.232Zm-2.768.597c-.542.109-1.085.163-1.628.272v-17.373c.543.055 1.086.163 1.628.272v16.829Z" fill="#ED7B63"/><path d="M140.126 156.108c15.248 0 25.883 6.188 25.883 11.78s-10.635 11.781-25.883 11.781c-15.247 0-25.882-6.189-25.882-11.781 0-5.592 10.635-11.78 25.882-11.78Z" fill="url(#G)"/><path d="M140.126 180.429c-15.953 0-26.642-6.46-26.642-12.541 0-6.026 10.689-12.54 26.642-12.54 15.952 0 26.642 6.46 26.642 12.54 0 6.026-10.69 12.541-26.642 12.541Zm0-23.561c-14.379 0-25.123 5.809-25.123 11.02 0 5.212 10.744 11.021 25.123 11.021 14.379 0 25.122-5.809 25.122-11.021 0-5.211-10.743-11.02-25.122-11.02Z" fill="#fff"/><path opacity=".25" d="M157.001 176.683c-1.682.706-3.527 1.249-5.534 1.737l-21.325-21.335c2.008-.38 4.178-.706 6.457-.869l20.402 20.467Zm-14.759 2.932c-.705 0-1.356.054-2.061.054-.706 0-1.411 0-2.062-.054l-18.557-18.567a40.622 40.622 0 0 1 2.713-1.466l19.967 20.033Z" fill="#fff"/><path d="M140.126 157.464c3.31 0 6.457.272 9.279.815h16.604v6.352c-.434 5.483-10.907 11.454-25.883 11.454-14.975 0-25.448-5.971-25.882-11.454v-6.352h16.604c2.876-.543 5.969-.815 9.278-.815Z" fill="url(#H)"/><path d="M140.126 176.845c-15.247 0-25.991-6.134-26.588-11.943 0-.054-.054-.163-.054-.217v-6.352c0-.434.325-.76.76-.76h16.603c2.876-.543 6.023-.814 9.279-.814 3.255 0 6.403.271 9.387.814h16.495c.434 0 .76.326.76.76v6.352c0 .108 0 .163-.055.217-.596 5.809-11.34 11.943-26.587 11.943Zm-25.123-12.377v.108c.38 5.103 10.798 10.749 25.123 10.749 14.325 0 24.743-5.646 25.122-10.749v-5.537h-15.844a52.182 52.182 0 0 0-9.278-.815c-3.147 0-6.24.272-9.116.815h-16.007v5.429Z" fill="#fff"/><path d="M162.806 169.354c-.488.434-1.031.814-1.627 1.248v-12.323h1.627v11.075Zm-30.331-11.347v17.264c-.543-.108-1.085-.163-1.628-.271v-16.775h.109c.542-.055 1.03-.109 1.519-.218Zm2.767 17.644-1.628-.163v-17.589l1.628-.163v17.915Zm-13.782-3.691a11.7 11.7 0 0 1-1.628-.923v-12.812h1.628v13.735Zm16.549 3.854c-.542 0-1.085-.054-1.627-.109v-18.132c.542-.054 1.085-.054 1.627-.109v18.35Zm-19.316-5.483a21.273 21.273 0 0 1-1.628-1.303v-10.749h1.628v12.052Zm8.301 3.746-1.627-.489v-15.309h1.627v15.798Zm2.714.706c-.543-.109-1.086-.272-1.628-.38v-16.124h1.628v16.504Zm-5.481-1.575-1.628-.651v-14.224h1.628v14.875Zm30.332.543-1.628.489v-15.961h1.628v15.472Zm-11.069 2.009c-.543.054-1.086.054-1.628.054v-18.295c.542 0 1.085.054 1.628.054v18.187Zm-2.713-18.296v18.35h-1.628v-18.35h1.628Zm24.959 7.112c-.108 1.249-.705 2.498-1.79 3.692v-9.989h1.79v6.297Zm-49.811 3.149c-.814-1.031-1.248-2.117-1.356-3.203v-6.297h1.356v9.5Zm44.114 3.583c-.488.272-1.031.597-1.628.869v-13.898h1.628v13.029Zm-13.782 4.18-1.628.163v-18.024l1.628.163v17.698Zm11.015-2.823c-.543.217-1.031.435-1.628.652v-15.092h1.628v14.44Zm-5.48 1.846c-.543.109-1.086.272-1.628.38v-16.612h1.628v16.232Zm-2.768.597c-.542.109-1.085.163-1.628.272v-17.373c.543.055 1.086.163 1.628.272v16.829Z" fill="#ED7B63"/><path d="M140.126 146.009c15.248 0 25.883 6.189 25.883 11.781 0 5.592-10.635 11.781-25.883 11.781-15.247 0-25.882-6.189-25.882-11.781 0-5.592 10.635-11.781 25.882-11.781Z" fill="url(#I)"/><path d="M140.126 170.331c-15.953 0-26.642-6.461-26.642-12.541s10.689-12.541 26.642-12.541c15.952 0 26.642 6.461 26.642 12.541s-10.69 12.541-26.642 12.541Zm0-23.562c-14.379 0-25.123 5.809-25.123 11.021 0 5.212 10.744 11.021 25.123 11.021 14.379 0 25.122-5.809 25.122-11.021 0-5.212-10.743-11.021-25.122-11.021Z" fill="#fff"/><path opacity=".25" d="M157.001 166.585c-1.682.706-3.527 1.248-5.534 1.737l-21.325-21.335c2.008-.38 4.178-.706 6.457-.869l20.402 20.467Zm-14.759 2.931c-.705 0-1.356.055-2.061.055-.706 0-1.411 0-2.062-.055l-18.557-18.566a40.17 40.17 0 0 1 2.713-1.466l19.967 20.032Z" fill="#fff"/><path d="M140.126 148.181c3.31 0 6.457.271 9.279.814h16.604v6.352c-.434 5.483-10.907 11.455-25.883 11.455-14.975 0-25.448-5.972-25.882-11.455v-6.352h16.604c2.876-.543 5.969-.814 9.278-.814Z" fill="url(#J)"/><path d="M140.126 167.508c-15.247 0-25.991-6.135-26.588-11.944 0-.054-.054-.163-.054-.217v-6.352c0-.434.325-.76.76-.76h16.603c2.876-.543 6.023-.814 9.279-.814 3.255 0 6.403.271 9.387.814h16.495c.434 0 .76.326.76.76v6.352c0 .109 0 .163-.055.217-.596 5.809-11.34 11.944-26.587 11.944Zm-25.123-12.324v.109c.38 5.103 10.798 10.749 25.123 10.749 14.325 0 24.743-5.646 25.122-10.749v-5.538h-15.844a52.182 52.182 0 0 0-9.278-.814c-3.147 0-6.24.271-9.116.814h-16.007v5.429Z" fill="#fff"/><path d="M162.806 160.07c-.488.435-1.031.815-1.627 1.249v-12.324h1.627v11.075Zm-30.331-11.346v17.264c-.543-.109-1.085-.163-1.628-.272v-16.721h.109c.542-.108 1.03-.217 1.519-.271Zm2.767 17.589-1.628-.162v-17.59l1.628-.163v17.915Zm-13.782-3.637a11.5 11.5 0 0 1-1.628-.923v-12.812h1.628v13.735Zm16.549 3.8c-.542 0-1.085-.054-1.627-.108V148.29c.542-.055 1.085-.055 1.627-.109v18.295Zm-19.316-5.483a21.032 21.032 0 0 1-1.628-1.303v-10.749h1.628v12.052Zm8.301 3.8-1.627-.488v-15.31h1.627v15.798Zm2.714.706c-.543-.108-1.086-.271-1.628-.38v-16.124h1.628v16.504Zm-5.481-1.629-1.628-.651v-14.224h1.628v14.875Zm30.332.543-1.628.489v-15.961h1.628v15.472Zm-11.069 2.009c-.543.054-1.086.054-1.628.054v-18.295c.542 0 1.085.054 1.628.054v18.187Zm-2.713-18.241v18.35h-1.628v-18.35h1.628Zm24.959 7.058c-.108 1.248-.705 2.497-1.79 3.691v-9.989h1.79v6.298Zm-49.811 3.203c-.814-1.032-1.248-2.118-1.356-3.203v-6.298h1.356v9.501Zm44.114 3.583c-.488.325-1.031.597-1.628.868v-13.898h1.628v13.03Zm-13.782 4.18-1.628.163v-18.024l1.628.163v17.698Zm11.015-2.823c-.543.217-1.031.434-1.628.651v-15.092h1.628v14.441Zm-5.48 1.846c-.543.108-1.086.271-1.628.38v-16.613h1.628v16.233Zm-2.768.543c-.542.108-1.085.162-1.628.271V148.67c.543.054 1.086.163 1.628.271v16.83Z" fill="#ED7B63"/><path d="M140.126 136.726c15.248 0 25.883 6.189 25.883 11.781 0 5.592-10.635 11.781-25.883 11.781-15.247 0-25.882-6.189-25.882-11.781 0-5.592 10.635-11.781 25.882-11.781Z" fill="url(#K)"/><path d="M140.126 160.993c-15.953 0-26.642-6.46-26.642-12.54 0-6.081 10.689-12.541 26.642-12.541 15.952 0 26.642 6.46 26.642 12.541 0 6.08-10.69 12.54-26.642 12.54Zm0-23.507c-14.379 0-25.123 5.809-25.123 11.021 0 5.212 10.744 11.02 25.123 11.02 14.379 0 25.122-5.808 25.122-11.02s-10.743-11.021-25.122-11.021Z" fill="#fff"/><path opacity=".25" d="M157.001 157.247c-1.682.706-3.527 1.249-5.534 1.737l-21.325-21.335c2.008-.38 4.178-.706 6.457-.869l20.402 20.467Zm-14.759 2.986c-.705 0-1.356.054-2.061.054-.706 0-1.411 0-2.062-.054l-18.557-18.567a40.63 40.63 0 0 1 2.713-1.465l19.967 20.032Z" fill="#fff"/><path d="M140.126 138.844c3.31 0 6.457.271 9.279.814h16.604v6.352c-.434 5.483-10.907 11.455-25.883 11.455-14.975 0-25.448-5.972-25.882-11.455v-6.352h16.604c2.876-.489 5.969-.814 9.278-.814Z" fill="url(#L)"/><path d="M140.126 158.224c-15.247 0-25.991-6.134-26.588-11.943 0-.054-.054-.163-.054-.217v-6.352c0-.434.325-.76.76-.76h16.603c2.876-.543 6.023-.814 9.279-.814 3.255 0 6.403.271 9.387.814h16.495c.434 0 .76.326.76.76v6.352c0 .108 0 .163-.055.217-.596 5.809-11.34 11.943-26.587 11.943Zm-25.123-12.377v.108c.38 5.103 10.798 10.749 25.123 10.749 14.325 0 24.743-5.646 25.122-10.749v-5.537h-15.844a52.182 52.182 0 0 0-9.278-.815c-3.147 0-6.24.272-9.116.815h-16.007v5.429Z" fill="#fff"/><path d="M162.806 150.733c-.488.434-1.031.814-1.627 1.248v-12.323h1.627v11.075Zm-30.331-11.292v17.263c-.543-.108-1.085-.162-1.628-.271v-16.775h.109a16.71 16.71 0 0 1 1.519-.217Zm2.767 17.589-1.628-.163v-17.589l1.628-.163v17.915Zm-13.782-3.691a11.7 11.7 0 0 1-1.628-.923v-12.812h1.628v13.735Zm16.549 3.854c-.542 0-1.085-.054-1.627-.108v-18.133c.542-.054 1.085-.054 1.627-.108v18.349Zm-19.316-5.483a21.273 21.273 0 0 1-1.628-1.303v-10.749h1.628v12.052Zm8.301 3.8-1.627-.488v-15.31h1.627v15.798Zm2.714.652c-.543-.109-1.086-.272-1.628-.38v-16.124h1.628v16.504Zm-5.481-1.575-1.628-.651v-14.224h1.628v14.875Zm30.332.543-1.628.489v-15.961h1.628v15.472Zm-11.069 2.009c-.543.054-1.086.054-1.628.054v-18.295c.542 0 1.085.054 1.628.054v18.187Zm-2.713-18.295v18.349h-1.628v-18.349h1.628Zm24.959 7.111c-.108 1.249-.705 2.498-1.79 3.692v-9.989h1.79v6.297Zm-49.811 3.149c-.814-1.031-1.248-2.117-1.356-3.203v-6.297h1.356v9.5Zm44.114 3.583c-.488.326-1.031.597-1.628.869v-13.898h1.628v13.029Zm-13.782 4.18-1.628.163v-17.969l1.628.163v17.643Zm11.015-2.768c-.543.217-1.031.434-1.628.651v-15.092h1.628v14.441Zm-5.48 1.791c-.543.109-1.086.272-1.628.38v-16.612h1.628v16.232Zm-2.768.597c-.542.109-1.085.163-1.628.272v-17.373c.543.055 1.086.163 1.628.272v16.829Z" fill="#ED7B63"/><path d="M140.126 127.389c15.248 0 25.883 6.189 25.883 11.78 0 5.592-10.635 11.781-25.883 11.781-15.247 0-25.882-6.189-25.882-11.781 0-5.591 10.635-11.78 25.882-11.78Z" fill="url(#M)"/><path d="M140.126 151.71c-15.953 0-26.642-6.46-26.642-12.541 0-6.08 10.689-12.54 26.642-12.54 15.952 0 26.642 6.46 26.642 12.54 0 6.081-10.69 12.541-26.642 12.541Zm0-23.561c-14.379 0-25.123 5.809-25.123 11.02 0 5.212 10.744 11.021 25.123 11.021 14.379 0 25.122-5.809 25.122-11.021 0-5.211-10.743-11.02-25.122-11.02Z" fill="#fff"/><path opacity=".25" d="M157.001 147.964c-1.682.706-3.527 1.249-5.534 1.737l-21.325-21.335c2.008-.38 4.178-.706 6.457-.869l20.402 20.467Zm-14.759 2.932c-.705 0-1.356.054-2.061.054-.706 0-1.411 0-2.062-.054l-18.557-18.567a40.622 40.622 0 0 1 2.713-1.466l19.967 20.033Z" fill="#fff"/><path d="M140.126 129.56c3.31 0 6.457.272 9.279.815h16.604v6.351c-.434 5.484-10.907 11.455-25.883 11.455-14.975 0-25.448-5.971-25.882-11.455v-6.351h16.604c2.876-.543 5.969-.815 9.278-.815Z" fill="url(#N)"/><path d="M140.126 148.941c-15.247 0-25.991-6.134-26.588-11.943 0-.055-.054-.163-.054-.218v-6.406c0-.434.325-.76.76-.76h16.603c2.876-.543 6.023-.814 9.279-.814 3.255 0 6.403.271 9.387.814h16.495c.434 0 .76.326.76.76v6.352c0 .109 0 .163-.055.217-.596 5.809-11.34 11.998-26.587 11.998Zm-25.123-12.378v.109c.38 5.103 10.798 10.749 25.123 10.749 14.325 0 24.743-5.646 25.122-10.749v-5.538h-15.844a52.276 52.276 0 0 0-9.278-.814c-3.147 0-6.24.272-9.116.814h-16.007v5.429Z" fill="#fff"/><path d="M162.806 141.449c-.488.435-1.031.815-1.627 1.249v-12.323h1.627v11.074Zm-30.331-11.346v17.264c-.543-.109-1.085-.163-1.628-.271V130.32h.109c.542-.054 1.03-.163 1.519-.217Zm2.767 17.59-1.628-.163v-17.59l1.628-.163v17.916Zm-13.782-3.638a11.5 11.5 0 0 1-1.628-.923V130.32h1.628v13.735Zm16.549 3.801c-.542 0-1.085-.055-1.627-.109v-18.132c.542-.055 1.085-.055 1.627-.109v18.35Zm-19.316-5.484a21.032 21.032 0 0 1-1.628-1.303V130.32h1.628v12.052Zm8.301 3.801-1.627-.489v-15.309h1.627v15.798Zm2.714.705c-.543-.108-1.086-.271-1.628-.38v-16.123h1.628v16.503Zm-5.481-1.628-1.628-.652v-14.223h1.628v14.875Zm30.332.543-1.628.488V130.32h1.628v15.473Zm-11.069 2.008c-.543.055-1.086.055-1.628.055V129.56c.542 0 1.085.055 1.628.055v18.186Zm-2.713-18.241v18.35h-1.628v-18.35h1.628Zm24.959 7.058c-.108 1.248-.705 2.497-1.79 3.691v-9.989h1.79v6.298Zm-49.811 3.203c-.814-1.032-1.248-2.117-1.356-3.203v-6.298h1.356v9.501Zm44.114 3.583c-.488.271-1.031.597-1.628.869v-13.898h1.628v13.029Zm-13.782 4.18-1.628.163v-18.024l1.628.163v17.698Zm11.015-2.823c-.543.217-1.031.434-1.628.652V130.32h1.628v14.441Zm-5.48 1.846c-.543.109-1.086.271-1.628.38v-16.612h1.628v16.232Zm-2.768.543c-.542.108-1.085.163-1.628.271v-17.372c.543.054 1.086.163 1.628.271v16.83Z" fill="#ED7B63"/><path d="M140.126 118.106c15.248 0 25.883 6.189 25.883 11.78 0 5.592-10.635 11.781-25.883 11.781-15.247 0-25.882-6.189-25.882-11.781 0-5.591 10.635-11.78 25.882-11.78Z" fill="url(#O)"/><path d="M140.126 142.373c-15.953 0-26.642-6.461-26.642-12.541 0-6.026 10.689-12.541 26.642-12.541 15.952 0 26.642 6.46 26.642 12.541 0 6.08-10.69 12.541-26.642 12.541Zm0-23.507c-14.379 0-25.123 5.808-25.123 11.02s10.744 11.021 25.123 11.021c14.379 0 25.122-5.809 25.122-11.021 0-5.212-10.743-11.02-25.122-11.02Z" fill="#fff"/><path opacity=".25" d="M157.001 138.627a44.516 44.516 0 0 1-5.534 1.737l-21.325-21.336c2.008-.38 4.178-.705 6.457-.868l20.402 20.467Zm-14.759 2.985c-.705 0-1.356.055-2.061.055-.706 0-1.411 0-2.062-.055l-18.557-18.566a40.622 40.622 0 0 1 2.713-1.466l19.967 20.032Z" fill="#fff"/><path d="M177.133 254.913c3.31 0 6.457.271 9.278.814h16.604v6.352c-.434 5.483-10.906 11.455-25.882 11.455s-25.448-5.972-25.883-11.455v-6.352h16.604c2.822-.543 5.969-.814 9.279-.814Z" fill="url(#P)"/><path d="M177.132 274.294c-15.247 0-25.991-6.135-26.587-11.944 0-.054-.055-.163-.055-.217v-6.352c0-.434.326-.76.76-.76h16.604c2.821-.543 6.023-.814 9.278-.814 3.256 0 6.403.271 9.387.814h16.495c.434 0 .76.326.76.76v6.352c0 .054 0 .163-.054.217-.597 5.755-11.341 11.944-26.588 11.944Zm-25.122-12.378v.108c.379 5.104 10.797 10.75 25.122 10.75s24.743-5.646 25.123-10.75v-5.537h-15.844a52.194 52.194 0 0 0-9.279-.814c-3.147 0-6.24.271-9.116.814H152.01v5.429Z" fill="#fff"/><path d="M199.813 266.802c-.489.434-1.031.814-1.628 1.248v-12.323h1.628v11.075Zm-30.332-11.347v17.264c-.542-.108-1.085-.163-1.628-.271v-16.775h.109c.488-.055 1.031-.109 1.519-.218Zm2.767 17.59-1.627-.163v-17.589l1.627-.163v17.915Zm-13.782-3.637a11.657 11.657 0 0 1-1.628-.923v-12.812h1.628v13.735Zm16.55 3.854c-.543 0-1.085-.054-1.628-.108v-18.133c.543-.054 1.085-.054 1.628-.108v18.349Zm-19.317-5.483a21.47 21.47 0 0 1-1.628-1.303v-10.749h1.628v12.052Zm8.248 3.746-1.628-.489v-15.309h1.628v15.798Zm2.767.706c-.543-.109-1.085-.272-1.628-.38v-16.124h1.628v16.504Zm-5.48-1.629-1.628-.651v-14.224h1.628v14.875Zm30.277.597-1.628.489v-15.961h1.628v15.472Zm-11.015 2.009c-.543.054-1.085.054-1.628.054v-18.295c.543 0 1.085.054 1.628.054v18.187Zm-2.767-18.295v18.349h-1.628v-18.349h1.628Zm24.96 7.111c-.109 1.249-.706 2.498-1.791 3.692v-9.989h1.791v6.297Zm-49.757 3.149c-.814-1.031-1.248-2.117-1.357-3.203v-6.297h1.357v9.5Zm44.113 3.583c-.488.272-1.03.597-1.627.869v-13.898h1.627v13.029Zm-13.782 4.18-1.627.163v-18.024l1.627.163v17.698Zm11.015-2.823c-.542.218-1.031.435-1.628.652v-15.092h1.628v14.44Zm-5.534 1.846c-.543.109-1.086.272-1.628.38v-16.612h1.628v16.232Zm-2.713.597c-.543.109-1.086.163-1.628.272v-17.373c.542.055 1.085.163 1.628.272v16.829Z" fill="#ED7B63"/><path d="M177.133 243.458c15.247 0 25.882 6.188 25.882 11.78s-10.635 11.781-25.882 11.781c-15.247 0-25.882-6.189-25.882-11.781 0-5.592 10.635-11.78 25.882-11.78Z" fill="url(#Q)"/><path d="M177.133 267.779c-15.953 0-26.642-6.46-26.642-12.541 0-6.08 10.689-12.54 26.642-12.54 15.952 0 26.642 6.46 26.642 12.54 0 6.026-10.69 12.541-26.642 12.541Zm0-23.561c-14.379 0-25.123 5.808-25.123 11.02s10.744 11.021 25.123 11.021c14.379 0 25.122-5.809 25.122-11.021 0-5.212-10.743-11.02-25.122-11.02Z" fill="#fff"/><path opacity=".25" d="M194.007 264.033c-1.682.706-3.527 1.249-5.535 1.737l-21.324-21.335c2.007-.38 4.178-.706 6.457-.869l20.402 20.467Zm-14.813 2.932c-.706 0-1.357.054-2.062.054-.706 0-1.411 0-2.062-.054l-18.557-18.567a40.872 40.872 0 0 1 2.713-1.466l19.968 20.033Z" fill="#fff"/><path d="M177.133 245.575c3.31 0 6.457.272 9.278.815h16.604v6.351c-.434 5.484-10.906 11.455-25.882 11.455s-25.448-5.971-25.883-11.455v-6.351h16.604a54.617 54.617 0 0 1 9.279-.815Z" fill="url(#R)"/><path d="M177.132 264.956c-15.247 0-25.991-6.134-26.587-11.943 0-.055-.055-.163-.055-.218v-6.351c0-.435.326-.76.76-.76h16.604c2.821-.543 6.023-.815 9.278-.815 3.256 0 6.403.272 9.387.815h16.495c.434 0 .76.325.76.76v6.351c0 .109 0 .163-.054.218-.597 5.809-11.341 11.943-26.588 11.943Zm-25.122-12.323v.108c.379 5.103 10.797 10.749 25.122 10.749s24.743-5.646 25.123-10.749v-5.537h-15.844a52.193 52.193 0 0 0-9.279-.815c-3.147 0-6.24.272-9.116.815H152.01v5.429Z" fill="#fff"/><path d="M199.813 257.519c-.489.434-1.031.814-1.628 1.248v-12.323h1.628v11.075Zm-30.332-11.347v17.264c-.542-.108-1.085-.163-1.628-.271V246.39h.109c.488-.055 1.031-.163 1.519-.218Zm2.767 17.59-1.627-.163V246.01l1.627-.163v17.915Zm-13.782-3.637a11.758 11.758 0 0 1-1.628-.923V246.39h1.628v13.735Zm16.55 3.8c-.543 0-1.085-.054-1.628-.109v-18.132c.543-.054 1.085-.054 1.628-.109v18.35Zm-19.317-5.483a21.72 21.72 0 0 1-1.628-1.303V246.39h1.628v12.052Zm8.248 3.8-1.628-.489v-15.309h1.628v15.798Zm2.767.706c-.543-.109-1.085-.272-1.628-.38v-16.124h1.628v16.504Zm-5.48-1.629-1.628-.651v-14.224h1.628v14.875Zm30.277.543-1.628.488v-15.96h1.628v15.472Zm-11.015 2.009c-.543.054-1.085.054-1.628.054V245.63c.543 0 1.085.054 1.628.054v18.187Zm-2.767-18.241v18.349h-1.628V245.63h1.031c.217-.055.434 0 .597 0Zm24.96 7.057c-.109 1.249-.706 2.497-1.791 3.692v-9.989h1.791v6.297Zm-49.757 3.203c-.814-1.031-1.248-2.117-1.357-3.203v-6.297h1.357v9.5Zm44.113 3.583c-.488.272-1.03.597-1.627.869v-13.898h1.627v13.029Zm-13.782 4.18-1.627.163v-18.024l1.627.163v17.698Zm11.015-2.823c-.542.218-1.031.435-1.628.652v-15.038h1.628v14.386Zm-5.534 1.792c-.543.108-1.086.271-1.628.38V246.39h1.628v16.232Zm-2.713.597c-.543.109-1.086.163-1.628.272v-17.373c.542.054 1.085.163 1.628.272v16.829Z" fill="#ED7B63"/><path d="M177.133 234.175c15.247 0 25.882 6.189 25.882 11.78 0 5.592-10.635 11.781-25.882 11.781-15.247 0-25.882-6.189-25.882-11.781 0-5.591 10.635-11.78 25.882-11.78Z" fill="url(#S)"/><path d="M177.133 258.442c-15.953 0-26.642-6.461-26.642-12.541 0-6.026 10.689-12.541 26.642-12.541 15.952 0 26.642 6.461 26.642 12.541s-10.69 12.541-26.642 12.541Zm0-23.507c-14.379 0-25.123 5.808-25.123 11.02s10.744 11.021 25.123 11.021c14.379 0 25.122-5.809 25.122-11.021 0-5.212-10.743-11.02-25.122-11.02Z" fill="#fff"/><path opacity=".25" d="M194.007 254.696c-1.682.705-3.527 1.248-5.535 1.737l-21.324-21.336c2.007-.38 4.178-.705 6.457-.868l20.402 20.467Zm-14.813 2.931c-.706 0-1.357.054-2.062.054-.706 0-1.411 0-2.062-.054l-18.557-18.567a40.88 40.88 0 0 1 2.713-1.465l19.968 20.032Z" fill="#fff"/><path d="M177.133 236.292c3.31 0 6.457.271 9.278.814h16.604v6.352c-.434 5.483-10.906 11.455-25.882 11.455s-25.448-5.972-25.883-11.455v-6.352h16.604c2.822-.543 5.969-.814 9.279-.814Z" fill="url(#T)"/><path d="M177.132 255.673c-15.247 0-25.991-6.135-26.587-11.944 0-.054-.055-.163-.055-.217v-6.352c0-.434.326-.76.76-.76h16.604c2.821-.543 6.023-.814 9.278-.814 3.256 0 6.403.271 9.387.814h16.495c.434 0 .76.326.76.76v6.352c0 .054 0 .163-.054.217-.597 5.809-11.341 11.944-26.588 11.944Zm-25.122-12.378v.109c.379 5.103 10.797 10.749 25.122 10.749s24.743-5.646 25.123-10.749v-5.538h-15.844a52.194 52.194 0 0 0-9.279-.814c-3.147 0-6.24.271-9.116.814H152.01v5.429Z" fill="#fff"/><path d="M199.813 248.181c-.489.434-1.031.814-1.628 1.249v-12.324h1.628v11.075Zm-30.332-11.292v17.264c-.542-.109-1.085-.163-1.628-.272v-16.775h.109c.488-.108 1.031-.163 1.519-.217Zm2.767 17.59-1.627-.163v-17.59l1.627-.163v17.916Zm-13.782-3.692a11.657 11.657 0 0 1-1.628-.923v-12.812h1.628v13.735Zm16.55 3.854c-.543 0-1.085-.054-1.628-.108V236.4c.543-.054 1.085-.054 1.628-.108v18.349Zm-19.317-5.483a21.225 21.225 0 0 1-1.628-1.303v-10.749h1.628v12.052Zm8.248 3.746-1.628-.488v-15.31h1.628v15.798Zm2.767.706c-.543-.109-1.085-.271-1.628-.38v-16.124h1.628v16.504Zm-5.48-1.574-1.628-.652V237.16h1.628v14.876Zm30.277.542-1.628.489v-15.961h1.628v15.472Zm-11.015 2.009c-.543.054-1.085.054-1.628.054v-18.295c.543 0 1.085.054 1.628.054v18.187Zm-2.767-18.295v18.404h-1.628v-18.35h1.031c.217-.054.434-.054.597-.054Zm24.96 7.112c-.109 1.248-.706 2.497-1.791 3.691v-9.989h1.791v6.298Zm-49.757 3.148c-.814-1.031-1.248-2.117-1.357-3.203v-6.297h1.357v9.5Zm44.113 3.583c-.488.272-1.03.598-1.627.869v-13.898h1.627v13.029Zm-13.782 4.181-1.627.163v-18.024l1.627.163v17.698Zm11.015-2.769c-.542.217-1.031.434-1.628.651v-15.092h1.628v14.441Zm-5.534 1.792c-.543.108-1.086.271-1.628.38v-16.613h1.628v16.233Zm-2.713.597c-.543.108-1.086.163-1.628.271v-17.372c.542.054 1.085.163 1.628.271v16.83Z" fill="#ED7B63"/><path d="M177.133 224.837c15.247 0 25.882 6.189 25.882 11.781 0 5.591-10.635 11.78-25.882 11.78-15.247 0-25.882-6.189-25.882-11.78 0-5.592 10.635-11.781 25.882-11.781Z" fill="url(#U)"/><path d="M177.133 249.158c-15.953 0-26.642-6.46-26.642-12.54 0-6.026 10.689-12.541 26.642-12.541 15.952 0 26.642 6.46 26.642 12.541 0 6.026-10.69 12.54-26.642 12.54Zm0-23.561c-14.379 0-25.123 5.809-25.123 11.021 0 5.211 10.744 11.02 25.123 11.02 14.379 0 25.122-5.809 25.122-11.02 0-5.212-10.743-11.021-25.122-11.021Z" fill="#fff"/><path opacity=".25" d="M194.007 245.412c-1.682.706-3.527 1.249-5.535 1.738l-21.324-21.336c2.007-.38 4.178-.706 6.457-.868l20.402 20.466Zm-14.813 2.932c-.706 0-1.357.054-2.062.054-.706 0-1.411 0-2.062-.054l-18.557-18.567a41.34 41.34 0 0 1 2.713-1.466l19.968 20.033Z" fill="#fff"/><path d="M177.133 227.008c3.31 0 6.457.272 9.278.815h16.604v6.352c-.434 5.483-10.906 11.454-25.882 11.454s-25.448-5.971-25.883-11.454v-6.352h16.604c2.822-.543 5.969-.815 9.279-.815Z" fill="url(#V)"/><path d="M177.132 246.335c-15.247 0-25.991-6.135-26.587-11.944 0-.054-.055-.162-.055-.217v-6.351c0-.435.326-.761.76-.761h16.604c2.821-.542 6.023-.814 9.278-.814 3.256 0 6.403.272 9.387.814h16.495c.434 0 .76.326.76.761v6.351c0 .055 0 .163-.054.217-.597 5.809-11.341 11.944-26.588 11.944Zm-25.122-12.324v.109c.379 5.103 10.797 10.749 25.122 10.749s24.743-5.646 25.123-10.749v-5.537h-15.844a52.193 52.193 0 0 0-9.279-.815c-3.147 0-6.24.272-9.116.815H152.01v5.428Z" fill="#fff"/><path d="M199.813 238.898c-.489.434-1.031.814-1.628 1.248v-12.323h1.628v11.075Zm-30.332-11.347v17.264c-.542-.109-1.085-.163-1.628-.271v-16.776h.109c.488-.054 1.031-.162 1.519-.217Zm2.767 17.59-1.627-.163v-17.59l1.627-.162v17.915Zm-13.782-3.638a11.654 11.654 0 0 1-1.628-.922v-12.813h1.628v13.735Zm16.55 3.801c-.543 0-1.085-.055-1.628-.109v-18.132c.543-.055 1.085-.055 1.628-.109v18.35Zm-19.317-5.483a21.72 21.72 0 0 1-1.628-1.303v-10.75h1.628v12.053Zm8.248 3.8-1.628-.489v-15.309h1.628v15.798Zm2.767.705c-.543-.108-1.085-.271-1.628-.38v-16.123h1.628v16.503Zm-5.48-1.628-1.628-.652v-14.223h1.628v14.875Zm30.277.543-1.628.488v-15.961h1.628v15.473Zm-11.015 2.008c-.543.055-1.085.055-1.628.055v-18.296c.543 0 1.085.055 1.628.055v18.186Zm-2.767-18.241v18.35h-1.628v-18.35h1.628Zm24.96 7.058c-.109 1.249-.706 2.497-1.791 3.692v-9.99h1.791v6.298Zm-49.757 3.203c-.814-1.032-1.248-2.117-1.357-3.203v-6.298h1.357v9.501Zm44.113 3.583c-.488.326-1.03.597-1.627.869v-13.898h1.627v13.029Zm-13.782 4.18-1.627.163v-18.024l1.627.163v17.698Zm11.015-2.823c-.542.217-1.031.435-1.628.652v-15.093h1.628v14.441Zm-5.534 1.846c-.543.109-1.086.271-1.628.38v-16.612h1.628v16.232Zm-2.713.543c-.543.108-1.086.163-1.628.271v-17.372c.542.054 1.085.163 1.628.271v16.83Z" fill="#ED7B63"/><path d="M177.133 215.554c15.247 0 25.882 6.189 25.882 11.78 0 5.592-10.635 11.781-25.882 11.781-15.247 0-25.882-6.189-25.882-11.781 0-5.591 10.635-11.78 25.882-11.78Z" fill="url(#W)"/><path d="M177.133 239.821c-15.953 0-26.642-6.461-26.642-12.541 0-6.026 10.689-12.541 26.642-12.541 15.952 0 26.642 6.461 26.642 12.541s-10.69 12.541-26.642 12.541Zm0-23.507c-14.379 0-25.123 5.809-25.123 11.02 0 5.212 10.744 11.021 25.123 11.021 14.379 0 25.122-5.809 25.122-11.021 0-5.211-10.743-11.02-25.122-11.02Z" fill="#fff"/><path opacity=".25" d="M194.007 236.075c-1.682.705-3.527 1.248-5.535 1.737l-21.324-21.336c2.007-.38 4.178-.705 6.457-.868l20.402 20.467Zm-14.813 2.986c-.706 0-1.357.054-2.062.054-.706 0-1.411 0-2.062-.054l-18.557-18.567a40.872 40.872 0 0 1 2.713-1.466l19.968 20.033Z" fill="#fff"/><path d="M177.133 216.911c3.31 0 6.457.271 9.278.814h16.604v6.352c-.434 5.483-10.906 11.455-25.882 11.455s-25.448-5.972-25.883-11.455v-6.352h16.604c2.822-.543 5.969-.814 9.279-.814Z" fill="url(#X)"/><path d="M177.132 236.237c-15.247 0-25.991-6.134-26.587-11.943 0-.055-.055-.163-.055-.217v-6.352c0-.435.326-.76.76-.76h16.604c2.875-.543 6.023-.815 9.278-.815 3.256 0 6.403.272 9.387.815h16.495c.434 0 .76.325.76.76v6.352c0 .054 0 .162-.054.217-.597 5.809-11.341 11.943-26.588 11.943Zm-25.122-12.323v.108c.379 5.103 10.797 10.749 25.122 10.749s24.743-5.646 25.123-10.749v-5.537h-15.844a52.651 52.651 0 0 0-9.279-.815c-3.147 0-6.24.272-9.116.815H152.01v5.429Z" fill="#fff"/><path d="M199.813 228.8c-.489.434-1.031.814-1.628 1.248v-12.323h1.628V228.8Zm-30.332-11.347v17.264c-.542-.054-1.085-.163-1.628-.271v-16.721h.109a14.943 14.943 0 0 1 1.519-.272Zm2.767 17.59-1.627-.163v-17.59l1.627-.162v17.915Zm-13.782-3.637a11.758 11.758 0 0 1-1.628-.923V217.67h1.628v13.736Zm16.55 3.8c-.543 0-1.085-.055-1.628-.109v-18.132c.543-.055 1.085-.055 1.628-.109v18.35Zm-19.317-5.483a21.72 21.72 0 0 1-1.628-1.303v-10.75h1.628v12.053Zm8.248 3.8-1.628-.489v-15.309h1.628v15.798Zm2.767.706c-.543-.109-1.085-.272-1.628-.38v-16.124h1.628v16.504Zm-5.48-1.629-1.628-.652v-14.223h1.628V232.6Zm30.277.543-1.628.488V217.67h1.628v15.473Zm-11.015 2.008c-.543.055-1.085.055-1.628.055V216.91c.543 0 1.085.055 1.628.055v18.186Zm-2.767-18.241v18.35h-1.628v-18.35h1.628Zm24.96 7.058c-.109 1.249-.706 2.497-1.791 3.692v-9.99h1.791v6.298Zm-49.757 3.203c-.814-1.031-1.248-2.117-1.357-3.203v-6.298h1.357v9.501Zm44.113 3.583c-.488.326-1.03.597-1.627.869v-13.898h1.627v13.029Zm-13.782 4.18-1.627.163v-18.024l1.627.163v17.698Zm11.015-2.823c-.542.217-1.031.435-1.628.652v-15.038h1.628v14.386Zm-5.534 1.846c-.543.109-1.086.272-1.628.38v-16.612h1.628v16.232Zm-2.713.543c-.543.109-1.086.163-1.628.271v-17.372c.542.054 1.085.163 1.628.271v16.83Z" fill="#ED7B63"/><path d="M177.133 205.456c15.247 0 25.882 6.188 25.882 11.78s-10.635 11.781-25.882 11.781c-15.247 0-25.882-6.189-25.882-11.781 0-5.592 10.635-11.78 25.882-11.78Z" fill="url(#Y)"/><path d="M177.133 229.722c-15.953 0-26.642-6.46-26.642-12.54 0-6.026 10.689-12.541 26.642-12.541 15.952 0 26.642 6.46 26.642 12.541 0 6.08-10.69 12.54-26.642 12.54Zm0-23.507c-14.379 0-25.123 5.809-25.123 11.021 0 5.212 10.744 11.021 25.123 11.021 14.379 0 25.122-5.809 25.122-11.021 0-5.212-10.743-11.021-25.122-11.021Z" fill="#fff"/><path opacity=".25" d="M194.007 225.977c-1.682.706-3.527 1.248-5.535 1.737l-21.324-21.335c2.007-.38 4.178-.706 6.457-.869l20.402 20.467Zm-14.813 2.986c-.706 0-1.357.054-2.062.054-.706 0-1.411 0-2.062-.054l-18.557-18.567a40.872 40.872 0 0 1 2.713-1.466l19.968 20.033Z" fill="#fff"/><path d="M177.133 207.573c3.31 0 6.457.272 9.278.814h16.604v6.352c-.434 5.483-10.906 11.455-25.882 11.455s-25.448-5.972-25.883-11.455v-6.352h16.604a54.723 54.723 0 0 1 9.279-.814Z" fill="url(#Z)"/><path d="M177.132 226.954c-15.247 0-25.991-6.135-26.587-11.998 0-.054-.055-.163-.055-.217v-6.352c0-.434.326-.76.76-.76h16.604c2.821-.543 6.023-.814 9.278-.814 3.256 0 6.403.271 9.387.814h16.495c.434 0 .76.326.76.76v6.352c0 .054 0 .163-.054.217-.597 5.863-11.341 11.998-26.588 11.998Zm-25.122-12.378v.109c.379 5.103 10.797 10.749 25.122 10.749s24.743-5.646 25.123-10.749v-5.538h-15.844a52.194 52.194 0 0 0-9.279-.814c-3.147 0-6.24.271-9.116.814H152.01v5.429Z" fill="#fff"/><path d="M199.813 219.462c-.489.435-1.031.815-1.628 1.249v-12.324h1.628v11.075Zm-30.332-11.292v17.21c-.542-.054-1.085-.163-1.628-.272v-16.775h.109c.488-.054 1.031-.108 1.519-.163Zm2.767 17.59-1.627-.163v-17.59l1.627-.162v17.915Zm-13.782-3.692a11.557 11.557 0 0 1-1.628-.923v-12.812h1.628v13.735Zm16.55 3.855c-.543 0-1.085-.055-1.628-.109v-18.132c.543-.055 1.085-.055 1.628-.109v18.35Zm-19.317-5.483a21.72 21.72 0 0 1-1.628-1.303v-10.75h1.628v12.053Zm8.248 3.8-1.628-.489v-15.309h1.628v15.798Zm2.767.651c-.543-.108-1.085-.271-1.628-.38v-16.124h1.628v16.504Zm-5.48-1.574-1.628-.652v-14.223h1.628v14.875Zm30.277.543-1.628.488v-15.961h1.628v15.473Zm-11.015 2.008c-.543.055-1.085.055-1.628.055v-18.296c.543 0 1.085.055 1.628.055v18.186Zm-2.767-18.295v18.35h-1.628v-18.35h1.628Zm24.96 7.112c-.109 1.249-.706 2.497-1.791 3.692v-9.99h1.791v6.298Zm-49.757 3.149c-.814-1.032-1.248-2.118-1.357-3.203v-6.298h1.357v9.501Zm44.113 3.583c-.488.325-1.03.597-1.627.868v-13.898h1.627v13.03Zm-13.782 4.18-1.627.163v-18.024l1.627.163v17.698Zm11.015-2.769c-.542.217-1.031.435-1.628.652v-15.093h1.628v14.441Zm-5.534 1.792c-.543.108-1.086.271-1.628.38v-16.613h1.628v16.233Zm-2.713.597c-.543.109-1.086.163-1.628.271v-17.372c.542.054 1.085.163 1.628.271v16.83Z" fill="#ED7B63"/><path d="M177.133 196.118c15.247 0 25.882 6.189 25.882 11.781 0 5.591-10.635 11.78-25.882 11.78-15.247 0-25.882-6.189-25.882-11.78 0-5.592 10.635-11.781 25.882-11.781Z" fill="url(#aa)"/><path d="M177.133 220.439c-15.953 0-26.642-6.46-26.642-12.54 0-6.081 10.689-12.541 26.642-12.541 15.952 0 26.642 6.46 26.642 12.541 0 6.026-10.69 12.54-26.642 12.54Zm0-23.561c-14.379 0-25.123 5.809-25.123 11.021 0 5.211 10.744 11.02 25.123 11.02 14.379 0 25.122-5.809 25.122-11.02 0-5.212-10.743-11.021-25.122-11.021Z" fill="#fff"/><path opacity=".25" d="M194.007 216.693c-1.682.706-3.527 1.249-5.535 1.738l-21.324-21.336c2.007-.38 4.178-.706 6.457-.868l20.402 20.466Zm-14.813 2.932c-.706 0-1.357.054-2.062.054-.706 0-1.411 0-2.062-.054l-18.557-18.567a41.34 41.34 0 0 1 2.713-1.466l19.968 20.033Z" fill="#fff"/><path d="M177.133 198.29c3.31 0 6.457.271 9.278.814h16.604v6.352c-.434 5.483-10.906 11.455-25.882 11.455s-25.448-5.972-25.883-11.455v-6.352h16.604c2.822-.543 5.969-.814 9.279-.814Z" fill="url(#ab)"/><path d="M177.132 217.671c-15.247 0-25.991-6.135-26.587-11.944 0-.054-.055-.163-.055-.217v-6.352c0-.434.326-.76.76-.76h16.604c2.875-.543 6.023-.814 9.278-.814 3.256 0 6.403.271 9.387.814h16.495c.434 0 .76.326.76.76v6.352c0 .054 0 .163-.054.217-.597 5.755-11.341 11.944-26.588 11.944Zm-25.122-12.378v.109c.379 5.103 10.797 10.749 25.122 10.749s24.743-5.646 25.123-10.749v-5.538h-15.844a52.65 52.65 0 0 0-9.279-.814c-3.147 0-6.24.271-9.116.814H152.01v5.429Z" fill="#fff"/><path d="M199.813 210.179c-.489.434-1.031.814-1.628 1.249v-12.324h1.628v11.075Zm-30.332-11.346v17.264a17.113 17.113 0 0 1-1.628-.272V199.05h.109c.488-.054 1.031-.109 1.519-.217Zm2.767 17.589-1.627-.163V198.67l1.627-.163v17.915Zm-13.782-3.637a11.557 11.557 0 0 1-1.628-.923V199.05h1.628v13.735Zm16.55 3.8c-.543 0-1.085-.054-1.628-.108v-18.133c.543-.054 1.085-.054 1.628-.108v18.349Zm-19.317-5.483a21.47 21.47 0 0 1-1.628-1.303V199.05h1.628v12.052Zm8.248 3.8-1.628-.488v-15.31h1.628v15.798Zm2.767.706c-.543-.109-1.085-.271-1.628-.38v-16.124h1.628v16.504Zm-5.48-1.629-1.628-.651v-14.224h1.628v14.875Zm30.277.543-1.628.489V199.05h1.628v15.472Zm-11.015 2.009c-.543.054-1.085.054-1.628.054V198.29c.543 0 1.085.054 1.628.054v18.187Zm-2.767-18.241v18.349h-1.628V198.29h1.628Zm24.96 7.057c-.109 1.249-.706 2.498-1.791 3.692v-9.989h1.791v6.297Zm-49.757 3.203c-.814-1.031-1.248-2.117-1.357-3.203v-6.297h1.357v9.5Zm44.113 3.584c-.488.271-1.03.597-1.627.868v-13.898h1.627v13.03Zm-13.782 4.18-1.627.163v-18.024l1.627.163v17.698Zm11.015-2.823c-.542.217-1.031.434-1.628.651V199.05h1.628v14.441Zm-5.534 1.846c-.543.108-1.086.271-1.628.38v-16.613h1.628v16.233Zm-2.713.542c-.543.109-1.086.163-1.628.272v-17.373c.542.055 1.085.163 1.628.272v16.829Z" fill="#ED7B63"/><path d="M177.133 186.835c15.247 0 25.882 6.189 25.882 11.781 0 5.591-10.635 11.78-25.882 11.78-15.247 0-25.882-6.189-25.882-11.78 0-5.592 10.635-11.781 25.882-11.781Z" fill="url(#ac)"/><path d="M177.133 211.102c-15.953 0-26.642-6.46-26.642-12.541 0-6.08 10.689-12.54 26.642-12.54 15.952 0 26.642 6.46 26.642 12.54 0 6.081-10.69 12.541-26.642 12.541Zm0-23.507c-14.379 0-25.123 5.809-25.123 11.02 0 5.212 10.744 11.021 25.123 11.021 14.379 0 25.122-5.809 25.122-11.021 0-5.211-10.743-11.02-25.122-11.02Z" fill="#fff"/><path opacity=".25" d="M194.008 207.356a44.312 44.312 0 0 1-5.535 1.737l-21.324-21.335c2.007-.38 4.178-.706 6.457-.869l20.402 20.467Zm-14.813 2.986c-.706 0-1.357.054-2.062.054-.706 0-1.411 0-2.062-.054l-18.612-18.621a41.124 41.124 0 0 1 2.713-1.466l20.023 20.087Z" fill="#fff"/><path d="M177.133 188.952c3.31 0 6.457.271 9.278.814h16.604v6.352c-.434 5.483-10.906 11.455-25.882 11.455s-25.448-5.972-25.883-11.455v-6.352h16.604a54.723 54.723 0 0 1 9.279-.814Z" fill="url(#ad)"/><path d="M177.132 208.333c-15.247 0-25.991-6.135-26.587-11.943 0-.055-.055-.163-.055-.218v-6.351c0-.435.326-.76.76-.76h16.604c2.821-.543 6.023-.815 9.278-.815 3.256 0 6.403.272 9.387.815h16.495c.434 0 .76.325.76.76v6.351c0 .055 0 .163-.054.218-.597 5.808-11.341 11.943-26.588 11.943Zm-25.122-12.378v.109c.379 5.103 10.797 10.749 25.122 10.749s24.743-5.646 25.123-10.749v-5.538h-15.844a52.194 52.194 0 0 0-9.279-.814c-3.147 0-6.24.271-9.116.814H152.01v5.429Z" fill="#fff"/><path d="M199.813 200.841c-.489.434-1.031.814-1.628 1.249v-12.324h1.628v11.075Zm-30.332-11.292v17.264c-.542-.109-1.085-.163-1.628-.272v-16.775h.109c.488-.108 1.031-.163 1.519-.217Zm2.767 17.59-1.627-.163v-17.59l1.627-.163v17.916Zm-13.782-3.692a11.557 11.557 0 0 1-1.628-.923v-12.812h1.628v13.735Zm16.55 3.854c-.543 0-1.085-.054-1.628-.108V189.06c.543-.054 1.085-.054 1.628-.108v18.349Zm-19.317-5.483a21.225 21.225 0 0 1-1.628-1.303v-10.749h1.628v12.052Zm8.248 3.801-1.628-.489v-15.309h1.628v15.798Zm2.767.651c-.543-.109-1.085-.271-1.628-.38v-16.124h1.628v16.504Zm-5.48-1.574-1.628-.652v-14.223h1.628v14.875Zm30.277.543-1.628.488v-15.961h1.628v15.473Zm-11.015 2.008c-.543.054-1.085.054-1.628.054v-18.295c.543 0 1.085.054 1.628.054v18.187Zm-2.767-18.295v18.349h-1.628v-18.295h1.031c.217-.054.434-.054.597-.054Zm24.96 7.112c-.109 1.248-.706 2.497-1.791 3.691v-9.989h1.791v6.298Zm-49.757 3.203c-.814-1.032-1.248-2.117-1.357-3.203v-6.298h1.357v9.501Zm44.113 3.529c-.488.271-1.03.597-1.627.868v-13.898h1.627v13.03Zm-13.782 4.18-1.627.163v-18.024l1.627.163v17.698Zm11.015-2.769c-.542.217-1.031.434-1.628.652v-15.093h1.628v14.441Zm-5.534 1.792c-.543.108-1.086.271-1.628.38v-16.613h1.628v16.233Zm-2.713.597c-.543.108-1.086.163-1.628.271v-17.372c.542.054 1.085.163 1.628.271v16.83Z" fill="#ED7B63"/><path d="M177.133 177.497c15.247 0 25.882 6.189 25.882 11.781 0 5.591-10.635 11.78-25.882 11.78-15.247 0-25.882-6.189-25.882-11.78 0-5.592 10.635-11.781 25.882-11.781Z" fill="url(#ae)"/><path d="M177.133 201.818c-15.953 0-26.642-6.46-26.642-12.54 0-6.081 10.689-12.541 26.642-12.541 15.952 0 26.642 6.46 26.642 12.541 0 6.08-10.69 12.54-26.642 12.54Zm0-23.561c-14.379 0-25.123 5.809-25.123 11.021 0 5.211 10.744 11.02 25.123 11.02 14.379 0 25.122-5.809 25.122-11.02 0-5.212-10.743-11.021-25.122-11.021Z" fill="#fff"/><path opacity=".25" d="M194.007 198.072c-1.682.706-3.527 1.249-5.535 1.738l-21.324-21.336c2.007-.38 4.178-.706 6.457-.868l20.402 20.466Zm-14.813 2.932c-.706 0-1.357.054-2.062.054-.706 0-1.411 0-2.062-.054l-18.557-18.567a41.34 41.34 0 0 1 2.713-1.466l19.968 20.033Z" fill="#fff"/><defs><linearGradient id="a" x1="103.379" y1="125.161" x2="308.683" y2="125.161" gradientUnits="userSpaceOnUse"><stop stop-color="#D82C53"/><stop offset="1" stop-color="#FF5774"/></linearGradient><linearGradient id="b" x1="89.251" y1="133.918" x2="293.011" y2="133.918" gradientUnits="userSpaceOnUse"><stop stop-color="#FF6279"/><stop offset="1" stop-color="#FFAD60"/></linearGradient><linearGradient id="c" x1="79.932" y1="148.424" x2="272.894" y2="148.424" gradientUnits="userSpaceOnUse"><stop stop-color="#4D5FD1"/><stop offset="1" stop-color="#45D7DE"/></linearGradient><linearGradient id="d" x1="190.871" y1="244.677" x2="242.642" y2="244.677" gradientUnits="userSpaceOnUse"><stop stop-color="#FF6279"/><stop offset="1" stop-color="#FFAD60"/></linearGradient><linearGradient id="e" x1="190.871" y1="235.691" x2="242.642" y2="235.691" gradientUnits="userSpaceOnUse"><stop stop-color="#FF6279"/><stop offset="1" stop-color="#FFAD60"/></linearGradient><linearGradient id="f" x1="190.871" y1="235.369" x2="242.642" y2="235.369" gradientUnits="userSpaceOnUse"><stop stop-color="#FF6279"/><stop offset="1" stop-color="#FFAD60"/></linearGradient><linearGradient id="g" x1="190.871" y1="226.384" x2="242.642" y2="226.384" gradientUnits="userSpaceOnUse"><stop stop-color="#FF6279"/><stop offset="1" stop-color="#FFAD60"/></linearGradient><linearGradient id="h" x1="190.871" y1="226.061" x2="242.642" y2="226.061" gradientUnits="userSpaceOnUse"><stop stop-color="#FF6279"/><stop offset="1" stop-color="#FFAD60"/></linearGradient><linearGradient id="i" x1="190.871" y1="217.075" x2="242.642" y2="217.075" gradientUnits="userSpaceOnUse"><stop stop-color="#FF6279"/><stop offset="1" stop-color="#FFAD60"/></linearGradient><linearGradient id="j" x1="190.871" y1="216.753" x2="242.642" y2="216.753" gradientUnits="userSpaceOnUse"><stop stop-color="#FF6279"/><stop offset="1" stop-color="#FFAD60"/></linearGradient><linearGradient id="k" x1="190.871" y1="207.769" x2="242.642" y2="207.769" gradientUnits="userSpaceOnUse"><stop stop-color="#FF6279"/><stop offset="1" stop-color="#FFAD60"/></linearGradient><linearGradient id="l" x1="200.153" y1="288.171" x2="251.924" y2="288.171" gradientUnits="userSpaceOnUse"><stop stop-color="#FF6279"/><stop offset="1" stop-color="#FFAD60"/></linearGradient><linearGradient id="m" x1="200.152" y1="279.184" x2="251.923" y2="279.184" gradientUnits="userSpaceOnUse"><stop stop-color="#FF6279"/><stop offset="1" stop-color="#FFAD60"/></linearGradient><linearGradient id="n" x1="72.445" y1="284.347" x2="124.216" y2="284.347" gradientUnits="userSpaceOnUse"><stop stop-color="#FF6279"/><stop offset="1" stop-color="#FFAD60"/></linearGradient><linearGradient id="o" x1="72.445" y1="275.36" x2="124.216" y2="275.36" gradientUnits="userSpaceOnUse"><stop stop-color="#FF6279"/><stop offset="1" stop-color="#FFAD60"/></linearGradient><linearGradient id="p" x1="46.559" y1="268.215" x2="98.33" y2="268.215" gradientUnits="userSpaceOnUse"><stop stop-color="#FF6279"/><stop offset="1" stop-color="#FFAD60"/></linearGradient><linearGradient id="q" x1="46.559" y1="259.229" x2="98.33" y2="259.229" gradientUnits="userSpaceOnUse"><stop stop-color="#FF6279"/><stop offset="1" stop-color="#FFAD60"/></linearGradient><linearGradient id="r" x1="114.265" y1="242.822" x2="166.032" y2="242.822" gradientUnits="userSpaceOnUse"><stop stop-color="#FF6279"/><stop offset="1" stop-color="#FFAD60"/></linearGradient><linearGradient id="s" x1="114.265" y1="233.834" x2="166.032" y2="233.834" gradientUnits="userSpaceOnUse"><stop stop-color="#FF6279"/><stop offset="1" stop-color="#FFAD60"/></linearGradient><linearGradient id="t" x1="114.265" y1="233.513" x2="166.032" y2="233.513" gradientUnits="userSpaceOnUse"><stop stop-color="#FF6279"/><stop offset="1" stop-color="#FFAD60"/></linearGradient><linearGradient id="u" x1="114.265" y1="224.528" x2="166.032" y2="224.528" gradientUnits="userSpaceOnUse"><stop stop-color="#FF6279"/><stop offset="1" stop-color="#FFAD60"/></linearGradient><linearGradient id="v" x1="114.265" y1="224.205" x2="166.032" y2="224.205" gradientUnits="userSpaceOnUse"><stop stop-color="#FF6279"/><stop offset="1" stop-color="#FFAD60"/></linearGradient><linearGradient id="w" x1="114.265" y1="215.219" x2="166.032" y2="215.219" gradientUnits="userSpaceOnUse"><stop stop-color="#FF6279"/><stop offset="1" stop-color="#FFAD60"/></linearGradient><linearGradient id="x" x1="114.265" y1="214.897" x2="166.032" y2="214.897" gradientUnits="userSpaceOnUse"><stop stop-color="#FF6279"/><stop offset="1" stop-color="#FFAD60"/></linearGradient><linearGradient id="y" x1="114.265" y1="205.911" x2="166.032" y2="205.911" gradientUnits="userSpaceOnUse"><stop stop-color="#FF6279"/><stop offset="1" stop-color="#FFAD60"/></linearGradient><linearGradient id="z" x1="114.265" y1="204.796" x2="166.032" y2="204.796" gradientUnits="userSpaceOnUse"><stop stop-color="#FF6279"/><stop offset="1" stop-color="#FFAD60"/></linearGradient><linearGradient id="A" x1="114.265" y1="195.811" x2="166.032" y2="195.811" gradientUnits="userSpaceOnUse"><stop stop-color="#FF6279"/><stop offset="1" stop-color="#FFAD60"/></linearGradient><linearGradient id="B" x1="114.265" y1="195.488" x2="166.032" y2="195.488" gradientUnits="userSpaceOnUse"><stop stop-color="#FF6279"/><stop offset="1" stop-color="#FFAD60"/></linearGradient><linearGradient id="C" x1="114.265" y1="186.503" x2="166.032" y2="186.503" gradientUnits="userSpaceOnUse"><stop stop-color="#FF6279"/><stop offset="1" stop-color="#FFAD60"/></linearGradient><linearGradient id="D" x1="114.265" y1="186.18" x2="166.032" y2="186.18" gradientUnits="userSpaceOnUse"><stop stop-color="#FF6279"/><stop offset="1" stop-color="#FFAD60"/></linearGradient><linearGradient id="E" x1="114.265" y1="177.196" x2="166.032" y2="177.196" gradientUnits="userSpaceOnUse"><stop stop-color="#FF6279"/><stop offset="1" stop-color="#FFAD60"/></linearGradient><linearGradient id="F" x1="114.265" y1="176.872" x2="166.032" y2="176.872" gradientUnits="userSpaceOnUse"><stop stop-color="#FF6279"/><stop offset="1" stop-color="#FFAD60"/></linearGradient><linearGradient id="G" x1="114.265" y1="167.888" x2="166.032" y2="167.888" gradientUnits="userSpaceOnUse"><stop stop-color="#FF6279"/><stop offset="1" stop-color="#FFAD60"/></linearGradient><linearGradient id="H" x1="114.265" y1="166.773" x2="166.032" y2="166.773" gradientUnits="userSpaceOnUse"><stop stop-color="#FF6279"/><stop offset="1" stop-color="#FFAD60"/></linearGradient><linearGradient id="I" x1="114.265" y1="157.787" x2="166.032" y2="157.787" gradientUnits="userSpaceOnUse"><stop stop-color="#FF6279"/><stop offset="1" stop-color="#FFAD60"/></linearGradient><linearGradient id="J" x1="114.265" y1="157.465" x2="166.032" y2="157.465" gradientUnits="userSpaceOnUse"><stop stop-color="#FF6279"/><stop offset="1" stop-color="#FFAD60"/></linearGradient><linearGradient id="K" x1="114.265" y1="148.48" x2="166.032" y2="148.48" gradientUnits="userSpaceOnUse"><stop stop-color="#FF6279"/><stop offset="1" stop-color="#FFAD60"/></linearGradient><linearGradient id="L" x1="114.265" y1="148.157" x2="166.032" y2="148.157" gradientUnits="userSpaceOnUse"><stop stop-color="#FF6279"/><stop offset="1" stop-color="#FFAD60"/></linearGradient><linearGradient id="M" x1="114.265" y1="139.171" x2="166.032" y2="139.171" gradientUnits="userSpaceOnUse"><stop stop-color="#FF6279"/><stop offset="1" stop-color="#FFAD60"/></linearGradient><linearGradient id="N" x1="114.265" y1="138.849" x2="166.032" y2="138.849" gradientUnits="userSpaceOnUse"><stop stop-color="#FF6279"/><stop offset="1" stop-color="#FFAD60"/></linearGradient><linearGradient id="O" x1="114.265" y1="129.864" x2="166.032" y2="129.864" gradientUnits="userSpaceOnUse"><stop stop-color="#FF6279"/><stop offset="1" stop-color="#FFAD60"/></linearGradient><linearGradient id="P" x1="151.252" y1="264.216" x2="203.023" y2="264.216" gradientUnits="userSpaceOnUse"><stop stop-color="#FF6279"/><stop offset="1" stop-color="#FFAD60"/></linearGradient><linearGradient id="Q" x1="151.252" y1="255.231" x2="203.024" y2="255.231" gradientUnits="userSpaceOnUse"><stop stop-color="#FF6279"/><stop offset="1" stop-color="#FFAD60"/></linearGradient><linearGradient id="R" x1="151.252" y1="254.908" x2="203.023" y2="254.908" gradientUnits="userSpaceOnUse"><stop stop-color="#FF6279"/><stop offset="1" stop-color="#FFAD60"/></linearGradient><linearGradient id="S" x1="151.252" y1="245.924" x2="203.024" y2="245.924" gradientUnits="userSpaceOnUse"><stop stop-color="#FF6279"/><stop offset="1" stop-color="#FFAD60"/></linearGradient><linearGradient id="T" x1="151.252" y1="245.601" x2="203.023" y2="245.601" gradientUnits="userSpaceOnUse"><stop stop-color="#FF6279"/><stop offset="1" stop-color="#FFAD60"/></linearGradient><linearGradient id="U" x1="151.252" y1="236.616" x2="203.024" y2="236.616" gradientUnits="userSpaceOnUse"><stop stop-color="#FF6279"/><stop offset="1" stop-color="#FFAD60"/></linearGradient><linearGradient id="V" x1="151.252" y1="236.292" x2="203.023" y2="236.292" gradientUnits="userSpaceOnUse"><stop stop-color="#FF6279"/><stop offset="1" stop-color="#FFAD60"/></linearGradient><linearGradient id="W" x1="151.252" y1="227.307" x2="203.024" y2="227.307" gradientUnits="userSpaceOnUse"><stop stop-color="#FF6279"/><stop offset="1" stop-color="#FFAD60"/></linearGradient><linearGradient id="X" x1="151.252" y1="226.193" x2="203.023" y2="226.193" gradientUnits="userSpaceOnUse"><stop stop-color="#FF6279"/><stop offset="1" stop-color="#FFAD60"/></linearGradient><linearGradient id="Y" x1="151.252" y1="217.207" x2="203.024" y2="217.207" gradientUnits="userSpaceOnUse"><stop stop-color="#FF6279"/><stop offset="1" stop-color="#FFAD60"/></linearGradient><linearGradient id="Z" x1="151.252" y1="216.885" x2="203.023" y2="216.885" gradientUnits="userSpaceOnUse"><stop stop-color="#FF6279"/><stop offset="1" stop-color="#FFAD60"/></linearGradient><linearGradient id="aa" x1="151.252" y1="207.899" x2="203.024" y2="207.899" gradientUnits="userSpaceOnUse"><stop stop-color="#FF6279"/><stop offset="1" stop-color="#FFAD60"/></linearGradient><linearGradient id="ab" x1="151.252" y1="207.577" x2="203.023" y2="207.577" gradientUnits="userSpaceOnUse"><stop stop-color="#FF6279"/><stop offset="1" stop-color="#FFAD60"/></linearGradient><linearGradient id="ac" x1="151.252" y1="198.592" x2="203.024" y2="198.592" gradientUnits="userSpaceOnUse"><stop stop-color="#FF6279"/><stop offset="1" stop-color="#FFAD60"/></linearGradient><linearGradient id="ad" x1="151.252" y1="198.271" x2="203.023" y2="198.271" gradientUnits="userSpaceOnUse"><stop stop-color="#FF6279"/><stop offset="1" stop-color="#FFAD60"/></linearGradient><linearGradient id="ae" x1="151.252" y1="189.284" x2="203.024" y2="189.284" gradientUnits="userSpaceOnUse"><stop stop-color="#FF6279"/><stop offset="1" stop-color="#FFAD60"/></linearGradient></defs></svg>